<?xml version="1.0" encoding="utf-8"?>
<!-- Generator: Adobe Illustrator 23.1.0, SVG Export Plug-In . SVG Version: 6.00 Build 0)  -->
<svg version="1.1" id="圖層_1" xmlns="http://www.w3.org/2000/svg" xmlns:xlink="http://www.w3.org/1999/xlink" x="0px" y="0px"
	 viewBox="0 0 30 30" style="enable-background:new 0 0 30 30;" xml:space="preserve">
<style type="text/css">
	.st0{fill-rule:evenodd;clip-rule:evenodd;fill:#EA4335;}
	.st1{fill-rule:evenodd;clip-rule:evenodd;fill:#4285F4;}
	.st2{fill-rule:evenodd;clip-rule:evenodd;fill:#FBBC05;}
	.st3{fill-rule:evenodd;clip-rule:evenodd;fill:#34A853;}
</style>
<g>
	<path class="st0" d="M15,5.8c2.8,0,4.7,1.2,5.8,2.2L25,3.9C22.4,1.5,19,0,15,0C9.1,0,4.1,3.4,1.6,8.3L6.5,12C7.7,8.4,11,5.8,15,5.8
		z"/>
	<path class="st1" d="M29.4,15.3c0-1.2-0.1-2.1-0.3-3.1H15v5.6h8.3c-0.2,1.4-1.1,3.5-3.1,4.9l4.7,3.7C27.8,23.8,29.4,19.9,29.4,15.3
		z"/>
	<path class="st2" d="M6.5,18C6.1,17,6,16,6,15s0.2-2,0.5-3L1.6,8.3c-1,2-1.6,4.3-1.6,6.7c0,2.4,0.6,4.7,1.6,6.7L6.5,18z"/>
	<path class="st3" d="M15,30c4.1,0,7.4-1.3,9.9-3.6l-4.7-3.7c-1.3,0.9-3,1.5-5.2,1.5c-4,0-7.3-2.6-8.5-6.2l-4.8,3.8
		C4.1,26.6,9.1,30,15,30z"/>
</g>
</svg>
