<svg id="coupon" xmlns="http://www.w3.org/2000/svg" width="512" height="286" viewBox="0 0 512 286">
  <path id="패스_2129" data-name="패스 2129" d="M1073.527,628.8h-77.85a17.983,17.983,0,0,1-17.965,18c-.331,0-.655-.032-.982-.05a17.971,17.971,0,0,1-16.984-17.95H582.473a9.99,9.99,0,0,0-9.981,10v266a9.991,9.991,0,0,0,9.981,10H959.746a17.972,17.972,0,0,1,16.984-17.952c.327-.016.651-.048.982-.048a17.982,17.982,0,0,1,17.965,18h77.85a9.992,9.992,0,0,0,9.981-10v-266A9.99,9.99,0,0,0,1073.527,628.8Z" transform="translate(-572.492 -628.802)" fill="#4294ff"/>
  <path id="패스_2128" data-name="패스 2128" d="M775.984,896.8a18,18,0,0,1,18,18h78.018a10,10,0,0,0,10-10v-266a10,10,0,0,0-10-10H793.988a18,18,0,0,1-18,18c-.332,0-.656-.032-.984-.05v250.1C775.328,896.834,775.652,896.8,775.984,896.8Z" transform="translate(-370.009 -628.802)" fill="#2b7fe8"/>
  <line id="선_510" data-name="선 510" y2="207.982" transform="translate(404.223 39.009)" fill="none" stroke="#fff" stroke-width="1" stroke-dasharray="5" opacity="0.3"/>
</svg>
