<svg id="_3-ready_to_download" data-name="3-ready to download" xmlns="http://www.w3.org/2000/svg" width="256" height="143" viewBox="0 0 256 143"  preserveAspectRatio="none">
  <path id="빼기_6" data-name="빼기 6" d="M-3953-497h-45V-640h45a10.011,10.011,0,0,1,10,10v50.273a11.567,11.567,0,0,0-9,11.227,11.567,11.567,0,0,0,9,11.227V-507A10.011,10.011,0,0,1-3953-497Z" transform="translate(4199 640)" fill="#b77ae8"/>
  <g id="사각형_3592" data-name="사각형 3592" transform="translate(1 1)" fill="#fff" stroke="#b77ae8" stroke-width="1">
    <path d="M9,0H199a0,0,0,0,1,0,0V141a0,0,0,0,1,0,0H9a9,9,0,0,1-9-9V9A9,9,0,0,1,9,0Z" stroke="none"/>
    <path d="M9-.5H199.5a0,0,0,0,1,0,0v142a0,0,0,0,1,0,0H9A9.5,9.5,0,0,1-.5,132V9A9.5,9.5,0,0,1,9-.5Z" fill="none"/>
  </g>
</svg>
