<svg xmlns="http://www.w3.org/2000/svg" width="40" height="40"><path data-name="사각형 4080" fill="none" d="M0 0h40v40H0z"/><path data-name="사각형 4081" fill="none" d="M1 1h38v38H1z"/><path data-name="패스 2097" d="M35.001 19.725a3.952 3.952 0 0 0-2.826 1.2 4.031 4.031 0 0 0-3.926-3.289 3.95 3.95 0 0 0-2.858 1.23 4.026 4.026 0 0 0-3.888-3.127 3.939 3.939 0 0 0-2.741 1.117V7.091a4.004 4.004 0 1 0-8.008 0v21.13l-3.162-2.733a3.952 3.952 0 0 0-5.642.478 4.15 4.15 0 0 0 .468 5.759L8.3 36.81l.02.016.064.056.006-.008a.606.606 0 0 0 .36.13.638.638 0 0 0 .631-.644.649.649 0 0 0-.186-.456L3.23 30.747a2.849 2.849 0 0 1-.321-3.954 2.713 2.713 0 0 1 3.874-.328l3.816 3.3.013.01.067.059h.021a.813.813 0 0 0 1.313-.636c0-.022-.01-.04-.012-.062l.01-.009V7.087a2.75 2.75 0 1 1 5.5 0v12.594c0 .047-.007.093-.007.141v3.488a.629.629 0 1 0 1.258-.013v-3.615a2.746 2.746 0 0 1 5.49.141v1.759c0 .046-.007.091-.007.138v3.963h.007a.628.628 0 1 0 1.255-.029v-4.068a2.746 2.746 0 0 1 5.49.138v5.042a.628.628 0 1 0 1.255 0v-2.954a2.75 2.75 0 1 1 5.5 0v12.553a.627.627 0 1 0 1.253 0V23.812a4.051 4.051 0 0 0-4.004-4.087Z" fill="#444"/></svg>