<svg xmlns="http://www.w3.org/2000/svg" width="40" height="40"><path data-name="사각형 4074" fill="none" d="M0 0h40v40H0z"/><path data-name="사각형 4075" fill="none" d="M1 1h38v38H1z"/><g data-name="그룹 7368"><path data-name="패스 2066" d="M20 39a19 19 0 1 1 19-19 19.022 19.022 0 0 1-19 19Zm0-36.348A17.348 17.348 0 1 0 37.348 20 17.368 17.368 0 0 0 20 2.652Z" fill="#222"/><g data-name="그룹 6152"><path data-name="패스 2067" d="M17.748 22.662a5.349 5.349 0 0 1 .6-2.675 8.8 8.8 0 0 1 2.2-2.318 7.443 7.443 0 0 0 1.508-1.44 2.251 2.251 0 0 0 .384-1.3q0-2.167-2.66-2.167a8.754 8.754 0 0 0-4.334 1.372l-1.29-2.66a9.62 9.62 0 0 1 2.771-1.3 10.986 10.986 0 0 1 3.127-.452 6.233 6.233 0 0 1 4.266 1.343 4.757 4.757 0 0 1 1.523 3.76 4.451 4.451 0 0 1-.6 2.359 8.818 8.818 0 0 1-2.2 2.194 9.313 9.313 0 0 0-1.837 1.742 2.789 2.789 0 0 0-.466 1.632q0 .413.082 1.372h-2.99a23.29 23.29 0 0 1-.084-1.462Zm-.493 5.623a1.987 1.987 0 0 1 .549-1.494 2.47 2.47 0 0 1 3.071 0 1.948 1.948 0 0 1 .549 1.467 1.988 1.988 0 0 1-.549 1.5 2.47 2.47 0 0 1-3.071 0 1.953 1.953 0 0 1-.548-1.478Z"/></g></g></svg>