<svg xmlns="http://www.w3.org/2000/svg" width="24" height="24"><defs><clipPath id="a"><path data-name="패스 128" d="M17-639a12 12 0 0 1 12 12 12 12 0 0 1-12 12 12 12 0 0 1-12-12 12 12 0 0 1 12-12Zm6.043 6.153-8.4 8.308-3.972-3.927-1.571 1.549 5.538 5.476 9.968-9.857Z" transform="translate(-5 639)" fill="#2189ff" clip-rule="evenodd"/></clipPath><clipPath id="b"><path data-name="패스 127" d="M3-612.2h28.8V-641H3Z" transform="translate(-3 641)" fill="#2189ff"/></clipPath></defs><g data-name="그룹 5529" clip-path="url(#a)"><g data-name="그룹 5528" transform="translate(-2.4 -2.4)" clip-path="url(#b)"><path data-name="패스 126" d="M-3.6-3.6h36v36h-36Z" fill="#2189ff"/></g></g></svg>