<svg xmlns="http://www.w3.org/2000/svg" width="40" height="40"><path data-name="사각형 4078" fill="none" d="M0 0h40v40H0z"/><path data-name="사각형 4079" fill="none" d="M1 1h38v38H1z"/><g data-name="그룹 8153"><g data-name="그룹 8152" fill="#222"><path data-name="패스 2076" d="M20 39a19 19 0 1 1 19-19 19.022 19.022 0 0 1-19 19Zm0-37.05A18.05 18.05 0 1 0 38.05 20 18.071 18.071 0 0 0 20 1.95Z"/><path data-name="패스 2077" d="M25.24 21.134a5.053 5.053 0 1 1-5.053-5.053c.141 0 .668.008 1.134.021v2.386l3.781-3.781-3.78-3.781v2.3a20.293 20.293 0 0 0-1.134-.036 7.94 7.94 0 1 0 7.94 7.94Z"/></g></g></svg>