<svg id="notification" xmlns="http://www.w3.org/2000/svg" width="14" height="14" viewBox="0 0 14 14">
  <rect id="Container" width="14" height="14" fill="none"/>
  <path id="notification-2" data-name="notification" d="M16.051,5.5a4.033,4.033,0,0,1,4.02,3.865l0,.065v2.634a.608.608,0,0,0,.022.128l.005.016,1.168,2.984a.441.441,0,0,1-.393.612H17.811a1.762,1.762,0,0,1-3.521,0h-3.04a.441.441,0,0,1-.427-.589l.009-.024L12,12.208a.61.61,0,0,0,.026-.127V9.43A4.034,4.034,0,0,1,16.051,5.5ZM17.1,15.806H15a1.053,1.053,0,0,0,2.1.035l0-.035Zm-1.052-9.6a3.326,3.326,0,0,0-3.315,3.182l0,.054v2.623a1.266,1.266,0,0,1-.062.361l-.014.039L11.627,15.1h8.848l-1.031-2.634a1.253,1.253,0,0,1-.071-.314l0-.044V9.449A3.328,3.328,0,0,0,16.051,6.206Z" transform="translate(-8.799 -4.5)"/>
</svg>
