<svg id="phone" xmlns="http://www.w3.org/2000/svg" width="14" height="14" viewBox="0 0 14 14">
  <rect id="Container" width="14" height="14" fill="none"/>
  <path id="phone-2" data-name="phone" d="M26.737,1a1.253,1.253,0,0,1,1.252,1.252v11.5A1.253,1.253,0,0,1,26.737,15H20.752A1.253,1.253,0,0,1,19.5,13.748V2.252A1.253,1.253,0,0,1,20.752,1Zm0,.745H20.752a.508.508,0,0,0-.507.507v11.5a.508.508,0,0,0,.507.507h5.985a.508.508,0,0,0,.507-.507V2.252A.508.508,0,0,0,26.737,1.745ZM24.693,12.468a.372.372,0,0,1,0,.745H22.8a.372.372,0,0,1,0-.745Z" transform="translate(-16.5 -1)"/>
</svg>
