<?xml version="1.0" encoding="utf-8"?>
<!-- Generator: Adobe Illustrator 26.2.1, SVG Export Plug-In . SVG Version: 6.00 Build 0)  -->
<svg version="1.1" id="Layer_1" xmlns="http://www.w3.org/2000/svg" xmlns:xlink="http://www.w3.org/1999/xlink" x="0px" y="0px"
	 viewBox="0 0 25 20" style="enable-background:new 0 0 25 20;" xml:space="preserve">
<style type="text/css">
	.st0{fill:#FFFFFF;stroke:#FFFFFF;stroke-width:0.1;}
</style>
<path id="패스_9" class="st0" d="M25,14.3L23.3,6c-0.1-1.4-1.3-2.5-2.7-2.5h-4.4V1.7c0-0.4-0.3-0.8-0.8-0.8H0.7
	C0.3,0.9,0,1.3,0,1.7v13.9c0,0.4,0.3,0.8,0.8,0.8h1.9c0.2,1.6,1.8,2.8,3.4,2.6c1.3-0.2,2.4-1.2,2.6-2.6h6.4c0.2,1.6,1.8,2.8,3.4,2.6
	c1.2-0.2,2.2-1,2.5-2.2h1.8c0.7,0,1.3-0.2,1.9-0.7C24.9,15.7,25.1,14.9,25,14.3z M23.4,10.5h-4.3c-0.2,0-0.4-0.2-0.4-0.4V7.2
	c0-0.2,0.2-0.4,0.4-0.4h3.6L23.4,10.5z M0.7,1.7h14.6v12.7c-0.2,0.3-0.4,0.7-0.4,1.1H8.7c-0.2-1.6-1.8-2.8-3.4-2.6
	c-1.3,0.2-2.4,1.2-2.6,2.6h-2V1.7z M5.7,18.2c-1.2,0-2.2-1-2.2-2.2c0-1.2,1-2.2,2.2-2.2s2.2,1,2.2,2.2l0,0C8,17.2,6.9,18.2,5.7,18.2
	z M18.1,18.2c-1.2,0-2.2-1-2.2-2.2s1-2.2,2.2-2.2c1.1,0,2.2,1,2.2,2.2l0,0C20.2,17.2,19.3,18.2,18.1,18.2z M23.8,15.6
	c-0.3,0.3-0.8,0.5-1.3,0.4h-1.5c0-1.6-1.3-3-3-3c-0.6,0-1.2,0.2-1.8,0.6V4.3h4.4c0.9,0,1.8,0.8,1.9,1.8H19c-0.6,0-1.2,0.5-1.2,1.2
	v2.9c0,0.6,0.5,1.2,1.2,1.2h4.5l0.6,3.1C24.2,14.8,24.1,15.2,23.8,15.6L23.8,15.6z"/>
</svg>
