<svg id="help" xmlns="http://www.w3.org/2000/svg" width="14" height="14" viewBox="0 0 14 14">
  <rect id="Container" width="14" height="14" fill="none"/>
  <path id="help-2" data-name="help" d="M9,2.5A6.5,6.5,0,1,1,2.5,9,6.5,6.5,0,0,1,9,2.5Zm0,.714A5.786,5.786,0,1,0,14.786,9,5.786,5.786,0,0,0,9,3.214Zm0,8.071a.571.571,0,1,1-.571.571A.571.571,0,0,1,9,11.286ZM9,5.357a1.86,1.86,0,0,1,1.35,3.136l-.035.036-.064.059c-.109.1-.325.3-.408.4a1.769,1.769,0,0,0-.485,1.177v.265H8.643V10.22a2.473,2.473,0,0,1,.666-1.709,4.108,4.108,0,0,1,.3-.3l.167-.153.034-.033a1.144,1.144,0,1,0-1.95-.854v.044H7.143A1.859,1.859,0,0,1,9,5.357Z" transform="translate(-2 -2)"/>
</svg>
