<svg id="Edit" xmlns="http://www.w3.org/2000/svg" width="14" height="14" viewBox="0 0 14 14">
  <rect id="Container" width="14" height="14" fill="none"/>
  <path id="Edit-2" data-name="Edit" d="M13.033,4.948a.487.487,0,0,1,.666-.02l.021.02,2.943,2.943a.487.487,0,0,1,.02.667l-.02.021-7.129,7.13a.919.919,0,0,1-.37.214l-.032.008-3.795.864a.426.426,0,0,1-.525-.5l0-.024.864-3.793a.919.919,0,0,1,.2-.378l.023-.024ZM6.252,13.1l-.666,2.923,2.92-.664Zm7.124-7.515L6.548,12.415l2.646,2.65,6.83-6.831Z" transform="translate(-3.805 -3.807)"/>
</svg>
