<svg id="find-order" xmlns="http://www.w3.org/2000/svg" width="14" height="14" viewBox="0 0 14 14">
  <rect id="Container" width="14" height="14" fill="none"/>
  <path id="find-order-2" data-name="find-order" d="M11.193,9.282a2.309,2.309,0,0,1,2.3,2.3v.051l0,.051a2.284,2.284,0,0,1-.411,1.21l-.033.047,1.322,1.322-.493.493-1.322-1.322a2.288,2.288,0,0,1-2.637.059,2.314,2.314,0,0,1-.54-.508,2.3,2.3,0,0,1,1.818-3.7Zm-3.7-7.324a.487.487,0,0,1,.41-.013l.028.013,5.932,3,.013.009.015.007A.3.3,0,0,1,13.916,5a.347.347,0,0,1,.03.025.268.268,0,0,1,.024.028l.011.015c.007.01.015.018.021.029a.349.349,0,0,1,.025.058l.01.026a.36.36,0,0,1,.011.06V10.68A2.992,2.992,0,0,0,13.4,9.563l-.049-.052V5.822l-5.3,2.562v5.269l.688-.348a3.02,3.02,0,0,0,.424.482l.06.054-1.363.69-.014.006-.029.009c-.009,0-.018.008-.027.01a.326.326,0,0,1-.175,0l-.027-.01-.029-.009-.014-.006-5.919-3a.482.482,0,0,1-.265-.4V5.267a.339.339,0,0,1,.013-.091.254.254,0,0,1,.01-.026.345.345,0,0,1,.025-.058l.01-.015.011-.014A.36.36,0,0,1,1.47,5.02.344.344,0,0,1,1.5,5l.019-.016.01-.008.016-.007.013-.009,5.932-3ZM2.063,5.822v5.149l5.3,2.681V8.384Zm9.13,4.157a1.6,1.6,0,1,0,1.572,1.29,1.6,1.6,0,0,0-1.572-1.29ZM4.715,4.141,2.5,5.26,7.708,7.778,9.972,6.683,4.715,4.141ZM7.708,2.628,5.5,3.745,10.772,6.3,12.915,5.26Z" transform="translate(-0.866 -1.405)"/>
</svg>
