<svg id="customer-service" xmlns="http://www.w3.org/2000/svg" width="14" height="14" viewBox="0 0 14 14">
  <rect id="Container" width="14" height="14" fill="none"/>
  <path id="customer-service-2" data-name="customer-service" d="M11.685,3.5a6.2,6.2,0,0,1,6.184,6.112V13.56a1.382,1.382,0,0,1-1.064,1.345,1.966,1.966,0,0,1-1.874,1.546H13.286a1.966,1.966,0,0,1-1.964-1.922v-.275a.728.728,0,0,1,.114-1.44H11.9a.728.728,0,0,1,.146,1.441v.23a1.238,1.238,0,0,0,1.2,1.239h1.638a1.238,1.238,0,0,0,1.174-.848,1.383,1.383,0,0,1-.955-1.274V10.65a1.383,1.383,0,0,1,2.03-1.222,5.456,5.456,0,0,0-10.9,0,1.383,1.383,0,0,1,2.03,1.182v2.95a1.384,1.384,0,0,1-1.3,1.38l-.039,0H6.883A1.383,1.383,0,0,1,5.5,13.6V9.715A6.2,6.2,0,0,1,11.685,3.5ZM6.883,10a.655.655,0,0,0-.654.624v2.941a.654.654,0,0,0,.618.654h.059a.655.655,0,0,0,.631-.623V10.65A.655.655,0,0,0,6.883,10Zm9.6,0a.655.655,0,0,0-.654.624v2.941a.654.654,0,0,0,.619.654h.059a.655.655,0,0,0,.631-.623V10.65A.655.655,0,0,0,16.487,10Zm-4.8-.728a.509.509,0,1,1-.509.509A.509.509,0,0,1,11.685,9.268Zm1.892,0a.509.509,0,1,1-.509.509A.509.509,0,0,1,13.577,9.268Zm-3.784,0a.509.509,0,1,1-.509.509A.509.509,0,0,1,9.793,9.268Z" transform="translate(-4.5 -2.499)"/>
</svg>
