<svg id="hmf_ico_pin" xmlns="http://www.w3.org/2000/svg" width="26" height="26" viewBox="0 0 26 26">
  <rect id="area_ic" width="26" height="26" fill="none"/>
  <g id="ic_pin" transform="translate(4.502 4.001)">
    <g id="path" transform="translate(-4.766 -4.75)" fill="none">
      <path d="M18.435,3.749a.8.8,0,0,1,.531.2.708.708,0,0,1,.241.518,6.491,6.491,0,0,1-1.534,3.171l.463,4.6c3.4,2.1,4.118,7.5,4.118,7.681a.7.7,0,0,1-.175.582,1.456,1.456,0,0,1-.587.252H5.032a.814.814,0,0,1-.587-.252.726.726,0,0,1-.175-.582c0-.194.762-5.577,4.118-7.671L8.83,7.638A6.528,6.528,0,0,1,7.338,4.468.751.751,0,0,1,8.11,3.75H18.435Z" stroke="none"/>
      <path d="M 9.108259201049805 5.249979019165039 C 9.31352424621582 5.757780075073242 9.603851318359375 6.235347747802734 9.969770431518555 6.662630081176758 L 10.38459014892578 7.147008895874023 L 10.32357978820801 7.781808853149414 L 9.880939483642578 12.3876895904541 L 9.810110092163086 13.12467956542969 L 9.18202018737793 13.51668930053711 C 7.840660095214844 14.35387897491455 7.0035400390625 15.9575891494751 6.537490844726563 17.15551948547363 C 6.218252182006836 17.97608375549316 6.021810531616211 18.72297286987305 5.907007217407227 19.24939918518066 L 20.62165260314941 19.24939918518066 C 20.50971603393555 18.7224235534668 20.31716918945313 17.97432899475098 20.00234031677246 17.15703964233398 C 19.54022979736328 15.95739936828613 18.7043399810791 14.35081958770752 17.34642028808594 13.50967884063721 L 16.71797943115234 13.12040901184082 L 16.64385986328125 12.38490962982178 L 16.18066024780273 7.788728713989258 L 16.1151008605957 7.138219833374023 L 16.54701042175293 6.64739990234375 C 16.91789627075195 6.225925445556641 17.21346282958984 5.753578186035156 17.4241943359375 5.249979019165039 L 9.108259201049805 5.249979019165039 M 18.43490028381348 3.749399185180664 C 18.63220024108887 3.749399185180664 18.82250022888184 3.820629119873047 18.96619987487793 3.94904899597168 C 19.11750030517578 4.084188461303711 19.20429992675781 4.271188735961914 19.20689964294434 4.467529296875 C 19.00329971313477 5.633918762207031 18.47389984130859 6.728288650512695 17.67309951782227 7.63831901550293 L 18.13629913330078 12.23449897766113 C 21.53330039978027 14.33869934082031 22.2539005279541 19.73130035400391 22.2539005279541 19.91549873352051 C 22.28800010681152 20.12419891357422 22.22410011291504 20.33649826049805 22.07889938354492 20.49729919433594 C 21.93219947814941 20.65739822387695 21.49290084838867 20.74939918518066 21.49209976196289 20.74939918518066 L 5.03196907043457 20.74939918518066 C 4.807279586791992 20.74749946594238 4.594020843505859 20.65589904785156 4.445199966430664 20.49729919433594 C 4.303529739379883 20.3346996307373 4.240119934082031 20.12389945983887 4.270200729370117 19.91549873352051 C 4.270200729370117 19.72159957885742 5.031959533691406 14.33869934082031 8.387819290161133 12.2441987991333 L 8.830459594726563 7.63831901550293 C 8.046510696411133 6.722898483276367 7.531770706176758 5.629459381103516 7.33782958984375 4.467588424682617 C 7.343420028686523 4.069738388061523 7.687410354614258 3.749979019165039 8.109880447387695 3.749979019165039 L 18.40390014648438 3.749979019165039 C 18.41429901123047 3.749589920043945 18.42459869384766 3.749399185180664 18.43490028381348 3.749399185180664 Z" stroke="none" fill="#2188ff"/>
    </g>
    <line id="line" y2="4" transform="translate(8.498 15.999)" fill="none" stroke="#2188ff" stroke-linecap="round" stroke-width="1.5"/>
  </g>
</svg>
