<svg id="hmf_chk_like" xmlns="http://www.w3.org/2000/svg" width="26" height="26" viewBox="0 0 26 26">
  <rect id="area_ic" width="26" height="26" fill="rgba(255,255,255,0)"/>
  <g id="ic_thumb" transform="translate(1.5 3.013)">
    <g id="path" transform="translate(-2.8 -2.713)" fill="none">
      <path d="M3.486,9.7H6.851a1.844,1.844,0,0,1,1.449,2v9a1.844,1.844,0,0,1-1.449,2H3.486a.94.94,0,0,1-.686-1V10.6A.815.815,0,0,1,3.486,9.7Z" stroke="none"/>
      <path d="M 4.299997806549072 11.20000076293945 L 4.299997806549072 21.20000076293945 L 6.66579008102417 21.20000076293945 C 6.718050003051758 21.12722396850586 6.800236701965332 20.96163558959961 6.79998779296875 20.70000076293945 L 6.79998779296875 11.69857025146484 C 6.800236701965332 11.43805122375488 6.71805477142334 11.2727222442627 6.665794849395752 11.20000076293945 L 4.299997806549072 11.20000076293945 M 3.486437797546387 9.700000762939453 L 6.850837707519531 9.700000762939453 C 7.66337776184082 9.753330230712891 8.301008224487305 10.63330078125 8.29998779296875 11.70000076293945 L 8.29998779296875 20.70000076293945 C 8.301008224487305 21.76670074462891 7.66337776184082 22.64670181274414 6.850837707519531 22.70000076293945 L 3.486437797546387 22.70000076293945 C 3.095237731933594 22.64850044250488 2.798027992248535 22.21549987792969 2.799997329711914 21.70000076293945 L 2.799997329711914 10.60000038146973 C 2.799997329711914 10.10290145874023 3.107327461242676 9.700000762939453 3.486437797546387 9.700000762939453 Z" stroke="none" fill="#000"/>
    </g>
    <g id="path-2" data-name="path" transform="translate(-3.199 -2.7)" fill="none">
      <path d="M17.7,2.687a1.088,1.088,0,0,1,.646.212,6.783,6.783,0,0,1,1.49,2,1.908,1.908,0,0,1,.2,1.3l-.7,3.5h4.372l.107,0a2.874,2.874,0,0,1,2.071.883,2.908,2.908,0,0,1,.8,2.217v1a2.109,2.109,0,0,1-.3,1.2l-2.683,6.2a3.077,3.077,0,0,1-2.583,1.5H12.979a3.289,3.289,0,0,1-3.279-3.3V11.495a2.706,2.706,0,0,1,.894-2.1l6.459-6.5A1.088,1.088,0,0,1,17.7,2.687Z" stroke="none"/>
      <path d="M 17.68352890014648 4.393230438232422 L 11.65798568725586 10.45338535308838 L 11.62817573547363 10.48336601257324 L 11.59672546386719 10.51162528991699 C 11.33275413513184 10.74876594543457 11.18786430358887 11.08962535858154 11.1992244720459 11.44682598114014 L 11.19998550415039 11.47065544128418 L 11.19998550415039 11.4944953918457 L 11.19998550415039 19.38949584960938 C 11.19998550415039 20.3808650970459 11.99809455871582 21.1873950958252 12.97909545898438 21.1873950958252 L 21.11120986938477 21.1873950958252 C 21.62539482116699 21.1745777130127 22.09308624267578 20.91510391235352 22.37953948974609 20.4874267578125 L 25.01699447631836 14.39627552032471 L 25.05659484863281 14.3048152923584 L 25.10794448852539 14.21939563751221 C 25.17064476013184 14.11512565612793 25.20031547546387 13.99547576904297 25.19376373291016 13.87340545654297 L 25.19160461425781 13.83322525024414 L 25.19160461425781 13.79299545288086 L 25.19160461425781 12.79359531402588 L 25.19160461425781 12.74155521392822 L 25.19521522521973 12.68963527679443 C 25.22278594970703 12.29275512695313 25.08119583129883 11.901535987854 24.80675506591797 11.61628532409668 C 24.54831504821777 11.34766578674316 24.1876049041748 11.19360542297363 23.81710433959961 11.19360542297363 C 23.8001651763916 11.19360542297363 23.78319549560547 11.19391536712646 23.76615524291992 11.19454574584961 L 23.73838424682617 11.19557571411133 L 23.71059417724609 11.19557571411133 L 19.3384952545166 11.19558525085449 L 17.51081466674805 11.19558525085449 L 17.86730575561523 9.40301513671875 L 18.5638542175293 5.900455474853516 C 18.58305549621582 5.805536270141602 18.56807518005371 5.706905364990234 18.52167510986328 5.622745513916016 L 18.4867057800293 5.559305191040039 L 18.45801544189453 5.492795944213867 C 18.33840560913086 5.215543746948242 18.1589298248291 4.926469802856445 17.68352890014648 4.393230438232422 M 17.69899559020996 2.687406539916992 C 17.92580413818359 2.687406539916992 18.15259552001953 2.75822639465332 18.34490585327148 2.89985466003418 C 19.2134952545166 3.810785293579102 19.58699417114258 4.323036193847656 19.83530426025391 4.898595809936523 C 20.05330467224121 5.294055938720703 20.12369537353516 5.754735946655273 20.03409576416016 6.197786331176758 L 19.3384952545166 9.695585250854492 L 23.71059417724609 9.695575714111328 C 23.7462043762207 9.694255828857422 23.78169631958008 9.693605422973633 23.81710433959961 9.693605422973633 C 24.59609603881836 9.693605422973633 25.34390640258789 10.01109600067139 25.8876953125 10.57629585266113 C 26.45630645751953 11.16729545593262 26.74859619140625 11.97329521179199 26.69160461425781 12.79359531402588 L 26.69160461425781 13.79299545288086 C 26.71419525146484 14.21379566192627 26.61029434204102 14.63169574737549 26.39349365234375 14.99229526519775 L 23.71059417724609 21.18839645385742 C 23.16340637207031 22.10199546813965 22.18740463256836 22.66829490661621 21.12709426879883 22.6873950958252 L 12.97909545898438 22.6873950958252 C 11.16809463500977 22.6873950958252 9.699985504150391 21.21089553833008 9.699985504150391 19.38949584960938 L 9.699985504150391 11.4944953918457 C 9.674604415893555 10.69629573822021 10.00209426879883 9.927765846252441 10.59429550170898 9.39576530456543 L 17.05310440063477 2.89985466003418 C 17.24539566040039 2.75822639465332 17.47220420837402 2.687406539916992 17.69899559020996 2.687406539916992 Z" stroke="none" fill="#000"/>
    </g>
  </g>
</svg>
