<svg id="ic_warning" xmlns="http://www.w3.org/2000/svg" width="38" height="34" viewBox="0 0 38 34">
  <g id="path" transform="translate(-3.941 -6)" fill="#fff" stroke-miterlimit="10">
    <path d="M 38.94601440429688 38.75000381469727 L 6.936763286590576 38.75000381469727 C 6.304033279418945 38.75000381469727 5.757213592529297 38.43276596069336 5.436503410339355 37.87963485717773 C 5.113113403320313 37.32187652587891 5.111273288726807 36.65485382080078 5.431573390960693 36.0953369140625 L 21.4362735748291 8.12944507598877 C 21.75619316101074 7.570595264434814 22.30481338500977 7.25000524520874 22.94138336181641 7.25000524520874 C 23.57795333862305 7.25000524520874 24.12657356262207 7.570595264434814 24.44657325744629 8.129574775695801 L 40.45112228393555 36.09519577026367 C 40.77150344848633 36.65484619140625 40.7696533203125 37.32187652587891 40.44626235961914 37.87963485717773 C 40.12555313110352 38.43276596069336 39.57873153686523 38.75000381469727 38.94601440429688 38.75000381469727 Z" stroke="none"/>
    <path d="M 22.94138336181641 8.499996185302734 C 22.75763893127441 8.499996185302734 22.6162052154541 8.584308624267578 22.52117156982422 8.750331878662109 L 6.516395568847656 36.71633148193359 C 6.389328002929688 36.93832015991211 6.447071075439453 37.13050842285156 6.51788330078125 37.25265502929688 C 6.613048553466797 37.41678619384766 6.753982543945313 37.50000762939453 6.936759948730469 37.50000762939453 L 38.94600677490234 37.50000762939453 C 39.1287841796875 37.50000762939453 39.26971817016602 37.41678619384766 39.36488342285156 37.25265502929688 C 39.43569564819336 37.13050842285156 39.49343872070313 36.93832015991211 39.36621856689453 36.7160758972168 L 23.36174964904785 8.750587463378906 C 23.26656150817871 8.584308624267578 23.1251277923584 8.499996185302734 22.94138336181641 8.499996185302734 M 22.94138336181641 5.999996185302734 C 23.94852828979492 5.999996185302734 24.9556713104248 6.502853393554688 25.53139495849609 7.508563995361328 L 41.53601837158203 35.47430801391602 C 42.68746185302734 37.48573303222656 41.24890518188477 40.00000762939453 38.94600677490234 40.00000762939453 L 6.936759948730469 40.00000762939453 C 4.633861541748047 40.00000762939453 3.195304870605469 37.48573303222656 4.346748352050781 35.47430801391602 L 20.35137176513672 7.508563995361328 C 20.92709541320801 6.502853393554688 21.93423843383789 5.999996185302734 22.94138336181641 5.999996185302734 Z" stroke="none" fill="#ef3434"/>
  </g>
  <g id="ractangle" transform="translate(17.5 11.5)" fill="none" stroke="#ef3434" stroke-miterlimit="10" stroke-width="2.5">
    <rect width="3" height="11.5" stroke="none"/>
    <rect x="1.25" y="1.25" width="0.5" height="9" fill="none"/>
  </g>
  <g id="ractangle-2" data-name="ractangle" transform="translate(17.5 25.5)" fill="none" stroke="#ef3434" stroke-miterlimit="10" stroke-width="2.5">
    <rect width="3" height="3" stroke="none"/>
    <rect x="1.25" y="1.25" width="0.5" height="0.5" fill="none"/>
  </g>
</svg>
