<svg id="ic_bell" xmlns="http://www.w3.org/2000/svg" width="72" height="72" viewBox="0 0 72 72">
  <g id="area_ic" fill="#fff" stroke="#000" stroke-miterlimit="10" stroke-width="2">
    <circle cx="36" cy="36" r="36" stroke="none"/>
    <circle cx="36" cy="36" r="35" fill="none"/>
  </g>
  <g id="ic_bell-2" data-name="ic_bell" transform="translate(-430.713 -96.229)">
    <g id="path" transform="translate(0 0)" fill="none" stroke-miterlimit="10">
      <path d="M478.269,143.229H455.158a1.48,1.48,0,0,1-1.444-1.513V140.2a1.55,1.55,0,0,1,.423-1.07l1.946-2.04a1.913,1.913,0,0,0,.52-1.313v-6.171c0-5.1,2.515-9.165,6.5-10.691a3.611,3.611,0,1,1,7.219,0c3.987,1.523,6.5,5.592,6.5,10.691v6.171a1.918,1.918,0,0,0,.518,1.313h0l1.946,2.04a1.556,1.556,0,0,1,.423,1.07v1.513A1.48,1.48,0,0,1,478.269,143.229Z" stroke="none"/>
      <path d="M 477.7130432128906 141.22900390625 L 477.7130432128906 140.3768920898438 L 476.48779296875 139.0921325683594 L 476.4869995117188 139.0921325683594 L 475.8961181640625 138.4732208251953 C 475.2148742675781 137.7597045898438 474.8241882324219 136.7776641845703 474.8241882324219 135.7789001464844 L 474.8241882324219 129.6080169677734 C 474.8241882324219 127.4821014404297 474.3184509277344 125.5305557250977 473.3616943359375 123.9643325805664 C 472.4519958496094 122.4751739501953 471.1542358398438 121.3758773803711 469.6087646484375 120.785270690918 L 468.3555603027344 120.3063659667969 L 468.3233032226563 118.9651565551758 C 468.3002624511719 118.0078430175781 467.5779113769531 117.2290115356445 466.7130432128906 117.2290115356445 C 465.8475036621094 117.2290115356445 465.1251525878906 118.0072326660156 465.102783203125 118.9637832641602 L 465.0714416503906 120.3050765991211 L 463.8184814453125 120.7848129272461 C 462.2724609375 121.3767623901367 460.9743347167969 122.4769973754883 460.0643920898438 123.9665451049805 C 459.1076354980469 125.5327529907227 458.6019287109375 127.4835433959961 458.6019287109375 129.6080169677734 L 458.6019287109375 135.7789001464844 C 458.6019287109375 136.7782135009766 458.2107849121094 137.7599182128906 457.5286254882813 138.4730682373047 L 455.7130432128906 140.3768920898438 L 455.7130432128906 141.22900390625 L 477.7130432128906 141.22900390625 M 478.2685852050781 143.22900390625 L 455.1575317382813 143.22900390625 C 454.3601684570313 143.22900390625 453.7130432128906 142.5523681640625 453.7130432128906 141.7158813476563 L 453.7130432128906 140.2027587890625 C 453.7130432128906 139.8015289306641 453.8647155761719 139.4165954589844 454.1362609863281 139.13232421875 L 456.0819091796875 137.0921325683594 C 456.4126892089844 136.7471618652344 456.6019287109375 136.2674713134766 456.6019287109375 135.7789001464844 L 456.6019287109375 129.6080169677734 C 456.6019287109375 124.5120162963867 459.1167297363281 120.443473815918 463.1033325195313 118.9170455932617 C 463.1510620117188 116.8753967285156 464.75146484375 115.2290115356445 466.7130432128906 115.2290115356445 C 468.6731262207031 115.2290115356445 470.2735900878906 116.8753967285156 470.3227233886719 118.9170455932617 C 474.3092956542969 120.4405136108398 476.8241882324219 124.5090408325195 476.8241882324219 129.6080169677734 L 476.8241882324219 135.7789001464844 C 476.8241882324219 136.2674713134766 477.0133361816406 136.7471618652344 477.3426818847656 137.0921325683594 L 477.3441467285156 137.0921325683594 L 479.2898254394531 139.13232421875 C 479.5599060058594 139.4165954589844 479.7130432128906 139.8015289306641 479.7130432128906 140.2027587890625 L 479.7130432128906 141.7158813476563 C 479.7130432128906 142.5523681640625 479.0659484863281 143.22900390625 478.2685852050781 143.22900390625 Z" stroke="none" fill="#000"/>
    </g>
    <line id="line" x2="8" transform="translate(462.713 146.229)" fill="none" stroke="#000" stroke-linecap="round" stroke-width="2"/>
  </g>
</svg>
