<svg id="hmf_ico_pin_on" xmlns="http://www.w3.org/2000/svg" width="26" height="26" viewBox="0 0 26 26">
  <rect id="area_ic" width="26" height="26" fill="rgba(0,0,0,0)"/>
  <g id="ic_pin" transform="translate(4.502 4.001)">
    <g id="path" transform="translate(-4.766 -4.75)" fill="#2188ff">
      <path d="M 21.40296173095703 19.99939918518066 L 5.036618709564209 19.99939918518066 C 5.029085159301758 19.99919700622559 5.022253513336182 19.99808883666992 5.016284465789795 19.99648284912109 L 5.020200252532959 19.9693489074707 L 5.020200252532959 19.94197654724121 C 5.04499626159668 19.7000732421875 5.25450325012207 18.40610694885254 5.814650058746338 16.94539833068848 C 6.323170185089111 15.619309425354 7.251279830932617 13.83763885498047 8.784919738769531 12.88044929504395 L 9.098970413208008 12.68443965911865 L 9.134380340576172 12.31594944000244 L 9.577019691467285 7.710069179534912 L 9.60752010345459 7.392669200897217 L 9.400119781494141 7.150479316711426 C 8.741385459899902 6.381272315979004 8.295891761779785 5.467887878417969 8.105910301208496 4.500073432922363 C 8.107185363769531 4.500011920928955 8.10850715637207 4.499979019165039 8.109880447387695 4.499979019165039 L 18.40390014648438 4.499979019165039 L 18.41795921325684 4.499979019165039 L 18.43201065063477 4.499449253082275 C 18.43209457397461 4.499448776245117 18.43218040466309 4.499448776245117 18.43226432800293 4.499448776245117 C 18.43407249450684 4.499448776245117 18.43581771850586 4.49950122833252 18.43749809265137 4.499597549438477 C 18.23863983154297 5.468733787536621 17.78176498413086 6.379530429840088 17.11005973815918 7.142858982086182 L 16.89410018920898 7.388268947601318 L 16.9268798828125 7.713519096374512 L 17.39007949829102 12.30969905853271 L 17.42713928222656 12.67745876312256 L 17.74135971069336 12.87208938598633 C 20.77579879760742 14.75171089172363 21.47005462646484 19.67451286315918 21.5039005279541 19.94439315795898 L 21.5039005279541 19.96832656860352 C 21.47246360778809 19.97914886474609 21.43713760375977 19.99005889892578 21.40296173095703 19.99939918518066 Z" stroke="none"/>
      <path d="M 9.108259201049805 5.249979019165039 C 9.31352424621582 5.757780075073242 9.603851318359375 6.235347747802734 9.969770431518555 6.662630081176758 L 10.38459014892578 7.147008895874023 L 10.32357978820801 7.781808853149414 L 9.880939483642578 12.3876895904541 L 9.810110092163086 13.12467956542969 L 9.18202018737793 13.51668930053711 C 7.840660095214844 14.35387897491455 7.0035400390625 15.9575891494751 6.537490844726563 17.15551948547363 C 6.218252182006836 17.97608375549316 6.021810531616211 18.72297286987305 5.907007217407227 19.24939918518066 L 20.62165260314941 19.24939918518066 C 20.50971603393555 18.7224235534668 20.31716918945313 17.97432899475098 20.00234031677246 17.15703964233398 C 19.54022979736328 15.95739936828613 18.7043399810791 14.35081958770752 17.34642028808594 13.50967884063721 L 16.71797943115234 13.12040901184082 L 16.64385986328125 12.38490962982178 L 16.18066024780273 7.788728713989258 L 16.1151008605957 7.138219833374023 L 16.54701042175293 6.64739990234375 C 16.91789627075195 6.225925445556641 17.21346282958984 5.753578186035156 17.4241943359375 5.249979019165039 L 9.108259201049805 5.249979019165039 M 18.43490028381348 3.749399185180664 C 18.63220024108887 3.749399185180664 18.82250022888184 3.820629119873047 18.96619987487793 3.94904899597168 C 19.11750030517578 4.084188461303711 19.20429992675781 4.271188735961914 19.20689964294434 4.467529296875 C 19.00329971313477 5.633918762207031 18.47389984130859 6.728288650512695 17.67309951782227 7.63831901550293 L 18.13629913330078 12.23449897766113 C 21.53330039978027 14.33869934082031 22.2539005279541 19.73130035400391 22.2539005279541 19.91549873352051 C 22.28800010681152 20.12419891357422 22.22410011291504 20.33649826049805 22.07889938354492 20.49729919433594 C 21.93219947814941 20.65739822387695 21.49290084838867 20.74939918518066 21.49209976196289 20.74939918518066 L 5.03196907043457 20.74939918518066 C 4.807279586791992 20.74749946594238 4.594020843505859 20.65589904785156 4.445199966430664 20.49729919433594 C 4.303529739379883 20.3346996307373 4.240119934082031 20.12389945983887 4.270200729370117 19.91549873352051 C 4.270200729370117 19.72159957885742 5.031959533691406 14.33869934082031 8.387819290161133 12.2441987991333 L 8.830459594726563 7.63831901550293 C 8.046510696411133 6.722898483276367 7.531770706176758 5.629459381103516 7.33782958984375 4.467588424682617 C 7.343420028686523 4.069738388061523 7.687410354614258 3.749979019165039 8.109880447387695 3.749979019165039 L 18.40390014648438 3.749979019165039 C 18.41429901123047 3.749589920043945 18.42459869384766 3.749399185180664 18.43490028381348 3.749399185180664 Z" stroke="none" fill="#2188ff"/>
    </g>
    <line id="line" y2="4" transform="translate(8.498 15.999)" fill="none" stroke="#2188ff" stroke-linecap="round" stroke-width="1.5"/>
  </g>
</svg>
