<svg id="ic_entry" xmlns="http://www.w3.org/2000/svg" width="72" height="72" viewBox="0 0 72 72">
  <g id="area_ic" fill="#fff" stroke="#000" stroke-miterlimit="10" stroke-width="2">
    <circle cx="36" cy="36" r="36" stroke="none"/>
    <circle cx="36" cy="36" r="35" fill="none"/>
  </g>
  <g id="ic_입장" transform="translate(-172.833 -189.352)">
    <path id="path" d="M215.264,236.352h-19v-26h19" transform="translate(-0.431)" fill="#fff" stroke="#000" stroke-linecap="round" stroke-linejoin="round" stroke-width="2"/>
    <path id="path-2" data-name="path" d="M197.039,210.476l10.8,4.537a1.635,1.635,0,0,1,.992,1.512v24.19a1.6,1.6,0,0,1-2.137,1.54l-10.8-3.945a1.633,1.633,0,0,1-1.061-1.54V211.988A1.6,1.6,0,0,1,197.039,210.476Z" fill="#fff" stroke="#000" stroke-linecap="round" stroke-linejoin="round" stroke-width="2"/>
    <line id="line" y2="6" transform="translate(204.833 224.852)" fill="#fff" stroke="#000" stroke-linecap="round" stroke-linejoin="round" stroke-width="2"/>
    <path id="path-3" data-name="path" d="M217.192,220.027l-3,3.5,3,3.5" transform="translate(-0.359 0.324)" fill="none" stroke="#000" stroke-linecap="round" stroke-linejoin="round" stroke-width="2"/>
    <line id="line-2" data-name="line" x2="9.505" transform="translate(215.328 223.852)" fill="none" stroke="#000" stroke-linecap="round" stroke-linejoin="round" stroke-width="2"/>
  </g>
</svg>
