<svg id="hmf_ico_like" xmlns="http://www.w3.org/2000/svg" width="18" height="18" viewBox="0 0 18 18">
  <rect id="area_ic" width="18" height="18" fill="rgba(255,255,255,0)"/>
  <g id="ic_thumb" transform="translate(0 2.013)">
    <g id="path" transform="translate(-2.8 -5.213)" fill="none">
      <path d="M4.41,9.7h1.1A1.329,1.329,0,0,1,6.8,11.008v5.885A1.33,1.33,0,0,1,5.512,18.2H4.41a.663.663,0,0,1-.61-.654V10.288A.6.6,0,0,1,4.41,9.7Z" stroke="none"/>
      <path d="M 4.800000190734863 10.70000076293945 L 4.800000190734863 17.20000076293945 L 5.480597972869873 17.20000076293945 C 5.66123104095459 17.1838493347168 5.800193786621094 17.05196762084961 5.799990177154541 16.89229965209961 L 5.799990177154541 11.00641059875488 C 5.800193786621094 10.84795570373535 5.66120719909668 10.71609115600586 5.480544090270996 10.70000076293945 L 4.800000190734863 10.70000076293945 M 4.410170078277588 9.700000762939453 L 5.511859893798828 9.700000762939453 C 6.234109878540039 9.734870910644531 6.80088996887207 10.31030082702637 6.799990177154541 11.00769996643066 L 6.799990177154541 16.89229965209961 C 6.80088996887207 17.58970069885254 6.234109878540039 18.16510009765625 5.511859893798828 18.20000076293945 L 4.410170078277588 18.20000076293945 C 4.062439918518066 18.16630172729492 3.798250198364258 17.88320159912109 3.800000190734863 17.54619979858398 L 3.800000190734863 10.28849983215332 C 3.800000190734863 9.963460922241211 4.073180198669434 9.700000762939453 4.410170078277588 9.700000762939453 Z" stroke="none" fill="#707070"/>
    </g>
    <g id="path-2" data-name="path" transform="translate(-4.699 -2.7)" fill="none">
      <path d="M15.346,2.687a.813.813,0,0,1,.456.138,4.447,4.447,0,0,1,1.052,1.3,1.155,1.155,0,0,1,.14.844L16.5,7.243h3.161a2.116,2.116,0,0,1,1.462.574,1.805,1.805,0,0,1,.568,1.441v.65a1.286,1.286,0,0,1-.211.78l-1.894,4.027a2.212,2.212,0,0,1-1.824.974H12.014A2.234,2.234,0,0,1,9.7,13.544V8.412a1.7,1.7,0,0,1,.631-1.364L14.89,2.826A.813.813,0,0,1,15.346,2.687Z" stroke="none"/>
      <path d="M 15.33854484558105 3.773063659667969 L 11.01027488708496 7.781534194946289 L 10.98977470397949 7.800524711608887 L 10.96824645996094 7.818334579467773 C 10.78995513916016 7.965845108032227 10.69181632995605 8.169644355773926 10.6989860534668 8.377494812011719 L 10.6995849609375 8.394744873046875 L 10.6995849609375 8.411994934082031 L 10.6995849609375 13.54380416870117 C 10.6995849609375 14.17438507080078 11.28931617736816 14.6873950958252 12.01419639587402 14.6873950958252 L 17.75649833679199 14.6873950958252 C 18.1467399597168 14.67879867553711 18.50945281982422 14.49942016601563 18.7187385559082 14.21456718444824 L 20.57825469970703 10.26007461547852 L 20.60787582397461 10.19706439971924 L 20.64595603942871 10.13877487182617 C 20.6817455291748 10.08397483825684 20.6988353729248 10.02355480194092 20.69537544250488 9.964064598083496 L 20.69369506835938 9.935084342956543 L 20.69369506835938 9.906044960021973 L 20.69369506835938 9.256454467773438 L 20.69369506835938 9.218814849853516 L 20.69652557373047 9.1812744140625 C 20.71409606933594 8.948245048522949 20.61870574951172 8.713674545288086 20.43479537963867 8.537684440612793 C 20.23806571960449 8.349424362182617 19.95734596252441 8.24144458770752 19.66459655761719 8.24144458770752 C 19.65071487426758 8.24144458770752 19.63677597045898 8.241684913635254 19.62284469604492 8.242155075073242 L 19.60612487792969 8.242714881896973 L 19.58939552307129 8.242714881896973 L 16.5032958984375 8.242714881896973 L 15.26433563232422 8.242714881896973 L 15.52582550048828 7.031664848327637 L 16.01751518249512 4.75444507598877 C 16.02606582641602 4.715554237365723 16.01878547668457 4.67640495300293 15.99586582183838 4.638104438781738 L 15.96997547149658 4.59482479095459 L 15.94856548309326 4.549174308776855 C 15.86024188995361 4.360784530639648 15.72373485565186 4.162703514099121 15.33854484558105 3.773063659667969 M 15.34589576721191 2.687414169311523 C 15.50599575042725 2.687414169311523 15.66609573364258 2.733444213867188 15.80179595947266 2.825504302978516 C 16.41500473022461 3.417594909667969 16.67859649658203 3.750555038452148 16.85399627685547 4.124674797058105 C 17.0077953338623 4.381734848022461 17.0575065612793 4.681164741516113 16.99419593811035 4.969154357910156 L 16.5032958984375 7.242714881896973 L 19.58939552307129 7.242714881896973 C 19.61449432373047 7.241874694824219 19.63959503173828 7.24144458770752 19.66459655761719 7.24144458770752 C 20.21449661254883 7.24144458770752 20.74229431152344 7.447824478149414 21.12619590759277 7.815214157104492 C 21.52759552001953 8.199315071105957 21.73389434814453 8.723244667053223 21.69369506835938 9.256454467773438 L 21.69369506835938 9.906044960021973 C 21.7095947265625 10.17960453033447 21.63629531860352 10.45119476318359 21.48319625854492 10.68560409545898 L 19.58939552307129 14.71300506591797 C 19.20319557189941 15.30690479278564 18.51419448852539 15.67500495910645 17.76579666137695 15.6873950958252 L 12.01419639587402 15.6873950958252 C 10.73590469360352 15.6873950958252 9.6995849609375 14.72770500183105 9.6995849609375 13.54380416870117 L 9.6995849609375 8.411994934082031 C 9.681674957275391 7.89316463470459 9.912826538085938 7.393644332885742 10.33079528808594 7.047844886779785 L 14.88999557495117 2.825504302978516 C 15.02569580078125 2.733444213867188 15.18579483032227 2.687414169311523 15.34589576721191 2.687414169311523 Z" stroke="none" fill="#707070"/>
    </g>
  </g>
</svg>
