<svg id="icon-heart-on" xmlns="http://www.w3.org/2000/svg" width="26" height="26" viewBox="0 0 26 26">
  <rect id="icon-heart-on-2" data-name="icon-heart-on" width="26" height="26" fill="#fa2337" opacity="0"/>
  <g id="icon-heart-on-3" data-name="icon-heart-on">
    <g id="path" transform="translate(-342.691 -163.635)" fill="#fa2337">
      <path d="M 355.7119750976563 184.8846740722656 L 355.7119750976563 184.8846740722656 L 355.7116394042969 184.8846740722656 L 355.6820068359375 184.8846435546875 C 355.4988098144531 184.8846435546875 355.3204040527344 184.8258361816406 355.1781005859375 184.7190856933594 C 354.1482849121094 183.9428863525391 352.5171203613281 182.6721649169922 351.0313415527344 181.4364166259766 L 351.0223388671875 181.4288940429688 L 351.0130615234375 181.4216766357422 C 349.4657592773438 180.2146148681641 348.0277709960938 178.8602447509766 346.7388305664063 177.39599609375 C 346.6781311035156 177.3181304931641 346.581298828125 177.1868743896484 346.4791259765625 177.0484008789063 L 346.3854064941406 176.9215240478516 L 346.3200073242188 176.8317413330078 L 346.3094787597656 176.8172760009766 L 346.3059692382813 176.8129119873047 L 346.3041076660156 176.8102569580078 L 346.301025390625 176.8058624267578 L 346.2978515625 176.801513671875 C 346.2862854003906 176.7855529785156 346.2753601074219 176.7689971923828 346.264404296875 176.7524566650391 C 344.7839050292969 174.3850860595703 345.3577880859375 171.3044586181641 347.6011657714844 169.5830535888672 C 348.6082763671875 168.8102569580078 349.8707580566406 168.3846740722656 351.1561279296875 168.3846740722656 C 352.6723327636719 168.3846740722656 354.1005859375 168.9512939453125 355.1778259277344 169.9801635742188 L 355.6951904296875 170.4743194580078 L 356.2131652832031 169.9808197021484 C 357.2900390625 168.9548645019531 358.7168884277344 168.3898468017578 360.2308654785156 168.3898468017578 C 361.2774658203125 168.3898468017578 362.3040466308594 168.6678161621094 363.1996765136719 169.1936950683594 C 364.5122375488281 169.9669799804688 365.4312133789063 171.1891632080078 365.786376953125 172.6345977783203 C 366.13330078125 174.0464782714844 365.8980712890625 175.5092468261719 365.1240539550781 176.7534484863281 L 365.1147155761719 176.7684478759766 L 365.1060791015625 176.7838745117188 C 365.1043090820313 176.7870483398438 365.1007690429688 176.7928924560547 365.0904846191406 176.8069152832031 L 365.0637512207031 176.8430023193359 C 364.9364929199219 177.0169219970703 364.7505187988281 177.2711334228516 364.6529541015625 177.3968811035156 C 363.3645324707031 178.8610992431641 361.9268493652344 180.2151641845703 360.3796691894531 181.4215850830078 L 360.3704528808594 181.4287719726563 L 360.3614501953125 181.4362335205078 C 358.8258056640625 182.7125549316406 357.1674499511719 184.0025787353516 356.2139282226563 184.7194671630859 C 356.0721740722656 184.8258819580078 355.8937377929688 184.8846740722656 355.7119750976563 184.8846740722656 Z" stroke="none"/>
      <path d="M 351.1561279296875 169.1346588134766 C 350.0187072753906 169.1346588134766 348.9472961425781 169.4954528808594 348.0577392578125 170.1780700683594 C 347.1148681640625 170.9015655517578 346.4794311523438 171.9282073974609 346.2685546875 173.0688934326172 C 346.0596008300781 174.1990203857422 346.2823791503906 175.3627777099609 346.8959045410156 176.3477478027344 C 346.8987426757813 176.3520355224609 346.9014587402344 176.3560791015625 346.9039306640625 176.3596649169922 L 346.9052124023438 176.3612823486328 L 346.92626953125 176.3901977539063 L 346.9910583496094 176.4791564941406 L 347.0826110839844 176.6030883789063 C 347.1705932617188 176.7223358154297 347.2611999511719 176.8451385498047 347.3171691894531 176.9178771972656 C 348.5714416503906 178.3405456542969 349.9698791503906 179.6566619873047 351.4743957519531 180.8303375244141 L 351.4928894042969 180.8447875976563 L 351.5109558105469 180.8597869873047 C 352.9865112304688 182.0870666503906 354.6066284179688 183.3491973876953 355.6282653808594 184.1191864013672 C 355.6411437988281 184.1288604736328 355.6607055664063 184.1346435546875 355.6827697753906 184.1346435546875 L 355.7119750976563 184.1346740722656 C 355.7318420410156 184.1346740722656 355.7513427734375 184.1289367675781 355.7632446289063 184.1199951171875 C 356.7099304199219 183.4082336425781 358.356689453125 182.1272277832031 359.882080078125 180.8594360351563 L 359.9000549316406 180.8444976806641 L 359.9184875488281 180.8301239013672 C 361.4225769042969 179.6573028564453 362.8204345703125 178.3418121337891 364.0740356445313 176.9194488525391 C 364.1687316894531 176.7961273193359 364.34619140625 176.5535888671875 364.4558410644531 176.4036865234375 L 364.4584655761719 176.400146484375 L 364.4610900878906 176.3966064453125 L 364.4715270996094 176.3825073242188 L 364.4872131347656 176.3572845458984 C 365.1536254882813 175.2860870361328 365.3563232421875 174.0275726318359 365.0580444335938 172.8135528564453 C 364.7514953613281 171.5660247802734 363.9559631347656 170.5097503662109 362.8198852539063 169.8404388427734 C 362.0393676757813 169.3821411132813 361.1441040039063 169.1398773193359 360.2306213378906 169.1398468017578 C 358.9103088378906 169.1398468017578 357.6672668457031 169.63134765625 356.7304992675781 170.5238189697266 L 355.6945190429688 171.5108184814453 L 354.6597900390625 170.5225219726563 C 353.7227478027344 169.6275482177734 352.4784851074219 169.1346588134766 351.1561279296875 169.1346588134766 M 351.1561279296875 167.6346588134766 C 352.803466796875 167.6346588134766 354.4443359375 168.2424774169922 355.6958312988281 169.4378051757813 C 356.9389953613281 168.25341796875 358.5771484375 167.6397857666016 360.2308654785156 167.6398468017578 C 361.3822631835938 167.639892578125 362.5413513183594 167.9374237060547 363.5794067382813 168.5469360351563 C 366.6271362304688 170.3424682617188 367.6025695800781 174.189208984375 365.7608642578125 177.1496276855469 C 365.7400817871094 177.1868286132813 365.7183227539063 177.2190246582031 365.6954956054688 177.2501831054688 L 365.6664428710938 177.2893981933594 C 365.5046081542969 177.5105895996094 365.3262023925781 177.75390625 365.2307434082031 177.8755798339844 C 363.9044494628906 179.3849792480469 362.4346923828125 180.7702331542969 360.8408508300781 182.0130310058594 C 359.2911376953125 183.301025390625 357.6221313476563 184.5990600585938 356.6646423339844 185.3189392089844 C 356.3919677734375 185.5236206054688 356.0568542480469 185.6346740722656 355.7119750976563 185.6346740722656 C 355.7117919921875 185.6346740722656 355.7115478515625 185.6346740722656 355.7113647460938 185.6346740722656 L 355.6812744140625 185.6346435546875 C 355.6810302734375 185.6346435546875 355.6807861328125 185.6346435546875 355.6805419921875 185.6346435546875 C 355.335693359375 185.6346435546875 355.0006408691406 185.5235900878906 354.7279663085938 185.3189697265625 C 353.7674560546875 184.5950317382813 352.0942687988281 183.2959899902344 350.5517578125 182.0130310058594 C 348.958251953125 180.7699279785156 347.4884948730469 179.3847351074219 346.1618347167969 177.8755798339844 C 346.0768127441406 177.7679748535156 345.9336547851563 177.5719299316406 345.7811584472656 177.3658142089844 L 345.7137756347656 177.2732849121094 L 345.7065124511719 177.2642517089844 L 345.6909484863281 177.2421569824219 C 345.6712341308594 177.2149963378906 345.6525573730469 177.1868286132813 345.6338806152344 177.15869140625 C 343.9376831054688 174.4559326171875 344.5856018066406 170.9516296386719 347.1445922851563 168.988037109375 C 348.3259582519531 168.0815124511719 349.743408203125 167.6346588134766 351.1561279296875 167.6346588134766 Z" stroke="none" fill="#fa2337"/>
    </g>
  </g>
</svg>
