<svg xmlns="http://www.w3.org/2000/svg" width="256" height="143" viewBox="0 0 256 143">
  <g id="coupon" transform="translate(-572.492 -628.802)">
    <path id="패스_2129" data-name="패스 2129" d="M823.492,628.8h-39a9,9,0,0,1-9,9c-.166,0-.328-.016-.492-.025a8.993,8.993,0,0,1-8.508-8.975h-189a5,5,0,0,0-5,5v133a5,5,0,0,0,5,5h189A8.993,8.993,0,0,1,775,762.826c.164-.008.326-.024.492-.024a9,9,0,0,1,9,9h39a5,5,0,0,0,5-5v-133A5,5,0,0,0,823.492,628.8Z" fill="#2ca0aa"/>
    <path id="패스_2128" data-name="패스 2128" d="M775.492,762.8a9,9,0,0,1,9,9h39a5,5,0,0,0,5-5v-133a5,5,0,0,0-5-5h-39a9,9,0,0,1-9,9c-.166,0-.328-.016-.492-.025V762.826C775.164,762.818,775.326,762.8,775.492,762.8Z" fill="#00838e"/>
    <line id="선_510" data-name="선 510" y2="104" transform="translate(774.992 648.302)" fill="none" stroke="#fff" stroke-width="1" stroke-dasharray="5" opacity="0.3"/>
  </g>
</svg>
