<svg xmlns="http://www.w3.org/2000/svg" xmlns:xlink="http://www.w3.org/1999/xlink" width="120" height="90" viewBox="0 0 120 90">
  <defs>
    <clipPath id="clip-path">
      <rect id="사각형_800" data-name="사각형 800" width="79.063" height="22.611" fill="#fff"/>
    </clipPath>
    <clipPath id="clip-path-2">
      <path id="패스_631" data-name="패스 631" d="M-911.053,795.19l-.422.062-.389.1-.353.126-.322.148-.281.163-.447.31-.275.251-.1.1-.319.447-.251.448-.193.442-.136.44-.092.425-.046.407-.013.388.013.363.1.643.132.5.167.436.153.251.158.2.161.165.163.134.32.173.3.082.261.014.2-.024.186-.054.166-.078.137-.1.106-.109.082-.118.105-.259.038-.266-.009-.251-.03-.211-.05-.19-.055-.526.016-.44.068-.356.1-.281.113-.212.105-.144.108-.109.217-.126.207-.089.19-.046.18-.019.32.043.264.116.207.156.153.152.126.167.182.368.126.455.067.525.016.588-.021.622-.054.648-.195,1.322-.245,1.24-.244,1.035-.259.976-.072.276v.181l.049.1.085.044.19-.019.1-.034.069.058.068.023.125-.033.094-.072.038-.039.474-.509.418-.53.377-.551.327-.557.285-.561.241-.556.377-1.059.251-.937.154-.754.1-.676.048-.647-.014-.589-.07-.538-.109-.491-.153-.442-.182-.394-.2-.352-.216-.305-.221-.265-.219-.222-.392-.335-.284-.2-.108-.059-.562-.268-.532-.187-.5-.108-.484-.04Zm11.6-5.542-.692.251-1.208.383-1.658.51-.975.242-.933.186-.867.134-.77.092-1.144.087-.432.016-1.014.029-1.12-.018-2.261-.132-1.79-.161-.731-.079-2.074-.28-1.265-.161-.8-.1-.849-.038-.51-.042h-.338l-.251.052-.183.1-.118.113-.074.126-.04.112-.015.105v.241l-.04.24-.084.259.016.236.06.227.1.226.125.211.31.4.359.349.353.285.317.219.308.185.335.151.2.136.094.1.026.039.065.074.077.062.2.082.239.043.251.013.436-.028.191-.028,1.482-.22,1.235-.157,1.163-.126,1.863-.156,1.666-.168,1.442-.176,1.211-.172,1.673-.274.582-.112,1.085-.3.974-.3.854-.3.754-.294.655-.284.564-.278.481-.264.4-.251.593-.438.357-.344.178-.224.048-.079.011-.1-.019-.079-.04-.054-.052-.033-.111-.029h-.052l-.175.041h-.111l-.079-.038-.2-.08-.142-.006Zm-10.822-3.4-.152.031h-.065l-.377.028-.318.07-.278.1-.239.126-.2.153-.168.164-.141.177-.108.186-.152.358-.08.315-.033.309.033.323.078.285.1.251.119.206.216.283.1.094.26.185.251.126.251.1.24.055.442.016.393-.068.323-.126.251-.133.215-.158.195-.235.155-.229.116-.217.085-.209.077-.377-.01-.325-.063-.26-.088-.2-.108-.166-.134-.126-.069-.126-.023-.126.05-.28.02-.188-.062-.171-.137-.126-.183-.074-.211-.04-.391-.016Z" transform="translate(921.698 -786.209)" fill="#fff"/>
    </clipPath>
    <clipPath id="clip-path-3">
      <rect id="사각형_820" data-name="사각형 820" width="23.609" height="22.612" fill="#fff"/>
    </clipPath>
    <clipPath id="clip-path-4">
      <path id="패스_2572" data-name="패스 2572" d="M15-639a10,10,0,0,1,10,10,10,10,0,0,1-10,10A10,10,0,0,1,5-629,10,10,0,0,1,15-639Zm5.036,5.128-7,6.924-3.31-3.273-1.305,1.29,4.615,4.563,8.307-8.214Z" fill="#fff" clip-rule="evenodd"/>
    </clipPath>
    <clipPath id="clip-path-5">
      <path id="패스_2571" data-name="패스 2571" d="M3-617H27v-24H3Z" fill="#fff"/>
    </clipPath>
  </defs>
  <g id="credit-hana-on" transform="translate(13870 -4641)">
    <rect id="사각형_2756" data-name="사각형 2756" width="120" height="90" rx="10" transform="translate(-13870 4641)" fill="#212425"/>
    <text id="하나카드" transform="translate(-13791 4718)" fill="#fff" font-size="11" font-family="SamsungOneKoreanOTF-700, 'SamsungOneKoreanOTF 700'" font-weight="700" letter-spacing="-0.005em"><tspan x="-37.218" y="0">하나카드</tspan></text>
    <g id="그룹_5788" data-name="그룹 5788" transform="translate(-14091.229 4355.39)" style="isolation: isolate">
      <g id="그룹_1315" data-name="그룹 1315" transform="translate(242.166 319.306)">
        <g id="그룹_1314" data-name="그룹 1314" clip-path="url(#clip-path)">
          <path id="패스_531" data-name="패스 531" d="M283.367,330.457v-1.492h2.2v1.492H288.5v1.414h-1.54a4.87,4.87,0,0,1,.825,1.493,5.891,5.891,0,0,1,.322,1.885,6.512,6.512,0,0,1-.283,1.854,4.494,4.494,0,0,1-.754,1.461,3.513,3.513,0,0,1-1.147.974,3.4,3.4,0,0,1-2.969.007,3.464,3.464,0,0,1-1.146-.966,4.555,4.555,0,0,1-.746-1.477,6.322,6.322,0,0,1-.259-1.854,5.587,5.587,0,0,1,.306-1.885,4.882,4.882,0,0,1,.825-1.493h-1.445v-1.414Zm1.1,1.446q-.66,0-1.108.919a5.443,5.443,0,0,0-.432,2.427,5.144,5.144,0,0,0,.424,2.341q.44.88,1.1.88t1.1-.872a5.267,5.267,0,0,0,.44-2.348,5.707,5.707,0,0,0-.432-2.467q-.432-.879-1.092-.879m7.571,2.8v8.483h-2.121V328.965h2.121v4.321h2.042V334.7Z" transform="translate(-255.781 -322.737)" fill="#fff"/>
          <path id="패스_532" data-name="패스 532" d="M305.352,337.683h4.234c.215,0,.427-.01.636-.03a3.581,3.581,0,0,0,.621-.118,3.209,3.209,0,0,0,.653-.275v-8.294h2.12v4.321h2.042V334.7h-2.042v8.483H311.5v-4.509a4.428,4.428,0,0,1-1.266.337,11,11,0,0,1-1.359.087h-4.7a1.445,1.445,0,0,1-1.171-.574,2.118,2.118,0,0,1-.463-1.374v-7.556h2.121V337.1a.539.539,0,0,0,.172.432.776.776,0,0,0,.518.148" transform="translate(-263.613 -322.737)" fill="#fff"/>
          <path id="패스_533" data-name="패스 533" d="M327.724,334.7h-3.708v-1.413h4.242a7.984,7.984,0,0,0,.173-.849,5.878,5.878,0,0,0,.063-.849v-.424h-4.478V329.75h6.677v1.382a8.847,8.847,0,0,1-1.964,5.608,7.709,7.709,0,0,1-2.16,1.83,7.077,7.077,0,0,1-2.709.888v-1.415a5.72,5.72,0,0,0,2.3-1.3,7.372,7.372,0,0,0,1.564-2.042m7.211,0v8.483h-2.121V328.965h2.121v4.321h2.042V334.7Z" transform="translate(-271.187 -322.737)" fill="#fff"/>
          <path id="패스_534" data-name="패스 534" d="M345.057,340.159H357.78v1.413H345.057Zm1.586-9.976h9.582V331.6h-7.462v3.9a.537.537,0,0,0,.172.431.8.8,0,0,0,.534.15h6.756v1.414h-7.934a1.463,1.463,0,0,1-1.178-.573,2.1,2.1,0,0,1-.471-1.375Z" transform="translate(-278.717 -323.17)" fill="#fff"/>
        </g>
      </g>
      <g id="그룹_1400" data-name="그룹 1400" transform="translate(242.165 320.562)">
        <path id="패스_630" data-name="패스 630" d="M-911.053,795.19l-.422.062-.389.1-.353.126-.322.148-.281.163-.447.31-.275.251-.1.1-.319.447-.251.448-.193.442-.136.44-.092.425-.046.407-.013.388.013.363.1.643.132.5.167.436.153.251.158.2.161.165.163.134.32.173.3.082.261.014.2-.024.186-.054.166-.078.137-.1.106-.109.082-.118.105-.259.038-.266-.009-.251-.03-.211-.05-.19-.055-.526.016-.44.068-.356.1-.281.113-.212.105-.144.108-.109.217-.126.207-.089.19-.046.18-.019.32.043.264.116.207.156.153.152.126.167.182.368.126.455.067.525.016.588-.021.622-.054.648-.195,1.322-.245,1.24-.244,1.035-.259.976-.072.276v.181l.049.1.085.044.19-.019.1-.034.069.058.068.023.125-.033.094-.072.038-.039.474-.509.418-.53.377-.551.327-.557.285-.561.241-.556.377-1.059.251-.937.154-.754.1-.676.048-.647-.014-.589-.07-.538-.109-.491-.153-.442-.182-.394-.2-.352-.216-.305-.221-.265-.219-.222-.392-.335-.284-.2-.108-.059-.562-.268-.532-.187-.5-.108-.484-.04Zm11.6-5.542-.692.251-1.208.383-1.658.51-.975.242-.933.186-.867.134-.77.092-1.144.087-.432.016-1.014.029-1.12-.018-2.261-.132-1.79-.161-.731-.079-2.074-.28-1.265-.161-.8-.1-.849-.038-.51-.042h-.338l-.251.052-.183.1-.118.113-.074.126-.04.112-.015.105v.241l-.04.24-.084.259.016.236.06.227.1.226.125.211.31.4.359.349.353.285.317.219.308.185.335.151.2.136.094.1.026.039.065.074.077.062.2.082.239.043.251.013.436-.028.191-.028,1.482-.22,1.235-.157,1.163-.126,1.863-.156,1.666-.168,1.442-.176,1.211-.172,1.673-.274.582-.112,1.085-.3.974-.3.854-.3.754-.294.655-.284.564-.278.481-.264.4-.251.593-.438.357-.344.178-.224.048-.079.011-.1-.019-.079-.04-.054-.052-.033-.111-.029h-.052l-.175.041h-.111l-.079-.038-.2-.08-.142-.006Zm-10.822-3.4-.152.031h-.065l-.377.028-.318.07-.278.1-.239.126-.2.153-.168.164-.141.177-.108.186-.152.358-.08.315-.033.309.033.323.078.285.1.251.119.206.216.283.1.094.26.185.251.126.251.1.24.055.442.016.393-.068.323-.126.251-.133.215-.158.195-.235.155-.229.116-.217.085-.209.077-.377-.01-.325-.063-.26-.088-.2-.108-.166-.134-.126-.069-.126-.023-.126.05-.28.02-.188-.062-.171-.137-.126-.183-.074-.211-.04-.391-.016Z" transform="translate(921.698 -786.209)" fill="#fff"/>
        <g id="그룹_1399" data-name="그룹 1399" transform="translate(0 0)" clip-path="url(#clip-path-2)">
          <g id="그룹_1312" data-name="그룹 1312" transform="translate(-0.119 -1.034)">
            <g id="그룹_1311" data-name="그룹 1311">
              <g id="그룹_1398" data-name="그룹 1398">
                <rect id="사각형_819" data-name="사각형 819" width="23.609" height="22.612" fill="#fff"/>
                <g id="그룹_1397" data-name="그룹 1397" clip-path="url(#clip-path-3)">
                  <g id="그룹_1310" data-name="그룹 1310">
                    <rect id="사각형_798" data-name="사각형 798" width="23.609" height="22.61" fill="#fff"/>
                  </g>
                </g>
              </g>
            </g>
          </g>
        </g>
      </g>
    </g>
    <g id="그룹_5809" data-name="그룹 5809" transform="translate(-13785 5288)" clip-path="url(#clip-path-4)">
      <g id="그룹_5808" data-name="그룹 5808" clip-path="url(#clip-path-5)">
        <path id="패스_2570" data-name="패스 2570" d="M0-644H30v30H0Z" fill="#fff"/>
      </g>
    </g>
  </g>
</svg>
