<svg xmlns="http://www.w3.org/2000/svg" xmlns:xlink="http://www.w3.org/1999/xlink" width="120" height="90" viewBox="0 0 120 90">
  <defs>
    <clipPath id="clip-path">
      <path id="패스_2575" data-name="패스 2575" d="M15-639a10,10,0,0,1,10,10,10,10,0,0,1-10,10A10,10,0,0,1,5-629,10,10,0,0,1,15-639Zm5.036,5.128-7,6.924-3.31-3.273-1.305,1.29,4.615,4.563,8.307-8.214Z" fill="#fff" clip-rule="evenodd"/>
    </clipPath>
    <clipPath id="clip-path-2">
      <path id="패스_2574" data-name="패스 2574" d="M3-617H27v-24H3Z" fill="#fff"/>
    </clipPath>
    <clipPath id="clip-path-3">
      <rect id="사각형_2786" data-name="사각형 2786" width="18.887" height="17.791" fill="none"/>
    </clipPath>
    <clipPath id="clip-path-4">
      <path id="패스_2640" data-name="패스 2640" d="M10.323,0a8.9,8.9,0,1,0,8.9,8.9A8.9,8.9,0,0,0,10.323,0Z" transform="translate(-1.426 -0.001)" fill="none"/>
    </clipPath>
  </defs>
  <g id="credit-woori-on" transform="translate(14000 -4641)">
    <rect id="사각형_2755" data-name="사각형 2755" width="120" height="90" rx="10" transform="translate(-14000 4641)" fill="#212425"/>
    <g id="그룹_5811" data-name="그룹 5811" transform="translate(-13915 5288)" clip-path="url(#clip-path)">
      <g id="그룹_5810" data-name="그룹 5810" clip-path="url(#clip-path-2)">
        <path id="패스_2573" data-name="패스 2573" d="M0-644H30v30H0Z" fill="#fff"/>
      </g>
    </g>
    <text id="우리카드" transform="translate(-13921 4718)" fill="#fff" font-size="11" font-family="SamsungOneKoreanOTF-700, 'SamsungOneKoreanOTF 700'" font-weight="700" letter-spacing="-0.005em"><tspan x="-37.218" y="0">우리카드</tspan></text>
    <g id="그룹_5812" data-name="그룹 5812" transform="translate(-14130.443 4369.756)" style="mix-blend-mode: luminosity;isolation: isolate">
      <g id="그룹_1324" data-name="그룹 1324" transform="translate(172.738 309.381)">
        <g id="그룹_1323" data-name="그룹 1323" transform="translate(0 0)">
          <path id="패스_602" data-name="패스 602" d="M230.461,349.952h5.816V355.2h2.232v-5.247h5.821v-1.273h-13.87Z" transform="translate(-230.461 -339.649)" fill="#fff"/>
          <path id="패스_603" data-name="패스 603" d="M242.306,322.833c2.83,0,5.122-1.544,5.122-3.831s-2.292-3.829-5.122-3.829-5.121,1.543-5.121,3.829S239.479,322.833,242.306,322.833Zm0-6.351a2.538,2.538,0,1,1-2.8,2.523A2.581,2.581,0,0,1,242.306,316.483Z" transform="translate(-235.373 -315.174)" fill="#fff"/>
        </g>
        <path id="패스_604" data-name="패스 604" d="M298.208,316.123h-1.567s.185.143.185,1.24v7.352c-.023,1.128-1.766,1.106-1.766,1.106h-5.132c-.478.029-.525-.2-.538-.494v-3.1h4.43c.49,0,.6-.183.6-.511v-4.633c0-.331-.108-.5-.6-.5h-6.843v1.231h5.265v3.182h-5.217a1.531,1.531,0,0,1,.185.882v4.229c.024.327.181.9,1.383.946h6s1.758.051,2.232-.415v4.374h2.091V316.632C298.919,316.3,298.7,316.123,298.208,316.123Z" transform="translate(-271.745 -315.867)" fill="#fff"/>
      </g>
      <g id="그룹_1327" data-name="그룹 1327" transform="translate(202.158 309.601)">
        <g id="그룹_1325" data-name="그룹 1325" transform="translate(0 0)">
          <path id="패스_605" data-name="패스 605" d="M340.148,326.616l-.523-.736q5.51-2.894,5.837-8.191c.022-.1.013-.161-.025-.188a.359.359,0,0,0-.123-.057h-5.036V316.43h6.638q.573,0,.573.491Q347.162,324.131,340.148,326.616Zm5.134-5.15h-4.937v-1.014h4.937Zm8.176.376h-2.076v8.8h-1.864V317.2a3.915,3.915,0,0,0-.1-1.014l-.082-.2h1.374q.67,0,.67.49v4.333h2.076Z" transform="translate(-339.625 -315.989)" fill="#fff"/>
          <path id="패스_606" data-name="패스 606" d="M404.66,329.844v1.03H391.3v-1.03Zm-1.586-4.039h-8.65a1.5,1.5,0,0,1-1.16-.409,1.013,1.013,0,0,1-.295-.719V319.51a1.968,1.968,0,0,0-.131-.736.92.92,0,0,0-.147-.245h10.3v1.03h-8.159v4.758q0,.457.491.457h7.751Z" transform="translate(-377.374 -317.844)" fill="#fff"/>
        </g>
        <g id="그룹_1326" data-name="그룹 1326" transform="translate(0 0)">
          <path id="패스_607" data-name="패스 607" d="M340.148,326.616l-.523-.736q5.51-2.894,5.837-8.191c.022-.1.013-.161-.025-.188a.359.359,0,0,0-.123-.057h-5.036V316.43h6.638q.573,0,.573.491Q347.162,324.131,340.148,326.616Zm5.134-5.15h-4.937v-1.014h4.937Zm8.176.376h-2.076v8.8h-1.864V317.2a3.915,3.915,0,0,0-.1-1.014l-.082-.2h1.374q.67,0,.67.49v4.333h2.076Z" transform="translate(-339.625 -315.989)" fill="#fff"/>
          <path id="패스_608" data-name="패스 608" d="M404.66,329.844v1.03H391.3v-1.03Zm-1.586-4.039h-8.65a1.5,1.5,0,0,1-1.16-.409,1.013,1.013,0,0,1-.295-.719V319.51a1.968,1.968,0,0,0-.131-.736.92.92,0,0,0-.147-.245h10.3v1.03h-8.159v4.758q0,.457.491.457h7.751Z" transform="translate(-377.374 -317.844)" fill="#fff"/>
        </g>
      </g>
      <g id="그룹_5934" data-name="그룹 5934" transform="translate(151.321 307.719)">
        <g id="그룹_5929" data-name="그룹 5929" transform="translate(0 0)">
          <g id="그룹_5928" data-name="그룹 5928" clip-path="url(#clip-path-3)">
            <path id="패스_2576" data-name="패스 2576" d="M10.328,17.791a8.9,8.9,0,1,0-8.9-8.9,8.9,8.9,0,0,0,8.9,8.9" transform="translate(-0.917 0)" fill="#8c8d8d"/>
          </g>
        </g>
        <g id="그룹_5931" data-name="그룹 5931" transform="translate(0.508 0)">
          <g id="그룹_5930" data-name="그룹 5930" clip-path="url(#clip-path-4)">
            <path id="패스_2577" data-name="패스 2577" d="M9.443,18.571c3.91,0,7.263,1.09,8.7,2.634a8.978,8.978,0,0,0,.748-3.6A9.346,9.346,0,0,0,9.443,8.366,9.344,9.344,0,0,0,0,17.6a8.992,8.992,0,0,0,.747,3.6c1.433-1.544,4.786-2.634,8.7-2.634" transform="translate(-0.51 -5.378)" fill="#8c8d8d"/>
            <path id="패스_2578" data-name="패스 2578" d="M9.483,18.722c3.9,0,7.245,1.081,8.676,2.612a8.854,8.854,0,0,0,.746-3.573A9.308,9.308,0,0,0,9.483,8.586,9.306,9.306,0,0,0,.065,17.762,8.874,8.874,0,0,0,.81,21.335c1.429-1.532,4.773-2.612,8.674-2.612" transform="translate(-0.551 -5.519)" fill="#8f8f90"/>
            <path id="패스_2579" data-name="패스 2579" d="M9.523,18.875c3.889,0,7.226,1.072,8.654,2.591a8.748,8.748,0,0,0,.744-3.544,9.27,9.27,0,0,0-9.4-9.114A9.268,9.268,0,0,0,.129,17.922a8.757,8.757,0,0,0,.743,3.544c1.425-1.52,4.761-2.591,8.651-2.591" transform="translate(-0.593 -5.662)" fill="#919192"/>
            <path id="패스_2580" data-name="패스 2580" d="M9.563,19.027c3.879,0,7.208,1.063,8.632,2.57a8.639,8.639,0,0,0,.742-3.514A9.234,9.234,0,0,0,9.563,9.029a9.231,9.231,0,0,0-9.37,9.053A8.647,8.647,0,0,0,.934,21.6c1.421-1.507,4.749-2.57,8.629-2.57" transform="translate(-0.634 -5.804)" fill="#939494"/>
            <path id="패스_2581" data-name="패스 2581" d="M9.6,19.179c3.869,0,7.189,1.054,8.61,2.549a8.522,8.522,0,0,0,.741-3.486A9.2,9.2,0,0,0,9.6,9.25,9.194,9.194,0,0,0,.258,18.242,8.536,8.536,0,0,0,1,21.727c1.418-1.495,4.737-2.549,8.607-2.549" transform="translate(-0.675 -5.946)" fill="#959696"/>
            <path id="패스_2582" data-name="패스 2582" d="M9.644,19.331c3.859,0,7.171,1.045,8.587,2.528A8.415,8.415,0,0,0,18.97,18.4,9.159,9.159,0,0,0,9.644,9.471,9.157,9.157,0,0,0,.322,18.4a8.423,8.423,0,0,0,.737,3.457c1.414-1.483,4.725-2.528,8.585-2.528" transform="translate(-0.717 -6.088)" fill="#979899"/>
            <path id="패스_2583" data-name="패스 2583" d="M9.683,19.482c3.849,0,7.152,1.036,8.565,2.507a8.3,8.3,0,0,0,.737-3.428,9.122,9.122,0,0,0-9.3-8.869,9.12,9.12,0,0,0-9.3,8.869,8.31,8.31,0,0,0,.736,3.428c1.41-1.47,4.713-2.507,8.562-2.507" transform="translate(-0.757 -6.23)" fill="#9a9a9b"/>
            <path id="패스_2584" data-name="패스 2584" d="M9.724,19.634c3.839,0,7.133,1.027,8.543,2.485a8.193,8.193,0,0,0,.735-3.4A9.086,9.086,0,0,0,9.724,9.913,9.084,9.084,0,0,0,.45,18.721a8.206,8.206,0,0,0,.733,3.4c1.407-1.458,4.7-2.485,8.54-2.485" transform="translate(-0.799 -6.372)" fill="#9c9c9d"/>
            <path id="패스_2585" data-name="패스 2585" d="M9.764,19.785c3.828,0,7.115,1.019,8.52,2.464a8.076,8.076,0,0,0,.733-3.369,9.049,9.049,0,0,0-9.253-8.747A9.047,9.047,0,0,0,.515,18.88a8.09,8.09,0,0,0,.731,3.369c1.4-1.445,4.688-2.464,8.518-2.464" transform="translate(-0.841 -6.514)" fill="#9e9f9f"/>
            <path id="패스_2586" data-name="패스 2586" d="M9.8,19.938c3.818,0,7.1,1.01,8.5,2.443a7.972,7.972,0,0,0,.731-3.34c0-4.735-4.135-8.685-9.229-8.685S.579,14.307.579,19.04a7.979,7.979,0,0,0,.73,3.34c1.4-1.433,4.676-2.443,8.5-2.443" transform="translate(-0.882 -6.656)" fill="#a0a1a1"/>
            <path id="패스_2587" data-name="패스 2587" d="M9.844,20.09c3.808,0,7.078,1,8.476,2.422a7.864,7.864,0,0,0,.729-3.312c0-4.694-4.124-8.624-9.205-8.624S.643,14.507.643,19.2a7.872,7.872,0,0,0,.728,3.312c1.4-1.42,4.664-2.422,8.473-2.422" transform="translate(-0.923 -6.798)" fill="#a2a3a3"/>
            <path id="패스_2588" data-name="패스 2588" d="M9.884,20.242c3.8,0,7.059.992,8.453,2.4a7.757,7.757,0,0,0,.728-3.282c0-4.654-4.114-8.563-9.181-8.563S.707,14.708.707,19.36a7.76,7.76,0,0,0,.726,3.282c1.392-1.408,4.651-2.4,8.451-2.4" transform="translate(-0.964 -6.94)" fill="#a4a5a6"/>
            <path id="패스_2589" data-name="패스 2589" d="M9.925,20.394c3.787,0,7.041.983,8.431,2.379a7.652,7.652,0,0,0,.726-3.253c0-4.613-4.1-8.5-9.157-8.5S.772,14.909.772,19.52A7.654,7.654,0,0,0,1.5,22.773c1.389-1.4,4.639-2.379,8.429-2.379" transform="translate(-1.006 -7.082)" fill="#a6a7a8"/>
            <path id="패스_2590" data-name="패스 2590" d="M9.965,20.546c3.777,0,7.022.975,8.409,2.358a7.541,7.541,0,0,0,.724-3.224c0-4.572-4.091-8.44-9.132-8.44S.836,15.109.836,19.679A7.547,7.547,0,0,0,1.558,22.9c1.385-1.383,4.627-2.358,8.407-2.358" transform="translate(-1.047 -7.224)" fill="#a9a9aa"/>
            <path id="패스_2591" data-name="패스 2591" d="M10.006,20.7c3.767,0,7,.966,8.387,2.337a7.437,7.437,0,0,0,.722-3.2c0-4.53-4.081-8.379-9.108-8.379S.9,15.31.9,19.84a7.439,7.439,0,0,0,.72,3.2C3,21.664,6.236,20.7,10.006,20.7" transform="translate(-1.089 -7.367)" fill="#ababac"/>
            <path id="패스_2592" data-name="패스 2592" d="M10.045,20.85c3.757,0,6.985.957,8.364,2.315A7.332,7.332,0,0,0,19.13,20c0-4.49-4.07-8.317-9.085-8.317S.965,15.51.965,20a7.333,7.333,0,0,0,.718,3.166c1.378-1.358,4.6-2.315,8.362-2.315" transform="translate(-1.13 -7.509)" fill="#adaeae"/>
            <path id="패스_2593" data-name="패스 2593" d="M10.085,21c3.746,0,6.967.948,8.342,2.294a7.224,7.224,0,0,0,.718-3.137c0-4.449-4.059-8.256-9.06-8.256S1.029,15.71,1.029,20.158A7.219,7.219,0,0,0,1.746,23.3C3.119,21.95,6.336,21,10.085,21" transform="translate(-1.171 -7.651)" fill="#afb0b0"/>
            <path id="패스_2594" data-name="패스 2594" d="M10.126,21.154c3.736,0,6.948.939,8.32,2.273a7.117,7.117,0,0,0,.716-3.108c0-4.408-4.048-8.195-9.036-8.195s-9.032,3.788-9.032,8.195a7.116,7.116,0,0,0,.714,3.108c1.37-1.334,4.578-2.273,8.318-2.273" transform="translate(-1.213 -7.793)" fill="#b1b2b2"/>
            <path id="패스_2595" data-name="패스 2595" d="M10.165,21.306c3.726,0,6.93.931,8.3,2.252a7.012,7.012,0,0,0,.715-3.079c0-4.368-4.037-8.134-9.012-8.134s-9.008,3.767-9.008,8.134a7.008,7.008,0,0,0,.713,3.079c1.366-1.321,4.566-2.252,8.3-2.252" transform="translate(-1.253 -7.935)" fill="#b3b4b4"/>
            <path id="패스_2596" data-name="패스 2596" d="M10.206,21.458c3.716,0,6.911.922,8.275,2.231a6.91,6.91,0,0,0,.713-3.05c0-4.326-4.026-8.072-8.988-8.072s-8.984,3.747-8.984,8.072a6.908,6.908,0,0,0,.711,3.05c1.363-1.309,4.554-2.231,8.273-2.231" transform="translate(-1.295 -8.077)" fill="#b5b6b7"/>
            <path id="패스_2597" data-name="패스 2597" d="M10.246,21.61c3.705,0,6.893.913,8.253,2.209A6.8,6.8,0,0,0,19.21,20.8c0-4.285-4.015-8.011-8.964-8.011S1.287,16.513,1.287,20.8A6.8,6.8,0,0,0,2,23.819c1.359-1.3,4.541-2.209,8.251-2.209" transform="translate(-1.337 -8.219)" fill="#b7b8b9"/>
            <path id="패스_2598" data-name="패스 2598" d="M10.287,21.762c3.7,0,6.874.9,8.23,2.188a6.7,6.7,0,0,0,.709-2.992c0-4.245-4-7.95-8.939-7.95s-8.936,3.706-8.936,7.95a6.7,6.7,0,0,0,.707,2.992c1.355-1.284,4.529-2.188,8.229-2.188" transform="translate(-1.378 -8.361)" fill="#b9babb"/>
            <path id="패스_2599" data-name="패스 2599" d="M10.327,21.914c3.685,0,6.855.9,8.208,2.167a6.6,6.6,0,0,0,.707-2.963c0-4.2-3.993-7.888-8.915-7.888s-8.912,3.685-8.912,7.888A6.6,6.6,0,0,0,2.12,24.08c1.352-1.271,4.517-2.167,8.206-2.167" transform="translate(-1.419 -8.504)" fill="#bbbcbd"/>
            <path id="패스_2600" data-name="패스 2600" d="M10.366,22.065c3.675,0,6.837.886,8.186,2.146a6.5,6.5,0,0,0,.706-2.934c0-4.162-3.982-7.827-8.891-7.827s-8.887,3.665-8.887,7.827a6.491,6.491,0,0,0,.7,2.934c1.348-1.259,4.5-2.146,8.184-2.146" transform="translate(-1.46 -8.646)" fill="#bdbebf"/>
            <path id="패스_2601" data-name="패스 2601" d="M10.407,22.218c3.664,0,6.818.878,8.164,2.124a6.4,6.4,0,0,0,.7-2.905c0-4.122-3.971-7.765-8.867-7.765s-8.863,3.644-8.863,7.765a6.394,6.394,0,0,0,.7,2.905c1.344-1.247,4.493-2.124,8.162-2.124" transform="translate(-1.502 -8.788)" fill="#c0c0c1"/>
            <path id="패스_2602" data-name="패스 2602" d="M10.448,22.37c3.654,0,6.8.869,8.141,2.1a6.3,6.3,0,0,0,.7-2.876c0-4.081-3.96-7.7-8.843-7.7s-8.839,3.623-8.839,7.7a6.291,6.291,0,0,0,.7,2.876c1.341-1.234,4.481-2.1,8.14-2.1" transform="translate(-1.544 -8.93)" fill="#c2c2c3"/>
            <path id="패스_2603" data-name="패스 2603" d="M10.487,22.521c3.644,0,6.781.86,8.119,2.082a6.2,6.2,0,0,0,.7-2.847c0-4.04-3.95-7.643-8.819-7.643s-8.815,3.6-8.815,7.643a6.186,6.186,0,0,0,.7,2.847c1.337-1.222,4.468-2.082,8.117-2.082" transform="translate(-1.584 -9.072)" fill="#c4c4c5"/>
            <path id="패스_2604" data-name="패스 2604" d="M10.527,22.674c3.634,0,6.763.851,8.1,2.061a6.1,6.1,0,0,0,.7-2.818c0-4-3.938-7.581-8.794-7.581s-8.79,3.582-8.79,7.581a6.091,6.091,0,0,0,.7,2.818c1.333-1.21,4.456-2.061,8.095-2.061" transform="translate(-1.626 -9.214)" fill="#c6c7c7"/>
            <path id="패스_2605" data-name="패스 2605" d="M10.567,22.826c3.624,0,6.744.842,8.074,2.039a6,6,0,0,0,.7-2.789c0-3.958-3.928-7.52-8.77-7.52S1.8,18.118,1.8,22.076a6,6,0,0,0,.694,2.789c1.33-1.2,4.444-2.039,8.073-2.039" transform="translate(-1.667 -9.356)" fill="#c8c9c9"/>
            <path id="패스_2606" data-name="패스 2606" d="M10.608,22.977c3.613,0,6.726.833,8.052,2.018a5.9,5.9,0,0,0,.694-2.76c0-3.917-3.917-7.459-8.746-7.459s-8.742,3.542-8.742,7.459A5.893,5.893,0,0,0,2.558,25c1.326-1.185,4.432-2.018,8.051-2.018" transform="translate(-1.709 -9.498)" fill="#cacbcb"/>
            <path id="패스_2607" data-name="패스 2607" d="M10.648,23.129c3.6,0,6.707.824,8.029,2a5.8,5.8,0,0,0,.692-2.731c0-3.877-3.906-7.4-8.722-7.4s-8.718,3.521-8.718,7.4a5.8,5.8,0,0,0,.69,2.731c1.322-1.172,4.42-2,8.028-2" transform="translate(-1.75 -9.64)" fill="#cccdcd"/>
            <path id="패스_2608" data-name="패스 2608" d="M10.688,23.281c3.593,0,6.688.816,8.007,1.976a5.705,5.705,0,0,0,.691-2.7c0-3.836-3.895-7.336-8.7-7.336s-8.694,3.5-8.694,7.336a5.7,5.7,0,0,0,.688,2.7C4,24.1,7.089,23.281,10.688,23.281" transform="translate(-1.791 -9.783)" fill="#cecfcf"/>
            <path id="패스_2609" data-name="패스 2609" d="M10.709,23.435c3.588,0,6.679.81,8,1.963a5.65,5.65,0,0,0,.689-2.684c0-3.811-3.89-7.291-8.686-7.291S2.027,18.9,2.027,22.713A5.643,5.643,0,0,0,2.714,25.4c1.317-1.152,4.4-1.963,8-1.963" transform="translate(-1.812 -9.913)" fill="#d0d1d1"/>
            <path id="패스_2610" data-name="패스 2610" d="M10.731,23.587c3.583,0,6.67.8,7.985,1.95A5.585,5.585,0,0,0,19.4,22.87c0-3.786-3.885-7.247-8.674-7.247S2.06,19.085,2.06,22.87a5.575,5.575,0,0,0,.686,2.666c1.315-1.145,4.4-1.95,7.985-1.95" transform="translate(-1.833 -10.043)" fill="#d1d2d3"/>
            <path id="패스_2611" data-name="패스 2611" d="M10.752,23.74c3.579,0,6.661.8,7.974,1.937a5.532,5.532,0,0,0,.688-2.649c0-3.761-3.879-7.2-8.662-7.2s-8.659,3.441-8.659,7.2a5.516,5.516,0,0,0,.685,2.649c1.313-1.137,4.39-1.937,7.974-1.937" transform="translate(-1.855 -10.173)" fill="#d3d4d4"/>
            <path id="패스_2612" data-name="패스 2612" d="M10.774,23.893c3.574,0,6.652.794,7.963,1.924a5.468,5.468,0,0,0,.687-2.631c0-3.736-3.874-7.156-8.65-7.156s-8.647,3.421-8.647,7.156a5.457,5.457,0,0,0,.683,2.631c1.311-1.13,4.384-1.924,7.963-1.924" transform="translate(-1.876 -10.304)" fill="#d5d6d6"/>
            <path id="패스_2613" data-name="패스 2613" d="M10.794,24.045c3.569,0,6.643.789,7.953,1.911a5.415,5.415,0,0,0,.686-2.614c0-3.711-3.869-7.111-8.638-7.111s-8.635,3.4-8.635,7.111a5.4,5.4,0,0,0,.683,2.614c1.31-1.122,4.378-1.911,7.953-1.911" transform="translate(-1.897 -10.434)" fill="#d6d7d8"/>
            <path id="패스_2614" data-name="패스 2614" d="M10.816,24.2c3.565,0,6.634.784,7.942,1.9a5.357,5.357,0,0,0,.685-2.6c0-3.686-3.864-7.066-8.626-7.066S2.192,19.816,2.192,23.5a5.341,5.341,0,0,0,.681,2.6c1.308-1.115,4.373-1.9,7.942-1.9" transform="translate(-1.918 -10.564)" fill="#d8d9d9"/>
            <path id="패스_2615" data-name="패스 2615" d="M10.837,24.352c3.56,0,6.624.778,7.93,1.885a5.3,5.3,0,0,0,.684-2.578c0-3.661-3.859-7.021-8.615-7.021S2.225,20,2.225,23.659a5.277,5.277,0,0,0,.681,2.578c1.306-1.107,4.367-1.885,7.931-1.885" transform="translate(-1.939 -10.695)" fill="#dadbdb"/>
            <path id="패스_2616" data-name="패스 2616" d="M10.859,24.5c3.555,0,6.615.773,7.92,1.873a5.239,5.239,0,0,0,.682-2.56c0-3.636-3.853-6.976-8.6-6.976s-8.6,3.341-8.6,6.976a5.218,5.218,0,0,0,.679,2.56c1.3-1.1,4.362-1.873,7.921-1.873" transform="translate(-1.961 -10.825)" fill="#dbdcdc"/>
            <path id="패스_2617" data-name="패스 2617" d="M10.88,24.657c3.551,0,6.606.768,7.909,1.86a5.184,5.184,0,0,0,.682-2.543c0-3.611-3.848-6.931-8.59-6.931s-8.588,3.321-8.588,6.931a5.163,5.163,0,0,0,.678,2.543c1.3-1.092,4.356-1.86,7.91-1.86" transform="translate(-1.982 -10.955)" fill="#dddede"/>
            <path id="패스_2618" data-name="패스 2618" d="M10.9,24.81c3.546,0,6.6.762,7.9,1.847a5.126,5.126,0,0,0,.681-2.525c0-3.587-3.843-6.886-8.578-6.886s-8.576,3.3-8.576,6.886A5.105,5.105,0,0,0,3,26.657c1.3-1.085,4.35-1.847,7.9-1.847" transform="translate(-2.004 -11.085)" fill="#dfdfe0"/>
            <path id="패스_2619" data-name="패스 2619" d="M10.923,24.963c3.541,0,6.588.757,7.887,1.834a5.068,5.068,0,0,0,.679-2.507c0-3.561-3.838-6.841-8.566-6.841S2.358,20.73,2.358,24.29A5.039,5.039,0,0,0,3.034,26.8c1.3-1.077,4.344-1.834,7.889-1.834" transform="translate(-2.025 -11.216)" fill="#e0e1e1"/>
            <path id="패스_2620" data-name="패스 2620" d="M10.943,25.116c3.537,0,6.579.752,7.876,1.821a5.012,5.012,0,0,0,.679-2.49c0-3.536-3.833-6.8-8.555-6.8s-8.553,3.261-8.553,6.8a4.988,4.988,0,0,0,.675,2.49c1.3-1.069,4.339-1.821,7.878-1.821" transform="translate(-2.045 -11.346)" fill="#e2e3e3"/>
            <path id="패스_2621" data-name="패스 2621" d="M10.965,25.269c3.532,0,6.569.746,7.865,1.808a4.957,4.957,0,0,0,.678-2.472c0-3.512-3.828-6.751-8.542-6.751s-8.541,3.241-8.541,6.751A4.929,4.929,0,0,0,3.1,27.077c1.3-1.062,4.333-1.808,7.868-1.808" transform="translate(-2.067 -11.476)" fill="#e4e4e5"/>
            <path id="패스_2622" data-name="패스 2622" d="M10.987,25.422c3.527,0,6.56.741,7.854,1.8a4.9,4.9,0,0,0,.677-2.454c0-3.487-3.823-6.706-8.531-6.706s-8.53,3.221-8.53,6.706a4.871,4.871,0,0,0,.673,2.454c1.294-1.054,4.327-1.8,7.857-1.8" transform="translate(-2.088 -11.607)" fill="#e5e6e6"/>
            <path id="패스_2623" data-name="패스 2623" d="M11.008,25.574c3.523,0,6.552.736,7.843,1.782a4.843,4.843,0,0,0,.676-2.436c0-3.462-3.817-6.661-8.519-6.661S2.49,21.461,2.49,24.92a4.816,4.816,0,0,0,.672,2.436c1.292-1.046,4.322-1.782,7.846-1.782" transform="translate(-2.11 -11.737)" fill="#e7e7e8"/>
            <path id="패스_2624" data-name="패스 2624" d="M11.029,25.727c3.518,0,6.542.73,7.832,1.769a4.792,4.792,0,0,0,.674-2.418c0-3.437-3.812-6.616-8.507-6.616s-8.506,3.181-8.506,6.616A4.758,4.758,0,0,0,3.194,27.5c1.29-1.039,4.316-1.769,7.835-1.769" transform="translate(-2.131 -11.867)" fill="#e9e9e9"/>
            <path id="패스_2625" data-name="패스 2625" d="M11.05,25.88c3.513,0,6.533.725,7.821,1.757a4.733,4.733,0,0,0,.674-2.4c0-3.412-3.807-6.571-8.495-6.571s-8.494,3.161-8.494,6.571a4.7,4.7,0,0,0,.669,2.4c1.289-1.032,4.311-1.757,7.825-1.757" transform="translate(-2.152 -11.998)" fill="#eaebeb"/>
            <path id="패스_2626" data-name="패스 2626" d="M11.071,26.034c3.509,0,6.524.719,7.81,1.744a4.682,4.682,0,0,0,.673-2.383c0-3.387-3.8-6.526-8.483-6.526s-8.482,3.141-8.482,6.526a4.645,4.645,0,0,0,.668,2.383c1.287-1.024,4.3-1.744,7.814-1.744" transform="translate(-2.173 -12.128)" fill="#ececec"/>
            <path id="패스_2627" data-name="패스 2627" d="M11.093,26.187c3.5,0,6.515.714,7.8,1.731a4.626,4.626,0,0,0,.672-2.366c0-3.362-3.8-6.481-8.471-6.481s-8.471,3.121-8.471,6.481a4.59,4.59,0,0,0,.667,2.366c1.285-1.016,4.3-1.731,7.8-1.731" transform="translate(-2.195 -12.259)" fill="#edeeee"/>
            <path id="패스_2628" data-name="패스 2628" d="M11.114,26.339c3.5,0,6.506.709,7.788,1.718a4.57,4.57,0,0,0,.671-2.348c0-3.337-3.792-6.436-8.459-6.436s-8.459,3.1-8.459,6.436a4.537,4.537,0,0,0,.666,2.348c1.283-1.009,4.293-1.718,7.793-1.718" transform="translate(-2.216 -12.388)" fill="#efefef"/>
            <path id="패스_2629" data-name="패스 2629" d="M11.136,26.492c3.495,0,6.5.7,7.778,1.7a4.517,4.517,0,0,0,.67-2.33c0-3.312-3.787-6.391-8.447-6.391s-8.447,3.082-8.447,6.391a4.477,4.477,0,0,0,.665,2.33c1.282-1,4.288-1.7,7.782-1.7" transform="translate(-2.238 -12.519)" fill="#f1f1f1"/>
            <path id="패스_2630" data-name="패스 2630" d="M11.157,26.645c3.49,0,6.487.7,7.766,1.692a4.464,4.464,0,0,0,.669-2.312c0-3.288-3.781-6.346-8.435-6.346S2.721,22.74,2.721,26.025a4.429,4.429,0,0,0,.664,2.312c1.28-.994,4.282-1.692,7.772-1.692" transform="translate(-2.258 -12.649)" fill="#f2f2f2"/>
            <path id="패스_2631" data-name="패스 2631" d="M11.178,26.8c3.486,0,6.478.693,7.755,1.679a4.408,4.408,0,0,0,.668-2.295c0-3.263-3.776-6.3-8.423-6.3s-8.424,3.041-8.424,6.3a4.37,4.37,0,0,0,.663,2.295C4.695,27.49,7.693,26.8,11.178,26.8" transform="translate(-2.279 -12.779)" fill="#f4f4f4"/>
            <path id="패스_2632" data-name="패스 2632" d="M11.2,26.951c3.481,0,6.469.688,7.745,1.666a4.356,4.356,0,0,0,.667-2.277c0-3.238-3.771-6.256-8.411-6.256S2.787,23.105,2.787,26.34a4.318,4.318,0,0,0,.662,2.277c1.276-.979,4.271-1.666,7.75-1.666" transform="translate(-2.301 -12.91)" fill="#f5f5f6"/>
            <path id="패스_2633" data-name="패스 2633" d="M11.221,27.1c3.476,0,6.46.682,7.734,1.653a4.3,4.3,0,0,0,.666-2.259c0-3.213-3.766-6.211-8.4-6.211s-8.4,3-8.4,6.211a4.262,4.262,0,0,0,.661,2.259c1.275-.971,4.265-1.653,7.74-1.653" transform="translate(-2.322 -13.04)" fill="#f7f7f7"/>
            <path id="패스_2634" data-name="패스 2634" d="M11.242,27.257c3.472,0,6.451.677,7.722,1.641a4.252,4.252,0,0,0,.665-2.242c0-3.187-3.76-6.166-8.387-6.166s-8.388,2.981-8.388,6.166A4.211,4.211,0,0,0,3.513,28.9c1.273-.964,4.259-1.641,7.729-1.641" transform="translate(-2.344 -13.171)" fill="#f9f9f9"/>
            <path id="패스_2635" data-name="패스 2635" d="M11.263,27.409c3.467,0,6.441.672,7.711,1.628a4.2,4.2,0,0,0,.664-2.224c0-3.163-3.755-6.121-8.375-6.121s-8.377,2.962-8.377,6.121a4.157,4.157,0,0,0,.658,2.224c1.271-.956,4.254-1.628,7.719-1.628" transform="translate(-2.364 -13.3)" fill="#fafafa"/>
            <path id="패스_2636" data-name="패스 2636" d="M11.285,27.562c3.462,0,6.433.666,7.7,1.615a4.146,4.146,0,0,0,.663-2.207c0-3.138-3.75-6.076-8.363-6.076S2.92,23.837,2.92,26.971a4.1,4.1,0,0,0,.657,2.207c1.269-.949,4.248-1.615,7.707-1.615" transform="translate(-2.386 -13.431)" fill="#fbfbfc"/>
            <path id="패스_2637" data-name="패스 2637" d="M11.306,27.716c3.458,0,6.424.661,7.69,1.6a4.1,4.1,0,0,0,.662-2.188c0-3.113-3.745-6.031-8.352-6.031S2.953,24.02,2.953,27.129a4.051,4.051,0,0,0,.656,2.188c1.267-.941,4.242-1.6,7.7-1.6" transform="translate(-2.407 -13.561)" fill="#fdfdfd"/>
            <path id="패스_2638" data-name="패스 2638" d="M11.328,27.868c3.453,0,6.414.656,7.678,1.589a4.04,4.04,0,0,0,.661-2.171c0-3.088-3.74-5.986-8.34-5.986s-8.342,2.9-8.342,5.986a4,4,0,0,0,.655,2.171c1.266-.933,4.237-1.589,7.686-1.589" transform="translate(-2.428 -13.691)" fill="#fefefe"/>
            <path id="패스_2639" data-name="패스 2639" d="M11.349,28.021c3.448,0,6.405.65,7.668,1.576a3.991,3.991,0,0,0,.66-2.153c0-3.063-3.734-5.941-8.328-5.941s-8.33,2.882-8.33,5.941A3.946,3.946,0,0,0,3.673,29.6c1.264-.926,4.231-1.576,7.676-1.576" transform="translate(-2.45 -13.822)" fill="#fff"/>
          </g>
        </g>
        <g id="그룹_5933" data-name="그룹 5933" transform="translate(0 0)">
          <g id="그룹_5932" data-name="그룹 5932" clip-path="url(#clip-path-3)">
            <path id="패스_2641" data-name="패스 2641" d="M11.7,31.19a23.523,23.523,0,0,0-8.13,1.373,8.9,8.9,0,0,0,16.258,0A23.468,23.468,0,0,0,11.7,31.19" transform="translate(-2.294 -20.048)" fill="#8c8d8d"/>
          </g>
        </g>
      </g>
    </g>
  </g>
</svg>
