<svg xmlns="http://www.w3.org/2000/svg" xmlns:xlink="http://www.w3.org/1999/xlink" width="120" height="90" viewBox="0 0 120 90">
  <defs>
    <clipPath id="clip-path">
      <path id="패스_2554" data-name="패스 2554" d="M15-639a10,10,0,0,1,10,10,10,10,0,0,1-10,10A10,10,0,0,1,5-629,10,10,0,0,1,15-639Zm5.036,5.128-7,6.924-3.31-3.273-1.305,1.29,4.615,4.563,8.307-8.214Z" fill="#fff" clip-rule="evenodd"/>
    </clipPath>
    <clipPath id="clip-path-2">
      <path id="패스_2553" data-name="패스 2553" d="M3-617H27v-24H3Z" fill="#fff"/>
    </clipPath>
  </defs>
  <g id="credit-lotte" transform="translate(-1020 -2230)">
    <rect id="사각형_2753" data-name="사각형 2753" width="120" height="90" rx="10" transform="translate(1020 2230)" fill="#eee"/>
    <text id="롯데카드" transform="translate(1099 2307)" font-size="11" font-family="SamsungOneKoreanOTF-400, 'SamsungOneKoreanOTF 400'" letter-spacing="-0.005em"><tspan x="-37.218" y="0">롯데카드</tspan></text>
    <g id="그룹_5001" data-name="그룹 5001" transform="translate(571.544 2015.815)">
      <g id="그룹_1297" data-name="그룹 1297" transform="translate(463.329 254.699)">
        <g id="그룹_5325" data-name="그룹 5325">
          <path id="패스_497" data-name="패스 497" d="M474.82,254.7c-3.133,0-5.047,1.9-5.012,4.275-.024,2.343,1.874,4.257,5,4.269,3.116-.006,4.989-1.918,4.936-4.287.06-2.361-1.828-4.255-4.926-4.257m-.029,7.607c-1.511-.011-2.65-1.5-2.613-3.35-.021-1.867,1.1-3.35,2.607-3.356s2.6,1.5,2.63,3.354-1.139,3.354-2.623,3.351" transform="translate(-462.499 -254.699)" fill="#373737"/>
          <path id="패스_498" data-name="패스 498" d="M487.594,254.966l-8.58-.007.045.959,3.253-.024.015,6.955,2.466-.015-.009-6.919,2.813-.019Z" transform="translate(-461.319 -254.666)" fill="#373737"/>
          <path id="패스_499" data-name="패스 499" d="M495.921,254.976l-8.574-.008.01.966,2.811-.021.01,6.919,2.453-.019.029-6.889,3.291-.027Z" transform="translate(-460.251 -254.665)" fill="#373737"/>
          <path id="패스_500" data-name="패스 500" d="M466.173,261.885a.428.428,0,0,1-.461-.389c0-.014,0-.027,0-.041v-6.5h-2.382v6.935a.941.941,0,0,0,.941.939h.02l6.041-.021V261.9Z" transform="translate(-463.329 -254.666)" fill="#373737"/>
          <path id="패스_501" data-name="패스 501" d="M498.654,255.9l4.56-.02.021-.9-6.522-.009a.922.922,0,0,0-.917.9l-.024,6.027a.95.95,0,0,0,.968.926l6.464-.014.035-.9h-4.6a.528.528,0,0,1-.464-.477l.026-2.307h4.924l.011-.926-5-.01.045-1.825a.491.491,0,0,1,.476-.464" transform="translate(-459.171 -254.664)" fill="#373737"/>
        </g>
      </g>
      <path id="패스_502" data-name="패스 502" d="M521.82,254.917h-1.826l-4.657,8.042h1.8l1.031-1.71,5.474-.03,1.044,1.749,1.392-.015h.36l-.1-.167Zm-2.89,4.851,1.96-3.366,1.967,3.377Zm28.131-3.742a4.752,4.752,0,0,0-3.245-1.128H538.3v8.074l5.674.009h0a4.447,4.447,0,0,0,2.987-1.083,3.55,3.55,0,0,0,1.291-2.873l.01-.028a3.912,3.912,0,0,0-1.2-2.967m-1.214,4.763a2.184,2.184,0,0,1-1.769.694l-4.192.007-.025-5.133,3.96.007a2.844,2.844,0,0,1,1.974.719,2.548,2.548,0,0,1,.8,1.918,2.46,2.46,0,0,1-.747,1.784m-39.78-4.757A3.793,3.793,0,0,0,504.822,259h0a3.88,3.88,0,0,0,1.312,2.893,4.276,4.276,0,0,0,3.007,1.059h0l5.314.009.076-1.458-5.5-.028a2.494,2.494,0,0,1-1.805-.687,2.8,2.8,0,0,1-.717-1.8,2.541,2.541,0,0,1,.764-1.918,2.754,2.754,0,0,1,1.977-.719l5.261.023-.018-1.467-5.115-.019a4.615,4.615,0,0,0-3.3,1.145m28.778,3.884a2.287,2.287,0,0,0,1.9-2.439h0a2.465,2.465,0,0,0-.694-1.851,2.705,2.705,0,0,0-2.093-.714l-6.616-.011v8.06l1.56.012.034-6.592,4.677-.028c1.093.038,1.477.326,1.5,1.117-.019.775-.388,1.065-1.476,1.092l-4.922-.01-.006,1.447h4.293l2.282,2.968h1.875l-.158-.238Z" transform="translate(5.318 0.024)" fill="#777"/>
    </g>
    <g id="그룹_5797" data-name="그룹 5797" transform="translate(1105 2877)" clip-path="url(#clip-path)">
      <g id="그룹_5796" data-name="그룹 5796" clip-path="url(#clip-path-2)">
        <path id="패스_2552" data-name="패스 2552" d="M0-644H30v30H0Z" fill="#fff"/>
      </g>
    </g>
  </g>
</svg>
