<svg xmlns="http://www.w3.org/2000/svg" xmlns:xlink="http://www.w3.org/1999/xlink" width="120" height="90" viewBox="0 0 120 90">
  <defs>
    <clipPath id="clip-path">
      <path id="패스_2557" data-name="패스 2557" d="M15-639a10,10,0,0,1,10,10,10,10,0,0,1-10,10A10,10,0,0,1,5-629,10,10,0,0,1,15-639Zm5.036,5.128-7,6.924-3.31-3.273-1.305,1.29,4.615,4.563,8.307-8.214Z" fill="#fff" clip-rule="evenodd"/>
    </clipPath>
    <clipPath id="clip-path-2">
      <path id="패스_2556" data-name="패스 2556" d="M3-617H27v-24H3Z" fill="#fff"/>
    </clipPath>
  </defs>
  <g id="credit-nh" transform="translate(-1150 -2230)">
    <rect id="사각형_2754" data-name="사각형 2754" width="120" height="90" rx="10" transform="translate(1150 2230)" fill="#eee"/>
    <text id="NH농협카드" transform="translate(1210 2307)" font-size="11" font-family="SamsungOneKoreanOTF-400, 'SamsungOneKoreanOTF 400'" letter-spacing="-0.005em"><tspan x="-26.192" y="0">NH농협카드</tspan></text>
    <g id="그룹_5002" data-name="그룹 5002" transform="translate(597.387 2006.696)">
      <g id="그룹_1302" data-name="그룹 1302" transform="translate(570.31 261.971)">
        <g id="그룹_5326" data-name="그룹 5326">
          <g id="그룹_1301" data-name="그룹 1301">
            <g id="그룹_1300" data-name="그룹 1300">
              <g id="그룹_1299" data-name="그룹 1299">
                <path id="패스_503" data-name="패스 503" d="M577.542,261.971l-2.414,1.213-2.413-1.213,2.413,4.59Z" transform="translate(-570.172 -261.971)" fill="#a1a1a1"/>
                <path id="패스_504" data-name="패스 504" d="M578.525,265.5l-.037-.032,1.723-.724V262.32l-2.993,1.275-1.658,3.14a2.516,2.516,0,1,1-.589,0c-.036-.07-1.656-3.14-1.656-3.14l-2.99-1.275v2.422l1.722.724-.038.032a4.956,4.956,0,1,0,6.516,0Z" transform="translate(-570.31 -261.951)" fill="#a1a1a1"/>
              </g>
            </g>
          </g>
        </g>
      </g>
      <path id="패스_505" data-name="패스 505" d="M613.441,269.375a1.508,1.508,0,0,1,.756,1.323c0,1.275-1.375,1.857-3.067,1.857s-3.067-.582-3.067-1.857,1.354-1.856,3.067-1.856h5.085a.141.141,0,0,0,.132-.14,1.484,1.484,0,0,0,0-.433.134.134,0,0,0-.131-.121h-4.288v-1.326h4.081a.141.141,0,0,0,.135-.136,1.583,1.583,0,0,0,0-.436.135.135,0,0,0-.135-.117h-7.732a.39.39,0,0,1-.4-.379v-1.888a.387.387,0,0,0-.394-.38h-1.215v2.624a.734.734,0,0,0,.751.713h3.3v1.326h-4.732l.458.693h1.411a2.083,2.083,0,0,0-.991,1.777c0,1.817,2.092,2.644,4.67,2.644s4.672-.828,4.672-2.644a1.972,1.972,0,0,0-.415-1.241Z" transform="translate(2.031 0.087)" fill="#343535"/>
      <path id="패스_506" data-name="패스 506" d="M621.677,265.156a1.612,1.612,0,0,1,.221.311,1.718,1.718,0,0,1,.222.837,1.675,1.675,0,0,1-3.349.085c0-.029,0-.056,0-.085a1.671,1.671,0,0,1,1.651-1.692h3.606a.144.144,0,0,0,.134-.14,1.5,1.5,0,0,0,0-.446.136.136,0,0,0-.136-.121h-2.75v-.38a.4.4,0,0,0-.407-.385h-1.248v.765h-3.135c.066.092.449.68.468.706h1.18a2.115,2.115,0,0,0-.978,1.692c0,1.32,1.325,2.384,3.29,2.384a3.492,3.492,0,0,0,2.855-1.2h2.28v2.586h-6.055v-.72a.4.4,0,0,0-.4-.389h-1.25v3.22a.754.754,0,0,0,.77.731h8.6v-9.2a.4.4,0,0,0-.407-.388h-1.253v1.829Zm3.906,7.05h-5.832a.218.218,0,0,1-.222-.212v-1.216h6.055Zm0-5.427h-1.916a1.8,1.8,0,0,0,.064-.475,1.872,1.872,0,0,0-.055-.441h1.9Z" transform="translate(2.658 0.067)" fill="#343535"/>
      <path id="패스_507" data-name="패스 507" d="M603.956,263.543H602.51v3.734H596.6v-3.734h-1.448a.686.686,0,0,0-.621.74v7.9a.689.689,0,0,0,.621.74H596.6v-4.011h5.914v4.011h1.447a.689.689,0,0,0,.622-.74v-7.9A.685.685,0,0,0,603.956,263.543Z" transform="translate(1.394 0.09)" fill="#343535"/>
      <path id="패스_508" data-name="패스 508" d="M592.771,263.543h-1.448v7.173l-4.35-5.731c-.723-.835-1.218-1.444-2.375-1.444h-1.474v8.632a.687.687,0,0,0,.624.74h1.446v-7.207l4.376,5.692a3.262,3.262,0,0,0,2.468,1.517h1.352v-8.633A.686.686,0,0,0,592.771,263.543Z" transform="translate(0.737 0.09)" fill="#343535"/>
      <path id="패스_509" data-name="패스 509" d="M629.151,267.657l-.446-.687H632.8a7.716,7.716,0,0,0,.355-1.237,6.491,6.491,0,0,0,.127-1.287h-4.125l-.446-.7h5.93a.405.405,0,0,1,.264.119.346.346,0,0,1,.106.254,6.861,6.861,0,0,1-.786,3.08,8.689,8.689,0,0,1-2.186,2.734,9.832,9.832,0,0,1-3.4,1.854l-.482-.58a7.5,7.5,0,0,0,2.571-1.395,7.19,7.19,0,0,0,1.751-2.155Zm7.72,5.107v-9.381H638.1a.36.36,0,0,1,.267.106.346.346,0,0,1,.106.254v2.474h1.217a.117.117,0,0,1,.115.1.88.88,0,0,1,.031.252.851.851,0,0,1-.031.247.137.137,0,0,1-.115.106h-1.217v5.843Z" transform="translate(3.329 0.081)" fill="#343535"/>
      <path id="패스_510" data-name="패스 510" d="M650.882,272.28a.114.114,0,0,1-.115.09h-10.3l-.446-.674h10.744a.114.114,0,0,1,.115.09,1.617,1.617,0,0,1,0,.495Zm-8.384-4.172a.345.345,0,0,0,.106.26.427.427,0,0,0,.265.114h7.4a.112.112,0,0,1,.114.091.651.651,0,0,1,.019.247.72.72,0,0,1-.019.26.114.114,0,0,1-.114.091h-8.643a.758.758,0,0,1-.519-.218.739.739,0,0,1-.218-.52v-4.708h9.261a.127.127,0,0,1,.106.106.893.893,0,0,1,.025.249.957.957,0,0,1-.025.252c-.015.067-.052.1-.106.1H642.5Z" transform="translate(4.013 0.101)" fill="#343535"/>
    </g>
    <g id="그룹_5799" data-name="그룹 5799" transform="translate(1235 2877)" clip-path="url(#clip-path)">
      <g id="그룹_5798" data-name="그룹 5798" clip-path="url(#clip-path-2)">
        <path id="패스_2555" data-name="패스 2555" d="M0-644H30v30H0Z" fill="#fff"/>
      </g>
    </g>
  </g>
</svg>
