<svg xmlns="http://www.w3.org/2000/svg" xmlns:xlink="http://www.w3.org/1999/xlink" width="120" height="90" viewBox="0 0 120 90">
  <defs>
    <clipPath id="clip-path">
      <path id="패스_2566" data-name="패스 2566" d="M15-639a10,10,0,0,1,10,10,10,10,0,0,1-10,10A10,10,0,0,1,5-629,10,10,0,0,1,15-639Zm5.036,5.128-7,6.924-3.31-3.273-1.305,1.29,4.615,4.563,8.307-8.214Z" fill="#fff" clip-rule="evenodd"/>
    </clipPath>
    <clipPath id="clip-path-2">
      <path id="패스_2565" data-name="패스 2565" d="M3-617H27v-24H3Z" fill="#fff"/>
    </clipPath>
  </defs>
  <g id="credit-kakao1" transform="translate(-890 -2330)">
    <rect id="사각형_2758" data-name="사각형 2758" width="120" height="90" rx="10" transform="translate(890 2330)" fill="#eee"/>
    <g id="그룹_5789" data-name="그룹 5789" transform="translate(431.551 1373.412)" style="isolation: isolate">
      <path id="패스_521" data-name="패스 521" d="M480.894,1009.717h-1.444V996.841l1.444-.333Zm3.863-9.345,1.131.866-2.779,3.7,3.219,4.1-1.115.916-3.8-4.931Z" transform="translate(0 -1.596)"/>
      <path id="패스_522" data-name="패스 522" d="M530.065,1026.689a2.58,2.58,0,0,1,.872-2.107,3.872,3.872,0,0,1,2.535-.725h1.666v-.583q0-2.116-1.759-2.115a4.56,4.56,0,0,0-1.185.166,6.514,6.514,0,0,0-1.139.417l-.424-1.083a5.709,5.709,0,0,1,1.39-.591,5.4,5.4,0,0,1,1.451-.208q3.047,0,3.046,3.448v5.83h-1.067l-.173-1a5.1,5.1,0,0,1-1.374.85,3.655,3.655,0,0,1-1.39.3,2.35,2.35,0,0,1-1.8-.691,2.67,2.67,0,0,1-.652-1.908m2.711,1.366a2.434,2.434,0,0,0,.617-.084,4.771,4.771,0,0,0,.641-.216,3.362,3.362,0,0,0,.6-.325,3.6,3.6,0,0,0,.5-.408v-2.132h-1.5a2.678,2.678,0,0,0-1.665.417,1.581,1.581,0,0,0-.523,1.316q0,1.432,1.329,1.433" transform="translate(-42.095 -21.016)"/>
      <path id="패스_523" data-name="패스 523" d="M585.11,1009.717h-1.444V996.841l1.444-.333Zm3.862-9.345,1.13.866-2.778,3.7,3.218,4.1-1.114.916-3.8-4.931Z" transform="translate(-86.672 -1.596)"/>
      <path id="패스_524" data-name="패스 524" d="M632.111,1026.689a2.582,2.582,0,0,1,.871-2.107,3.876,3.876,0,0,1,2.536-.725h1.664v-.583q0-2.116-1.758-2.115a4.57,4.57,0,0,0-1.186.166,6.455,6.455,0,0,0-1.138.417l-.424-1.083a5.73,5.73,0,0,1,1.389-.591,5.4,5.4,0,0,1,1.452-.208q3.045,0,3.046,3.448v5.83H637.5l-.173-1a5.089,5.089,0,0,1-1.374.85,3.653,3.653,0,0,1-1.389.3,2.352,2.352,0,0,1-1.8-.691,2.671,2.671,0,0,1-.651-1.908m2.711,1.366a2.44,2.44,0,0,0,.617-.084,4.769,4.769,0,0,0,.641-.216,3.393,3.393,0,0,0,.6-.325,3.649,3.649,0,0,0,.5-.408v-2.132h-1.5a2.673,2.673,0,0,0-1.665.417,1.578,1.578,0,0,0-.523,1.316q0,1.432,1.329,1.433" transform="translate(-126.961 -21.016)"/>
      <path id="패스_525" data-name="패스 525" d="M686.033,1019.958a3.451,3.451,0,0,1,2.81,1.233,5.4,5.4,0,0,1,1.021,3.532,5.3,5.3,0,0,1-1.013,3.482,3.864,3.864,0,0,1-5.628,0,5.274,5.274,0,0,1-1.021-3.482,5.374,5.374,0,0,1,1.029-3.532,3.459,3.459,0,0,1,2.8-1.233m0,1.233a1.965,1.965,0,0,0-1.735.9,4.722,4.722,0,0,0-.605,2.632,4.556,4.556,0,0,0,.605,2.59,2.174,2.174,0,0,0,3.486,0,4.566,4.566,0,0,0,.6-2.59,4.733,4.733,0,0,0-.6-2.632,1.982,1.982,0,0,0-1.751-.9" transform="translate(-168.618 -21.099)"/>
      <g id="그룹_1308" data-name="그룹 1308" transform="translate(523.507 994.588)">
        <path id="패스_526" data-name="패스 526" d="M746.931,998.795a4.481,4.481,0,0,0-2.7-.023c-.188.05-.372.114-.628.194-.014-.205-.025-.294-.025-.384q0-1.623,0-3.246c0-.089,0-.167-.007-.235v-.513l-2.43.482v12.49l.254.112a1.154,1.154,0,0,0,.142.063h0c.044.017.093.033.148.05a8.07,8.07,0,0,0,1.885.33h0c.257.019.514.031.771.041a4.378,4.378,0,0,0,3.488-1.311,4.877,4.877,0,0,0,1.264-3.031,7.043,7.043,0,0,0-.255-2.83A3.1,3.1,0,0,0,746.931,998.795Zm-.473,6.01a2.195,2.195,0,0,1-2.509,1.507,1.907,1.907,0,0,1-.37-.092v-5.505a1.4,1.4,0,0,1,.281-.11,2.534,2.534,0,0,1,1.924.135,1.6,1.6,0,0,1,.724.929A4.936,4.936,0,0,1,746.457,1004.805Z" transform="translate(-741.148 -994.588)"/>
        <path id="패스_527" data-name="패스 527" d="M915.769,1008.288l-3.095-3.753,2.744-3.554-1.746-1.279-3.345,4.339V996.1l-2.427.386V1009.4h2.427v-4.109l.056.042,3.57,4.4Z" transform="translate(-879.827 -995.845)"/>
        <path id="패스_528" data-name="패스 528" d="M855.906,1019.915a3.321,3.321,0,0,0-2.911-.232,12.1,12.1,0,0,0-1.666.8l-.314-.774h-1.719v9.139h2.428v-1.629l0-.041q0-1.4,0-2.808c0-.7,0-1.395,0-2.092a.475.475,0,0,1,.364-.534,4.22,4.22,0,0,1,1.969-.085.8.8,0,0,1,.723.784c.009.1.015.2.02.3v6.1h2.425v-6.3A2.814,2.814,0,0,0,855.906,1019.915Z" transform="translate(-831.088 -1015.272)"/>
        <path id="패스_529" data-name="패스 529" d="M801.33,1022.288a2.912,2.912,0,0,0-2.747-2.479,9.066,9.066,0,0,0-4.133.919s.493,1.127.7,1.592c.155-.035.244-.052.33-.076a13.08,13.08,0,0,1,1.472-.406,3.613,3.613,0,0,1,1.252.016,1.2,1.2,0,0,1,.893,1.636l-.314-.019a8.817,8.817,0,0,0-2.457.2,2.715,2.715,0,0,0-2.195,1.922,2.9,2.9,0,0,0,1.478,3.522,3.369,3.369,0,0,0,2.419,0,13.838,13.838,0,0,0,1.414-.685l.254.7h1.712v-6.027h-.013A7.171,7.171,0,0,0,801.33,1022.288Zm-2.48,4.686a2.727,2.727,0,0,1-1.558.446c-.614-.015-.956-.239-1.086-.73a1.208,1.208,0,0,1,.521-1.288,5.379,5.379,0,0,1,2.451-.306v1.421A.726.726,0,0,1,798.849,1026.974Z" transform="translate(-785.103 -1015.56)"/>
      </g>
    </g>
    <text id="카카오뱅크" transform="translate(974 2407)" font-size="11" font-family="SamsungOneKoreanOTF-400, 'SamsungOneKoreanOTF 400'" letter-spacing="-0.005em"><tspan x="-46.509" y="0">카카오뱅크</tspan></text>
    <g id="그룹_5805" data-name="그룹 5805" transform="translate(975 2977)" clip-path="url(#clip-path)">
      <g id="그룹_5804" data-name="그룹 5804" clip-path="url(#clip-path-2)">
        <path id="패스_2564" data-name="패스 2564" d="M0-644H30v30H0Z" fill="#fff"/>
      </g>
    </g>
  </g>
</svg>
