<svg xmlns="http://www.w3.org/2000/svg" xmlns:xlink="http://www.w3.org/1999/xlink" width="120" height="90" viewBox="0 0 120 90">
  <defs>
    <clipPath id="clip-path">
      <path id="패스_2542" data-name="패스 2542" d="M15-639a10,10,0,0,1,10,10,10,10,0,0,1-10,10A10,10,0,0,1,5-629,10,10,0,0,1,15-639Zm5.036,5.128-7,6.924-3.31-3.273-1.305,1.29,4.615,4.563,8.307-8.214Z" fill="#fff" clip-rule="evenodd"/>
    </clipPath>
    <clipPath id="clip-path-2">
      <path id="패스_2541" data-name="패스 2541" d="M3-617H27v-24H3Z" fill="#fff"/>
    </clipPath>
  </defs>
  <g id="credit-samsung-o" transform="translate(14000 -4541)">
    <rect id="사각형_2749" data-name="사각형 2749" width="120" height="90" rx="10" transform="translate(-14000 4541)" fill="#212425"/>
    <g id="그룹_5782" data-name="그룹 5782" transform="translate(-14132.082 4221.538)" style="isolation: isolate">
      <path id="패스_455" data-name="패스 455" d="M150.2,369.766c-2.712,0-3.22-1.6-3.1-3.409h2.19c0,1,.044,1.843,1.249,1.843a1.048,1.048,0,0,0,1.1-1.191c0-1.885-4.411-2-4.411-5.122,0-1.639.784-2.944,3.454-2.944,2.134,0,3.192.957,3.046,3.147h-2.132c0-.782-.131-1.581-1.015-1.581a1.02,1.02,0,0,0-1.132,1.117c0,1.988,4.41,1.815,4.41,5.107,0,2.713-1.988,3.033-3.656,3.033" transform="translate(0 -0.055)" fill="#fff"/>
      <path id="패스_456" data-name="패스 456" d="M167.086,369.9l2.9-10.475h2.885l2.844,10.475h-2.306l-.581-2.321h-2.989l-.6,2.321Zm4.221-8.458h-.028l-1,4.526h2.089Z" transform="translate(-12.817 -0.365)" fill="#fff"/>
      <path id="패스_457" data-name="패스 457" d="M192.862,369.9V359.43h3.526l1.638,7.121h.028l1.741-7.121h3.409V369.9h-2.132v-8.08h-.029l-2.016,8.08h-2.09l-1.915-8.08H195v8.08Z" transform="translate(-29.333 -0.366)" fill="#fff"/>
      <path id="패스_458" data-name="패스 458" d="M227.98,369.766c-2.712,0-3.22-1.6-3.1-3.409h2.192c0,1,.041,1.843,1.246,1.843a1.048,1.048,0,0,0,1.1-1.191c0-1.885-4.41-2-4.41-5.122,0-1.639.782-2.944,3.452-2.944,2.133,0,3.192.957,3.048,3.147h-2.134c0-.782-.131-1.581-1.015-1.581a1.021,1.021,0,0,0-1.132,1.117c0,1.988,4.41,1.815,4.41,5.107,0,2.713-1.988,3.033-3.656,3.033" transform="translate(-49.836 -0.055)" fill="#fff"/>
      <path id="패스_459" data-name="패스 459" d="M254.086,359.427v7.429c0,1.566-.885,3.22-3.555,3.22-2.409,0-3.57-1.25-3.57-3.22v-7.429h2.191v7.283c0,1.291.551,1.8,1.349,1.8.957,0,1.393-.64,1.393-1.8v-7.283Z" transform="translate(-63.995 -0.365)" fill="#fff"/>
      <path id="패스_460" data-name="패스 460" d="M270.8,369.9V359.43h2.958l2.785,7.252h.03V359.43h2.045V369.9h-2.885l-2.859-7.661h-.029V369.9Z" transform="translate(-79.272 -0.366)" fill="#fff"/>
      <path id="패스_461" data-name="패스 461" d="M301.306,362.336c.015-.973-.144-1.829-1.3-1.829-1.366,0-1.366,1.843-1.366,3.874,0,3.278.32,3.859,1.569,3.859a3.441,3.441,0,0,0,1.086-.2v-2.323H300.1v-1.609h3.379v5.31a19.876,19.876,0,0,1-2.958.349c-3.686,0-4.106-1.524-4.106-5.5,0-2.639.13-5.324,3.714-5.324,2.147,0,3.482,1.205,3.35,3.4Z" transform="translate(-95.684 -0.053)" fill="#fff"/>
      <path id="패스_462" data-name="패스 462" d="M320.135,364.3c0-2.828.03-5.441,3.162-5.441,2.539,0,2.582,2.09,2.582,3.033h-.928c0-1.16-.319-2.249-1.654-2.249-2.2,0-2.232,1.871-2.232,4.657s.028,4.658,2.232,4.658c1.2,0,1.654-1.074,1.669-2.423h.987c0,.755-.175,3.206-2.656,3.206-3.133,0-3.162-2.611-3.162-5.441" transform="translate(-110.88)" fill="#fff"/>
      <path id="패스_463" data-name="패스 463" d="M341.957,359.427l3.265,10.475h-.974l-.84-2.757H339.3l-.828,2.757h-.93l3.309-10.475Zm1.2,6.935-1.784-5.92h-.029l-1.77,5.92Z" transform="translate(-122.036 -0.365)" fill="#fff"/>
      <path id="패스_464" data-name="패스 464" d="M362.153,364.823V369.9h-.929V359.427h2.888c2.015,0,2.523.667,2.523,2.51,0,1.3-.217,2.176-1.624,2.495v.03c1.466.3,1.552.478,1.552,4.221,0,.406.072.813.1,1.219h-.885c-.086-.3-.13-2.046-.146-2.611-.012-.452.293-2.468-1.725-2.468Zm0-.783h1.51c1.392,0,2.044-.362,2.044-2.117,0-1.436-.565-1.713-1.654-1.713h-1.9Z" transform="translate(-137.207 -0.365)" fill="#fff"/>
      <path id="패스_465" data-name="패스 465" d="M380.7,359.423h2.771c2.931,0,3.293,1.713,3.293,5.283,0,3.48-.508,5.193-3.672,5.193H380.7Zm.928,9.693h1.133c2.8,0,3.075-.755,3.075-5.035,0-3-.406-3.873-2.988-3.873h-1.219Z" transform="translate(-149.685 -0.362)" fill="#fff"/>
    </g>
    <text id="삼성카드" transform="translate(-13940 4618)" fill="#fff" font-size="11" font-family="SamsungOneKoreanOTF-700, 'SamsungOneKoreanOTF 700'" font-weight="700" letter-spacing="-0.005em"><tspan x="-18.609" y="0">삼성카드</tspan></text>
    <g id="그룹_5784" data-name="그룹 5784" transform="translate(-13915 5188)" clip-path="url(#clip-path)">
      <g id="그룹_5783" data-name="그룹 5783" clip-path="url(#clip-path-2)">
        <path id="패스_2540" data-name="패스 2540" d="M0-644H30v30H0Z" fill="#fff"/>
      </g>
    </g>
  </g>
</svg>
