<svg xmlns="http://www.w3.org/2000/svg" xmlns:xlink="http://www.w3.org/1999/xlink" width="120" height="90" viewBox="0 0 120 90">
  <defs>
    <clipPath id="clip-path">
      <path id="패스_2551" data-name="패스 2551" d="M15-639a10,10,0,0,1,10,10,10,10,0,0,1-10,10A10,10,0,0,1,5-629,10,10,0,0,1,15-639Zm5.036,5.128-7,6.924-3.31-3.273-1.305,1.29,4.615,4.563,8.307-8.214Z" fill="#fff" clip-rule="evenodd"/>
    </clipPath>
    <clipPath id="clip-path-2">
      <path id="패스_2550" data-name="패스 2550" d="M3-617H27v-24H3Z" fill="#fff"/>
    </clipPath>
  </defs>
  <g id="credit-shinhan-o" transform="translate(13610 -4541)">
    <rect id="사각형_2752" data-name="사각형 2752" width="120" height="90" rx="10" transform="translate(-13610 4541)" fill="#212425"/>
    <g id="그룹_5786" data-name="그룹 5786" transform="translate(-13615.799 4306.676)" style="isolation: isolate">
      <path id="패스_485" data-name="패스 485" d="M25.613,309.3a1.347,1.347,0,0,0-.107-.5.731.731,0,0,0-.564-.289l-2.833-.533a2.357,2.357,0,0,1-1.264-.655,2.043,2.043,0,0,1-.5-1.477v-1.569a2.92,2.92,0,0,1,.015-.3.607.607,0,0,1,.213-.411l1.173-1.234a.548.548,0,0,1,.4-.213,2.726,2.726,0,0,1,.32-.015h3.077c.03,0,.137.015.3.015a.986.986,0,0,1,.487.168l1.447.944.061.091-.03.107L27,304.689l-.091.061h-.076l-1.234-.67-.2-.091-.2-.015H23.024l-.107.015-.107.061-.289.3-.076.152v1.127a.664.664,0,0,0,.152.457,1.272,1.272,0,0,0,.609.259l2.863.548a2.1,2.1,0,0,1,1.188.67,2.238,2.238,0,0,1,.442,1.493v1.767c0,.046-.015.152-.015.3a.678.678,0,0,1-.213.411L26.3,312.761a.817.817,0,0,1-.4.228,2.72,2.72,0,0,1-.32.015H22.369c-.046,0-.137,0-.3-.015a.968.968,0,0,1-.5-.183l-1.4-.868-.061-.091.03-.107.792-1.371.076-.061h.076l1.218.716.2.091.183-.046H25.05l.107-.015.107-.061.259-.3.076-.152v-.076" transform="translate(0 -26.089)" fill="#fff"/>
      <path id="패스_486" data-name="패스 486" d="M82.3,298.613c0-.091.076-.168.213-.213h1.63l.183.03.076.168v3.594a2.523,2.523,0,0,1,.7-.366,2.071,2.071,0,0,1,.777-.152H87.3a1.892,1.892,0,0,1,.411.046.867.867,0,0,1,.3.107l1.127.838a.621.621,0,0,1,.228.32,1.3,1.3,0,0,1,.076.4v6.244q0,.183-.228.183h-1.63q-.228,0-.228-.183v-5.5a.314.314,0,0,0-.091-.259l-.426-.289a.538.538,0,0,0-.259-.061H85.285a1.461,1.461,0,0,0-.5.091.968.968,0,0,0-.381.2v5.788l-.076.167-.183.03h-1.63c-.137-.03-.213-.107-.213-.213" transform="translate(-52.727 -22.952)" fill="#fff"/>
      <path id="패스_487" data-name="패스 487" d="M142.1,298.413c0-.091.076-.168.213-.213h2.041l.2.03.076.168v1.462q0,.183-.228.183h-2.056q-.228,0-.228-.183m.2,1.843c0-.091.076-.168.213-.213h1.6l.183.03.076.168v7.768q0,.183-.228.183h-1.614q-.228,0-.228-.183Z" transform="translate(-103.419 -22.783)" fill="#fff"/>
      <path id="패스_488" data-name="패스 488" d="M176.572,319.8a1.535,1.535,0,0,1,.381.046.571.571,0,0,1,.289.122l1.142.838a.649.649,0,0,1,.228.3,1.136,1.136,0,0,1,.061.4v6.275q0,.183-.228.183h-1.63q-.228,0-.228-.183v-5.437c0-.168-.03-.259-.107-.32l-.442-.289-.213-.061h-1.477a.6.6,0,0,0-.213.061l-.442.289c-.076.046-.107.152-.107.32v5.437q0,.183-.228.183h-1.63q-.228,0-.228-.183v-6.275a1.193,1.193,0,0,1,.061-.4.563.563,0,0,1,.228-.3l1.142-.838a1.09,1.09,0,0,1,.289-.122,1.627,1.627,0,0,1,.381-.046" transform="translate(-128.341 -41.093)" fill="#fff"/>
      <path id="패스_489" data-name="패스 489" d="M233.015,298.613c0-.091.076-.168.213-.213h1.614l.183.03.076.168v3.594a2.927,2.927,0,0,1,.685-.366,2,2,0,0,1,.762-.152h1.416a1.893,1.893,0,0,1,.411.046,1.117,1.117,0,0,1,.32.107l1.112.838a.621.621,0,0,1,.228.32,1.3,1.3,0,0,1,.076.4v6.244q0,.183-.228.183h-1.63q-.228,0-.228-.183v-5.5a.374.374,0,0,0-.076-.259l-.426-.289a.492.492,0,0,0-.259-.061H235.97a1.528,1.528,0,0,0-.5.091.968.968,0,0,0-.381.2v5.788l-.076.167-.183.03h-1.614c-.137-.03-.213-.107-.213-.213" transform="translate(-180.474 -22.952)" fill="#fff"/>
      <path id="패스_490" data-name="패스 490" d="M295.6,319.8a1.154,1.154,0,0,1,.716.244l1.081.883a.587.587,0,0,1,.2.411,2.7,2.7,0,0,1,.015.289V326.2a1.6,1.6,0,0,1-.046.366.851.851,0,0,1-.289.426l-1.051.868a.473.473,0,0,1-.259.076,4,4,0,0,1-.457.015h-2.726a1.537,1.537,0,0,1-.381-.046.867.867,0,0,1-.289-.122l-.99-.762a.849.849,0,0,1-.381-.457,1.708,1.708,0,0,1-.046-.366v-1.645a.8.8,0,0,1,.122-.472,1.192,1.192,0,0,1,.228-.244l1.127-.929a.529.529,0,0,1,.32-.152,1.218,1.218,0,0,1,.289-.03h1.63a1.459,1.459,0,0,1,.64.137,1.714,1.714,0,0,1,.487.335v-.777a1.3,1.3,0,0,0-.167-.579.626.626,0,0,0-.5-.259h-2.894l-.122-.03-.015-.107v-1.493c0-.107.046-.152.152-.152m.746,5.879c0,.107.015.183.061.213l.381.289.091.03.122.015h1.8l.152-.03.137-.091.046-.2v-1.218l-.107-.183-.228-.061h-1.782a.458.458,0,0,0-.274.061l-.32.289-.061.076-.03.168v.64Z" transform="translate(-229.386 -41.093)" fill="#fff"/>
      <path id="패스_491" data-name="패스 491" d="M354.372,319.8a1.756,1.756,0,0,1,.4.046.571.571,0,0,1,.289.122l1.142.838a.537.537,0,0,1,.213.3,1.135,1.135,0,0,1,.061.4v6.275q0,.183-.228.183H354.6q-.228,0-.228-.183v-5.437c0-.168-.03-.259-.107-.32l-.442-.289-.213-.061h-1.462a.6.6,0,0,0-.213.061l-.442.289a.4.4,0,0,0-.107.32v5.437q0,.183-.228.183h-1.63q-.228,0-.228-.183v-6.275a1.193,1.193,0,0,1,.061-.4.735.735,0,0,1,.213-.3l1.142-.838a1.376,1.376,0,0,1,.289-.122,1.756,1.756,0,0,1,.4-.046" transform="translate(-279.061 -41.093)" fill="#fff"/>
      <path id="패스_492" data-name="패스 492" d="M415.1,304.7v5.62l.015.091.076.152.426.442.107.061.091.015h2.5l.183-.03.2-.091,1.234-.67h.076l.076.061.807,1.264.031.107-.061.091-1.447.944a.9.9,0,0,1-.5.167c-.168.015-.274.015-.3.015h-3.351c-.076,0-.183-.015-.32-.015a.731.731,0,0,1-.4-.213l-1.325-1.386a.587.587,0,0,1-.2-.411,2.676,2.676,0,0,1-.015-.289v-6.214c0-.046.015-.152.015-.289a.655.655,0,0,1,.2-.411l1.325-1.371a.634.634,0,0,1,.4-.228,2.726,2.726,0,0,1,.32-.015h3.214c.03,0,.137.015.3.015a1.094,1.094,0,0,1,.5.168l1.432.944.061.091-.03.107-.807,1.264-.076.061h-.076l-1.234-.67-.2-.091-.2-.015h-2.361l-.091.015-.107.061-.426.442-.076.152.015.061" transform="translate(-333.059 -26.089)" fill="#fff"/>
      <path id="패스_493" data-name="패스 493" d="M477.719,319.8a1.109,1.109,0,0,1,.7.244l1.081.883a.587.587,0,0,1,.2.411c.015.152.031.244.031.289V326.2a1.6,1.6,0,0,1-.046.366.915.915,0,0,1-.274.426l-1.051.868a.473.473,0,0,1-.259.076,4.142,4.142,0,0,1-.472.015H474.9a1.536,1.536,0,0,1-.381-.046,1.15,1.15,0,0,1-.3-.122l-.99-.762a.849.849,0,0,1-.381-.457,1.707,1.707,0,0,1-.046-.366v-1.645a.8.8,0,0,1,.122-.472,1.19,1.19,0,0,1,.228-.244l1.127-.929a.53.53,0,0,1,.3-.152,1.218,1.218,0,0,1,.289-.03h1.63a1.527,1.527,0,0,1,.655.137,1.713,1.713,0,0,1,.487.335v-.777a1.53,1.53,0,0,0-.152-.579.625.625,0,0,0-.5-.259H474.11l-.122-.03-.015-.107v-1.493a.137.137,0,0,1,.152-.152m.731,5.879a.321.321,0,0,0,.061.213l.381.289.091.03.122.015h1.8l.152-.03.122-.091.061-.2v-1.218l-.107-.183-.228-.061h-1.782a.458.458,0,0,0-.274.061l-.3.289-.076.076-.03.168v.64Z" transform="translate(-383.752 -41.093)" fill="#fff"/>
      <path id="패스_494" data-name="패스 494" d="M533.717,319.8h3a.137.137,0,0,1,.152.152v1.569l-.015.107-.122.03h-2.452l-.107.015-.107.061-.289.3-.076.152-.015.091v5.483q0,.183-.229.183h-1.63q-.229,0-.228-.183v-5.788a2.926,2.926,0,0,1,.015-.3.679.679,0,0,1,.213-.411L533,320.028a.608.608,0,0,1,.4-.213,2.727,2.727,0,0,1,.32-.015" transform="translate(-433.596 -41.093)" fill="#fff"/>
      <path id="패스_495" data-name="패스 495" d="M574.417,309.553a1.755,1.755,0,0,1-.4-.046.638.638,0,0,1-.289-.122l-1.158-.838a.62.62,0,0,1-.213-.3,1.137,1.137,0,0,1-.061-.4v-4.737a1.194,1.194,0,0,1,.061-.4.649.649,0,0,1,.213-.3l1.142-.838a.64.64,0,0,1,.289-.107,1.659,1.659,0,0,1,.4-.046h1.752a2.311,2.311,0,0,1,.777.122,2.341,2.341,0,0,1,.548.3v-3.579l.061-.152.167-.015h1.706a.162.162,0,0,1,.183.183v7.844h-.03v1.751a1.194,1.194,0,0,1-.061.4.737.737,0,0,1-.213.3l-1.142.838a.867.867,0,0,1-.289.122,1.662,1.662,0,0,1-.4.046m-3.076-2.559a.39.39,0,0,0,.122.32l.442.289.091.031.122.03h1.569a.6.6,0,0,0,.213-.061l.442-.289q.091-.068.091-.32v-3.594a2.85,2.85,0,0,0-.274-.091,1.159,1.159,0,0,0-.32-.046h-1.675a.459.459,0,0,0-.274.061l-.442.289a.4.4,0,0,0-.107.32Z" transform="translate(-468.097 -22.698)" fill="#fff"/>
      <path id="패스_496" data-name="패스 496" d="M35.788,274.442a.242.242,0,0,0,.3-.091l.594-1.2a.233.233,0,0,0-.107-.3l-3.046-1.493a.22.22,0,0,0-.3.107l-.579,1.188a.22.22,0,0,0,.107.3" transform="translate(-10.616 0)" fill="#fff"/>
    </g>
    <text id="신한카드" transform="translate(-13531 4618)" fill="#fff" font-size="11" font-family="SamsungOneKoreanOTF-700, 'SamsungOneKoreanOTF 700'" font-weight="700" letter-spacing="-0.005em"><tspan x="-37.218" y="0">신한카드</tspan></text>
    <g id="그룹_5795" data-name="그룹 5795" transform="translate(-13525 5188)" clip-path="url(#clip-path)">
      <g id="그룹_5794" data-name="그룹 5794" clip-path="url(#clip-path-2)">
        <path id="패스_2549" data-name="패스 2549" d="M0-644H30v30H0Z" fill="#fff"/>
      </g>
    </g>
  </g>
</svg>
