<svg xmlns="http://www.w3.org/2000/svg" xmlns:xlink="http://www.w3.org/1999/xlink" width="120" height="90" viewBox="0 0 120 90">
  <defs>
    <clipPath id="clip-path">
      <path id="패스_2569" data-name="패스 2569" d="M15-639a10,10,0,0,1,10,10,10,10,0,0,1-10,10A10,10,0,0,1,5-629,10,10,0,0,1,15-639Zm5.036,5.128-7,6.924-3.31-3.273-1.305,1.29,4.615,4.563,8.307-8.214Z" fill="#fff" clip-rule="evenodd"/>
    </clipPath>
    <clipPath id="clip-path-2">
      <path id="패스_2568" data-name="패스 2568" d="M3-617H27v-24H3Z" fill="#fff"/>
    </clipPath>
  </defs>
  <g id="credit-citi-on" transform="translate(13740 -4641)">
    <rect id="사각형_2757" data-name="사각형 2757" width="120" height="90" rx="10" transform="translate(-13740 4641)" fill="#212425"/>
    <text id="씨티카드" transform="translate(-13661 4718)" fill="#fff" font-size="11" font-family="SamsungOneKoreanOTF-700, 'SamsungOneKoreanOTF 700'" font-weight="700" letter-spacing="-0.005em"><tspan x="-37.218" y="0">씨티카드</tspan></text>
    <g id="layer1" transform="translate(-14407.997 4102.179)">
      <g id="g4940" transform="translate(690.997 573.821)">
        <path id="path1274" d="M700.025,588.836l-.053.051a4.017,4.017,0,0,1-2.863,1.332,3.8,3.8,0,0,1,0-7.593,4.019,4.019,0,0,1,2.863,1.336l.053.053,1.368-1.654-.036-.045a5.22,5.22,0,0,0-4.186-2,6.35,6.35,0,0,0-4.333,1.588,6.468,6.468,0,0,0,0,9.035,6.324,6.324,0,0,0,4.333,1.6,5.213,5.213,0,0,0,4.18-2l.036-.041Z" transform="translate(-690.997 -573.407)" fill="#fff"/>
        <path id="path1276" d="M702.075,592.294h2.417V580.5h-2.417Z" transform="translate(-690.291 -573.396)" fill="#fff"/>
        <path id="path1278" d="M713.68,589.947a3.5,3.5,0,0,1-1.784.589c-.781,0-1.134-.412-1.134-1.33v-6.26h2.461v-2.221h-2.46v-3.671l-2.369,1.268v2.4h-2.043v2.221h2.043v6.659a2.782,2.782,0,0,0,2.458,3.07c.073.007.147.013.22.015a3.806,3.806,0,0,0,2.145-.54l.023-.017.582-2.274-.143.087Z" transform="translate(-690.019 -573.615)" fill="#fff"/>
        <path id="path1280" d="M715.122,592.294h2.418V580.5h-2.418Z" transform="translate(-689.46 -573.396)" fill="#fff"/>
        <path id="path1282" d="M755.748,576.276v11.256l.753-1.17s3.383-4.893,3.816-5.518h1.507c-.319.431-2.978,4.091-2.978,4.091s3.465,7.22,3.664,7.631H761.03c-.081-.168-3.058-6.47-3.058-6.47l-2.222,3.114v3.356h-1.383v-15.5c.121-.069,1.054-.6,1.383-.787Zm-11.331,5.957a3.659,3.659,0,0,1,3.131-1.65c2.6,0,3.978,1.658,3.978,4.8v7.178h-1.383v-6.877c0-2.67-.928-3.91-2.936-3.91-1.922,0-3.07,1.463-3.07,3.91v6.88h-1.383V580.839h1.383v1.818Zm-8.478-1.65c2.676,0,3.977,1.224,3.977,3.742v8.233h-1.383v-1.706l-.268.3a4.626,4.626,0,0,1-3.568,1.668,3.349,3.349,0,0,1-3.617-3.7c0-2.729,2.252-3.7,4.361-3.7a6.049,6.049,0,0,1,2.865.669l.228.125v-1.683c0-1.866-.912-2.81-2.713-2.81a6.213,6.213,0,0,0-3.14.859c-.09-.213-.41-.913-.5-1.114a8.168,8.168,0,0,1,3.753-.882Zm-3.5,8.416a2.382,2.382,0,0,0,2.013,2.7,2.357,2.357,0,0,0,.54.017,4.255,4.255,0,0,0,3.517-1.869l.026-.042v-2.566l-.077-.045a5.841,5.841,0,0,0-3.107-.7c-1.819,0-2.91.934-2.91,2.511Zm-10.65-12.723v6.276l.267-.293a4.5,4.5,0,0,1,3.433-1.668c2.587,0,4.072,2.156,4.072,5.918,0,3.829-1.686,6.311-4.3,6.311a4.02,4.02,0,0,1-3.206-1.552l-.268-.313v1.611H720.41v-15.5c.117-.069,1.053-.6,1.376-.787Zm.033,7.292-.033.044v6.1l.024.037a3.977,3.977,0,0,0,3.32,1.882c2.037,0,3.07-1.717,3.07-5.106,0-3.025-1.145-4.757-3.139-4.757a4.112,4.112,0,0,0-3.242,1.8" transform="translate(-689.123 -573.665)" fill="#fff"/>
        <path id="path1284" d="M719.917,578.825a11.756,11.756,0,0,0-19.244,0l-.114.161h2.786l.031-.033a9.5,9.5,0,0,1,13.422-.415q.214.2.414.415l.031.033h2.785Z" transform="translate(-690.388 -573.821)" fill="#fff" fill-rule="evenodd"/>
      </g>
    </g>
    <g id="그룹_5807" data-name="그룹 5807" transform="translate(-13655 5288)" clip-path="url(#clip-path)">
      <g id="그룹_5806" data-name="그룹 5806" clip-path="url(#clip-path-2)">
        <path id="패스_2567" data-name="패스 2567" d="M0-644H30v30H0Z" fill="#fff"/>
      </g>
    </g>
  </g>
</svg>
