<svg xmlns="http://www.w3.org/2000/svg" xmlns:xlink="http://www.w3.org/1999/xlink" width="120" height="90" viewBox="0 0 120 90">
  <defs>
    <clipPath id="clip-path">
      <path id="패스_2545" data-name="패스 2545" d="M15-639a10,10,0,0,1,10,10,10,10,0,0,1-10,10A10,10,0,0,1,5-629,10,10,0,0,1,15-639Zm5.036,5.128-7,6.924-3.31-3.273-1.305,1.29,4.615,4.563,8.307-8.214Z" fill="#fff" clip-rule="evenodd"/>
    </clipPath>
    <clipPath id="clip-path-2">
      <path id="패스_2544" data-name="패스 2544" d="M3-617H27v-24H3Z" fill="#fff"/>
    </clipPath>
  </defs>
  <g id="credit-kb-on1" transform="translate(13870 -4541)">
    <rect id="사각형_2750" data-name="사각형 2750" width="120" height="90" rx="10" transform="translate(-13870 4541)" fill="#212425"/>
    <text id="국민카드" transform="translate(-13791 4618)" fill="#fff" font-size="11" font-family="SamsungOneKoreanOTF-700, 'SamsungOneKoreanOTF 700'" font-weight="700" letter-spacing="-0.005em"><tspan x="-37.218" y="0">국민카드</tspan></text>
    <g id="그룹_4998" data-name="그룹 4998" transform="translate(-14182.503 4341.191)">
      <g id="그룹_1287" data-name="그룹 1287" transform="translate(331.503 239.172)">
        <g id="그룹_5324" data-name="그룹 5324">
          <g id="그룹_1285" data-name="그룹 1285">
            <path id="패스_466" data-name="패스 466" d="M331.5,237.858h1.333v4.135l4.965-4.135h1.942l-5.244,4.173,5.681,5.066h-1.947l-5.4-4.949V247.1H331.5Z" transform="translate(-331.503 -237.858)" fill="#fff"/>
          </g>
          <g id="그룹_1286" data-name="그룹 1286" transform="translate(9.702)">
            <path id="패스_467" data-name="패스 467" d="M339.053,237.858h4.539c2.16,0,3.291.717,3.291,2.287a2.111,2.111,0,0,1-1.816,2.09v.04a2.232,2.232,0,0,1,2.185,2.251c0,1.38-1.01,2.57-3.516,2.57h-4.683Zm1.33,3.892h3.281c1.113,0,1.928-.424,1.928-1.414,0-.856-.4-1.433-2.1-1.433h-3.11Zm0,4.3h3.188c1.8,0,2.277-.706,2.277-1.6,0-1.064-.731-1.65-2.356-1.65h-3.11Z" transform="translate(-339.053 -237.858)" fill="#fff"/>
          </g>
        </g>
      </g>
      <path id="패스_468" data-name="패스 468" d="M357.658,245.563a44.34,44.34,0,0,0,.576,7.3.11.11,0,0,0,.013.04c.335.49.682,2.442.957,3.046a.194.194,0,0,0,.062.059,2.45,2.45,0,0,0,1.271.338.053.053,0,0,0,.053-.048,7.947,7.947,0,0,0-.023-1.9c-.149-2.272-.315-5.886-.288-8.077,1.777.991,8.44,5.769,11.918,6.758a.229.229,0,0,0,.22-.049,1.211,1.211,0,0,1,.514-.315.675.675,0,0,0,.186-.595,9.6,9.6,0,0,0,6.858-2.94c1.1-1.383,1.085-3.312.4-3.962-.062-.057-.194-.089-.287-.181a5,5,0,0,0-4-1.236,7.86,7.86,0,0,0-3.76,1.349.017.017,0,0,1-.014-.008c-.082-1.482.514-3.368-.009-4.585a.1.1,0,0,0-.108-.067,3.819,3.819,0,0,0-1.561.5.194.194,0,0,0-.071.159,9.686,9.686,0,0,1-.283,2.322c-.033.032-.023.064-.033.14a26.605,26.605,0,0,0-.014,5.567.937.937,0,0,0,.469.362,3.553,3.553,0,0,0,1.452-.3.991.991,0,0,1,.23-.039c.06,0,.085-.076.078-.146a2.864,2.864,0,0,1,.015-.514,4.838,4.838,0,0,1,3.515-3.443,2.489,2.489,0,0,1,2.388.78,3.043,3.043,0,0,1-.344,2.454,4.884,4.884,0,0,1-2.654,2.1,10.068,10.068,0,0,1-4.04.56,37.1,37.1,0,0,0-5.578-3.439,6.236,6.236,0,0,1-1.124-.811c-.96-.771-3.015-2.111-4.241-2.931a.056.056,0,0,1-.008-.035.6.6,0,0,1,.017-.257c.014-.058.051-.078.1-.107a26.631,26.631,0,0,0,2.389-1.5,1.057,1.057,0,0,1,.2-.134c2.715-1.644,7.477-3.872,9.557-6.026a.182.182,0,0,0,.03-.129.917.917,0,0,1,.04-.257,1.319,1.319,0,0,0,.023-.8.127.127,0,0,0-.084-.087,5.641,5.641,0,0,0-3.959,1.853,4.716,4.716,0,0,1-1.1.731c-1.557.884-5.243,3.173-7,4.3a.027.027,0,0,1-.045-.022,59.225,59.225,0,0,1,.943-7.29.232.232,0,0,0-.032-.165c-.143-.218-.227-.474-.28-.527a.054.054,0,0,0-.024-.021,1,1,0,0,0-.757-.044c-.221.05-.493.226-.843.31a.121.121,0,0,0-.092.072,29.508,29.508,0,0,0-1.762,8.44c0,.01,0,.03-.018.019a40.186,40.186,0,0,0-4.286-2.381.122.122,0,0,0-.067-.015,3.241,3.241,0,0,1-1.05-.49c-.386-.233-1.145-.771-1.619-1.045a.223.223,0,0,0-.161-.037,2.992,2.992,0,0,0-1.389.934c-.069.108.074.342.058.488a.044.044,0,0,0,.013.041,14.169,14.169,0,0,0,2.841,1.92c1.43.771,2.889,1.5,3.493,1.888a.141.141,0,0,1,.036.037,1.12,1.12,0,0,0,.325.244,3.093,3.093,0,0,1,.427.263c.039.035.019.076-.022.105-1.513,1.051-4.521,3-5.955,3.967a13.136,13.136,0,0,1-1.191.569,1.558,1.558,0,0,0-.824.67c-.024.051.01.078.049.091.231.066.288.229.448.292a.566.566,0,0,0,.18.022,5.544,5.544,0,0,0,1.771-.607c1.074-.477,4.421-2.529,4.824-2.764a.037.037,0,0,1,.028-.008,1.026,1.026,0,0,0,.553-.283,5.913,5.913,0,0,1,.95-.568l.546-.3Z" transform="translate(4.79 0)" fill="#fff"/>
      <path id="패스_469" data-name="패스 469" d="M395.934,243.223h-7.888v-3.887h7.888v-1.218h-9.252v6.3h9.252Z" transform="translate(15.73 1.388)" fill="#fff"/>
      <path id="패스_470" data-name="패스 470" d="M376.488,239.281h4.953v.454a6.045,6.045,0,0,1-.335,1.964h-4.415v1.18h3.869a8.663,8.663,0,0,1-4.381,3.525l.526,1.072c2.881-1.091,6.139-3.492,6.139-8.194v-1.164h-6.355Z" transform="translate(12.735 1.388)" fill="#fff"/>
      <path id="패스_471" data-name="패스 471" d="M383.877,237.9h-1.37v10.73h1.37v-5.693h1.984v-1.189h-1.984Z" transform="translate(14.539 1.327)" fill="#fff"/>
      <path id="패스_472" data-name="패스 472" d="M385.918,244.085v1.194h11.217v-1.194Z" transform="translate(15.512 3.09)" fill="#fff"/>
    </g>
    <g id="그룹_5791" data-name="그룹 5791" transform="translate(-13785 5188)" clip-path="url(#clip-path)">
      <g id="그룹_5790" data-name="그룹 5790" clip-path="url(#clip-path-2)">
        <path id="패스_2543" data-name="패스 2543" d="M0-644H30v30H0Z" fill="#fff"/>
      </g>
    </g>
  </g>
</svg>
