<svg xmlns="http://www.w3.org/2000/svg" xmlns:xlink="http://www.w3.org/1999/xlink" width="120" height="90" viewBox="0 0 120 90">
  <defs>
    <clipPath id="clip-path">
      <path id="패스_2548" data-name="패스 2548" d="M15-639a10,10,0,0,1,10,10,10,10,0,0,1-10,10A10,10,0,0,1,5-629,10,10,0,0,1,15-639Zm5.036,5.128-7,6.924-3.31-3.273-1.305,1.29,4.615,4.563,8.307-8.214Z" fill="#fff" clip-rule="evenodd"/>
    </clipPath>
    <clipPath id="clip-path-2">
      <path id="패스_2547" data-name="패스 2547" d="M3-617H27v-24H3Z" fill="#fff"/>
    </clipPath>
  </defs>
  <g id="credit-hyundai" transform="translate(-760 -2230)">
    <rect id="사각형_2751" data-name="사각형 2751" width="120" height="90" rx="10" transform="translate(760 2230)" fill="#eee"/>
    <g id="그룹_5785" data-name="그룹 5785" transform="translate(476.476 1992.726)" style="isolation: isolate">
      <path id="패스_473" data-name="패스 473" d="M303.408,273.28a4.89,4.89,0,0,0-4.884,4.884h0v13.025h1.628V278.164a3.256,3.256,0,0,1,3.256-3.256h80.231a3.256,3.256,0,0,1,3.256,3.256v13.025h1.628V278.164a4.89,4.89,0,0,0-4.884-4.884Z" transform="translate(0)" fill="#1a1818"/>
      <g id="그룹_1291" data-name="그룹 1291" transform="translate(306.664 278.6)">
        <g id="그룹_1289" data-name="그룹 1289" transform="translate(0 0)">
          <path id="패스_474" data-name="패스 474" d="M327.529,298.288c0,.128-.081.175-.22.175H326.1c-.139,0-.185-.047-.185-.186v-3.285a.227.227,0,0,0-.256-.233h-3.169a.206.206,0,0,0-.221.233v3.285c0,.139-.081.186-.208.186H320.83c-.116,0-.162-.047-.162-.175v-8.161c0-.128.047-.2.162-.2h1.231a.186.186,0,0,1,.208.2v3.158a.2.2,0,0,0,.221.22h3.169c.151,0,.256-.069.256-.22v-3.158c0-.128.046-.2.185-.2h1.208c.139,0,.22.07.22.2Z" transform="translate(-320.668 -289.129)" fill="#1a1818"/>
          <path id="패스_475" data-name="패스 475" d="M344.923,302.053a1.329,1.329,0,0,1-1.358-1.335v-5.073c0-.151.058-.221.2-.221h1.161c.116,0,.2.07.2.221v4.9c0,.139.058.209.221.209h2.124c.139,0,.232-.07.232-.209v-4.9c0-.151.058-.221.2-.221h1.161a.193.193,0,0,1,.209.221v7.395a1.257,1.257,0,0,1-.139.533l-.79,1.289a.343.343,0,0,1-.29.186h-.151c-.139,0-.2-.081-.2-.209v-3.274c0-.139-.081-.2-.209-.162l-2.229.627A1.675,1.675,0,0,1,344.923,302.053Z" transform="translate(-335.149 -292.605)" fill="#1a1818"/>
          <path id="패스_476" data-name="패스 476" d="M364.638,302.042a1.343,1.343,0,0,1-1.335-1.335v-5.061c0-.151.057-.221.2-.221h1.173c.1,0,.186.07.186.221v4.9c0,.139.069.2.232.2h2.124c.139,0,.233-.058.233-.2v-4.9c0-.151.047-.221.186-.221h1.16a.194.194,0,0,1,.21.221v6.117c0,.128-.082.175-.21.175h-1.16c-.139,0-.186-.047-.186-.186v-.186c0-.151-.093-.209-.221-.162l-2.229.6A1.247,1.247,0,0,1,364.638,302.042Z" transform="translate(-347.631 -292.605)" fill="#1a1818"/>
          <path id="패스_477" data-name="패스 477" d="M388.739,296.5v5.084c0,.128-.081.175-.209.175H387.37c-.139,0-.186-.047-.186-.186v-4.9a.213.213,0,0,0-.232-.232h-2.124a.2.2,0,0,0-.232.232v4.9a.166.166,0,0,1-.186.186h-1.172c-.139,0-.2-.047-.2-.175v-6.117c0-.151.058-.221.2-.221h1.172c.1,0,.186.07.186.221v.2c0,.128.058.185.232.139l2.218-.6a1.705,1.705,0,0,1,.336-.058A1.367,1.367,0,0,1,388.739,296.5Z" transform="translate(-360.113 -292.425)" fill="#1a1818"/>
          <path id="패스_478" data-name="패스 478" d="M402.143,295.855v-2.926a1.492,1.492,0,0,1,.824-1.4l1.231-.72a1.441,1.441,0,0,1,.813-.232h1.067c.151,0,.221-.058.221-.2v-2.4c0-.128.058-.22.174-.22h1.184c.139,0,.2.093.2.22v8.938c0,.128-.058.175-.2.175h-1.184c-.116,0-.174-.047-.174-.186v-.186c0-.151-.07-.209-.221-.162l-2.24.6a1.208,1.208,0,0,1-.348.035A1.373,1.373,0,0,1,402.143,295.855Zm4.156-.163v-3.679c0-.163-.07-.244-.232-.244h-2.147c-.163,0-.221.081-.221.244v3.679c0,.139.058.2.221.2h2.147C406.229,295.889,406.3,295.831,406.3,295.692Z" transform="translate(-372.194 -287.752)" fill="#1a1818"/>
          <path id="패스_479" data-name="패스 479" d="M422.624,302.042a1.344,1.344,0,0,1-1.346-1.335v-2.926a1.5,1.5,0,0,1,.812-1.4l1.242-.72a1.429,1.429,0,0,1,.8-.232h2.658c.128,0,.2.07.2.221v6.117c0,.128-.069.175-.2.175h-1.184c-.128,0-.175-.047-.175-.186v-.186c0-.151-.081-.209-.232-.162l-2.229.6A1.207,1.207,0,0,1,422.624,302.042Zm2.809-1.5v-3.679c0-.163-.081-.244-.232-.244h-2.147c-.163,0-.221.081-.221.244v3.679c0,.139.058.2.221.2H425.2C425.352,300.742,425.433,300.683,425.433,300.544Z" transform="translate(-384.296 -292.605)" fill="#1a1818"/>
          <path id="패스_480" data-name="패스 480" d="M442.6,288.924c0,.139-.081.186-.2.186h-1.161c-.151,0-.2-.046-.2-.186v-.952c0-.128.046-.22.2-.22H442.4a.2.2,0,0,1,.2.22Zm0,7.986c0,.128-.081.175-.2.175h-1.161c-.151,0-.2-.047-.2-.175v-6.117c0-.151.046-.221.2-.221H442.4c.117,0,.2.07.2.221Z" transform="translate(-396.798 -287.752)" fill="#1a1818"/>
        </g>
        <g id="그룹_1290" data-name="그룹 1290" transform="translate(49.061 0)">
          <path id="패스_481" data-name="패스 481" d="M454.137,296.79v-4.4a1.623,1.623,0,0,1,.847-1.486l1.359-.755a1.546,1.546,0,0,1,.8-.221h2.878a.185.185,0,0,1,.21.209v.848c0,.128-.071.186-.21.186h-4.028c-.139,0-.2.082-.2.232V297c0,.151.058.221.2.221h4.144c.128,0,.209.058.209.174a.326.326,0,0,1-.186.3l-1,.557a1.638,1.638,0,0,1-.824.21h-2.508A1.652,1.652,0,0,1,454.137,296.79Z" transform="translate(-454.137 -289.129)" fill="#1a1818"/>
          <path id="패스_482" data-name="패스 482" d="M475,302.042a1.345,1.345,0,0,1-1.347-1.335v-2.926a1.5,1.5,0,0,1,.813-1.4l1.242-.72a1.431,1.431,0,0,1,.8-.232h2.658c.127,0,.2.07.2.221v6.117c0,.128-.07.175-.2.175h-1.185c-.128,0-.174-.047-.174-.186v-.186c0-.151-.081-.209-.233-.162l-2.228.6A1.212,1.212,0,0,1,475,302.042Zm2.809-1.5v-3.679a.212.212,0,0,0-.233-.244h-2.147c-.162,0-.22.081-.22.244v3.679c0,.139.058.2.22.2h2.147C477.731,300.742,477.812,300.683,477.812,300.544Z" transform="translate(-466.481 -292.605)" fill="#1a1818"/>
          <path id="패스_483" data-name="패스 483" d="M497.7,296.327c0,.116-.081.174-.209.174H495.2c-.151,0-.209.081-.209.232v4.9c0,.139-.093.186-.209.186h-1.172c-.139,0-.186-.047-.186-.175v-6.117c0-.151.047-.221.186-.221h1.172a.2.2,0,0,1,.209.221v.186c0,.127.058.186.209.186a.273.273,0,0,0,.128-.023l.673-.442a1.677,1.677,0,0,1,.8-.2h.685a.186.186,0,0,1,.209.2Z" transform="translate(-478.984 -292.485)" fill="#1a1818"/>
          <path id="패스_484" data-name="패스 484" d="M505.682,295.855v-2.926a1.491,1.491,0,0,1,.824-1.4l1.23-.72a1.443,1.443,0,0,1,.813-.232h1.069c.151,0,.22-.058.22-.2v-2.4c0-.128.058-.22.174-.22H511.2c.138,0,.2.093.2.22v8.938c0,.128-.058.175-.2.175h-1.185c-.116,0-.174-.047-.174-.186v-.186c0-.151-.07-.209-.22-.162l-2.241.6a1.208,1.208,0,0,1-.348.035A1.373,1.373,0,0,1,505.682,295.855Zm4.156-.163v-3.679c0-.163-.07-.244-.233-.244h-2.147c-.163,0-.221.081-.221.244v3.679c0,.139.058.2.221.2h2.147C509.768,295.889,509.838,295.831,509.838,295.692Z" transform="translate(-486.735 -287.752)" fill="#1a1818"/>
        </g>
      </g>
    </g>
    <text id="현대카드" transform="translate(839 2307)" font-size="11" font-family="SamsungOneKoreanOTF-400, 'SamsungOneKoreanOTF 400'" letter-spacing="-0.005em"><tspan x="-37.218" y="0">현대카드</tspan></text>
    <g id="그룹_5793" data-name="그룹 5793" transform="translate(845 2877)" clip-path="url(#clip-path)">
      <g id="그룹_5792" data-name="그룹 5792" clip-path="url(#clip-path-2)">
        <path id="패스_2546" data-name="패스 2546" d="M0-644H30v30H0Z" fill="#fff"/>
      </g>
    </g>
  </g>
</svg>
