<svg xmlns="http://www.w3.org/2000/svg" xmlns:xlink="http://www.w3.org/1999/xlink" width="120" height="90" viewBox="0 0 120 90">
  <defs>
    <clipPath id="clip-path">
      <path id="패스_2563" data-name="패스 2563" d="M15-639a10,10,0,0,1,10,10,10,10,0,0,1-10,10A10,10,0,0,1,5-629,10,10,0,0,1,15-639Zm5.036,5.128-7,6.924-3.31-3.273-1.305,1.29,4.615,4.563,8.307-8.214Z" fill="#fff" clip-rule="evenodd"/>
    </clipPath>
    <clipPath id="clip-path-2">
      <path id="패스_2562" data-name="패스 2562" d="M3-617H27v-24H3Z" fill="#fff"/>
    </clipPath>
  </defs>
  <g id="credit-bc-on" transform="translate(13480 -4641)">
    <rect id="사각형_2759" data-name="사각형 2759" width="120" height="90" rx="10" transform="translate(-13480 4641)" fill="#212425"/>
    <text id="비씨카드" transform="translate(-13401 4718)" fill="#fff" font-size="11" font-family="SamsungOneKoreanOTF-700, 'SamsungOneKoreanOTF 700'" font-weight="700" letter-spacing="-0.005em"><tspan x="-37.218" y="0">비씨카드</tspan></text>
    <g id="그룹_5006" data-name="그룹 5006" transform="translate(-14597.164 4111.671)">
      <g id="그룹_1305" data-name="그룹 1305" transform="translate(1137.497 564.683)">
        <path id="패스_511" data-name="패스 511" d="M1156.789,574.329a9.646,9.646,0,1,1-9.646-9.646h0A9.647,9.647,0,0,1,1156.789,574.329Z" transform="translate(-1137.497 -564.683)" fill="#545454"/>
        <path id="패스_512" data-name="패스 512" d="M1150.764,572.044Z" transform="translate(-1136.545 -564.155)" fill="#fff"/>
        <g id="그룹_1304" data-name="그룹 1304" transform="translate(0.649 1.221)">
          <path id="패스_513" data-name="패스 513" d="M1142.131,571.78a1.493,1.493,0,0,0-.995-.183,3.173,3.173,0,0,0,.976-2.143,1.6,1.6,0,0,0-.01-.2.986.986,0,0,0-.573-.922c-.329-.122-.931-.06-1.889.919l-.574.643a4.731,4.731,0,0,0-.875,2.061,12.051,12.051,0,0,0,.345,4.668,1.1,1.1,0,0,0,.573.721,1.3,1.3,0,0,0,1.1-.2l.089-.044.341-.153.331-.146.4-.178a2.839,2.839,0,0,0,.83-.451,2.4,2.4,0,0,0,.75-1.145,3.924,3.924,0,0,0,.141-.772,3.654,3.654,0,0,0-.041-1.037A2.061,2.061,0,0,0,1142.131,571.78Zm-3.07,1.209c0,.008.018.214.018.214a.108.108,0,0,0,.184.085,1.535,1.535,0,0,1,1.344-.421c.343.119.577.473.7,1.054a1.757,1.757,0,0,1-1.1,2.043l-.018.008-.667.328a.109.109,0,0,1-.078,0c-.042-.021-.054-.048-.082-.12a14.094,14.094,0,0,1-.438-5.071.865.865,0,0,1,.169-.394l.56-.6.062-.069c.3-.295.589-.444.743-.378.13.055.16.258.162.42a3.752,3.752,0,0,1-1.483,2.723A.214.214,0,0,0,1139.061,572.989Z" transform="translate(-1138.102 -565.646)" fill="#fff"/>
          <path id="패스_514" data-name="패스 514" d="M1149.383,566.873c-.187-.643-.493-.777-.582-.807a5.1,5.1,0,0,0-2.442-.167,4.724,4.724,0,0,0-2.96,1.793,4.426,4.426,0,0,0-.8,3.445,4.308,4.308,0,0,0,1.822,2.909,5.561,5.561,0,0,0,4.287.663,5.267,5.267,0,0,0,2.369-1.111.965.965,0,0,0,.321-.75,2.718,2.718,0,0,0-.118-.712c-.036-.132-.093-.172-.185-.172a.243.243,0,0,0-.152.093,3.509,3.509,0,0,1-2.028,1.072c-2.239.429-3.96-.615-4.387-2.664a3.043,3.043,0,0,1,.429-2.4,3.109,3.109,0,0,1,2.144-1.252,3.89,3.89,0,0,1,2.05.251S1149.442,567.141,1149.383,566.873Z" transform="translate(-1137.785 -565.822)" fill="#fff"/>
        </g>
      </g>
      <g id="그룹_1306" data-name="그룹 1306" transform="translate(1161.182 567.896)">
        <g id="그룹_5327" data-name="그룹 5327">
          <path id="패스_515" data-name="패스 515" d="M1163.963,580.52h-1.343c-.3,0-3.023.019-3.023-2.015v-8.714c0-1.828,2.221-2.015,2.855-2.015h1.23c4.031,0,5.151,1.865,5.151,3.322a2.641,2.641,0,0,1-2.24,2.687,3.3,3.3,0,0,1,2.744,3.136C1169.338,578.767,1167.937,580.52,1163.963,580.52Zm-1.511-1.66h1.286c1.625,0,3.08-.485,3.08-2.052,0-2.407-2.3-2.389-3.975-2.389a.151.151,0,0,1-.167-.133v-.706a.151.151,0,0,1,.152-.15h.016c1.736,0,3.583-.263,3.583-2.221,0-1.269-.989-1.773-2.837-1.773h-1.138a.51.51,0,0,0-.558.458.435.435,0,0,0,0,.065v8.4a.5.5,0,0,0,.486.506.443.443,0,0,0,.075,0Z" transform="translate(-1159.596 -567.674)" fill="#fff"/>
          <path id="패스_516" data-name="패스 516" d="M1176.368,569.558c-2.556,0-4.443,1.679-4.443,4.685a4.117,4.117,0,0,0,4.443,4.348,5.358,5.358,0,0,0,3.49-1.138.33.33,0,0,1,.167-.074c.113,0,.187.13.187.28v.412c0,.952-.242,1.269-.484,1.437a6.436,6.436,0,0,1-3.547.932c-3.918,0-6.625-2.482-6.625-6.195a6.229,6.229,0,0,1,6.625-6.551,6.116,6.116,0,0,1,3.547.952c.242.187.484.486.484,1.419v.391c0,.243-.093.336-.187.336a.161.161,0,0,1-.107-.057A5.071,5.071,0,0,0,1176.368,569.558Z" transform="translate(-1158.882 -567.681)" fill="#fff"/>
          <path id="패스_517" data-name="패스 517" d="M1185.673,572.737a2.764,2.764,0,0,0-2.991,2.517,2.872,2.872,0,0,0-.01.3,2.8,2.8,0,0,0,2.745,2.862,2.544,2.544,0,0,0,.256-.007,3.651,3.651,0,0,0,2.295-.709.215.215,0,0,1,.15-.056.237.237,0,0,1,.225.249v.7c0,1.007-1.773,1.4-3.135,1.4a4.341,4.341,0,0,1-4.654-4.005,4.225,4.225,0,0,1-.011-.436,4.463,4.463,0,0,1,4.516-4.408l.148,0c1.362,0,3.135.448,3.135,1.4v.69a.236.236,0,0,1-.211.26h-.013a.3.3,0,0,1-.168-.056A3.6,3.6,0,0,0,1185.673,572.737Z" transform="translate(-1158.093 -567.432)" fill="#fff"/>
          <path id="패스_518" data-name="패스 518" d="M1192.64,571.152c3.377,0,4.479,1.325,4.479,3.527v3.136c0,1.66-1.418,2.182-2.874,2.182h-1.715c-2.519,0-3.751-1.158-3.751-2.594,0-1.549,1.179-2.762,4.067-2.762h2.144v-.131c0-1.269-.728-1.774-2.37-1.774a5.269,5.269,0,0,0-2.8.729.3.3,0,0,1-.169.056c-.131,0-.224-.107-.224-.28v-.69C1189.43,571.636,1191.6,571.152,1192.64,571.152Zm2.35,6.047v-1.158h-2c-1.623,0-2.09.56-2.09,1.361,0,.69.635,1.2,1.923,1.2C1194.467,578.6,1194.99,578.374,1194.99,577.2Z" transform="translate(-1157.502 -567.432)" fill="#fff"/>
          <path id="패스_519" data-name="패스 519" d="M1203.725,571.731v.728c0,.167-.057.28-.281.28h-.392c-1.7,0-3.061.392-3.061,1.848v5.226h-2.126v-5.636c0-1.884,1.921-3.022,4.553-3.022h.616C1203.5,571.152,1203.725,571.32,1203.725,571.731Z" transform="translate(-1156.85 -567.432)" fill="#fff"/>
          <path id="패스_520" data-name="패스 520" d="M1212.408,567.861v10.133c0,1.715-1.418,2.239-2.762,2.239h-1.735c-3.3,0-4.144-1.979-4.144-4.441,0-2.5,1.213-4.4,4.312-4.4a3.7,3.7,0,0,1,2.183.653v-4.18Zm-6.513,7.95c0,1.567.374,3.022,2.221,3.022,1.568,0,2.165-.335,2.165-1.344v-1.977c0-1.38-.448-2.724-2.072-2.724C1206.417,572.788,1205.9,574.337,1205.9,575.811Z" transform="translate(-1156.426 -567.668)" fill="#fff"/>
        </g>
      </g>
    </g>
    <g id="그룹_5803" data-name="그룹 5803" transform="translate(-13395 5288)" clip-path="url(#clip-path)">
      <g id="그룹_5802" data-name="그룹 5802" clip-path="url(#clip-path-2)">
        <path id="패스_2561" data-name="패스 2561" d="M0-644H30v30H0Z" fill="#fff"/>
      </g>
    </g>
  </g>
</svg>
