<svg xmlns="http://www.w3.org/2000/svg" width="120" height="90" viewBox="0 0 120 90">
  <g id="credit-etc-on" transform="translate(13350 -4641)">
    <rect id="사각형_811" data-name="사각형 811" width="120" height="90" rx="10" transform="translate(-13350 4641)" fill="#212425"/>
    <text id="기타" transform="translate(-13290.001 4718)" fill="#fff" font-size="11" font-family="SamsungOneKoreanOTF-700, 'SamsungOneKoreanOTF 700'" font-weight="700" letter-spacing="-0.02em"><tspan x="-9.236" y="0">기타</tspan></text>
    <g id="Shape_779_copy_2" data-name="Shape 779 copy 2" transform="translate(-17422 1431)" fill="none">
      <path d="M4131,3257v-5h-5v-2h5v-5h2v5h5v2h-5v5Z" stroke="none"/>
      <path d="M 4131.99951171875 3256 L 4131.99951171875 3251.99951171875 L 4131.99951171875 3251.00048828125 L 4131.99951171875 3250.00048828125 L 4131.99951171875 3246 L 4131.99951171875 3250.00048828125 L 4131.99951171875 3251.00048828125 L 4131.99951171875 3251.99951171875 L 4131.99951171875 3256 M 4132.99951171875 3257 L 4130.99951171875 3257 L 4130.99951171875 3251.99951171875 L 4126 3251.99951171875 L 4126 3250.00048828125 L 4130.99951171875 3250.00048828125 L 4130.99951171875 3245 L 4132.99951171875 3245 L 4132.99951171875 3250.00048828125 L 4138 3250.00048828125 L 4138 3251.99951171875 L 4132.99951171875 3251.99951171875 L 4132.99951171875 3257 Z" stroke="none" fill="#fff"/>
    </g>
  </g>
</svg>
