<svg xmlns="http://www.w3.org/2000/svg" width="120" height="90" viewBox="0 0 120 90">
  <g id="그룹_5329" data-name="그룹 5329" transform="translate(-926 -1332)">
    <rect id="사각형_2372" data-name="사각형 2372" width="120" height="90" rx="10" transform="translate(926 1332)" fill="#0050ff"/>
    <path id="logo" d="M26.488,4.47V1.816L29.572,0V4.47h3.22V7.237h-3.22v5.038c0,1.293.544,1.747,1.338,1.747a1.61,1.61,0,0,0,1.134-.454l1.429,2.451a4.836,4.836,0,0,1-2.925.93c-2.563,0-4.059-1.226-4.059-4.561V7.237H24.22Zm17.229,6.081a3.357,3.357,0,1,0-6.712,0,3.357,3.357,0,1,0,6.712,0Zm-9.841.022a6.475,6.475,0,1,1,6.463,6.375,6.343,6.343,0,0,1-6.463-6.375Zm13.594,3.335,3.016-1.18A2.94,2.94,0,0,0,53.3,14.385c1.27,0,1.95-.612,1.95-1.339,0-.885-1.315-1.089-2.88-1.407-2.063-.431-4.354-1.066-4.354-3.653,0-2.065,2-3.857,5.012-3.835a5.822,5.822,0,0,1,5.261,2.609L55.428,7.918a2.622,2.622,0,0,0-2.4-1.293c-1.225,0-1.814.5-1.814,1.18,0,.772,1,.976,2.79,1.361,2.041.408,4.443,1.112,4.443,3.744,0,1.906-1.7,4.061-5.261,4.038-2.9,0-4.737-1.089-5.712-3.04Zm11.782,0,3.016-1.18a2.94,2.94,0,0,0,2.812,1.656c1.27,0,1.95-.612,1.95-1.339,0-.885-1.316-1.089-2.88-1.407-2.063-.431-4.354-1.066-4.354-3.653,0-2.065,2-3.857,5.011-3.835a5.822,5.822,0,0,1,5.261,2.609L67.209,7.918a2.622,2.622,0,0,0-2.4-1.293c-1.225,0-1.814.5-1.814,1.18,0,.772,1,.976,2.79,1.361,2.041.408,4.443,1.112,4.443,3.744,0,1.906-1.7,4.061-5.261,4.038C62.063,16.949,60.226,15.86,59.251,13.908ZM20.187,9.516A8.48,8.48,0,0,1,4.02,13.1,13.648,13.648,0,0,0,0,14.98,25.655,25.655,0,0,1,2.715,7.242c1.757-3.175,4.4-5.9,8.411-6.17A8.206,8.206,0,0,1,12.62,1.1a8.451,8.451,0,0,1,7.567,8.419Z" transform="translate(951.362 1368.104)" fill="#fff"/>
  </g>
</svg>
