<svg xmlns="http://www.w3.org/2000/svg" width="120" height="90" viewBox="0 0 120 90">
  <g id="그룹_5327" data-name="그룹 5327" transform="translate(-926 -1442)">
    <rect id="사각형_2371" data-name="사각형 2371" width="120" height="90" rx="10" transform="translate(926 1442)" fill="#de0015"/>
    <path id="패스_610" data-name="패스 610" d="M471.8,496.132a1.91,1.91,0,0,1,1.925-1.925h5.227c4.176,0,6.7,2.475,6.7,6.051v.05c0,4.051-3.151,6.152-7.077,6.152H475.65v3.626a1.926,1.926,0,0,1-3.851,0Zm6.9,6.9c1.926,0,3.051-1.15,3.051-2.651v-.051c0-1.725-1.2-2.651-3.126-2.651H475.65v5.352Z" transform="translate(474.201 983.943)" fill="#fff"/>
    <path id="패스_611" data-name="패스 611" d="M508.536,509.16l6.1-13.779a2.38,2.38,0,0,1,2.251-1.525h.225a2.347,2.347,0,0,1,2.226,1.525l6.1,13.779a1.877,1.877,0,0,1,.2.775,1.825,1.825,0,0,1-1.825,1.85,1.961,1.961,0,0,1-1.851-1.325l-1.175-2.751h-7.7l-1.226,2.876a1.891,1.891,0,0,1-1.776,1.2,1.772,1.772,0,0,1-1.775-1.8A2.041,2.041,0,0,1,508.536,509.16Zm10.828-4.851-2.425-5.777-2.426,5.777Z" transform="translate(450.704 984.169)" fill="#fff"/>
    <path id="패스_612" data-name="패스 612" d="M557.292,505.065l-5.651-7.677a2.281,2.281,0,0,1-.475-1.376,1.879,1.879,0,0,1,1.925-1.85,2.215,2.215,0,0,1,1.9,1.175l4.251,6.127,4.326-6.177a2.207,2.207,0,0,1,1.851-1.15,1.784,1.784,0,0,1,1.875,1.875,2.393,2.393,0,0,1-.5,1.35l-5.651,7.627v5.051a1.926,1.926,0,0,1-3.851,0Z" transform="translate(423.125 983.988)" fill="#fff"/>
    <path id="패스_613" data-name="패스 613" d="M596.743,502.888v-.05a8.9,8.9,0,0,1,9.128-9.052,9.269,9.269,0,0,1,5.852,1.775,1.925,1.925,0,0,1,.75,1.525,1.879,1.879,0,0,1-1.9,1.876,2.022,2.022,0,0,1-1.15-.375,5.758,5.758,0,0,0-3.576-1.25,5.187,5.187,0,0,0-5.076,5.452v.05a5.2,5.2,0,0,0,5.076,5.5,5.62,5.62,0,0,0,3.8-1.375,1.783,1.783,0,1,1,2.3,2.725,9.224,9.224,0,0,1-15.2-6.8Z" transform="translate(393.794 984.214)" fill="#fff"/>
    <path id="패스_614" data-name="패스 614" d="M644.038,502.888v-.05a9.307,9.307,0,0,1,18.6-.05v.05a9.307,9.307,0,0,1-18.6.05Zm14.579,0v-.05a5.318,5.318,0,0,0-5.3-5.5,5.235,5.235,0,0,0-5.251,5.452v.05a5.318,5.318,0,0,0,5.3,5.5A5.235,5.235,0,0,0,658.617,502.888Z" transform="translate(363.357 984.214)" fill="#fff"/>
  </g>
</svg>
