<svg xmlns="http://www.w3.org/2000/svg" width="120" height="90" viewBox="0 0 120 90">
  <g id="그룹_5328" data-name="그룹 5328" transform="translate(-1056 -1442)">
    <rect id="사각형_816" data-name="사각형 816" width="120" height="90" rx="10" transform="translate(1056 1442)" fill="#ffd803"/>
    <path id="패스_615" data-name="패스 615" d="M1662.527,90.446,1660,90.9v14.068h2.527V100.2l4.167,5.11,1.9-1.509-3.432-4.111,3.055-3.941-1.886-1.32-3.809,5.167Z" transform="translate(-584 1387.554)"/>
    <g id="그룹_1347" data-name="그룹 1347" transform="translate(1085.487 1478)">
      <g id="그룹_1346" data-name="그룹 1346">
        <path id="패스_616" data-name="패스 616" d="M1677.518,100.674h1.584v-.339c0-1.094-.339-1.716-1.829-1.716a5.571,5.571,0,0,0-2.678.66l-.7-1.735a6.833,6.833,0,0,1,3.677-1.055c2.547,0,3.885,1.244,3.885,3.828v6.412h-1.773l-.282-.848a4.987,4.987,0,0,1-3,1.113,2.793,2.793,0,0,1-3.018-3.131c0-2.093,1.434-3.187,4.131-3.187m1.584,3.564v-1.943h-1.358c-1.358,0-2.074.547-2.074,1.546a1.108,1.108,0,0,0,1.244,1.188,3.589,3.589,0,0,0,2.188-.792" transform="translate(-1673.388 -92.206)"/>
        <path id="패스_617" data-name="패스 617" d="M1693.674,99.686l3.432,4.111-1.9,1.508-4.168-5.11v4.771h-2.527V90.9l2.527-.452v9.146l3.81-5.167,1.886,1.32Z" transform="translate(-1677.793 -90.446)"/>
        <path id="패스_618" data-name="패스 618" d="M1706.026,100.674h1.585v-.339c0-1.094-.339-1.716-1.83-1.716a5.572,5.572,0,0,0-2.678.66l-.7-1.735a6.834,6.834,0,0,1,3.677-1.055c2.546,0,3.885,1.244,3.885,3.828v6.412h-1.772l-.283-.848a4.985,4.985,0,0,1-3,1.113,2.793,2.793,0,0,1-3.018-3.131c0-2.093,1.433-3.187,4.13-3.187m1.585,3.564v-1.943h-1.358c-1.358,0-2.075.547-2.075,1.546a1.108,1.108,0,0,0,1.245,1.188,3.591,3.591,0,0,0,2.188-.792" transform="translate(-1681.694 -92.206)"/>
        <path id="패스_619" data-name="패스 619" d="M1725.36,101.824c0,3.206-1.754,5.186-4.7,5.186s-4.714-1.98-4.714-5.186c0-3.262,1.811-5.337,4.714-5.337s4.7,2.037,4.7,5.337m-6.827.019c0,2.112.7,3.205,2.131,3.205,1.452,0,2.112-1.093,2.112-3.205,0-2.207-.679-3.4-2.112-3.4-1.414,0-2.131,1.188-2.131,3.4" transform="translate(-1685.789 -92.206)"/>
        <path id="패스_620" data-name="패스 620" d="M1734.66,106.8v3.754h-2.527V96.788h1.791l.3.83a3.827,3.827,0,0,1,2.848-1.131c2.6,0,3.771,1.942,3.771,5.091,0,3.3-1.886,5.431-4.582,5.431a5.578,5.578,0,0,1-1.6-.208m0-7.92v6.166a5.613,5.613,0,0,0,.906.057c2,0,2.715-1.377,2.715-3.527,0-1.848-.434-3.055-2.075-3.055a3.952,3.952,0,0,0-1.546.359" transform="translate(-1690.505 -92.206)"/>
        <path id="패스_621" data-name="패스 621" d="M1750.53,100.674h1.584v-.339c0-1.094-.339-1.716-1.829-1.716a5.569,5.569,0,0,0-2.678.66l-.7-1.735a6.834,6.834,0,0,1,3.678-1.055c2.545,0,3.884,1.244,3.884,3.828v6.412H1752.7l-.283-.848a4.985,4.985,0,0,1-3,1.113,2.793,2.793,0,0,1-3.018-3.131c0-2.093,1.434-3.187,4.13-3.187m1.584,3.564v-1.943h-1.358c-1.358,0-2.075.547-2.075,1.546a1.108,1.108,0,0,0,1.245,1.188,3.591,3.591,0,0,0,2.188-.792" transform="translate(-1694.662 -92.206)"/>
        <path id="패스_622" data-name="패스 622" d="M1765.882,105.659c-.9,2.508-2.055,4.262-3.639,5.28l-1.566-1.434a9.355,9.355,0,0,0,2.3-2.753l-3.507-9.674,2.508-.679,2.263,7.826,2.244-7.845,2.489.717Z" transform="translate(-1698.47 -92.175)"/>
      </g>
    </g>
  </g>
</svg>
