<svg xmlns="http://www.w3.org/2000/svg" width="20" height="20" viewBox="0 0 20 20">
  <g id="hmf_ico_pin_on" transform="translate(-48 169)">
    <g id="icon" transform="translate(-39.828 -55.637) rotate(30)">
      <path id="합치기_8" data-name="합치기 8" d="M-4282.822-4198a.5.5,0,0,1-.493-.423c.08-2.84.948-5.287,2.2-6.585l.292-3.107a2.573,2.573,0,0,1-.98-2.009,2.513,2.513,0,0,1,.087-.657.5.5,0,0,1,.413-.218h4.5a.5.5,0,0,1,.412.218,2.453,2.453,0,0,1,.087.657,2.574,2.574,0,0,1-.98,2.009l.291,3.11a10.188,10.188,0,0,1,2.2,6.583.5.5,0,0,1-.494.423Z" transform="translate(4312 4064)" fill="#2188ff"/>
      <path id="합치기_8_-_윤곽선" data-name="합치기 8 - 윤곽선" d="M-4276.033-4199.2a8.5,8.5,0,0,0-1.818-4.972l-.293-.3-.39-4.171.5-.4a1.409,1.409,0,0,0,.49-.749h-3.019a1.414,1.414,0,0,0,.491.749l.5.4-.391,4.17-.292.3a8.5,8.5,0,0,0-1.82,4.975h6.037m.752,1.2h-7.542a.5.5,0,0,1-.493-.423c.08-2.84.948-5.287,2.2-6.585l.292-3.107a2.573,2.573,0,0,1-.98-2.009,2.513,2.513,0,0,1,.087-.657.5.5,0,0,1,.413-.218h4.5a.5.5,0,0,1,.412.218,2.453,2.453,0,0,1,.087.657,2.574,2.574,0,0,1-.98,2.009l.291,3.11a10.188,10.188,0,0,1,2.2,6.583A.5.5,0,0,1-4275.28-4198Z" transform="translate(4312 4064)" fill="#2188ff"/>
      <path id="패스_2325" data-name="패스 2325" d="M32.976-134.389v3.156" fill="#2188ff"/>
      <path id="패스_2325_-_윤곽선" data-name="패스 2325 - 윤곽선" d="M32.976-129.291a.863.863,0,0,1-.75-.942V-134.2a.863.863,0,0,1,.75-.942.863.863,0,0,1,.75.942v3.964A.863.863,0,0,1,32.976-129.291Z" fill="#2188ff"/>
    </g>
    <rect id="area_ic" width="20" height="20" transform="translate(48 -169)" fill="rgba(0,0,0,0)"/>
  </g>
</svg>
