<?xml version="1.0" encoding="utf-8"?>
<!-- Generator: Adobe Illustrator 26.3.1, SVG Export Plug-In . SVG Version: 6.00 Build 0)  -->
<svg version="1.1" id="Gift" xmlns="http://www.w3.org/2000/svg" xmlns:xlink="http://www.w3.org/1999/xlink" x="0px" y="0px"
	 viewBox="0 0 18 18" style="enable-background:new 0 0 18 18;" xml:space="preserve">
<style type="text/css">
	.st0{fill:none;}
	.st1{fill:#FFFFFF;}
</style>
<rect id="Container" class="st0" width="16" height="16"/>
<path id="gift-2" class="st1" d="M12.7,1c1.1,0,1.9,0.8,2,1.9c0,0.2,0,0.5-0.1,0.7h1.8c0.4,0,0.6,0.3,0.7,0.6V8
	c0,0.4-0.3,0.6-0.6,0.7h-0.9v7.7c0,0.4-0.3,0.6-0.6,0.6H3.2c-0.4,0-0.6-0.3-0.7-0.6V8.6H1.7C1.3,8.6,1,8.4,1,8V4.3
	c0-0.4,0.3-0.6,0.6-0.7h1.8C3.4,3.4,3.3,3.1,3.3,2.9c0-1.1,0.9-1.9,2-1.9c0,0,0,0,0,0c0.3,0,0.6,0.1,0.9,0.2l0,0l0.1,0l0.1,0
	C6.5,1.4,6.7,1.5,7,1.7l0.1,0C7.6,2,8.2,2.5,9,3L8.9,3.1l0.2-0.2c0.6-0.5,1.2-0.9,1.7-1.2L11,1.7c0.3-0.2,0.6-0.3,0.7-0.4l0.1,0l0,0
	C12.1,1.1,12.4,1,12.7,1L12.7,1z M6.6,8.6H3.5v7.4h3.1V8.6z M10.4,8.6H7.6v7.4h2.9L10.4,8.6z M14.5,8.6h-3.1v7.4h3.1L14.5,8.6z
	 M6.6,4.5H2v3.2h4.6L6.6,4.5z M10.4,4.5H7.6v3.2h2.9L10.4,4.5z M16,4.5h-4.6v3.2H16L16,4.5z M12.7,1.9c-0.2,0-0.3,0-0.5,0.1l0,0l0,0
	l0,0c0,0-0.1,0-0.2,0.1c-0.1,0.1-0.3,0.2-0.5,0.3l-0.1,0c-0.5,0.3-1,0.7-1.7,1.1h3.6c0.2-0.2,0.3-0.4,0.3-0.7
	C13.7,2.4,13.3,1.9,12.7,1.9C12.7,1.9,12.7,1.9,12.7,1.9L12.7,1.9z M5.3,1.9c-0.5,0-1,0.4-1,1c0,0.3,0.1,0.5,0.3,0.7h3.6
	C7.6,3.2,7.1,2.8,6.6,2.5l-0.1,0C6.3,2.4,6.2,2.3,6,2.2L6,2.2L5.9,2.1l-0.1,0l0,0C5.6,2,5.4,1.9,5.3,1.9L5.3,1.9z"/>
</svg>
