<svg id="logout" xmlns="http://www.w3.org/2000/svg" width="33" height="33" viewBox="0 0 33 33">
  <rect id="Container" width="33" height="33" fill="none"/>
  <path id="Path_516" data-name="Path 516" d="M33.387,21.9H51.677a.931.931,0,0,1,.935.935V50.269a.931.931,0,0,1-.935.935H33.387a.931.931,0,0,1-.935-.935V44.294a.935.935,0,1,1,1.871,0v5.092H50.741V23.719H34.271v5.248a.935.935,0,0,1-1.871,0V22.835A1.013,1.013,0,0,1,33.387,21.9Z" transform="translate(-23.423 -20.181)"/>
  <path id="Path_517" data-name="Path 517" d="M31.389,50.209h0a1.066,1.066,0,0,1,0-1.507l2.234-2.234c.675-.675,1.767-1.819,1.767-1.819H23.439A1.042,1.042,0,0,1,22.4,43.611h0a1.042,1.042,0,0,1,1.039-1.039h11.9s-1.091-1.143-1.767-1.819l-2.182-2.234a1.066,1.066,0,0,1,0-1.507h0a1.066,1.066,0,0,1,1.507,0l5.767,5.819a1.066,1.066,0,0,1,0,1.507l-5.819,5.871A1,1,0,0,1,31.389,50.209Z" transform="translate(-18.619 -27.291)"/>
</svg>
