<svg xmlns="http://www.w3.org/2000/svg" width="53.863" height="67.951" viewBox="0 0 53.863 67.951">
  <g id="Group_3062" data-name="Group 3062" transform="translate(-126.963 -216.944)">
    <path id="Path_1142" data-name="Path 1142" d="M148.892,227.908a21.6,21.6,0,1,0,5.3,0l-2.648,2.648Z" transform="translate(2.354 8.641)" fill="none"/>
    <path id="패스_1027" data-name="패스 1027" d="M152.68,224.567" transform="translate(20.269 6.008)" fill="#cecece"/>
    <path id="패스_1015" data-name="패스 1015" d="M135.768,222.514h7.458l-3.728-5.57Z" transform="translate(6.94 0)" fill="#cfeaef"/>
    <path id="패스_1016" data-name="패스 1016" d="M139.939,222.514h3.728v-5.57Z" transform="translate(10.227 0)" fill="#6a9fa5"/>
    <path id="패스_1017" data-name="패스 1017" d="M145.754,222.514h-3.73v-5.57Z" transform="translate(11.87 0)" fill="#5a878a"/>
    <path id="패스_1018" data-name="패스 1018" d="M149.483,216.944h-7.458l3.73,5.57Z" transform="translate(11.871 0)" fill="#539da7"/>
    <path id="패스_1019" data-name="패스 1019" d="M145.312,216.944h-7.458l3.728,5.57Z" transform="translate(8.584 0)" fill="#539da7"/>
    <path id="Path_1143" data-name="Path 1143" d="M148.892,227.987a19.6,19.6,0,1,0,2.648-.179A21.584,21.584,0,0,0,148.892,227.987Z" transform="translate(2.354 8.562)" fill="none"/>
    <path id="Path_1144" data-name="Path 1144" d="M161.065,225.38l-1.186,1.186c.147.039.3.068.443.109a24.043,24.043,0,0,1,17.649,23.164c0,.268-.03.529-.041.8a24.035,24.035,0,0,0-17.608-22.191c-.619-.172-1.248-.311-1.885-.436l-1.9,1.9a21.583,21.583,0,1,1-5.3,0l-1.888-1.887c-.622.123-1.239.261-1.845.429a24.035,24.035,0,0,0-17.61,22.2c-.009-.27-.041-.533-.041-.8a24.046,24.046,0,0,1,17.651-23.165c.134-.038.272-.064.408-.1l-1.2-1.194a26.931,26.931,0,1,0,14.341,0Z" transform="translate(0 6.649)" fill="#cecece"/>
    <path id="Path_1145" data-name="Path 1145" d="M145.208,226.223a23.929,23.929,0,0,1,5.962.781l1.186-1.186a26.308,26.308,0,0,0-14.341,0l1.2,1.194A23.862,23.862,0,0,1,145.208,226.223Z" transform="translate(8.71 6.21)" fill="#9f9f9f"/>
    <path id="Path_1146" data-name="Path 1146" d="M139.487,227.056l1.888,1.887a19.6,19.6,0,0,1,5.3,0l1.9-1.9a22.744,22.744,0,0,0-9.08.007Z" transform="translate(9.871 7.606)" fill="#9f9f9f"/>
    <path id="Path_1147" data-name="Path 1147" d="M146.45,227.921a24.035,24.035,0,0,1,17.608,22.191c.011-.266.041-.528.041-.8a24.043,24.043,0,0,0-17.649-23.164c-.147-.041-.3-.07-.443-.109l-1.441,1.441C145.2,227.609,145.831,227.749,146.45,227.921Z" transform="translate(13.873 7.171)" fill="#fff"/>
    <path id="Path_1148" data-name="Path 1148" d="M146.235,226.148a24.046,24.046,0,0,0-17.651,23.165c0,.272.032.535.041.8a24.035,24.035,0,0,1,17.61-22.2c.606-.168,1.223-.306,1.845-.429l-1.438-1.439C146.507,226.084,146.369,226.111,146.235,226.148Z" transform="translate(1.278 7.175)" fill="#fff"/>
    <path id="Path_1149" data-name="Path 1149" d="M138.683,226.4l1.438,1.439a22.744,22.744,0,0,1,9.08-.007l1.441-1.441a23.141,23.141,0,0,0-11.959.009Z" transform="translate(9.237 6.827)" fill="#aaa"/>
    <path id="패스_1020" data-name="패스 1020" d="M144.11,222.514h7.458l-3.728-5.57Z" transform="translate(13.514 0)" fill="#c0d9d8"/>
    <path id="패스_1021" data-name="패스 1021" d="M135.768,220.059h7.458l3.73,11.181Z" transform="translate(6.94 2.455)" fill="#77afb9"/>
    <path id="패스_1022" data-name="패스 1022" d="M153.213,220.059h-7.458l-3.73,11.181Z" transform="translate(11.871 2.455)" fill="#77afb9"/>
    <g id="그룹_2889" data-name="그룹 2889" transform="translate(150.166 222.514)">
      <path id="패스_1023" data-name="패스 1023" d="M139.939,220.059h3.728V231.24Z" transform="translate(-139.939 -220.059)" fill="#456c6c"/>
      <path id="패스_1024" data-name="패스 1024" d="M145.754,220.059h-3.73V231.24Z" transform="translate(-138.296 -220.059)" fill="#2d4848"/>
    </g>
    <g id="Group_3059" data-name="Group 3059" transform="translate(148.303 218.955)">
      <path id="Path_1150" data-name="Path 1150" d="M138.9,220.063l2.8,3.559,2.8-3.559Z" transform="translate(-138.894 -216.497)" fill="#fff"/>
      <path id="Path_1151" data-name="Path 1151" d="M141.694,218.069l-2.8,3.559h5.592Z" transform="translate(-138.897 -218.069)" fill="#fff"/>
    </g>
    <path id="패스_1025" data-name="패스 1025" d="M145.564,230.506l-8.031-8.031h16.061Z" transform="translate(8.331 4.359)" fill="#cecece"/>
  </g>
</svg>
