<svg xmlns="http://www.w3.org/2000/svg" width="30" height="30" viewBox="0 0 30 30">
  <g id="brn_360_active" transform="translate(-716 -781)">
    <g id="그룹_4776" data-name="그룹 4776" transform="translate(716 781)">
      <g id="그룹_4775" data-name="그룹 4775" transform="translate(0 3.534)">
        <path id="패스_1907" data-name="패스 1907" d="M757.211,414.827c-7.224,0-15,1.727-15,5.519,0,3.249,5.71,4.977,11.889,5.407v2.361a.626.626,0,0,0,.385.577.641.641,0,0,0,.24.048.627.627,0,0,0,.441-.182l3.5-3.5a.626.626,0,0,0,0-.884l-3.5-3.5a.625.625,0,0,0-1.066.441v2.136c-6.117-.451-9.389-2.147-9.389-2.9,0-.876,4.38-3.019,12.5-3.019s12.5,2.142,12.5,3.019c0,.4-1.6,1.806-6.481,2.575a1.25,1.25,0,1,0,.389,2.47c3.209-.506,8.593-1.832,8.593-5.045C772.211,416.555,764.435,414.827,757.211,414.827Z" transform="translate(-742.211 -402.381)" fill="#2188ff"/>
        <path id="패스_1908" data-name="패스 1908" d="M748.246,413.419a4.261,4.261,0,0,1-.958-.422l-.473-.284-.821,1.722.386.236a5.2,5.2,0,0,0,1.342.557,5.617,5.617,0,0,0,1.474.207,3.724,3.724,0,0,0,1.793-.426,3.087,3.087,0,0,0,1.244-1.221,3.573,3.573,0,0,0,.436-1.774,3.457,3.457,0,0,0-.394-1.662,2.82,2.82,0,0,0-1.145-1.15h0a3.219,3.219,0,0,0-.679-.271l1.952-2.285v-1.492h-6.126v1.809h3.5L747.4,409.75l.824,1.029.325-.1a2.444,2.444,0,0,1,.709-.09,1.446,1.446,0,0,1,1.076.364,1.426,1.426,0,0,1,.364,1.064,1.575,1.575,0,0,1-.387,1.16A2.082,2.082,0,0,1,748.246,413.419Z" transform="translate(-741.265 -404.799)" fill="#2188ff"/>
        <path id="패스_1909" data-name="패스 1909" d="M753.505,415.055a3.494,3.494,0,0,0,1.781.452,3.546,3.546,0,0,0,1.754-.429,3.03,3.03,0,0,0,1.214-1.24,3.758,3.758,0,0,0,.417-1.779,3.7,3.7,0,0,0-.4-1.737,2.906,2.906,0,0,0-1.153-1.2,3.41,3.41,0,0,0-1.8-.416l2.108-2.7-1.576-1.13-2.284,3.037a10.739,10.739,0,0,0-1.289,2.117,4.9,4.9,0,0,0-.411,1.921,3.887,3.887,0,0,0,.422,1.831A3.143,3.143,0,0,0,753.505,415.055Zm1.794-1.366a1.328,1.328,0,0,1-1.076-.432,2.008,2.008,0,0,1-.4-1.347,2.959,2.959,0,0,1,.2-1.15,1.978,1.978,0,0,1,2.286.112,2.072,2.072,0,0,1,.02,2.42A1.312,1.312,0,0,1,755.3,413.689Z" transform="translate(-739.798 -404.87)" fill="#2188ff"/>
        <path id="패스_1910" data-name="패스 1910" d="M761.208,415.469a2.992,2.992,0,0,0,2.686-1.382,9.368,9.368,0,0,0,0-7.682,3.3,3.3,0,0,0-5.374,0,9.368,9.368,0,0,0,0,7.682A3,3,0,0,0,761.208,415.469Zm-1.112-7.939a1.253,1.253,0,0,1,2.225,0,8.588,8.588,0,0,1,0,5.427,1.253,1.253,0,0,1-2.226,0,8.6,8.6,0,0,1,0-5.429Z" transform="translate(-738.339 -404.832)" fill="#2188ff"/>
      </g>
      <g id="타원_71" data-name="타원 71" transform="translate(25.624 0)">
        <ellipse id="타원_137" data-name="타원 137" cx="2.188" cy="2.187" rx="2.188" ry="2.187" fill="none"/>
        <path id="패스_1911" data-name="패스 1911" d="M764.9,406.418a2.187,2.187,0,1,1,2.188-2.187A2.19,2.19,0,0,1,764.9,406.418Zm0-3.125a.937.937,0,1,0,.938.937A.939.939,0,0,0,764.9,403.293Z" transform="translate(-762.71 -402.042)" fill="#2188ff"/>
      </g>
    </g>
    <rect id="사각형_2021" data-name="사각형 2021" width="30" height="30" transform="translate(716 781)" fill="none"/>
  </g>
</svg>
