<svg xmlns="http://www.w3.org/2000/svg" width="120" height="98" viewBox="0 0 120 98">
  <g id="그룹_5479" data-name="그룹 5479" transform="translate(-1077 -2694)">
    <g id="그룹_2336" data-name="그룹 2336" transform="translate(-625.458 2628.537)">
      <g id="그룹_2334" data-name="그룹 2334" transform="translate(1710.458 96.134)">
        <path id="패스_706" data-name="패스 706" d="M1757.089,112.079l-1.958-.206a3.078,3.078,0,0,1-2.071-5l1.238-1.529a3.076,3.076,0,0,0-.215-4.114l-2.941-2.942a3.078,3.078,0,0,0-4.116-.215l-1.53,1.239a3.078,3.078,0,0,1-5-2.071l-.206-1.957a3.078,3.078,0,0,0-3.061-2.758h-4.16a3.078,3.078,0,0,0-3.062,2.758l-.206,1.957a3.078,3.078,0,0,1-5,2.071l-1.53-1.239a3.076,3.076,0,0,0-4.114.215l-2.942,2.942a3.077,3.077,0,0,0-.215,4.114l1.238,1.529a3.078,3.078,0,0,1-2.071,5l-1.958.206a3.078,3.078,0,0,0-2.757,3.062v4.16a3.079,3.079,0,0,0,2.757,3.062l1.958.2a3.079,3.079,0,0,1,2.071,5L1716,129.1a3.079,3.079,0,0,0,.215,4.116l2.942,2.942a3.08,3.08,0,0,0,4.114.215l1.53-1.24a3.078,3.078,0,0,1,5,2.071l.206,1.957a3.078,3.078,0,0,0,3.062,2.758h4.16a3.078,3.078,0,0,0,3.061-2.758l.206-1.957a3.078,3.078,0,0,1,5-2.071l1.53,1.24a3.082,3.082,0,0,0,4.116-.215l2.941-2.942a3.078,3.078,0,0,0,.215-4.116l-1.238-1.528a3.079,3.079,0,0,1,2.071-5l1.958-.2a3.081,3.081,0,0,0,2.758-3.062v-4.16A3.079,3.079,0,0,0,1757.089,112.079Zm-21.938,13.278a8.136,8.136,0,1,1,8.138-8.136A8.136,8.136,0,0,1,1735.151,125.357Z" transform="translate(-1710.458 -92.526)" fill="#bfdbf6" stroke="#000" stroke-linecap="round" stroke-linejoin="round" stroke-width="2.5"/>
      </g>
      <g id="그룹_2335" data-name="그룹 2335" transform="translate(1739.081 85.769)">
        <rect id="사각형_1833" data-name="사각형 1833" width="42.518" height="70.932" rx="3.14" fill="#fff" stroke="#000" stroke-linecap="round" stroke-linejoin="round" stroke-width="2.5"/>
        <ellipse id="타원_162" data-name="타원 162" cx="1.425" cy="1.467" rx="1.425" ry="1.467" transform="translate(19.834 5.892)"/>
      </g>
      <g id="그룹_2337" data-name="그룹 2337" transform="translate(0 -4.973)">
        <path id="패스_707" data-name="패스 707" d="M1751.3,110.547a17.356,17.356,0,1,1,8.744,15.036l-.08.362-7.7.964,1.764-7.059A17.218,17.218,0,0,1,1751.3,110.547Z" transform="translate(21.809 3.98)" fill="#1428a0" stroke="#000" stroke-linecap="round" stroke-linejoin="round" stroke-width="2.5"/>
        <path id="패스_708" data-name="패스 708" d="M1757.611,103l4.842,4.842,6.859-6.859" transform="translate(26.804 10.117)" fill="#1428a0" stroke="#fff" stroke-linecap="round" stroke-linejoin="round" stroke-width="2.5"/>
      </g>
    </g>
    <rect id="사각형_2934" data-name="사각형 2934" width="120" height="98" transform="translate(1077 2694)" fill="none" opacity="0.71"/>
  </g>
</svg>
