<svg xmlns="http://www.w3.org/2000/svg" width="23.1" height="16.1" viewBox="0 0 23.1 16.1">
  <path id="icon-compare-enabled" d="M15-22.42a7.985,7.985,0,0,0-3.5.812A7.985,7.985,0,0,0,8-22.42,8.059,8.059,0,0,0-.05-14.37,8.06,8.06,0,0,0,8-6.32a7.985,7.985,0,0,0,3.5-.812A7.985,7.985,0,0,0,15-6.32a8.06,8.06,0,0,0,8.05-8.05A8.059,8.059,0,0,0,15-22.42ZM8-7.82a6.558,6.558,0,0,1-6.55-6.55A6.557,6.557,0,0,1,8-20.92a6.535,6.535,0,0,1,1.944.294A8.035,8.035,0,0,0,6.95-14.37,8.034,8.034,0,0,0,9.944-8.115,6.5,6.5,0,0,1,8-7.82Zm7.871-4.871c-.027.12-.06.239-.092.357-.055.209-.117.413-.187.615l-.01.027a8.4,8.4,0,0,1-2.52,3.522,5.066,5.066,0,0,1-1.5-.7c.027-.018.05-.039.076-.057.194-.134.384-.273.563-.424l.032-.029a7.124,7.124,0,0,0,.518-.495c.032-.033.062-.068.093-.1.136-.149.263-.3.385-.466.039-.052.079-.1.116-.155.1-.147.2-.3.293-.456.039-.066.083-.129.12-.2.1-.187.194-.382.279-.579.067-.16.124-.325.179-.49.017-.05.035-.1.05-.149q.083-.27.141-.549c.006-.027.011-.055.017-.083a6.474,6.474,0,0,0,.138-1.27,6.474,6.474,0,0,0-.138-1.27c-.006-.028-.011-.057-.017-.085-.039-.185-.086-.368-.141-.547-.015-.051-.033-.1-.05-.15-.055-.166-.112-.33-.179-.489-.085-.2-.176-.392-.279-.579-.037-.068-.081-.132-.12-.2-.093-.155-.188-.308-.292-.454-.038-.053-.078-.1-.117-.157-.122-.16-.249-.315-.385-.464-.031-.035-.061-.07-.093-.1a7.054,7.054,0,0,0-.516-.492L12.2-19.39c-.178-.151-.368-.29-.561-.423-.027-.018-.05-.04-.077-.057a10.092,10.092,0,0,1,1.5-.7,8.4,8.4,0,0,1,2.52,3.522l.01.027c.071.2.132.406.187.614.032.119.065.237.092.357.016.075.027.151.04.226a8.008,8.008,0,0,1,.139,1.454,8.008,8.008,0,0,1-.139,1.454C15.9-12.841,15.887-12.765,15.871-12.691Z" transform="translate(0.05 22.42)"/>
</svg>
