<?xml version="1.0" encoding="utf-8"?>
<!-- Generator: Adobe Illustrator 26.3.1, SVG Export Plug-In . SVG Version: 6.00 Build 0)  -->
<svg version="1.1" id="ic_reading" xmlns="http://www.w3.org/2000/svg" xmlns:xlink="http://www.w3.org/1999/xlink" x="0px" y="0px"
	 viewBox="0 0 40 40" style="enable-background:new 0 0 40 40;" xml:space="preserve">
<style type="text/css">
	.st0{opacity:0;}
	.st1{fill:#FFFFFF;}
	.st2{fill:none;stroke:#707070;}
</style>
<g id="사각형_924" class="st0">
	<rect y="0" class="st1" width="40" height="40"/>
	<rect x="0.5" y="0.5" class="st2" width="39" height="39"/>
</g>
<g>
	<g>
		<path d="M27.7,37.6H12.3c-2.1,0-3.8-1.7-3.8-3.8V6.2c0-2.1,1.7-3.8,3.8-3.8h15.4c2.1,0,3.8,1.7,3.8,3.8v27.6
			C31.5,35.9,29.8,37.6,27.7,37.6z M12.3,4.4c-1,0-1.8,0.8-1.8,1.8v27.6c0,1,0.8,1.8,1.8,1.8h15.4c1,0,1.8-0.8,1.8-1.8V6.2
			c0-1-0.8-1.8-1.8-1.8H12.3z"/>
	</g>
	<g>
		<circle cx="20" cy="7.9" r="1.4"/>
	</g>
</g>
</svg>
