<svg id="Iconography_Bold_style" data-name="Iconography / Bold style" xmlns="http://www.w3.org/2000/svg" width="16" height="16" viewBox="0 0 16 16">
  <g id="Icon">
    <path id="Icon_Bold_Media_Show_fill" data-name="Icon / Bold / Media / Show_fill" d="M8,0A8,8,0,1,1,0,8,8,8,0,0,1,8,0Z" fill="#2189ff"/>
    <path id="Path" d="M1.1.123A.711.711,0,0,0,.367.084.708.708,0,0,0,0,.685V7.324a.711.711,0,0,0,.367.638A.691.691,0,0,0,.7,8.046a.738.738,0,0,0,.366-.1L1.1,7.923l5.08-3.287a.72.72,0,0,0,.031-1.2L6.182,3.41Z" transform="translate(5.689 3.977)" fill="#fff" stroke="rgba(0,0,0,0)" stroke-miterlimit="10" stroke-width="1"/>
  </g>
</svg>
