<svg xmlns="http://www.w3.org/2000/svg" width="36.099" height="49" viewBox="0 0 36.099 49">
  <g id="icon" transform="translate(1.5 1.5)">
    <g id="그룹_2407" data-name="그룹 2407" transform="translate(0 0)">
      <path id="패스_870" data-name="패스 870" d="M.575,0H32.524A.575.575,0,0,1,33.1.575v44.85a.575.575,0,0,1-.575.575H.575A.575.575,0,0,1,0,45.425V.575A.575.575,0,0,1,.575,0Z" transform="translate(0)" fill="none" stroke="#000" stroke-linejoin="round" stroke-width="3"/>
      <path id="패스_873" data-name="패스 873" d="M0,7.3,7.331,0" transform="translate(21.711 25.437) rotate(135)" fill="none" stroke="#2189ff" stroke-linecap="round" stroke-width="3"/>
      <path id="패스_874" data-name="패스 874" d="M0,0H6.837l.407,7.165" transform="translate(21.522 27.547) rotate(135)" fill="none" stroke="#2189ff" stroke-linecap="round" stroke-width="3"/>
    </g>
    <g id="타원_132" data-name="타원 132" transform="translate(14.524 4.769)" fill="#212425" stroke="#212425" stroke-width="1">
      <circle cx="1.858" cy="1.858" r="1.858" stroke="none"/>
      <circle cx="1.858" cy="1.858" r="1.358" fill="none"/>
    </g>
  </g>
</svg>
