<svg xmlns="http://www.w3.org/2000/svg" width="46" height="42.197" viewBox="0 0 46 42.197">
  <g id="icon_2_보유_포인트" data-name="icon_2_보유 포인트" transform="translate(-830.44 284.179)">
    <g id="Group_2991" data-name="Group 2991" transform="translate(852.599 -284.179)">
      <rect id="Rectangle_2065" data-name="Rectangle 2065" width="23.842" height="36.271" fill="#efc404"/>
      <rect id="Rectangle_2066" data-name="Rectangle 2066" width="23.839" height="0.195" transform="translate(0.001 8.28)" opacity="0.2"/>
      <rect id="Rectangle_2067" data-name="Rectangle 2067" width="23.842" height="0.189" transform="translate(0 12.419)" opacity="0.2"/>
      <rect id="Rectangle_2068" data-name="Rectangle 2068" width="23.839" height="0.195" transform="translate(0.001 4.142)" opacity="0.2"/>
      <rect id="Rectangle_2069" data-name="Rectangle 2069" width="23.839" height="0.195" transform="translate(0.001 0.005)" opacity="0.2"/>
      <rect id="Rectangle_2070" data-name="Rectangle 2070" width="23.842" height="0.189" transform="translate(0 16.363)" opacity="0.2"/>
      <rect id="Rectangle_2071" data-name="Rectangle 2071" width="23.842" height="0.189" transform="translate(0 20.306)" opacity="0.2"/>
      <rect id="Rectangle_2072" data-name="Rectangle 2072" width="23.842" height="0.189" transform="translate(0 24.25)" opacity="0.2"/>
      <rect id="Rectangle_2073" data-name="Rectangle 2073" width="23.842" height="0.189" transform="translate(0 28.194)" opacity="0.2"/>
      <rect id="Rectangle_2074" data-name="Rectangle 2074" width="23.842" height="0.199" transform="translate(0 32.128)" opacity="0.2"/>
    </g>
    <g id="Group_2992" data-name="Group 2992" transform="translate(853.595 -274.718)" opacity="0.2">
      <path id="Path_1084" data-name="Path 1084" d="M872.144-258.784a14.832,14.832,0,0,1-.209,2.838.675.675,0,0,1-.03.189,15.677,15.677,0,0,1-1.125,3.745c-.03.07-.06.139-.09.2a15.6,15.6,0,0,1-2.609,3.944H853.69V-274.44a14.454,14.454,0,0,1,2.639-.239,15.443,15.443,0,0,1,9.073,2.958c.09.06.179.12.269.189a16.1,16.1,0,0,1,3.6,3.755,2.149,2.149,0,0,1,.13.189,15.914,15.914,0,0,1,1.862,3.755c.02.06.04.129.06.189a15.61,15.61,0,0,1,.757,3.755.584.584,0,0,1,.02.189C872.124-259.4,872.134-259.093,872.144-258.784Z" transform="translate(-853.69 274.679)"/>
    </g>
    <g id="Group_2993" data-name="Group 2993" transform="translate(830.44 -266.916)">
      <rect id="Rectangle_2075" data-name="Rectangle 2075" width="21.017" height="19.95" fill="#efc404"/>
      <rect id="Rectangle_2076" data-name="Rectangle 2076" width="21.017" height="0.195" transform="translate(0 3.984)" opacity="0.2"/>
      <rect id="Rectangle_2077" data-name="Rectangle 2077" width="21.017" height="0.195" transform="translate(0 7.927)" opacity="0.2"/>
      <rect id="Rectangle_2078" data-name="Rectangle 2078" width="21.017" height="0.195" opacity="0.2"/>
      <path id="Path_1085" data-name="Path 1085" d="M851.544-262.886" transform="translate(-830.527 266.829)" opacity="0.2"/>
      <path id="Path_1086" data-name="Path 1086" d="M830.441-262.886" transform="translate(-830.44 266.829)" opacity="0.2"/>
      <rect id="Rectangle_2079" data-name="Rectangle 2079" width="21.017" height="0.195" transform="translate(0 11.869)" opacity="0.2"/>
      <rect id="Rectangle_2080" data-name="Rectangle 2080" width="21.017" height="0.195" transform="translate(0 15.812)" opacity="0.2"/>
    </g>
    <g id="Group_3001" data-name="Group 3001" transform="translate(837.353 -274.727)">
      <g id="Group_2996" data-name="Group 2996">
        <g id="Group_2995" data-name="Group 2995" style="isolation: isolate">
          <path id="Path_1087" data-name="Path 1087" d="M869.549-258.1q.009-.345,0-.693-.008-.4-.033-.8c-.01-.144-.036-.285-.049-.428-.023-.25-.05-.5-.085-.745-.017-.124-.022-.252-.042-.374q-.07-.43-.161-.852v0c-.061-.278-.127-.554-.2-.827-.046-.168-.1-.332-.153-.5-.032-.1-.062-.209-.1-.313-.132-.4-.274-.795-.434-1.18-.014-.033-.031-.065-.045-.1-.037-.085-.078-.166-.115-.25q-.232-.518-.5-1.018c-.06-.113-.12-.224-.182-.336-.216-.386-.444-.766-.691-1.131-.008-.012-.016-.026-.024-.039q-.308-.453-.643-.883c-.054-.068-.112-.131-.167-.2-.087-.108-.177-.212-.267-.318s-.2-.242-.3-.358c-.13-.144-.269-.281-.4-.42-.078-.081-.153-.163-.233-.242q-.478-.475-.993-.908c-.067-.056-.137-.108-.205-.162-.289-.235-.587-.458-.89-.672-.106-.074-.211-.147-.318-.218-.087-.058-.169-.121-.257-.176q-.427-.273-.872-.517l-.017-.011q-.457-.251-.932-.473c-.066-.03-.136-.051-.2-.081-.307-.138-.621-.258-.938-.376-.149-.056-.292-.126-.444-.177-.048-.017-.1-.027-.146-.042-.226-.075-.458-.132-.689-.2-.205-.057-.405-.126-.615-.174-.058-.014-.119-.02-.176-.033-.2-.044-.409-.076-.615-.113s-.412-.085-.623-.114c-.083-.011-.167-.012-.25-.022-.207-.025-.417-.039-.626-.055-.182-.014-.362-.041-.546-.048q-.317-.013-.636-.013c-.278,0-.555.007-.829.022-.1,0-.193.023-.291.03-.273.02-.543.051-.812.085-.135.017-.275.022-.409.043s-.244.045-.367.067c-.082.015-.163.029-.245.046-.35.069-.7.145-1.038.239-.042.011-.083.026-.125.038-.1.03-.2.064-.3.095q-.456.139-.9.3c-.119.045-.237.09-.355.137-.087.035-.176.065-.262.1-.16.069-.314.151-.472.226s-.334.153-.5.237c-.235.121-.463.254-.691.386-.148.087-.3.168-.445.26-.247.155-.484.324-.721.493-.117.084-.238.16-.352.246q-.52.394-1,.828l-1.05.944c.323-.29.659-.565,1-.827.115-.087.236-.163.353-.247.237-.169.474-.338.721-.493.145-.092.3-.173.444-.259.228-.133.457-.266.692-.387.163-.084.331-.159.5-.237.242-.114.485-.226.733-.327.117-.048.237-.093.356-.137.295-.112.594-.212.9-.3.1-.031.2-.065.3-.094.381-.109.77-.2,1.163-.278.081-.016.161-.031.243-.045.256-.047.518-.078.778-.111s.538-.065.81-.085c.37-.027.742-.052,1.119-.052.4,0,.792.031,1.184.061.209.016.418.03.624.055.295.035.586.085.876.136.2.036.41.068.612.112.268.059.531.135.794.208.23.063.461.121.686.2.2.066.4.146.594.22.316.117.629.238.935.375.385.172.768.352,1.136.554l.015.009c.388.214.763.45,1.13.7.108.072.213.144.318.218q.459.321.892.673c.068.055.136.106.2.161.344.288.675.593.994.909.08.078.154.16.232.24q.364.378.705.779c.09.106.18.21.267.318.283.351.557.709.811,1.084l.023.036c.247.366.475.747.692,1.133.063.111.122.223.182.336.176.333.343.672.5,1.018.038.084.079.165.115.25.178.417.337.845.48,1.279.034.1.064.207.1.311.133.435.257.874.356,1.325v0c.087.4.146.814.2,1.226.034.247.062.495.085.746.037.407.075.816.082,1.231,0,.257,0,.511-.008.764-.013.425-.044.846-.089,1.262-.009.086-.02.171-.03.256-.054.429-.12.853-.205,1.27-.008.039-.018.076-.026.114q-.145.674-.345,1.326c-.011.038-.02.076-.032.114-.049.154-.1.307-.157.459-.041.116-.078.233-.121.348-.06.16-.127.318-.192.475-.042.1-.082.207-.125.309-.128.294-.268.582-.413.865-.042.082-.088.162-.13.243q-.163.3-.338.6c-.053.09-.108.178-.162.266q-.22.354-.457.7c-.038.055-.074.112-.113.165q-.294.409-.614.8c-.053.065-.109.127-.162.191-.17.2-.345.4-.525.589-.066.071-.131.14-.2.209-.235.242-.475.478-.725.7l1.049-.944c.25-.225.49-.461.725-.7.068-.069.132-.138.2-.209q.27-.287.525-.589c.055-.064.11-.126.162-.191q.32-.388.615-.8c.039-.055.075-.111.112-.165q.237-.341.458-.7c.027-.044.058-.085.085-.129s.05-.092.077-.136c.117-.2.228-.4.337-.6.044-.082.09-.163.133-.246.145-.283.284-.571.412-.864l.008-.017c.043-.1.08-.2.12-.3.065-.155.13-.31.189-.467.043-.115.081-.232.121-.348.054-.152.109-.3.157-.459l.014-.04c.007-.024.011-.05.019-.074q.2-.651.344-1.326c.006-.027.015-.053.021-.08l0-.034c.086-.416.151-.841.205-1.27.006-.047.017-.092.022-.138s0-.079.009-.117c.044-.416.075-.837.088-1.262C869.545-258.052,869.548-258.074,869.549-258.1Z" transform="translate(-837.403 274.688)" fill="#ecc200"/>
          <g id="Group_2994" data-name="Group 2994" transform="translate(0 0.944)">
            <path id="Path_1088" data-name="Path 1088" d="M852.663-273.74a16.049,16.049,0,0,1,15.819,15.9,15.419,15.419,0,0,1-15.286,15.9,16.054,16.054,0,0,1-15.812-15.9A15.412,15.412,0,0,1,852.663-273.74Z" transform="translate(-837.382 273.74)" fill="#ffe000"/>
          </g>
        </g>
      </g>
      <g id="Group_2999" data-name="Group 2999" transform="translate(3.378 4.449)">
        <g id="Group_2998" data-name="Group 2998" style="isolation: isolate">
          <path id="Path_1089" data-name="Path 1089" d="M853.571-246.173a12.138,12.138,0,0,1-11.957-12.021,11.96,11.96,0,0,1,2.253-7.24,11.63,11.63,0,0,1,1.65-1.837h0l-.839.756a11.89,11.89,0,0,0-3.9,9.078,12.138,12.138,0,0,0,11.957,12.021,11.362,11.362,0,0,0,7.641-2.933l.84-.755A11.371,11.371,0,0,1,853.571-246.173Z" transform="translate(-840.773 270.209)" fill="#efc404"/>
          <g id="Group_2997" data-name="Group 2997" transform="translate(0.839)">
            <path id="Path_1090" data-name="Path 1090" d="M853.172-270.221a12.126,12.126,0,0,1,11.95,12.014,11.651,11.651,0,0,1-11.547,12.021,12.138,12.138,0,0,1-11.957-12.021A11.651,11.651,0,0,1,853.172-270.221Z" transform="translate(-841.616 270.221)" fill="#ffea00"/>
          </g>
        </g>
      </g>
      <g id="Group_3000" data-name="Group 3000" transform="translate(12.671 10.438)">
        <path id="Path_1091" data-name="Path 1091" d="M857.986-261.633a4.407,4.407,0,0,1,.346,1.654,4.344,4.344,0,0,1-.291,1.654,4.146,4.146,0,0,1-.857,1.349,3.919,3.919,0,0,1-1.311.9,4.145,4.145,0,0,1-1.666.34h-1.8l.057,3.391H850.3l-.2-11.862h3.973a4.217,4.217,0,0,1,1.677.332,4.143,4.143,0,0,1,1.329.907A4.271,4.271,0,0,1,857.986-261.633Zm-1.982,2.5a2.2,2.2,0,0,0,.148-.85,2.3,2.3,0,0,0-.177-.858,2.056,2.056,0,0,0-.451-.685,2.2,2.2,0,0,0-.691-.464,2.164,2.164,0,0,0-.876-.172H852.3l.074,4.374h1.658a2.122,2.122,0,0,0,.869-.173,2,2,0,0,0,.676-.471,2.08,2.08,0,0,0,.428-.7" transform="translate(-850.105 264.207)" fill="#efc404"/>
      </g>
    </g>
  </g>
</svg>
