<svg xmlns="http://www.w3.org/2000/svg" xmlns:xlink="http://www.w3.org/1999/xlink" width="39.786" height="37.605" viewBox="0 0 39.786 37.605">
  <defs>
    <clipPath id="clip-path">
      <path id="Clip_8" data-name="Clip 8" d="M0,0H1.389V6.088H0Z" transform="translate(0.25 0.448)" fill="none"/>
    </clipPath>
    <clipPath id="clip-path-2">
      <path id="Clip_11" data-name="Clip 11" d="M0,0H1.389V6.088H0Z" transform="translate(0.849 0.448)" fill="none"/>
    </clipPath>
  </defs>
  <g id="Group_15" data-name="Group 15" transform="translate(1 -0.448)">
    <path id="Stroke_1" data-name="Stroke 1" d="M9.533,0A9.536,9.536,0,1,1,0,9.537" transform="translate(18.716 17.98)" fill="none" stroke="#fff" stroke-miterlimit="10" stroke-width="2"/>
    <path id="Stroke_3" data-name="Stroke 3" d="M0,0V6.75H6.347" transform="translate(28.251 20.766)" fill="none" stroke="#fff" stroke-miterlimit="10" stroke-width="2"/>
    <path id="Stroke_5" data-name="Stroke 5" d="M28.25,3.681V14.265A9.536,9.536,0,0,0,18.716,23.8H3.681A3.68,3.68,0,0,1,0,20.12V3.681A3.68,3.68,0,0,1,3.681,0H24.568A3.68,3.68,0,0,1,28.25,3.681Z" transform="translate(0 3.715)" fill="none" stroke="#fff" stroke-miterlimit="10" stroke-width="2"/>
    <g id="Group_9" data-name="Group 9" transform="translate(8.593)">
      <path id="Clip_8-2" data-name="Clip 8" d="M0,0H1.389V6.088H0Z" transform="translate(0.25 0.448)" fill="none"/>
      <g id="Group_9-2" data-name="Group 9" clip-path="url(#clip-path)">
        <path id="Stroke_7" data-name="Stroke 7" d="M.694,0V6.088" transform="translate(0.25 0.448)" fill="none" stroke="#fff" stroke-miterlimit="10" stroke-width="2"/>
      </g>
    </g>
    <g id="Group_12" data-name="Group 12" transform="translate(17.5 0.015)">
      <path id="Clip_11-2" data-name="Clip 11" d="M0,0H1.389V6.088H0Z" transform="translate(0.849 0.448)" fill="none"/>
      <g id="Group_12-2" data-name="Group 12" clip-path="url(#clip-path-2)">
        <path id="Stroke_10" data-name="Stroke 10" d="M.694,0V6.088" transform="translate(0.849 0.448)" fill="none" stroke="#fff" stroke-miterlimit="10" stroke-width="2"/>
      </g>
    </g>
    <path id="Stroke_13" data-name="Stroke 13" d="M0,.231H28.252" transform="translate(-0.001 11.07)" fill="none" stroke="#fff" stroke-miterlimit="10" stroke-width="2"/>
  </g>
</svg>
