<svg xmlns="http://www.w3.org/2000/svg" xmlns:xlink="http://www.w3.org/1999/xlink" width="30.906" height="40.287" viewBox="0 0 30.906 40.287">
  <defs>
    <clipPath id="clip-path">
      <path id="Clip_10" data-name="Clip 10" d="M0,0H30.72V1.714H0Z" transform="translate(0 0.857)" fill="none"/>
    </clipPath>
  </defs>
  <g id="Group_14" data-name="Group 14" transform="translate(-0.493 0.241)">
    <path id="Stroke_1" data-name="Stroke 1" d="M16.3,4.191l1.4,7.364L0,21.483,2.723,1.37,9.913,0" transform="translate(1.753 16.71)" fill="none" stroke="#fff" stroke-miterlimit="10" stroke-width="2"/>
    <path id="Stroke_3" data-name="Stroke 3" d="M3.74,3.2A2.047,2.047,0,1,1,3.2.354,2.047,2.047,0,0,1,3.74,3.2Z" transform="translate(8.509 23.198)" fill="none" stroke="#fff" stroke-miterlimit="10" stroke-width="2"/>
    <path id="Stroke_5" data-name="Stroke 5" d="M0,11.255,7.653,0" transform="translate(1.753 26.938)" fill="none" stroke="#fff" stroke-miterlimit="10" stroke-width="2"/>
    <path id="Stroke_7" data-name="Stroke 7" d="M8.374,10.188,1.1,5.241A2.5,2.5,0,0,1,.434,1.761l.7-1.034A1.66,1.66,0,0,1,3.443.287l8.674,5.9a1.66,1.66,0,0,1,.439,2.306l-.7,1.034A2.5,2.5,0,0,1,8.374,10.188Z" transform="translate(10.231 11.088)" fill="none" stroke="#fff" stroke-miterlimit="10" stroke-width="2"/>
    <g id="Group_11" data-name="Group 11" transform="translate(0.679 37.373)">
      <path id="Clip_10-2" data-name="Clip 10" d="M0,0H30.72V1.714H0Z" transform="translate(0 0.857)" fill="none"/>
      <g id="Group_11-2" data-name="Group 11" clip-path="url(#clip-path)">
        <path id="Stroke_9" data-name="Stroke 9" d="M0,.857H30.721" transform="translate(0 0.857)" fill="none" stroke="#fff" stroke-miterlimit="10" stroke-width="2"/>
      </g>
    </g>
    <path id="Stroke_12" data-name="Stroke 12" d="M16.65,6.143l-7.615,11.2L0,11.2,7.615,0" transform="translate(13.572 0.321)" fill="none" stroke="#fff" stroke-miterlimit="10" stroke-width="2"/>
  </g>
</svg>
