<svg xmlns="http://www.w3.org/2000/svg" width="32.485" height="32.181" viewBox="0 0 32.485 32.181">
  <g id="Group_7" data-name="Group 7" transform="translate(1 1.009)">
    <path id="Stroke_1" data-name="Stroke 1" d="M0,15.005H27.1V0H0Z" transform="translate(1.694 15.167)" fill="none" stroke="#fff" stroke-miterlimit="10" stroke-width="2"/>
    <path id="Stroke_3" data-name="Stroke 3" d="M30.485,6.189H0V1.63A1.63,1.63,0,0,1,1.63,0H28.854a1.63,1.63,0,0,1,1.631,1.63Z" transform="translate(0 8.978)" fill="none" stroke="#fff" stroke-miterlimit="10" stroke-width="2"/>
    <path id="Stroke_4" data-name="Stroke 4" d="M0,21.195H6.289V0H0Z" transform="translate(12.098 8.977)" fill="none" stroke="#fff" stroke-miterlimit="10" stroke-width="2"/>
    <path id="Stroke_5" data-name="Stroke 5" d="M10.579,8.978H8.169s-13.354-2.3-5.914-7.84C8.9-3.808,10.579,8.978,10.579,8.978Z" transform="translate(4.657 0)" fill="none" stroke="#fff" stroke-miterlimit="10" stroke-width="2"/>
    <path id="Stroke_6" data-name="Stroke 6" d="M0,8.978H2.41s13.354-2.3,5.914-7.84C1.679-3.808,0,8.978,0,8.978Z" transform="translate(15.236 0)" fill="none" stroke="#fff" stroke-miterlimit="10" stroke-width="2"/>
  </g>
</svg>
