<svg xmlns="http://www.w3.org/2000/svg" width="23.505" height="21.63" viewBox="0 0 23.505 21.63">
  <g id="그룹_312" data-name="그룹 312" transform="translate(1)">
    <g id="그룹_311" data-name="그룹 311" transform="translate(0 3.647)">
      <line id="선_67" data-name="선 67" x1="2.867" transform="translate(0 14.337)" fill="none" stroke="#fff" stroke-linecap="round" stroke-linejoin="round" stroke-width="2"/>
      <line id="선_68" data-name="선 68" x1="11.469" transform="translate(10.036 14.337)" fill="none" stroke="#fff" stroke-linecap="round" stroke-linejoin="round" stroke-width="2"/>
      <line id="선_69" data-name="선 69" x1="11.469" transform="translate(0 7.168)" fill="none" stroke="#fff" stroke-linecap="round" stroke-linejoin="round" stroke-width="2"/>
      <line id="선_70" data-name="선 70" x1="2.867" transform="translate(18.638 7.168)" fill="none" stroke="#fff" stroke-linecap="round" stroke-linejoin="round" stroke-width="2"/>
      <line id="선_71" data-name="선 71" x1="2.867" stroke-width="2" stroke="#fff" stroke-linecap="round" stroke-linejoin="round" fill="none"/>
      <line id="선_72" data-name="선 72" x1="11.469" transform="translate(10.036)" fill="none" stroke="#fff" stroke-linecap="round" stroke-linejoin="round" stroke-width="2"/>
    </g>
    <path id="패스_300" data-name="패스 300" d="M292.612,291.815a1.5,1.5,0,1,1-1.5-1.5,1.5,1.5,0,0,1,1.5,1.5m2.151,0a3.647,3.647,0,1,0-3.647,3.647,3.647,3.647,0,0,0,3.647-3.647Z" transform="translate(-276 -281)" fill="#fff"/>
    <path id="패스_301" data-name="패스 301" d="M284.01,284.647a1.5,1.5,0,1,1-1.5-1.5,1.5,1.5,0,0,1,1.5,1.5m2.151,0a3.647,3.647,0,1,0-3.647,3.646,3.647,3.647,0,0,0,3.647-3.646Z" transform="translate(-276 -281)" fill="#fff"/>
    <path id="패스_302" data-name="패스 302" d="M284.01,298.983a1.5,1.5,0,1,1-1.5-1.5,1.5,1.5,0,0,1,1.5,1.5m2.151,0a3.647,3.647,0,1,0-3.647,3.647,3.646,3.646,0,0,0,3.647-3.647Z" transform="translate(-276 -281)" fill="#fff"/>
  </g>
</svg>
