<svg xmlns="http://www.w3.org/2000/svg" xmlns:xlink="http://www.w3.org/1999/xlink" width="88.479" height="59.893" viewBox="0 0 88.479 59.893">
  <defs>
    <style>
      .cls-1 {
        fill: #2189ff;
      }

      .cls-2 {
        fill: #dedede;
      }

      .cls-3 {
        clip-path: url(#clip-path);
      }

      .cls-4 {
        fill: #157ef5;
      }

      .cls-12, .cls-5, .cls-6 {
        fill: none;
      }

      .cls-5, .cls-6, .cls-7 {
        stroke: #fff;
      }

      .cls-5 {
        stroke-dasharray: 2;
      }

      .cls-6 {
        stroke-width: 3px;
      }

      .cls-7, .cls-8 {
        fill: #fff;
      }

      .cls-8 {
        opacity: 0.3;
      }

      .cls-9 {
        fill: #ffe000;
      }

      .cls-10 {
        fill: #ffe846;
      }

      .cls-11 {
        stroke: none;
      }
    </style>
    <clipPath id="clip-path">
      <path id="패스_2137" data-name="패스 2137" class="cls-1" d="M643.06,628.8h-9.216c0,1.542-1.141,4.742-4.284,4.742h-.139c-2.814,0-4.14-3.237-4.14-4.733H573.9a1.488,1.488,0,0,0-1.405,1.557v41.439a1.487,1.487,0,0,0,1.405,1.558h51.388a4.488,4.488,0,0,1,4.14-4.733h.139c3.136,0,4.284,3.192,4.284,4.742h9.216a1.487,1.487,0,0,0,1.405-1.558V630.361a1.488,1.488,0,0,0-1.41-1.561Z" transform="translate(4.508 -378.802)"/>
    </clipPath>
  </defs>
  <g id="icon" transform="translate(-562.501 -236.677)">
    <path id="패스_2137-2" data-name="패스 2137" class="cls-2" d="M643.06,628.8h-9.216c0,1.542-1.141,4.742-4.284,4.742h-.139c-2.814,0-4.14-3.237-4.14-4.733H573.9a1.488,1.488,0,0,0-1.405,1.557v41.439a1.487,1.487,0,0,0,1.405,1.558h51.388a4.488,4.488,0,0,1,4.14-4.733h.139c3.136,0,4.284,3.192,4.284,4.742h9.216a1.487,1.487,0,0,0,1.405-1.558V630.361a1.488,1.488,0,0,0-1.41-1.561Z" transform="translate(6.508 -376.802)"/>
    <path id="패스_2137-3" data-name="패스 2137" class="cls-1" d="M643.06,628.8h-9.216c0,1.542-1.141,4.742-4.284,4.742h-.139c-2.814,0-4.14-3.237-4.14-4.733H573.9a1.488,1.488,0,0,0-1.405,1.557v41.439a1.487,1.487,0,0,0,1.405,1.558h51.388a4.488,4.488,0,0,1,4.14-4.733h.139c3.136,0,4.284,3.192,4.284,4.742h9.216a1.487,1.487,0,0,0,1.405-1.558V630.361a1.488,1.488,0,0,0-1.41-1.561Z" transform="translate(4.508 -378.802)"/>
    <g id="마스크_그룹_92" data-name="마스크 그룹 92" class="cls-3">
      <path id="패스_2142" data-name="패스 2142" class="cls-4" d="M651.333,247.951l-80.667,50.333h82.667Z"/>
    </g>
    <line id="선_512" data-name="선 512" class="cls-5" y2="34.273" transform="translate(634.408 256.856)"/>
    <g id="타원_116" data-name="타원 116" class="cls-6" transform="translate(590.71 261.997)">
      <circle class="cls-11" cx="5.998" cy="5.998" r="5.998"/>
      <circle class="cls-12" cx="5.998" cy="5.998" r="4.498"/>
    </g>
    <g id="타원_117" data-name="타원 117" class="cls-6" transform="translate(606.133 272.279)">
      <circle class="cls-11" cx="5.998" cy="5.998" r="5.998"/>
      <circle class="cls-12" cx="5.998" cy="5.998" r="4.498"/>
    </g>
    <g id="사각형_3101" data-name="사각형 3101" class="cls-7" transform="translate(609.532 261.149) rotate(30)">
      <rect class="cls-11" width="3" height="25"/>
      <rect class="cls-12" x="0.5" y="0.5" width="2" height="24"/>
    </g>
    <path id="패스_2141" data-name="패스 2141" class="cls-8" d="M618.834,252.083c0-1.106-37.55-1.048-38.931-1s-1.687.351-1.75,1.751-.436,26.763,1,26.763,1.439-24.418,2.539-25.314S618.834,253.19,618.834,252.083Z" transform="translate(1.498 1.703)"/>
    <path id="패스_2143" data-name="패스 2143" class="cls-9" d="M0,0C.188-.188,3.5,3.6,7,3.6s4.682-1.675,4.879-1.478S10.4,4,10.4,7.5s4.472,7.063,4.307,7.207S10.889,10.4,7.389,10.4s-5.1,1.633-5.268,1.479S3.6,10.5,3.6,7-.188.188,0,0Z" transform="translate(572.999 236.686) rotate(45)"/>
    <path id="패스_2144" data-name="패스 2144" class="cls-10" d="M0,0C.092-.1,1.762,1.812,3.527,1.812a4.517,4.517,0,0,0,2.461-.746,6.277,6.277,0,0,0-.746,2.713c0,1.765,2.255,3.562,2.172,3.635S5.489,5.242,3.723,5.242a5.479,5.479,0,0,0-2.657.746,4.3,4.3,0,0,0,.746-2.461C1.812,1.762-.1.092,0,0Z" transform="translate(567.75 249.617) rotate(45)"/>
  </g>
</svg>
