<svg xmlns="http://www.w3.org/2000/svg" width="35.032" height="21.692" viewBox="0 0 35.032 21.692">
  <g id="그룹_6139" data-name="그룹 6139" transform="translate(-278 -175.654)">
    <g id="icon_다운로드가능쿠폰" transform="translate(278 175.654)">
      <path id="패스_2138" data-name="패스 2138" d="M606.836,628.8h-4.485a2.257,2.257,0,0,1-2.085,2.308H600.2c-1.369,0-2.015-1.575-2.015-2.3H573.176a.724.724,0,0,0-.684.758V649.73a.724.724,0,0,0,.684.758h25.01a2.184,2.184,0,0,1,2.015-2.3h.068a2.258,2.258,0,0,1,2.085,2.308h4.485a.724.724,0,0,0,.684-.758V629.56A.724.724,0,0,0,606.836,628.8Z" transform="translate(-572.491 -628.8)" fill="#2189ff"/>
      <line id="선_511" data-name="선 511" y2="16.68" transform="translate(27.94 3.338)" fill="none" stroke="#fff" stroke-width="1" stroke-dasharray="2"/>
      <g id="icon-26-Cart" transform="translate(-2.838 4.508)">
        <rect id="사각형_188" data-name="사각형 188" width="14" height="14" transform="translate(8.838 -0.162)" fill="none"/>
        <g id="그룹_6138" data-name="그룹 6138">
          <path id="icon-gnb-2020-cart" d="M11.554,13.481a1.6,1.6,0,1,1-1.6,1.6A1.6,1.6,0,0,1,11.554,13.481Zm-5.1,0a1.6,1.6,0,1,1-1.6,1.6,1.6,1.6,0,0,1,1.6-1.6Zm5.1,1.02a.579.579,0,1,0,.414.169A.583.583,0,0,0,11.554,14.5Zm-5.1,0a.583.583,0,1,0,.583.583.575.575,0,0,0-.584-.583ZM2.966,3.8a.8.8,0,0,1,.744.54v.029L4.148,6h9.928a.7.7,0,0,1,.684.846v.029l-1.4,5.295a.78.78,0,0,1-.714.569H5.328a.784.784,0,0,1-.744-.54l-.013-.029L2.66,4.966H1.1V3.8Zm10.5,3.366H4.453l1.166,4.4h6.692Z" transform="translate(7.738 -3.962)" fill="#fff"/>
        </g>
      </g>
    </g>
  </g>
</svg>
