<svg xmlns="http://www.w3.org/2000/svg" width="120" height="98" viewBox="0 0 120 98">
  <g id="그룹_5481" data-name="그룹 5481" transform="translate(-369 -2694)">
    <g id="그룹_2333" data-name="그룹 2333" transform="translate(-1466.062 2627.463)">
      <path id="패스_703" data-name="패스 703" d="M1928.277,157.767h-65.6c-4.606,0-8.156-3.768-7.543-8.005l4.42-30.538a7.445,7.445,0,0,1,7.542-6.124h56.765a7.447,7.447,0,0,1,7.543,6.124l4.419,30.538C1936.433,154,1932.883,157.767,1928.277,157.767Z" fill="#fff" stroke="#000" stroke-linecap="round" stroke-linejoin="round" stroke-width="2.5"/>
      <path id="패스_704" data-name="패스 704" d="M1908.615,73.537a20.8,20.8,0,0,1,15.471,34.73l.049-.022-.182.169a20.972,20.972,0,0,1-2.551,2.362l-12.787,11.837v-7.426a20.825,20.825,0,0,1,0-41.65Z" fill="#bfdbf6" stroke="#000" stroke-linecap="round" stroke-linejoin="round" stroke-width="2.5"/>
      <text id="A" transform="translate(1902.056 101.998)" fill="#fff" font-size="19.969" font-family="SamsungSharpSans-Bold, Samsung Sharp Sans" font-weight="700"><tspan x="0" y="0">A</tspan></text>
      <path id="패스_705" data-name="패스 705" d="M1883.928,92.591a20.8,20.8,0,0,0-15.472,34.729l-.048-.021.182.168a20.828,20.828,0,0,0,2.551,2.362l12.787,11.838v-7.426a20.825,20.825,0,1,0,0-41.65Z" fill="#1428a0" stroke="#000" stroke-linecap="round" stroke-linejoin="round" stroke-width="2.5"/>
      <text id="Q" transform="translate(1875.539 120.998)" fill="#fff" font-size="19.969" font-family="SamsungSharpSans-Bold, Samsung Sharp Sans" font-weight="700"><tspan x="0" y="0">Q</tspan></text>
    </g>
    <rect id="사각형_2932" data-name="사각형 2932" width="120" height="98" transform="translate(369 2694)" fill="none" opacity="0.71"/>
  </g>
</svg>
