<svg xmlns="http://www.w3.org/2000/svg" xmlns:xlink="http://www.w3.org/1999/xlink" width="28" height="28" viewBox="0 0 28 28">
  <defs>
    <clipPath id="clip-Web_1920_1">
      <rect width="28" height="28"/>
    </clipPath>
  </defs>
  <g id="Web_1920_1" data-name="Web 1920 – 1" clip-path="url(#clip-Web_1920_1)">
    <g id="icon_app" transform="translate(-1055 -649.566)">
      <g id="그룹_6462" data-name="그룹 6462" transform="translate(1060 654.566)">
        <g id="그룹_6461" data-name="그룹 6461" transform="translate(0 0)">
          <g id="그룹_6460" data-name="그룹 6460" transform="translate(0 0)">
            <g id="그룹_6456" data-name="그룹 6456" transform="translate(5.059 17.17)">
              <path id="패스_2544" data-name="패스 2544" d="M205.165,385.2h-2.128a.3.3,0,0,1,0-.591h2.128a.3.3,0,0,1,0,.591Z" transform="translate(-202.741 -384.913)" stroke="#000" stroke-width="0.3"/>
            </g>
            <g id="그룹_6457" data-name="그룹 6457" transform="translate(0.015 15.861)">
              <path id="패스_2545" data-name="패스 2545" d="M129.947,363.069H117.732a.3.3,0,0,1,0-.591h12.215a.3.3,0,0,1,0,.591Z" transform="translate(-117.436 -363.073)" stroke="#000" stroke-width="0.3"/>
            </g>
            <g id="그룹_6458" data-name="그룹 6458" transform="translate(0.015 2.178)">
              <path id="패스_2546" data-name="패스 2546" d="M129.947,131.635H117.732a.3.3,0,0,1,0-.591h12.215a.3.3,0,0,1,0,.591Z" transform="translate(-117.436 -130.457)" stroke="#000" stroke-width="0.3"/>
            </g>
            <g id="그룹_6459" data-name="그룹 6459">
              <path id="패스_2547" data-name="패스 2547" d="M128.539,113.332h-9.88a1.48,1.48,0,0,1-1.478-1.478V95.678a1.48,1.48,0,0,1,1.478-1.478h9.88a1.48,1.48,0,0,1,1.478,1.478v4.451a.3.3,0,1,1-.591,0V95.678a.888.888,0,0,0-.887-.887h-9.88a.888.888,0,0,0-.887.887v16.176a.888.888,0,0,0,.887.887h9.88a.888.888,0,0,0,.887-.887V107.66a.3.3,0,1,1,.591,0v4.194A1.48,1.48,0,0,1,128.539,113.332Z" transform="translate(-117.18 -94.2)" stroke="#000" stroke-width="0.3"/>
            </g>
          </g>
        </g>
      </g>
      <g id="빼기_5" data-name="빼기 5" transform="translate(-6334 -2569.935)" fill="none">
        <path d="M7412,3238h-11v-3a1,1,0,0,0,0-2v-3h11v3a1,1,0,0,0,0,2v3Z" stroke="none"/>
        <path d="M 7411.09912109375 3237.100341796875 L 7411.09912109375 3235.672119140625 C 7410.5048828125 3235.350830078125 7410.10009765625 3234.721923828125 7410.10009765625 3234.000244140625 C 7410.10009765625 3233.27880859375 7410.5048828125 3232.6494140625 7411.09912109375 3232.32763671875 L 7411.09912109375 3230.900390625 L 7401.900390625 3230.900390625 L 7401.900390625 3232.326904296875 C 7402.49462890625 3232.6484375 7402.8994140625 3233.27783203125 7402.8994140625 3234.000244140625 C 7402.8994140625 3234.720947265625 7402.49462890625 3235.349853515625 7401.900390625 3235.67138671875 L 7401.900390625 3237.100341796875 L 7411.09912109375 3237.100341796875 M 7411.9990234375 3238.000244140625 L 7401.00048828125 3238.000244140625 L 7401.00048828125 3234.999267578125 C 7401.552734375 3234.998291015625 7401.99951171875 3234.550537109375 7401.99951171875 3234.000244140625 C 7401.99951171875 3233.448486328125 7401.55126953125 3232.99951171875 7401.00048828125 3232.99951171875 L 7401.00048828125 3230.00048828125 L 7411.9990234375 3230.00048828125 L 7411.9990234375 3232.99951171875 C 7411.44677734375 3233.00048828125 7411 3233.448974609375 7411 3234.000244140625 C 7411 3234.551025390625 7411.4482421875 3234.999267578125 7411.9990234375 3234.999267578125 L 7411.9990234375 3238.000244140625 Z" stroke="none" fill="#000"/>
      </g>
    </g>
  </g>
</svg>
