<svg xmlns="http://www.w3.org/2000/svg" width="48" height="48" viewBox="0 0 48 48">
  <g id="그룹_5553" data-name="그룹 5553" transform="translate(-933 -269)">
    <g id="Icon" transform="translate(933 269)">
      <path id="Icon_Regular_Shopping_Gift" data-name="Icon / Regular / Shopping / Gift" d="M5.734,42.878a1.747,1.747,0,0,1-1.742-1.649l0-.1V20.442H1.745A1.747,1.747,0,0,1,0,18.792l0-.1V8.725A1.747,1.747,0,0,1,1.649,6.982l.1,0H6.36A5.058,5.058,0,0,1,13.466.621l.1.055.15.074.16.083c.37.195.889.491,1.556.905l.157.1c1.46.913,3.162,2.1,5.106,3.6L20.5,5.58l.634-.486c1.665-1.268,3.147-2.3,4.443-3.122l.217-.137C26.648,1.3,27.272.951,27.671.75l.153-.076.093-.053A5.032,5.032,0,0,1,30.161,0l.184,0a5.065,5.065,0,0,1,4.679,6.981h4.613a1.746,1.746,0,0,1,1.742,1.649l0,.1V18.7a1.747,1.747,0,0,1-1.649,1.742l-.1,0H37.393V41.133a1.747,1.747,0,0,1-1.649,1.742l-.1,0Z" transform="translate(3.241 2.493)" fill="#fff"/>
    </g>
    <path id="Icon_Regular_Shopping_Gift-2" data-name="Icon / Regular / Shopping / Gift" d="M38.571,46.32H6.2a1.886,1.886,0,0,1-1.885-1.782l0-.1V22.083H1.888A1.886,1.886,0,0,1,0,20.3l0-.1V9.425A1.886,1.886,0,0,1,1.785,7.543l.1,0H6.881A5.471,5.471,0,0,1,14.57.671l.1.059.163.08L15.009.9c.316.166.865.471,1.684.978l.169.105c1.66,1.037,3.519,2.345,5.525,3.89l-.2.156.686-.525C24.6,4.191,26.213,3.057,27.678,2.13l.235-.148c.8-.5,1.522-.917,2.027-1.172l.166-.082.1-.057A5.415,5.415,0,0,1,32.634,0l.2,0A5.471,5.471,0,0,1,37.9,7.541h4.992a1.886,1.886,0,0,1,1.885,1.781l0,.1V20.2A1.886,1.886,0,0,1,42.99,22.08l-.1,0H40.459V44.434a1.886,1.886,0,0,1-1.784,1.882Zm-9.44-24.237V43.626h8.631V22.083Zm-10.789,0V43.626h8.092V22.083Zm-11.329,0V43.626h8.631V22.083ZM29.131,10.233v9.156H42.078V10.233Zm-10.789,0v9.156h8.092V10.233Zm-15.644,0v9.156H15.644V10.233Zm30.135-7.54a2.739,2.739,0,0,0-1.286.316l-.13.072-.058.035-.061.029c-.066.031-.22.109-.451.235-.388.212-.829.469-1.31.766l-.193.12c-1.414.883-3,1.985-4.7,3.275H34.677a2.777,2.777,0,0,0-1.844-4.848Zm-20.89,0A2.777,2.777,0,0,0,10.1,7.541H20.132c-1.61-1.218-3.116-2.273-4.476-3.134l-.224-.141c-.5-.313-.96-.585-1.362-.808l-.141-.078c-.168-.091-.279-.149-.344-.182l-.169-.081-.058-.035A2.763,2.763,0,0,0,11.943,2.693Z" transform="translate(935.702 270.544)"/>
  </g>
</svg>
