<svg xmlns="http://www.w3.org/2000/svg" width="96.001" height="96" viewBox="0 0 96.001 96">
  <g id="img_icon_13" transform="translate(-1272 -783)">
    <g id="그룹_3417" data-name="그룹 3417" transform="translate(404.168 1255)">
      <rect id="사각형_1865" data-name="사각형 1865" width="96" height="96" transform="translate(867.833 -472)" fill="none"/>
    </g>
    <g id="그룹_3437" data-name="그룹 3437" transform="translate(-332.315 -59.124)">
      <rect id="사각형_2069" data-name="사각형 2069" width="46" height="75" transform="translate(1644.315 853.124)" stroke-width="2" stroke="#000" stroke-linecap="square" stroke-linejoin="round" fill="#fff"/>
      <rect id="사각형_2070" data-name="사각형 2070" width="13" height="18" transform="translate(1660.315 910.124)" stroke-width="2" stroke="#000" stroke-linecap="round" stroke-linejoin="round" fill="#bfdbf6"/>
      <path id="패스_1767" data-name="패스 1767" d="M1658.884,869.107,1657,867.219l-1.888-1.888h3.777Z" transform="translate(-2.793 -0.67)"/>
      <path id="패스_1768" data-name="패스 1768" d="M1667.884,869.107,1666,867.219l-1.888-1.888h3.777Z" transform="translate(-3.295 -0.67)"/>
      <path id="패스_1769" data-name="패스 1769" d="M1676.884,869.107,1675,867.219l-1.888-1.888h3.777Z" transform="translate(-3.798 -0.67)"/>
      <path id="패스_1770" data-name="패스 1770" d="M1685.884,869.107,1684,867.219l-1.888-1.888h3.777Z" transform="translate(-4.301 -0.67)"/>
      <path id="패스_1771" data-name="패스 1771" d="M1667.884,880.868,1666,878.98l-1.888-1.888h3.777Z" transform="translate(-3.295 -1.327)"/>
      <path id="패스_1772" data-name="패스 1772" d="M1676.884,880.868,1675,878.98l-1.888-1.888h3.777Z" transform="translate(-3.798 -1.327)"/>
      <path id="패스_1773" data-name="패스 1773" d="M1685.884,880.868,1684,878.98l-1.888-1.888h3.777Z" transform="translate(-4.301 -1.327)"/>
      <path id="패스_1774" data-name="패스 1774" d="M1667.884,892.629,1666,890.741l-1.888-1.888h3.777Z" transform="translate(-3.295 -1.984)"/>
      <path id="패스_1775" data-name="패스 1775" d="M1676.884,892.629,1675,890.741l-1.888-1.888h3.777Z" transform="translate(-3.798 -1.984)"/>
      <path id="패스_1776" data-name="패스 1776" d="M1685.884,892.629,1684,890.741l-1.888-1.888h3.777Z" transform="translate(-4.301 -1.984)"/>
      <path id="패스_1777" data-name="패스 1777" d="M1667.884,904.39,1666,902.5l-1.888-1.888h3.777Z" transform="translate(-3.295 -2.641)"/>
      <path id="패스_1778" data-name="패스 1778" d="M1676.884,904.39,1675,902.5l-1.888-1.888h3.777Z" transform="translate(-3.798 -2.641)"/>
      <path id="패스_1779" data-name="패스 1779" d="M1685.884,904.39,1684,902.5l-1.888-1.888h3.777Z" transform="translate(-4.301 -2.641)"/>
      <rect id="사각형_2071" data-name="사각형 2071" width="4" height="4" transform="translate(1652.315 875.124)"/>
      <rect id="사각형_2072" data-name="사각형 2072" width="4" height="4" transform="translate(1652.315 885.124)"/>
      <rect id="사각형_2073" data-name="사각형 2073" width="4" height="3" transform="translate(1652.315 896.124)"/>
      <rect id="사각형_2074" data-name="사각형 2074" width="26" height="53" transform="translate(1629.315 875.124)" stroke-width="2" stroke="#000" stroke-linecap="square" stroke-linejoin="round" fill="#fff"/>
      <line id="선_577" data-name="선 577" x2="94" transform="translate(1605.315 928.124)" fill="none" stroke="#000" stroke-linecap="square" stroke-linejoin="round" stroke-width="2"/>
      <rect id="사각형_2075" data-name="사각형 2075" width="11" height="20" rx="5.5" transform="translate(1624.315 898.124)" fill="#f4cc5d" stroke="#000" stroke-miterlimit="10" stroke-width="2"/>
      <line id="선_578" data-name="선 578" y2="19" transform="translate(1629.315 909.124)" fill="#bfdbf6" stroke="#000" stroke-linecap="round" stroke-linejoin="round" stroke-width="2"/>
      <rect id="사각형_2076" data-name="사각형 2076" width="11" height="20" rx="5.5" transform="translate(1607.315 898.124)" fill="#f4cc5d" stroke="#000" stroke-miterlimit="10" stroke-width="2"/>
      <line id="선_579" data-name="선 579" y2="19" transform="translate(1612.315 909.124)" fill="#bfdbf6" stroke="#000" stroke-linecap="round" stroke-linejoin="round" stroke-width="2"/>
      <rect id="사각형_2077" data-name="사각형 2077" width="11.33" height="20.771" rx="5.665" transform="translate(1684.298 897.706)" fill="#f4cc5d" stroke="#000" stroke-miterlimit="10" stroke-width="2"/>
      <line id="선_580" data-name="선 580" y2="18.883" transform="translate(1689.963 909.035)" fill="#bfdbf6" stroke="#000" stroke-linecap="round" stroke-linejoin="round" stroke-width="2"/>
      <path id="패스_1780" data-name="패스 1780" d="M1641.853,889.107l-1.888-1.888-1.888-1.888h3.777Z" transform="translate(-1.841 -1.787)"/>
      <path id="패스_1781" data-name="패스 1781" d="M1650.368,889.107l-1.888-1.888-1.888-1.888h3.777Z" transform="translate(-2.317 -1.787)"/>
      <path id="패스_1782" data-name="패스 1782" d="M1641.853,897.473l-1.888-1.888-1.888-1.888h3.777Z" transform="translate(-1.841 -2.255)"/>
      <path id="패스_1783" data-name="패스 1783" d="M1650.368,897.473l-1.888-1.888-1.888-1.888h3.777Z" transform="translate(-2.317 -2.255)"/>
      <path id="패스_1784" data-name="패스 1784" d="M1641.853,905.838l-1.888-1.888-1.888-1.888h3.777Z" transform="translate(-1.841 -2.722)"/>
      <path id="패스_1785" data-name="패스 1785" d="M1650.368,905.838l-1.888-1.888-1.888-1.888h3.777Z" transform="translate(-2.317 -2.722)"/>
    </g>
  </g>
</svg>
