<svg xmlns="http://www.w3.org/2000/svg" width="28.799" height="27" viewBox="0 0 28.799 27">
  <g id="Group_3150" data-name="Group 3150" transform="translate(1027 -576.5)">
    <path id="패스_1155" data-name="패스 1155" d="M-1024.2,580.5l24.458-.106a.67.67,0,0,1,.613.388c.211.463.516,1.211.72,1.689a2.583,2.583,0,0,1,.209,1.018v17.3a2.709,2.709,0,0,1-2.709,2.709h-22.834a1.489,1.489,0,0,1-.835-.254c-.406-.273-1.042-.7-1.417-.961a.7.7,0,0,1-.3-.586l.1-19.2A2,2,0,0,1-1024.2,580.5Z" fill="#9b9b9b"/>
    <rect id="사각형_2063" data-name="사각형 2063" width="28" height="23" rx="2" transform="translate(-1027 579.5)" fill="#fff"/>
    <path id="패스_1156" data-name="패스 1156" d="M-1027,584.3h28V587h-28v-2.7Z" fill="#bfc7ce"/>
    <path id="사각형_2064" data-name="사각형 2064" d="M-1025,579.5h24a2,2,0,0,1,2,2v5h-28v-5A2,2,0,0,1-1025,579.5Z" fill="#70c4ba"/>
    <circle id="타원_206" data-name="타원 206" cx="1.5" cy="1.5" r="1.5" transform="translate(-1020.5 580)" fill="#fff"/>
    <circle id="타원_207" data-name="타원 207" cx="1.5" cy="1.5" r="1.5" transform="translate(-1008.5 580)" fill="#fff"/>
    <g id="그룹_3126" data-name="그룹 3126">
      <path id="사각형_2065" data-name="사각형 2065" d="M-1016.015,593.692l2.427,1.764a1,1,0,0,1,.221,1.4h0a1,1,0,0,1-1.4.221l-2.427-1.764a1,1,0,0,1-.221-1.4h0A1,1,0,0,1-1016.015,593.692Z" fill="#2ca0ce"/>
      <path id="사각형_2066" data-name="사각형 2066" d="M-1014.618,595.454l4.854-3.528a1,1,0,0,1,1.4.221h0a1,1,0,0,1-.221,1.4l-4.854,3.528a1,1,0,0,1-1.4-.221h0A1,1,0,0,1-1014.618,595.454Z" fill="#2ca0ce"/>
    </g>
    <path id="사각형_2055" data-name="사각형 2055" d="M-1018,577.5v4a1,1,0,0,1-1,1h0a1,1,0,0,1-1-1v-4a1,1,0,0,1,1-1h0A1,1,0,0,1-1018,577.5Z" fill="#707070"/>
    <path id="사각형_2055-2" data-name="사각형 2055" d="M-1018,577.5v4a1,1,0,0,1-1,1h0a.994.994,0,0,1-.733-.32,1.2,1.2,0,0,0,.733.22.931.931,0,0,0,.9-.9C-1018.1,581.14-1018,577.5-1018,577.5Z" fill="#4c4c4c"/>
    <g id="Group_3149" data-name="Group 3149">
      <path id="사각형_2055-3" data-name="사각형 2055" d="M-1006,577.5v4a1,1,0,0,1-1,1h0a1,1,0,0,1-1-1v-4a1,1,0,0,1,1-1h0A1,1,0,0,1-1006,577.5Z" fill="#707070"/>
      <path id="사각형_2055-4" data-name="사각형 2055" d="M-1006,577.5v4a1,1,0,0,1-1,1h0a.994.994,0,0,1-.733-.32,1.2,1.2,0,0,0,.733.22.931.931,0,0,0,.9-.9C-1006.1,581.14-1006,577.5-1006,577.5Z" fill="#4c4c4c"/>
    </g>
  </g>
</svg>
