<svg id="user" xmlns="http://www.w3.org/2000/svg" width="103.517" height="103.517" viewBox="0 0 103.517 103.517">
  <path id="Path_143" data-name="Path 143" d="M0,0H103.517V103.517H0Z" fill="none" fill-rule="evenodd"/>
  <path id="Path_144" data-name="Path 144" d="M38.506,52.258c18.706,0,34.506,15.333,34.506,33.488v8.566A5.393,5.393,0,0,1,67.62,99.7H9.391A5.393,5.393,0,0,1,4,94.312V85.746C4,67.592,19.8,52.258,38.506,52.258Zm0,8.626c-13.785,0-25.879,11.615-25.879,24.861v5.331H64.385V85.746C64.385,72.5,52.291,60.885,38.506,60.885ZM38.506.5A23.723,23.723,0,1,1,14.783,24.223,23.748,23.748,0,0,1,38.506.5Zm0,8.626a15.1,15.1,0,1,0,15.1,15.1A15.113,15.113,0,0,0,38.506,9.126Z" transform="translate(13.253 1.657)" fill="#a6a6a6"/>
</svg>
