<svg xmlns="http://www.w3.org/2000/svg" width="42" height="26" viewBox="0 0 42 26">
  <g id="icon_제휴쿠폰" transform="translate(-850 -246)">
    <path id="패스_2140" data-name="패스 2140" d="M613.672,628.8h-5.378c0,.9-.666,2.767-2.5,2.767-.027,0-.054,0-.081,0-1.642,0-2.416-1.889-2.416-2.762H573.312a.868.868,0,0,0-.82.909v24.182a.868.868,0,0,0,.82.909H603.3a2.619,2.619,0,0,1,2.416-2.762c.027,0,.053,0,.081,0,1.83,0,2.5,1.863,2.5,2.767h5.378a.868.868,0,0,0,.82-.909V629.711A.868.868,0,0,0,613.672,628.8Z" transform="translate(277.508 -382.802)" fill="#2189ff"/>
    <rect id="사각형_2" data-name="사각형 2" width="16" height="12" rx="2" transform="translate(859 256)" fill="#fff"/>
    <ellipse id="타원_1" data-name="타원 1" cx="3" cy="2.5" rx="3" ry="2.5" transform="translate(862.652 249.835) rotate(30)" fill="none" stroke="#fff" stroke-width="2"/>
    <ellipse id="타원_1-2" data-name="타원 1" cx="3" cy="2.5" rx="3" ry="2.5" transform="translate(866.152 252.835) rotate(-30)" fill="none" stroke="#fff" stroke-width="2"/>
    <rect id="사각형_3_복사" data-name="사각형 3 복사" width="16" height="2" transform="translate(859 258)" fill="#2189ff"/>
    <rect id="사각형_1" data-name="사각형 1" width="18" height="4" rx="1" transform="translate(858 254)" fill="#fff"/>
    <rect id="사각형_3" data-name="사각형 3" width="2" height="14" transform="translate(866 254)" fill="#2189ff"/>
    <line id="선_529" data-name="선 529" y2="20" transform="translate(883.5 250)" fill="none" stroke="#fff" stroke-width="1" stroke-dasharray="2"/>
  </g>
</svg>
