<svg id="Customer_service" xmlns="http://www.w3.org/2000/svg" width="33" height="33" viewBox="0 0 33 33">
  <rect id="Container" width="33" height="33" fill="none"/>
  <path id="customer-service" d="M20.109,3.5A14.645,14.645,0,0,1,34.717,17.938l0,.243v9.083a3.265,3.265,0,0,1-2.513,3.176,4.644,4.644,0,0,1-4.427,3.653H23.891a4.644,4.644,0,0,1-4.64-4.54V28.9a1.719,1.719,0,0,1,.269-3.4h1.106a1.719,1.719,0,0,1,.344,3.4v.544A2.925,2.925,0,0,0,23.8,32.374h3.869a2.923,2.923,0,0,0,2.773-2,3.267,3.267,0,0,1-2.256-3.008V20.389a3.267,3.267,0,0,1,4.8-2.886,12.888,12.888,0,0,0-25.747,0A3.267,3.267,0,0,1,12.03,20.3v6.968a3.268,3.268,0,0,1-3.076,3.26l-.093,0-.1,0A3.266,3.266,0,0,1,5.5,27.357V18.18A14.646,14.646,0,0,1,20.109,3.5ZM8.766,18.842A1.547,1.547,0,0,0,7.22,20.316l0,.073v6.875A1.545,1.545,0,0,0,8.68,28.809l.072,0h.068a1.547,1.547,0,0,0,1.492-1.473l0-.073V20.389a1.547,1.547,0,0,0-1.547-1.547Zm22.688,0a1.547,1.547,0,0,0-1.545,1.474l0,.073v6.875a1.545,1.545,0,0,0,1.461,1.545l.072,0h.068A1.547,1.547,0,0,0,33,27.337l0-.073V20.389a1.547,1.547,0,0,0-1.547-1.547ZM20.109,17.124a1.2,1.2,0,1,1-1.2,1.2A1.2,1.2,0,0,1,20.109,17.124Zm4.469,0a1.2,1.2,0,1,1-1.2,1.2A1.2,1.2,0,0,1,24.578,17.124Zm-8.938,0a1.2,1.2,0,1,1-1.2,1.2A1.2,1.2,0,0,1,15.641,17.124Z" transform="translate(-3.437 -2.125)"/>
</svg>
