<svg xmlns="http://www.w3.org/2000/svg" width="13.765" height="12.599" viewBox="0 0 13.765 12.599">
  <g id="그룹_6493" data-name="그룹 6493" transform="translate(-323.623 -908.027)">
    <g id="icon" transform="translate(323.623 908.5)">
      <g id="그룹_1011" data-name="그룹 1011" transform="translate(0 1.613)">
        <g id="그룹_1010" data-name="그룹 1010" transform="translate(3.269 -1)">
          <path id="선_329" data-name="선 329" d="M-.214,6.167A.786.786,0,0,1-1,5.381V-1.3a.786.786,0,0,1,.786-.786A.786.786,0,0,1,.572-1.3V5.381A.786.786,0,0,1-.214,6.167Z" transform="translate(3.828 1)"/>
          <path id="패스_440" data-name="패스 440" d="M194.7,339.926a.783.783,0,0,1-.556-.23l-2.828-2.828a.786.786,0,1,1,1.111-1.111l2.272,2.272,2.272-2.272a.786.786,0,1,1,1.111,1.111l-2.828,2.828A.783.783,0,0,1,194.7,339.926Z" transform="translate(-191.088 -332.431)"/>
        </g>
        <path id="패스_441" data-name="패스 441" d="M197.241,345.066h-9.384a2.193,2.193,0,0,1-2.19-2.19v-1.643h1.572v1.643a.619.619,0,0,0,.618.618h9.384a.619.619,0,0,0,.619-.618v-1.643h1.572v1.643A2.193,2.193,0,0,1,197.241,345.066Z" transform="translate(-185.667 -334.552)"/>
      </g>
    </g>
  </g>
</svg>
