<svg xmlns="http://www.w3.org/2000/svg" width="18.978" height="13.954" viewBox="0 0 18.978 13.954">
  <g id="icon-regular-shopping-shipping" transform="translate(0)">
    <g id="그룹_3609" data-name="그룹 3609" transform="translate(0 0)">
      <g id="그룹_3608" data-name="그룹 3608">
        <g id="그룹_3607" data-name="그룹 3607">
          <g id="그룹_3606" data-name="그룹 3606">
            <path id="패스_878" data-name="패스 878" d="M19.383,24.806a.344.344,0,0,1-.273.11H17.6a2.311,2.311,0,0,0-3.54-1.167V17.3h3.382a.783.783,0,0,1,.719.594l.064.333H16.222a.616.616,0,0,0-.613.618v2.266a.616.616,0,0,0,.613.618H18.9l.538,2.793a.344.344,0,0,1-.056.289Zm-2.626,1.14a1.39,1.39,0,0,1-2.745-.309,1.39,1.39,0,0,1,2.781,0A1.392,1.392,0,0,1,16.757,25.946ZM18.744,20.9H16.433V19.046h1.954Zm-5.709,4.016H8.129a2.315,2.315,0,0,0-4.4,0H2.53V15.03h10.5v9.886Zm-5.752,1.03a1.366,1.366,0,1,1,.036-.309A1.392,1.392,0,0,1,7.283,25.946Zm13.168-1.624-1.275-6.628a1.81,1.81,0,0,0-1.73-1.429H14.064V14.721A.722.722,0,0,0,13.343,14H2.221a.722.722,0,0,0-.721.721v10.5a.722.722,0,0,0,.721.721H3.634a2.314,2.314,0,0,0,4.588,0h4.886a2.314,2.314,0,0,0,4.588,0H19.11a1.335,1.335,0,0,0,1.341-1.624Z" transform="translate(-1.5 -14)" fill="#fff"/>
          </g>
        </g>
      </g>
    </g>
  </g>
</svg>
