<svg id="join" xmlns="http://www.w3.org/2000/svg" width="33" height="33" viewBox="0 0 33 33">
  <rect id="Container" width="33" height="33" fill="none"/>
  <path id="Path_508" data-name="Path 508" d="M59.444,67.856A5.868,5.868,0,0,1,53.6,61.978a5.71,5.71,0,0,1,1.719-4.159A5.849,5.849,0,0,1,59.478,56.1h0a5.868,5.868,0,0,1,5.878,5.844,5.934,5.934,0,0,1-5.912,5.912Zm0-10.278a4.4,4.4,0,0,0,.034,8.8h0a4.408,4.408,0,0,0,4.4-4.4,4.236,4.236,0,0,0-1.306-3.094,4.37,4.37,0,0,0-3.128-1.306Z" transform="translate(-34.694 -36.816)"/>
  <path id="User-2" d="M38.969,30.675m-8.456,3.919H19.2a1.218,1.218,0,0,1-1.2-1.2h0V30.675a10.441,10.441,0,0,1,14.506-9.35L30.994,22.6a7.786,7.786,0,0,0-2.372-.378h-.138a8.815,8.815,0,0,0-8.766,8.456h0v2.2H30.513ZM28.484,4a7.047,7.047,0,1,1-7.047,7.047A7.057,7.057,0,0,1,28.484,4Zm0,1.719a5.328,5.328,0,1,0,5.328,5.328A5.311,5.311,0,0,0,28.484,5.719Zm2.028,28.875" transform="translate(-11.331 -2.625)"/>
  <rect id="Rectangle_2248" data-name="Rectangle 2248" width="1.169" height="6.738" transform="translate(24.166 21.794)"/>
  <rect id="Rectangle_2249" data-name="Rectangle 2249" width="6.738" height="1.169" transform="translate(21.381 24.578)"/>
</svg>
