<svg xmlns="http://www.w3.org/2000/svg" width="96.007" height="96" viewBox="0 0 96.007 96">
  <g id="img_icon_02" transform="translate(-732 -1732)">
    <g id="그룹_2323" data-name="그룹 2323" transform="translate(-135.833 2204)">
      <rect id="사각형_1865" data-name="사각형 1865" width="96" height="96" transform="translate(867.833 -472)" fill="none"/>
    </g>
    <g id="그룹_3378" data-name="그룹 3378" transform="translate(-605.037 1398.806)">
      <g id="그룹_3360" data-name="그룹 3360">
        <rect id="사각형_2039" data-name="사각형 2039" width="66.397" height="63.754" rx="8.5" transform="translate(1352.037 356.876)" stroke-width="2" stroke="#000" stroke-linecap="round" stroke-linejoin="round" fill="#fff"/>
      </g>
      <g id="그룹_3361" data-name="그룹 3361">
        <path id="사각형_2040" data-name="사각형 2040" d="M8.5,0H57.9a8.5,8.5,0,0,1,8.5,8.5v8.356a0,0,0,0,1,0,0H0a0,0,0,0,1,0,0V8.5A8.5,8.5,0,0,1,8.5,0Z" transform="translate(1352.037 356.876)" fill="#bfdbf6" stroke="#000" stroke-linecap="round" stroke-linejoin="round" stroke-width="2"/>
      </g>
      <g id="그룹_3362" data-name="그룹 3362">
        <line id="선_515" data-name="선 515" y1="8.924" transform="translate(1364.346 352.91)" fill="none" stroke="#000" stroke-linecap="round" stroke-linejoin="round" stroke-width="2"/>
        <line id="선_516" data-name="선 516" y1="8.924" transform="translate(1406.124 352.91)" fill="none" stroke="#000" stroke-linecap="round" stroke-linejoin="round" stroke-width="2"/>
      </g>
      <g id="그룹_3366" data-name="그룹 3366">
        <g id="그룹_3363" data-name="그룹 3363">
          <rect id="사각형_2041" data-name="사각형 2041" width="2.284" height="2.284" transform="translate(1367.093 383.331)" stroke-width="2" stroke="#000" stroke-linecap="round" stroke-linejoin="round"/>
        </g>
        <g id="그룹_3364" data-name="그룹 3364">
          <rect id="사각형_2042" data-name="사각형 2042" width="2.284" height="2.284" transform="translate(1384.093 383.331)" stroke-width="2" stroke="#000" stroke-linecap="round" stroke-linejoin="round"/>
        </g>
        <g id="그룹_3365" data-name="그룹 3365">
          <rect id="사각형_2043" data-name="사각형 2043" width="2.285" height="2.284" transform="translate(1401.093 383.331)" stroke-width="2" stroke="#000" stroke-linecap="round" stroke-linejoin="round"/>
        </g>
      </g>
      <g id="그룹_3370" data-name="그룹 3370">
        <g id="그룹_3367" data-name="그룹 3367">
          <rect id="사각형_2044" data-name="사각형 2044" width="2.284" height="2.284" transform="translate(1367.093 395.331)" stroke-width="2" stroke="#000" stroke-linecap="round" stroke-linejoin="round"/>
        </g>
        <g id="그룹_3368" data-name="그룹 3368">
          <rect id="사각형_2045" data-name="사각형 2045" width="2.284" height="2.284" transform="translate(1384.093 395.331)" stroke-width="2" stroke="#000" stroke-linecap="round" stroke-linejoin="round"/>
        </g>
        <g id="그룹_3369" data-name="그룹 3369">
          <rect id="사각형_2046" data-name="사각형 2046" width="2.285" height="2.284" transform="translate(1401.093 395.331)" stroke-width="2" stroke="#000" stroke-linecap="round" stroke-linejoin="round"/>
        </g>
      </g>
      <g id="그룹_3374" data-name="그룹 3374">
        <g id="그룹_3371" data-name="그룹 3371">
          <rect id="사각형_2047" data-name="사각형 2047" width="2.284" height="2.284" transform="translate(1367.093 407.331)" stroke-width="2" stroke="#000" stroke-linecap="round" stroke-linejoin="round"/>
        </g>
        <g id="그룹_3372" data-name="그룹 3372">
          <rect id="사각형_2048" data-name="사각형 2048" width="2.284" height="2.284" transform="translate(1384.093 407.331)" stroke-width="2" stroke="#000" stroke-linecap="round" stroke-linejoin="round"/>
        </g>
        <g id="그룹_3373" data-name="그룹 3373">
          <rect id="사각형_2049" data-name="사각형 2049" width="2.285" height="2.284" transform="translate(1401.093 407.331)" stroke-width="2" stroke="#000" stroke-linecap="round" stroke-linejoin="round"/>
        </g>
      </g>
      <g id="그룹_3377" data-name="그룹 3377">
        <path id="패스_1731" data-name="패스 1731" d="M1398.9,351.767a16.6,16.6,0,1,1,8.364,14.384l-.078.347-7.365.921,1.688-6.751A16.474,16.474,0,0,1,1398.9,351.767Z" fill="#1428a0" stroke="#000" stroke-linecap="round" stroke-linejoin="round" stroke-width="2"/>
        <g id="그룹_3376" data-name="그룹 3376">
          <g id="그룹_3375" data-name="그룹 3375">
            <text id="_60" data-name="60" transform="translate(1406.847 357.256)" fill="#fff" font-size="15.423" font-family="SamsungSharpSans-Bold, Samsung Sharp Sans" font-weight="700"><tspan x="0" y="0">60</tspan></text>
          </g>
        </g>
      </g>
    </g>
  </g>
</svg>
