<svg id="User_info" xmlns="http://www.w3.org/2000/svg" width="33" height="33" viewBox="0 0 33 33">
  <rect id="Container" width="33" height="33" fill="none"/>
  <path id="Path_513" data-name="Path 513" d="M59.444,67.856A5.868,5.868,0,0,1,53.6,61.978a5.71,5.71,0,0,1,1.719-4.159A5.849,5.849,0,0,1,59.478,56.1h0a5.868,5.868,0,0,1,5.878,5.844,5.934,5.934,0,0,1-5.912,5.912Zm0-10.278a4.4,4.4,0,0,0,.034,8.8h0a4.408,4.408,0,0,0,4.4-4.4,4.236,4.236,0,0,0-1.306-3.094,4.37,4.37,0,0,0-3.128-1.306Z" transform="translate(-34.728 -36.815)"/>
  <path id="User-2" d="M38.969,30.675m-8.456,3.919H19.2a1.218,1.218,0,0,1-1.2-1.2h0V30.675a10.441,10.441,0,0,1,14.506-9.35L30.994,22.6a7.786,7.786,0,0,0-2.372-.378h-.138a8.815,8.815,0,0,0-8.766,8.456h0v2.2H30.513ZM28.484,4a7.047,7.047,0,1,1-7.047,7.047A7.057,7.057,0,0,1,28.484,4Zm0,1.719a5.328,5.328,0,1,0,5.328,5.328A5.311,5.311,0,0,0,28.484,5.719Zm2.028,28.875" transform="translate(-11.365 -2.625)"/>
  <path id="Path_514" data-name="Path 514" d="M69.6,64.3a1.1,1.1,0,1,0-1.1,1.1A1.108,1.108,0,0,0,69.6,64.3Z" transform="translate(-43.784 -41.475)"/>
  <path id="Path_515" data-name="Path 515" d="M69.522,76.113H68.147V73.5H67.7V72.4h1.788v3.713Z" transform="translate(-43.981 -47.512)"/>
</svg>
