<svg xmlns="http://www.w3.org/2000/svg" width="16" height="16" viewBox="0 0 16 16">
  <g id="그룹_1729" data-name="그룹 1729" transform="translate(-592 -593)">
    <rect id="사각형_1331" data-name="사각형 1331" width="16" height="16" transform="translate(592 593)" fill="#fff" opacity="0"/>
    <path id="패스_464" data-name="패스 464" d="M412.083,457.712h2.909v-8.727h-2.909Zm16-8a1.459,1.459,0,0,0-1.455-1.455H422.04l.69-3.324.022-.233a1.1,1.1,0,0,0-.32-.771l-.771-.763-4.785,4.792a1.421,1.421,0,0,0-.43,1.026v7.273a1.459,1.459,0,0,0,1.455,1.455h6.545a1.444,1.444,0,0,0,1.338-.887l2.2-5.128a1.423,1.423,0,0,0,.1-.53Z" transform="translate(179.917 150.332)" fill="#2188ff"/>
  </g>
</svg>
