<svg xmlns="http://www.w3.org/2000/svg" width="44" height="44" viewBox="0 0 44 44">
  <g id="그룹_2698" data-name="그룹 2698" transform="translate(1 1)">
    <rect id="사각형_1769" data-name="사각형 1769" width="42" height="42" fill="#f2f2f2" stroke="#707070" stroke-width="2" opacity="0"/>
    <path id="패스_1336" data-name="패스 1336" d="M318.378,309.222a26.843,26.843,0,0,1-10.262-2.6l-3.351,3.353c-.236-.129-.473-.259-.706-.394A31.661,31.661,0,0,1,292.459,298c-.148-.254-.29-.509-.431-.767l3.355-3.353a26.827,26.827,0,0,1-2.6-10.26,1.427,1.427,0,0,0-1.413-1.379h-3.553s-5.666,4.662-5.568,5.568a36.035,36.035,0,0,0,31.946,31.944c.906.1,5.566-5.568,5.566-5.568v-3.553A1.426,1.426,0,0,0,318.378,309.222Z" transform="translate(-280.243 -280.244)" fill="none" stroke="#000" stroke-linecap="round" stroke-linejoin="round" stroke-width="2"/>
  </g>
</svg>
