<svg xmlns="http://www.w3.org/2000/svg" width="60" height="67.953" viewBox="0 0 60 67.953">
  <g id="icn_블루케어" transform="translate(-1518.823 90.02)">
    <g id="Group_2872" data-name="Group 2872" transform="translate(1518.823 -79.241)">
      <path id="Path_1002" data-name="Path 1002" d="M1535.329-58.16,1527.044-70.5l5.747-2.305Z" transform="translate(-1518.721 79.454)" fill="#d7d7d7"/>
      <path id="Path_1003" data-name="Path 1003" d="M1530.413-65.481l-3.368-5.016,5.747-2.305.563,3.249Z" transform="translate(-1518.721 79.454)" fill="#b2b2b2"/>
      <rect id="Rectangle_2004" data-name="Rectangle 2004" width="20.715" height="5.381" rx="2.657" transform="matrix(0.928, -0.372, 0.372, 0.928, 0, 7.712)" fill="#ffe000"/>
    </g>
    <g id="Group_2873" data-name="Group 2873" transform="translate(1557.648 -43.362)">
      <path id="Path_1004" data-name="Path 1004" d="M1557.175-31.9l11.87-5.177,1.08,5.287Z" transform="translate(-1557.175 44.016)" fill="#d7d7d7"/>
      <path id="Path_1005" data-name="Path 1005" d="M1564.132-34.969l4.826-2.105,1.079,5.287-2.874-.024Z" transform="translate(-1557.088 44.016)" fill="#b2b2b2"/>
      <rect id="Rectangle_2005" data-name="Rectangle 2005" width="18.052" height="4.689" rx="2.316" transform="matrix(0.2, 0.98, -0.98, 0.2, 14.236, 0)" fill="#17baaa"/>
    </g>
    <g id="Group_2885" data-name="Group 2885" transform="translate(1531.137 -90.02)">
      <g id="Group_2874" data-name="Group 2874" transform="translate(0 16.341)">
        <path id="Path_1006" data-name="Path 1006" d="M1556.871-73.878l-25.16,43.372a5.356,5.356,0,0,0,1.946,7.321l.334.194a5.358,5.358,0,0,0,7.321-1.946l25.16-43.373Zm-19.737,47.861a1.394,1.394,0,0,1-1.905.507,1.4,1.4,0,0,1-.506-1.906,1.393,1.393,0,0,1,1.9-.506A1.393,1.393,0,0,1,1537.134-26.017Z" transform="translate(-1530.987 73.878)" fill="#8dc6e2"/>
      </g>
      <g id="Group_2875" data-name="Group 2875" transform="translate(19.637)">
        <path id="Path_1007" data-name="Path 1007" d="M1574.412-82.211l-4.477,7.719a3.022,3.022,0,0,1-4.13,1.1l-4.373-2.537a3.022,3.022,0,0,1-1.1-4.13l4.476-7.718a1.485,1.485,0,0,0-1.353-2.236,14.016,14.016,0,0,0-12.1,8.856,14.051,14.051,0,0,0,4.674,16.372A14.024,14.024,0,0,0,1576.539-69a14,14,0,0,0,.485-13.151A1.485,1.485,0,0,0,1574.412-82.211Z" transform="translate(-1550.384 90.02)" fill="#8dc6e2"/>
      </g>
      <rect id="Rectangle_2006" data-name="Rectangle 2006" width="6.557" height="32.784" rx="2.551" transform="matrix(0.865, 0.502, -0.502, 0.865, 22.15, 27.304)" fill="#5b9ab2"/>
      <g id="Group_2878" data-name="Group 2878" transform="translate(21.216 1.701)">
        <g id="Group_2877" data-name="Group 2877">
          <g id="Group_2876" data-name="Group 2876">
            <path id="Path_1008" data-name="Path 1008" d="M1553.619-82.174a12.391,12.391,0,0,0,4.5,16.937,12.391,12.391,0,0,0,16.935-4.5,12.382,12.382,0,0,0-.295-12.9,1.464,1.464,0,0,0-.367.41l-4.477,7.719a3.023,3.023,0,0,1-4.131,1.1l-4.373-2.537a3.022,3.022,0,0,1-1.1-4.13l4.476-7.718a1.448,1.448,0,0,0,.174-.523A12.383,12.383,0,0,0,1553.619-82.174Z" transform="translate(-1551.944 88.339)" fill="#5b9ab2"/>
          </g>
        </g>
      </g>
      <g id="Group_2879" data-name="Group 2879" transform="translate(6.687 28.286)">
        <path id="Path_1009" data-name="Path 1009" d="M1551.836-59.706a2.676,2.676,0,0,1,3.656-.972l1.043.605a2.653,2.653,0,0,1,1.193,1.491,2.665,2.665,0,0,0-1.316-2.531l-1.043-.605a2.675,2.675,0,0,0-3.656.972l-13.765,23.729a2.656,2.656,0,0,0-.221,2.166,2.633,2.633,0,0,1,.344-1.126Z" transform="translate(-1537.592 62.079)" fill="#3b7e93"/>
      </g>
      <g id="Group_2882" data-name="Group 2882" transform="translate(21.216 7.214)">
        <g id="Group_2881" data-name="Group 2881">
          <g id="Group_2880" data-name="Group 2880">
            <path id="Path_1010" data-name="Path 1010" d="M1558.778-66.441a12.38,12.38,0,0,1-4.75-16.453c-.142.213-.281.429-.41.653a12.391,12.391,0,0,0,4.5,16.937,12.391,12.391,0,0,0,16.935-4.5c.13-.225.249-.453.364-.681A12.381,12.381,0,0,1,1558.778-66.441Z" transform="translate(-1551.944 82.894)" fill="#3b7e93"/>
          </g>
        </g>
      </g>
      <g id="Group_2884" data-name="Group 2884" transform="translate(3.559 62.108)">
        <g id="Group_2883" data-name="Group 2883">
          <path id="Path_1011" data-name="Path 1011" d="M1536.735-27.914a1.349,1.349,0,0,1,.518.579,1.372,1.372,0,0,0-.668-1.146,1.393,1.393,0,0,0-1.905.506,1.372,1.372,0,0,0-.011,1.327,1.356,1.356,0,0,1,.161-.76A1.394,1.394,0,0,1,1536.735-27.914Z" transform="translate(-1534.502 28.669)" fill="#3b7e93"/>
        </g>
      </g>
    </g>
  </g>
</svg>
