<svg xmlns="http://www.w3.org/2000/svg" width="96" height="96" viewBox="0 0 96 96">
  <g id="img_icon_10" transform="translate(-1302 -1315)">
    <rect id="사각형_1866" data-name="사각형 1866" width="96" height="96" transform="translate(1302 1315)" fill="none"/>
    <g id="그룹_3402" data-name="그룹 3402" transform="translate(-311.502 627.851)">
      <rect id="사각형_1830" data-name="사각형 1830" width="84.086" height="57.25" rx="4.506" transform="translate(1616.501 705.149)" stroke-width="2" stroke="#000" stroke-linecap="round" stroke-linejoin="round" fill="#fff"/>
      <line id="선_478" data-name="선 478" x2="32.213" transform="translate(1642.438 774.178)" fill="none" stroke="#000" stroke-linecap="round" stroke-linejoin="round" stroke-width="2"/>
      <path id="사각형_1831" data-name="사각형 1831" d="M1651.272,762.4h14.545l2,11.778h-18.545Z" fill="#fff" stroke="#000" stroke-linecap="round" stroke-linejoin="round" stroke-width="2"/>
      <line id="선_546" data-name="선 546" x2="14" transform="translate(1651.545 764.331)" opacity="0.3" stroke="#000" stroke-linecap="round" stroke-linejoin="round" stroke-width="2" fill="none"/>
      <g id="그룹_3400" data-name="그룹 3400">
        <path id="Path-2" d="M1658.545,735.73c-5.221,0-9.8,4.4-9.8,9.414v.62a1.4,1.4,0,0,0,1.4,1.4h16.8a1.4,1.4,0,0,0,1.4-1.4v-.62C1668.345,740.129,1663.765,735.73,1658.545,735.73Z" fill="#bfdbf6" stroke="#000" stroke-linecap="round" stroke-linejoin="round" stroke-width="2"/>
        <path id="Path-4" d="M1658.545,720.331a5.716,5.716,0,1,0,5.716,5.716A5.716,5.716,0,0,0,1658.545,720.331Z" fill="#bfdbf6" stroke="#000" stroke-linecap="round" stroke-linejoin="round" stroke-width="2"/>
      </g>
      <path id="패스_1748" data-name="패스 1748" d="M1658.344,745.331" fill="#bfdbf6" stroke="#000" stroke-linecap="round" stroke-linejoin="round" stroke-width="2"/>
      <g id="그룹_3401" data-name="그룹 3401" transform="translate(-5)">
        <circle id="타원_210" data-name="타원 210" cx="13.5" cy="13.5" r="13.5" transform="translate(1684.977 744.331)" stroke-width="2" stroke="#000" stroke-linecap="round" stroke-linejoin="round" fill="#1428a0"/>
        <path id="패스_1749" data-name="패스 1749" d="M1700.9,753.331l-2.4,3.2-2.3-3.2h-2.163v9.125h2.378v-4.909l2.07,2.808,2.129-2.871v4.972h2.378v-9.125Z" fill="#fff"/>
      </g>
    </g>
  </g>
</svg>
