<svg xmlns="http://www.w3.org/2000/svg" width="21" height="21" viewBox="0 0 21 21">
  <g id="그룹_1769" data-name="그룹 1769" transform="translate(-155 -525)">
    <circle id="타원_121" data-name="타원 121" cx="10.5" cy="10.5" r="10.5" transform="translate(155 525)" fill="#212425"/>
    <path id="패스_578" data-name="패스 578" d="M4.776,6.026h1.4L7.536,7.66a3.27,3.27,0,0,0,.552-.921,2.969,2.969,0,0,0,.2-1.107,3.157,3.157,0,0,0-.258-1.271,3.383,3.383,0,0,0-4.38-1.75,3.232,3.232,0,0,0-1.05.7,3.371,3.371,0,0,0-.7,1.04,3.236,3.236,0,0,0,0,2.532A3.3,3.3,0,0,0,2.6,7.92a3.359,3.359,0,0,0,1.05.7,3.252,3.252,0,0,0,1.3.261,3.028,3.028,0,0,0,.69-.074,3.878,3.878,0,0,0,.618-.2l.72.97a4.95,4.95,0,0,1-.966.319,4.89,4.89,0,0,1-1.062.113A4.447,4.447,0,0,1,3.2,9.667,4.474,4.474,0,0,1,.822,7.33,4.162,4.162,0,0,1,.468,5.62,4.162,4.162,0,0,1,.822,3.91,4.474,4.474,0,0,1,3.2,1.573a4.447,4.447,0,0,1,1.752-.345A4.481,4.481,0,0,1,9.1,3.9a4.142,4.142,0,0,1,.354,1.706A4,4,0,0,1,9.138,7.2,4.784,4.784,0,0,1,8.28,8.541L9.4,10H7.944Z" transform="translate(160.5 529.871)" fill="#fff"/>
  </g>
</svg>
