<svg xmlns="http://www.w3.org/2000/svg" width="45" height="45" viewBox="0 0 45 45">
  <g id="그룹_1342" data-name="그룹 1342" transform="translate(-1405.5 -1154.088)">
    <rect id="사각형_177" data-name="사각형 177" width="45" height="45" transform="translate(1405.5 1154.088)" fill="none"/>
    <path id="패스_444" data-name="패스 444" d="M459.413,144.167A14.051,14.051,0,0,0,445.377,158.2c0,7.124,11.232,20.458,12.514,22.195a1.892,1.892,0,0,0,3.046,0c1.282-1.736,12.514-15.071,12.514-22.195A14.052,14.052,0,0,0,459.413,144.167Zm.237,19.557a5.047,5.047,0,1,1,5.047-5.047A5.049,5.049,0,0,1,459.65,163.724Z" transform="translate(968.006 1013.832)" fill="none" stroke="#000" stroke-width="1.5"/>
  </g>
</svg>
