<svg id="icon-26-delete" xmlns="http://www.w3.org/2000/svg" width="18" height="18" viewBox="0 0 18 18">
  <g id="그룹_973" data-name="그룹 973" transform="translate(0.578 0.56)">
    <line id="선_316" data-name="선 316" x2="16.676" transform="translate(0 4.046)" fill="none" stroke="#000" stroke-linecap="round" stroke-linejoin="round" stroke-width="1"/>
    <g id="그룹_972" data-name="그룹 972" transform="translate(2.374 4.046)">
      <path id="사각형_527" data-name="사각형 527" d="M0,0H11.929a0,0,0,0,1,0,0V10.834a2,2,0,0,1-2,2H2a2,2,0,0,1-2-2V0A0,0,0,0,1,0,0Z" fill="none" stroke="#000" stroke-linecap="round" stroke-linejoin="round" stroke-width="1"/>
      <line id="선_317" data-name="선 317" y2="8.029" transform="translate(5.965 2.403)" fill="none" stroke="#000" stroke-linecap="round" stroke-linejoin="round" stroke-width="1"/>
      <line id="선_318" data-name="선 318" y2="8.029" transform="translate(3.249 2.403)" fill="none" stroke="#000" stroke-linecap="round" stroke-linejoin="round" stroke-width="1"/>
      <line id="선_319" data-name="선 319" y2="8.029" transform="translate(8.68 2.403)" fill="none" stroke="#000" stroke-linecap="round" stroke-linejoin="round" stroke-width="1"/>
    </g>
    <path id="패스_436" data-name="패스 436" d="M312.656,183.379v-1.223a2.823,2.823,0,0,1,2.822-2.823h0a2.823,2.823,0,0,1,2.822,2.823v1.223" transform="translate(-307.14 -179.333)" fill="none" stroke="#000" stroke-linecap="round" stroke-linejoin="round" stroke-width="1"/>
  </g>
  <rect id="사각형_528" data-name="사각형 528" width="18" height="18" fill="none"/>
</svg>
