<svg xmlns="http://www.w3.org/2000/svg" width="96" height="96" viewBox="0 0 96 96">
  <g id="img_icon_07" transform="translate(-1272 -1284)">
    <g id="그룹_3345" data-name="그룹 3345" transform="translate(404.167 1756)">
      <rect id="사각형_1865" data-name="사각형 1865" width="96" height="96" transform="translate(867.833 -472)" fill="none"/>
    </g>
    <g id="그룹_3392" data-name="그룹 3392" transform="translate(-337.344 766.67)">
      <path id="패스_1742" data-name="패스 1742" d="M1629.344,571.97v14.278c0,6.673,12.536,12.083,28,12.083s28-5.41,28-12.083V571.97Z" fill="#fff" stroke="#000" stroke-linecap="round" stroke-linejoin="round" stroke-width="2"/>
      <ellipse id="타원_202" data-name="타원 202" cx="28" cy="12.082" rx="28" ry="12.082" transform="translate(1629.344 559.888)" fill="#fff" stroke="#000" stroke-linecap="round" stroke-linejoin="round" stroke-width="2"/>
      <path id="패스_1743" data-name="패스 1743" d="M1629.344,557.691V571.97c0,6.672,12.536,12.082,28,12.082s28-5.41,28-12.082V557.691Z" fill="#fff" stroke="#000" stroke-linecap="round" stroke-linejoin="round" stroke-width="2"/>
      <ellipse id="타원_203" data-name="타원 203" cx="28" cy="12.082" rx="28" ry="12.082" transform="translate(1629.344 545.609)" fill="#fff" stroke="#000" stroke-linecap="round" stroke-linejoin="round" stroke-width="2"/>
      <g id="그룹_3390" data-name="그룹 3390">
        <path id="패스_1744" data-name="패스 1744" d="M1629.344,543.413v14.278c0,6.673,12.536,12.082,28,12.082s28-5.409,28-12.082V543.413Z" fill="#f4cc5d" stroke="#000" stroke-miterlimit="10" stroke-width="2"/>
        <ellipse id="타원_204" data-name="타원 204" cx="28" cy="12.082" rx="28" ry="12.082" transform="translate(1629.344 531.331)" fill="#f4cc5d" stroke="#000" stroke-miterlimit="10" stroke-width="2"/>
      </g>
      <circle id="타원_205" data-name="타원 205" cx="13.749" cy="13.749" r="13.749" transform="translate(1673.72 569.289)" stroke-width="2" stroke="#000" stroke-linecap="round" stroke-linejoin="round" fill="#1428a0"/>
      <g id="그룹_3391" data-name="그룹 3391">
        <line id="선_528" data-name="선 528" x2="2.603" y2="9" transform="translate(1682.263 578.539)" fill="none" stroke="#fff" stroke-linecap="round" stroke-linejoin="round" stroke-width="1.5"/>
        <line id="선_529" data-name="선 529" x1="2.603" y2="9" transform="translate(1684.866 578.539)" fill="none" stroke="#fff" stroke-linecap="round" stroke-linejoin="round" stroke-width="1.5"/>
        <line id="선_530" data-name="선 530" x2="2.603" y2="9" transform="translate(1687.47 578.539)" fill="none" stroke="#fff" stroke-linecap="round" stroke-linejoin="round" stroke-width="1.5"/>
        <line id="선_531" data-name="선 531" x1="2.603" y2="9" transform="translate(1690.073 578.539)" fill="none" stroke="#fff" stroke-linecap="round" stroke-linejoin="round" stroke-width="1.5"/>
        <line id="선_532" data-name="선 532" x2="11.454" transform="translate(1681.742 582.629)" fill="none" stroke="#fff" stroke-linecap="round" stroke-linejoin="round" stroke-width="1.5"/>
      </g>
    </g>
  </g>
</svg>
