<svg xmlns="http://www.w3.org/2000/svg" width="96" height="96" viewBox="0 0 96 96">
  <g id="img_icon_11" transform="translate(-552.001 -783)">
    <g id="그룹_3418" data-name="그룹 3418" transform="translate(-315.832 1255)">
      <rect id="사각형_1865" data-name="사각형 1865" width="96" height="96" transform="translate(867.833 -472)" fill="none"/>
    </g>
    <g id="그룹_3429" data-name="그룹 3429" transform="translate(-21.383 -459.86)">
      <path id="패스_1758" data-name="패스 1758" d="M588.792,1301.765l6.1-21.964,23.03-.985,2.417,9.06,17.825,17.809L611.93,1325.52l-23.137-23.754" transform="translate(0.891 2.156)" fill="#fff" stroke="#000" stroke-linecap="round" stroke-linejoin="round" stroke-width="2"/>
      <path id="패스_1759" data-name="패스 1759" d="M613.332,1313.653l4.8,4.8a4.072,4.072,0,0,1,0,5.759h0a4.072,4.072,0,0,1-5.759,0L588.793,1300" transform="translate(0.891 3.92)" fill="#fff" stroke="#000" stroke-linecap="round" stroke-linejoin="round" stroke-width="2"/>
      <path id="패스_1760" data-name="패스 1760" d="M619.711,1309.8l4.8,4.8a4.072,4.072,0,0,1,0,5.759h0a4.071,4.071,0,0,1-5.758,0l-4.8-4.8" transform="translate(2.986 4.735)" fill="#fff" stroke="#000" stroke-linecap="round" stroke-linejoin="round" stroke-width="2"/>
      <path id="패스_1761" data-name="패스 1761" d="M627.532,1306.985l4.8,4.8a4.07,4.07,0,0,1,0,5.757h0a4.072,4.072,0,0,1-5.759,0l-4.8-4.8" transform="translate(3.638 4.501)" fill="#fff" stroke="#000" stroke-linecap="round" stroke-linejoin="round" stroke-width="2"/>
      <path id="패스_1762" data-name="패스 1762" d="M618.154,1276.732l24.143.527,7.074,24.679c-.1,0-9.762,7.726-9.86,7.726l-18.139-18.215" transform="translate(3.336 1.982)" fill="#fff" stroke="#000" stroke-linecap="round" stroke-linejoin="round" stroke-width="2"/>
      <path id="패스_1763" data-name="패스 1763" d="M620.144,1289.408s6.956,7.689,15.411,2.229" transform="translate(3.502 3.038)" fill="none" stroke="#000" stroke-linecap="round" stroke-linejoin="round" stroke-width="2"/>
      <path id="패스_1764" data-name="패스 1764" d="M658.62,1300.208,647.6,1302.44l-7.162-25.6,17.794-4.979Z" transform="translate(5.192 1.577)" fill="#bfdbf6" stroke="#000" stroke-linecap="round" stroke-linejoin="round" stroke-width="2"/>
      <path id="패스_1765" data-name="패스 1765" d="M578.088,1301.468l11.008,2.264,6.871-24.558-17.794-4.979Z" transform="translate(0 1.771)" fill="#bfdbf6" stroke="#000" stroke-linecap="round" stroke-linejoin="round" stroke-width="2"/>
      <line id="선_571" data-name="선 571" x1="4.534" y1="4.534" transform="translate(621.858 1264.982)" fill="none" stroke="#000" stroke-linecap="round" stroke-linejoin="round" stroke-width="2"/>
      <path id="패스_1766" data-name="패스 1766" d="M628.7,1309.316l7.7,7.7a4.071,4.071,0,0,0,5.758-5.758L618.95,1288.05l-6.514,6.553a4.071,4.071,0,0,1-5.758-5.758l12.53-12.113" transform="translate(2.281 1.982)" fill="#fff" stroke="#000" stroke-linecap="round" stroke-linejoin="round" stroke-width="2"/>
      <line id="선_572" data-name="선 572" x2="4.534" y2="4.534" transform="translate(621.858 1264.982)" fill="none" stroke="#000" stroke-linecap="round" stroke-linejoin="round" stroke-width="2"/>
      <line id="선_573" data-name="선 573" x2="4.534" y2="4.534" transform="translate(609.801 1252.925)" fill="none" stroke="#000" stroke-linecap="round" stroke-linejoin="round" stroke-width="2"/>
      <line id="선_574" data-name="선 574" x1="4.534" y2="4.534" transform="translate(621.858 1252.925)" fill="none" stroke="#000" stroke-linecap="round" stroke-linejoin="round" stroke-width="2"/>
      <line id="선_575" data-name="선 575" y1="4.534" x2="4.534" transform="translate(621.858 1252.925)" fill="none" stroke="#000" stroke-linecap="round" stroke-linejoin="round" stroke-width="2"/>
      <line id="선_576" data-name="선 576" y1="4.534" x2="4.534" transform="translate(609.801 1264.982)" fill="none" stroke="#000" stroke-linecap="round" stroke-linejoin="round" stroke-width="2"/>
    </g>
  </g>
</svg>
