<svg id="그룹_2698" data-name="그룹 2698" xmlns="http://www.w3.org/2000/svg" width="40" height="40" viewBox="0 0 40 40">
  <rect id="사각형_1769" data-name="사각형 1769" width="40" height="40" fill="#f2f2f2" opacity="0"/>
  <g id="그룹_5349" data-name="그룹 5349" transform="translate(-475.038 -449.553)">
    <g id="그룹_5347" data-name="그룹 5347" transform="translate(479.056 452.167)">
      <g id="그룹_5346" data-name="그룹 5346">
        <path id="패스_2052" data-name="패스 2052" d="M479.056,474.591v-6.553a15.87,15.87,0,1,1,31.74,0v5.8" transform="translate(-479.055 -452.167)" fill="none" stroke="#000" stroke-miterlimit="10" stroke-width="2"/>
        <rect id="사각형_2949" data-name="사각형 2949" width="5.429" height="14.115" rx="1.691" transform="translate(0 16.199)" fill="none" stroke="#000" stroke-miterlimit="10" stroke-width="2"/>
        <rect id="사각형_2950" data-name="사각형 2950" width="5.429" height="14.115" rx="1.691" transform="translate(26.313 16.199)" fill="none" stroke="#000" stroke-miterlimit="10" stroke-width="2"/>
        <path id="패스_2053" data-name="패스 2053" d="M502.011,471.072h0a3.545,3.545,0,0,1-3.544,3.545h-5.914a3.545,3.545,0,0,1-3.544-3.545h0" transform="translate(-473.034 -440.731)" fill="none" stroke="#000" stroke-miterlimit="10" stroke-width="2"/>
      </g>
      <line id="선_606" data-name="선 606" y1="3.326" transform="translate(15.976 27.016)" fill="none" stroke="#000" stroke-miterlimit="10" stroke-width="2"/>
    </g>
    <g id="그룹_5348" data-name="그룹 5348" transform="translate(488.507 467.507)">
      <circle id="타원_118" data-name="타원 118" cx="1.261" cy="1.261" r="1.261"/>
      <circle id="타원_119" data-name="타원 119" cx="1.261" cy="1.261" r="1.261" transform="translate(5.248)"/>
      <circle id="타원_120" data-name="타원 120" cx="1.261" cy="1.261" r="1.261" transform="translate(10.479)"/>
      <ellipse id="타원_121" data-name="타원 121" cx="2.511" cy="2.006" rx="2.511" ry="2.006" transform="translate(4.006 9.67)"/>
    </g>
  </g>
</svg>
