<svg id="icon-regular-communication-call" xmlns="http://www.w3.org/2000/svg" width="16" height="16" viewBox="0 0 16 16">
  <g id="그룹_3601" data-name="그룹 3601" transform="translate(0 0)">
    <g id="그룹_3600" data-name="그룹 3600">
      <g id="그룹_3599" data-name="그룹 3599">
        <g id="그룹_3598" data-name="그룹 3598">
          <path id="패스_876" data-name="패스 876" d="M7.838,9.641A13.96,13.96,0,0,0,20.1,21.9,14.553,14.553,0,0,0,21.886,20s.011-.034.013-.048V18.589l-4.049-.916-1,1a.751.751,0,0,1-.878.125l-.124-.071a13.166,13.166,0,0,1-4.824-4.814c-.062-.108-.084-.147-.084-.147a.751.751,0,0,1,.125-.878l1-1-.916-4.049H9.771s-.033.013-.045.02A14.553,14.553,0,0,0,7.838,9.641ZM20.182,22.875a.764.764,0,0,1-.084-.006A14.923,14.923,0,0,1,6.868,9.64c-.025-.232-.067-.621,2.255-2.532a1.1,1.1,0,0,1,.648-.232h1.591a.708.708,0,0,1,.689.584l.963,4.255a.815.815,0,0,1-.2.785l-.95.95a12.2,12.2,0,0,0,4.423,4.422l.949-.949a.816.816,0,0,1,.785-.2l4.255.962a.708.708,0,0,1,.584.689v1.591a1.1,1.1,0,0,1-.232.648C20.929,22.681,20.434,22.875,20.182,22.875Z" transform="translate(-6.862 -6.875)" fill="#fff"/>
        </g>
      </g>
    </g>
  </g>
</svg>
