<svg id="icon-regular-product-phone" xmlns="http://www.w3.org/2000/svg" width="9.702" height="16" viewBox="0 0 9.702 16">
  <g id="그룹_3605" data-name="그룹 3605" transform="translate(0 0)">
    <g id="그룹_3604" data-name="그룹 3604">
      <g id="그룹_3603" data-name="그룹 3603">
        <g id="그룹_3602" data-name="그룹 3602">
          <path id="패스_877" data-name="패스 877" d="M27.771,1A1.432,1.432,0,0,1,29.2,2.431V15.569A1.432,1.432,0,0,1,27.771,17H20.931A1.432,1.432,0,0,1,19.5,15.569V2.431A1.432,1.432,0,0,1,20.931,1Zm0,.851H20.931a.58.58,0,0,0-.58.58V15.569a.58.58,0,0,0,.58.58h6.841a.58.58,0,0,0,.58-.58V2.431A.58.58,0,0,0,27.771,1.851ZM25.435,14.106a.426.426,0,0,1,0,.851H23.267a.426.426,0,1,1,0-.851Z" transform="translate(-19.5 -1)" fill="#fff"/>
        </g>
      </g>
    </g>
  </g>
</svg>
