<svg xmlns="http://www.w3.org/2000/svg" width="88" height="88" viewBox="0 0 88 88">
  <defs>
    <style>
      .cls-1, .cls-2 {
        fill: #fff;
      }

      .cls-1 {
        stroke: #2189ff;
        stroke-width: 4px;
      }

      .cls-2 {
        stroke-linecap: round;
      }

      .cls-3, .cls-5 {
        stroke: none;
      }

      .cls-4 {
        fill: none;
      }

      .cls-5 {
        fill: #2189ff;
      }
    </style>
  </defs>
  <g id="그룹_6043" data-name="그룹 6043" transform="translate(-578 -290)">
    <g id="타원_216" data-name="타원 216" class="cls-1" transform="translate(582 294)">
      <circle class="cls-3" cx="40" cy="40" r="40"/>
      <circle class="cls-4" cx="40" cy="40" r="42"/>
    </g>
    <g id="타원_215" data-name="타원 215" class="cls-1" transform="translate(610.684 311)">
      <ellipse class="cls-3" cx="11.728" cy="11.728" rx="11.728" ry="11.728"/>
      <ellipse class="cls-4" cx="11.728" cy="11.728" rx="9.728" ry="9.728"/>
    </g>
    <g id="패스_2155" data-name="패스 2155" class="cls-2" transform="translate(609.986 335.862)">
      <path class="cls-3" d="M 31.13812255859375 22.91560745239258 L 31.13812255859375 22.91052055358887 L 31.12522888183594 22.91159629821777 L 30.74607276916504 18.94320869445801 L 30.94397735595703 18.92670822143555 C 30.95568084716797 18.92648315429688 30.96747207641602 18.92637062072754 30.97930145263672 18.92637062072754 C 30.98973655700684 18.92637062072754 31.00016403198242 18.92645263671875 31.01056480407715 18.92661666870117 L 31.13812255859375 20.26168441772461 L 31.13812255859375 18.93275260925293 C 32.14745712280273 19.01413536071777 32.95533752441406 19.86373519897461 32.97030258178711 20.89633941650391 C 32.98569107055664 21.95816612243652 32.20643615722656 22.72810173034668 31.38891220092773 22.88653945922852 L 31.38920402526855 22.88958549499512 L 31.35853004455566 22.89214324951172 C 31.28508949279785 22.90500068664551 31.21148109436035 22.91289520263672 31.13812255859375 22.91560745239258 Z M 30.70973587036133 18.91592025756836 L -5.843064785003662 18.91592025756836 C -5.916930675506592 18.71914863586426 -5.99197244644165 18.39394187927246 -5.985517978668213 18.01826095581055 C -5.889187812805176 12.40909004211426 -3.612537860870361 8.178380012512207 0.7811921238899231 5.443650245666504 C 2.526872158050537 4.357110023498535 4.565011978149414 3.529690027236938 6.838992118835449 2.984369993209839 C 9.197662353515625 2.418730020523071 11.20499229431152 2.299999952316284 12.47358226776123 2.299999952316284 C 14.67861175537109 2.299999952316284 17.33065223693848 2.812449932098389 19.74967193603516 3.705940008163452 C 22.59421157836914 4.756609916687012 25.0723819732666 6.292910099029541 26.91626167297363 8.148750305175781 C 29.58094215393066 10.83073043823242 30.91947174072266 14.13541030883789 30.89465141296387 17.97097969055176 C 30.8909912109375 18.5375862121582 30.77800369262695 18.81394004821777 30.70973587036133 18.91592025756836 Z"/>
      <path class="cls-5" d="M 12.47358226776123 4.299999237060547 C 11.04961204528809 4.299999237060547 6.074281692504883 4.504920959472656 1.838031768798828 7.141619682312012 C 0.09391212463378906 8.227190017700195 -1.273036956787109 9.590149879455566 -2.224847793579102 11.19266033172607 C -3.184606552124023 12.80854320526123 -3.756881713867188 14.72975540161133 -3.931385040283203 16.91592025756836 L 28.86163711547852 16.91592025756836 C 28.76672744750977 15.57872581481934 28.46950149536133 14.32281017303467 27.97427177429199 13.1704797744751 C 27.41180229187012 11.8617000579834 26.5784912109375 10.64640998840332 25.49748229980469 9.558380126953125 C 21.90791320800781 5.945520401000977 16.23001098632812 4.299999237060547 12.47358226776123 4.299999237060547 M 12.47358226776123 0.2999992370605469 C 19.8424015045166 0.2999992370605469 32.97663116455078 5.306169509887695 32.89461135864258 17.98392105102539 C 32.87894058227539 20.40563011169434 31.46996307373047 20.84930992126465 31.07335090637207 20.91592025756836 C 26.13564109802246 20.91592025756836 1.642513275146484 20.91592025756836 -6.190958023071289 20.91592025756836 C -7.476966857910156 20.91592025756836 -8.007186889648438 19.26287078857422 -7.9852294921875 17.98392105102539 C -7.73809814453125 3.593849182128906 5.506931304931641 0.2999992370605469 12.47358226776123 0.2999992370605469 Z M 31.07335090637207 20.91592025756836 C 31.09544944763184 20.91592025756836 31.11680030822754 20.91592025756836 31.13811111450195 20.91592025756836 C 31.11117362976074 20.91592025756836 31.08775329589844 20.9162769317627 31.06767272949219 20.9168586730957 C 31.06952667236328 20.91655731201172 31.07145118713379 20.91623878479004 31.07335090637207 20.91592025756836 Z M 31.06767272949219 20.9168586730957 C 30.94970321655273 20.93608093261719 30.92699813842773 20.92093849182129 31.06767272949219 20.9168586730957 Z"/>
    </g>
  </g>
</svg>
