<svg xmlns="http://www.w3.org/2000/svg" width="18.887" height="21.643" viewBox="0 0 18.887 21.643">
  <g id="그룹_2387" data-name="그룹 2387" transform="translate(0.6 0.848)">
    <g id="그룹_2386" data-name="그룹 2386" transform="translate(0 0)">
      <path id="패스_457" data-name="패스 457" d="M521.943,356.778v12.209a1.626,1.626,0,0,1-1.562,1.683H506.067a1.626,1.626,0,0,1-1.562-1.683V352.158a1.626,1.626,0,0,1,1.562-1.683H515.8" transform="translate(-504.505 -350.475)" fill="none" stroke="#fff" stroke-linecap="round" stroke-linejoin="round" stroke-width="1.2"/>
      <line id="선_362" data-name="선 362" x2="9.788" transform="translate(3.826 14.425)" fill="none" stroke="#fff" stroke-linecap="round" stroke-linejoin="round" stroke-width="1.2"/>
      <line id="선_363" data-name="선 363" x2="9.617" transform="translate(3.826 10.098)" fill="none" stroke="#fff" stroke-linecap="round" stroke-linejoin="round" stroke-width="1.2"/>
      <line id="선_364" data-name="선 364" x2="4.146" transform="translate(3.826 5.77)" fill="none" stroke="#fff" stroke-linecap="round" stroke-linejoin="round" stroke-width="1.2"/>
      <path id="패스_458" data-name="패스 458" d="M519.252,356.778h-2.929a3.211,3.211,0,0,1-3.211-3.212v-3.09" transform="translate(-501.813 -350.475)" fill="none" stroke="#fff" stroke-linecap="round" stroke-linejoin="round" stroke-width="1.2"/>
    </g>
    <line id="선_365" data-name="선 365" x2="6.14" y2="6.303" transform="translate(11.298 0)" fill="none" stroke="#fff" stroke-linecap="round" stroke-linejoin="round" stroke-width="1.2"/>
  </g>
</svg>
