<svg xmlns="http://www.w3.org/2000/svg" width="67.818" height="11.303" viewBox="0 0 67.818 11.303">
  <g id="그룹_8170" data-name="그룹 8170" transform="translate(-153 -184.335)">
    <path id="패스_4581" data-name="패스 4581" d="M988.452,796.523l1.477,3.137a.35.35,0,0,0,.262.2l3.3.5a.37.37,0,0,1,.193.622l-2.39,2.441a.377.377,0,0,0-.1.323l.564,3.447a.351.351,0,0,1-.5.384l-2.954-1.628a.334.334,0,0,0-.324,0l-2.954,1.628a.351.351,0,0,1-.5-.384l.564-3.447a.376.376,0,0,0-.1-.323l-2.39-2.441a.37.37,0,0,1,.193-.622l3.3-.5a.35.35,0,0,0,.262-.2l1.477-3.137A.341.341,0,0,1,988.452,796.523Z" transform="translate(-829.488 -611.984)" fill="#ffc400" fill-rule="evenodd"/>
    <path id="패스_4611" data-name="패스 4611" d="M988.452,796.523l1.477,3.137a.35.35,0,0,0,.262.2l3.3.5a.37.37,0,0,1,.193.622l-2.39,2.441a.377.377,0,0,0-.1.323l.564,3.447a.351.351,0,0,1-.5.384l-2.954-1.628a.334.334,0,0,0-.324,0l-2.954,1.628a.351.351,0,0,1-.5-.384l.564-3.447a.376.376,0,0,0-.1-.323l-2.39-2.441a.37.37,0,0,1,.193-.622l3.3-.5a.35.35,0,0,0,.262-.2l1.477-3.137A.341.341,0,0,1,988.452,796.523Z" transform="translate(-829.488 -611.984)" fill="#ffc400" fill-rule="evenodd"/>
    <path id="패스_4582" data-name="패스 4582" d="M988.452,796.523l1.477,3.137a.35.35,0,0,0,.262.2l3.3.5a.37.37,0,0,1,.193.622l-2.39,2.441a.377.377,0,0,0-.1.323l.564,3.447a.351.351,0,0,1-.5.384l-2.954-1.628a.334.334,0,0,0-.324,0l-2.954,1.628a.351.351,0,0,1-.5-.384l.564-3.447a.376.376,0,0,0-.1-.323l-2.39-2.441a.37.37,0,0,1,.193-.622l3.3-.5a.35.35,0,0,0,.262-.2l1.477-3.137A.341.341,0,0,1,988.452,796.523Z" transform="translate(-815.36 -611.984)" fill="#ffc400" fill-rule="evenodd"/>
    <path id="패스_4583" data-name="패스 4583" d="M988.452,796.523l1.477,3.137a.35.35,0,0,0,.262.2l3.3.5a.37.37,0,0,1,.193.622l-2.39,2.441a.377.377,0,0,0-.1.323l.564,3.447a.351.351,0,0,1-.5.384l-2.954-1.628a.334.334,0,0,0-.324,0l-2.954,1.628a.351.351,0,0,1-.5-.384l.564-3.447a.376.376,0,0,0-.1-.323l-2.39-2.441a.37.37,0,0,1,.193-.622l3.3-.5a.35.35,0,0,0,.262-.2l1.477-3.137A.341.341,0,0,1,988.452,796.523Z" transform="translate(-801.231 -611.984)" fill="#ffc400" fill-rule="evenodd"/>
    <path id="패스_4584" data-name="패스 4584" d="M988.452,796.523l1.477,3.137a.35.35,0,0,0,.262.2l3.3.5a.37.37,0,0,1,.193.622l-2.39,2.441a.377.377,0,0,0-.1.323l.564,3.447a.351.351,0,0,1-.5.384l-2.954-1.628a.334.334,0,0,0-.324,0l-2.954,1.628a.351.351,0,0,1-.5-.384l.564-3.447a.376.376,0,0,0-.1-.323l-2.39-2.441a.37.37,0,0,1,.193-.622l3.3-.5a.35.35,0,0,0,.262-.2l1.477-3.137A.341.341,0,0,1,988.452,796.523Z" transform="translate(-787.102 -611.984)" fill="#ffc400" fill-rule="evenodd"/>
    <path id="패스_4585" data-name="패스 4585" d="M988.452,796.523l1.477,3.137a.35.35,0,0,0,.262.2l3.3.5a.37.37,0,0,1,.193.622l-2.39,2.441a.377.377,0,0,0-.1.323l.564,3.447a.351.351,0,0,1-.5.384l-2.954-1.628a.334.334,0,0,0-.324,0l-2.954,1.628a.351.351,0,0,1-.5-.384l.564-3.447a.376.376,0,0,0-.1-.323l-2.39-2.441a.37.37,0,0,1,.193-.622l3.3-.5a.35.35,0,0,0,.262-.2l1.477-3.137A.341.341,0,0,1,988.452,796.523Z" transform="translate(-772.974 -611.984)" fill="#ffc400" fill-rule="evenodd"/>
  </g>
</svg>
