<svg xmlns="http://www.w3.org/2000/svg" width="30" height="30" viewBox="0 0 30 30">
  <g id="icon_1_누적_구매_금액" data-name="icon_1_누적 구매 금액" transform="translate(-571 -782)">
    <rect id="사각형_2325" data-name="사각형 2325" width="30" height="30" transform="translate(571 782)" fill="none"/>
    <g id="그룹_4919" data-name="그룹 4919" transform="translate(571 785.263)">
      <g id="그룹_3048" data-name="그룹 3048" transform="translate(10)">
        <rect id="사각형_2101" data-name="사각형 2101" width="18.545" height="22.193" fill="#efc404"/>
        <rect id="사각형_2102" data-name="사각형 2102" width="18.545" height="0.135" transform="translate(0 5.616)" opacity="0.2"/>
        <rect id="사각형_2103" data-name="사각형 2103" width="18.545" height="0.135" transform="translate(0 8.356)" opacity="0.2"/>
        <rect id="사각형_2104" data-name="사각형 2104" width="18.545" height="0.135" transform="translate(0 11.097)" opacity="0.2"/>
        <rect id="사각형_2105" data-name="사각형 2105" width="18.545" height="0.135" opacity="0.2"/>
        <rect id="사각형_2106" data-name="사각형 2106" width="18.545" height="0.135" transform="translate(0 13.837)" opacity="0.2"/>
        <rect id="사각형_2107" data-name="사각형 2107" width="18.545" height="0.135" transform="translate(0 16.577)" opacity="0.2"/>
        <rect id="사각형_2108" data-name="사각형 2108" width="18.545" height="0.135" transform="translate(0 19.317)" opacity="0.2"/>
        <rect id="사각형_2109" data-name="사각형 2109" width="18.545" height="0.135" transform="translate(0 2.74)" opacity="0.2"/>
      </g>
      <path id="패스_1136" data-name="패스 1136" d="M206.878-43.709a9.451,9.451,0,0,1-.833,5.372c-2.028,0-8.336.083-8.336.083s3.028-13.229,4.015-12.713A9.681,9.681,0,0,1,206.878-43.709Z" transform="translate(-186.048 60.531)" opacity="0.2"/>
      <g id="그룹_3056" data-name="그룹 3056" transform="translate(0 6.659)">
        <g id="그룹_3051" data-name="그룹 3051">
          <g id="그룹_3050" data-name="그룹 3050" style="isolation: isolate">
            <path id="패스_1137" data-name="패스 1137" d="M193.247-48.566q0-.2,0-.4,0-.233-.02-.464c-.006-.083-.021-.164-.029-.247-.014-.144-.03-.287-.05-.429-.01-.072-.014-.145-.026-.216-.028-.165-.06-.329-.1-.491v0q-.055-.24-.121-.476c-.028-.1-.062-.191-.092-.287-.019-.06-.037-.121-.058-.18-.079-.23-.164-.458-.261-.68-.008-.019-.019-.038-.027-.057-.022-.049-.046-.1-.069-.144q-.139-.3-.3-.586c-.036-.065-.072-.129-.11-.194-.13-.222-.267-.441-.415-.652l-.015-.022q-.185-.262-.387-.509c-.032-.04-.068-.076-.1-.115-.052-.062-.107-.123-.16-.183s-.118-.14-.18-.206c-.078-.083-.162-.162-.243-.242-.047-.047-.092-.094-.14-.14-.191-.182-.39-.357-.6-.523-.04-.032-.083-.062-.123-.093q-.261-.2-.536-.388c-.063-.042-.127-.085-.191-.126s-.1-.069-.155-.1q-.256-.157-.524-.3l-.01-.006q-.275-.145-.56-.273c-.04-.018-.082-.03-.122-.047-.184-.079-.374-.148-.564-.216-.09-.032-.176-.073-.267-.1-.029-.009-.06-.015-.089-.024-.136-.043-.275-.076-.414-.113s-.244-.073-.37-.1c-.035-.008-.071-.011-.106-.019-.122-.026-.246-.044-.37-.065s-.248-.049-.375-.066c-.05-.006-.1-.007-.151-.013-.125-.014-.25-.022-.376-.032-.11-.008-.218-.023-.328-.028q-.19-.008-.383-.008-.251,0-.5.013c-.059,0-.116.013-.175.018-.164.011-.326.029-.488.049-.082.01-.166.013-.247.025s-.147.026-.22.039l-.147.026c-.21.04-.419.084-.624.138l-.075.022c-.062.017-.122.036-.183.055q-.274.08-.539.175c-.072.026-.143.052-.213.079-.052.02-.105.037-.157.058-.1.04-.189.087-.284.13s-.2.089-.3.137c-.142.07-.279.146-.416.223-.089.05-.18.1-.267.15-.149.089-.291.186-.434.284-.07.048-.143.092-.211.142-.208.151-.41.309-.6.477l-.631.544c.194-.167.4-.326.6-.477.069-.05.141-.094.212-.142.142-.1.285-.195.433-.284.087-.053.178-.1.267-.15.137-.077.275-.153.416-.223.1-.049.2-.092.3-.137.146-.066.292-.13.441-.189l.213-.079c.177-.064.357-.122.539-.175.061-.018.121-.038.183-.054q.344-.093.7-.16l.146-.026c.154-.027.311-.044.468-.064s.323-.037.486-.049c.223-.016.446-.03.673-.03s.476.018.712.035c.125.009.251.017.375.032.177.02.352.049.527.078.123.021.247.039.368.065.161.034.319.078.477.12.138.036.277.07.413.112s.238.085.357.127c.19.068.379.137.563.216.232.1.462.2.683.32l.009.005c.233.123.459.259.68.4q.1.061.191.126.275.185.537.388c.04.031.082.061.122.093.207.166.406.342.6.524.047.045.093.092.139.138q.22.217.424.449c.054.061.108.121.16.183.17.2.335.409.488.624l.014.021c.148.211.286.43.417.653.037.064.073.129.109.193q.159.288.3.586c.022.049.047.1.069.144q.16.361.288.737c.02.059.038.119.057.179.08.251.155.5.213.764v0c.053.231.088.469.122.707.02.142.037.286.051.43.022.235.045.47.049.71,0,.148,0,.294,0,.44-.008.245-.026.487-.053.727-.006.049-.012.1-.019.148-.032.247-.072.492-.123.732,0,.022-.011.043-.016.065q-.086.388-.206.764c-.007.022-.013.044-.02.066-.029.089-.062.177-.094.265-.024.067-.047.134-.072.2-.036.093-.077.183-.115.274-.026.059-.049.119-.076.178-.077.169-.161.335-.249.5-.025.047-.053.093-.079.14q-.1.175-.2.346c-.032.051-.065.1-.1.153q-.132.2-.275.4c-.023.032-.045.064-.068.1-.117.158-.241.311-.369.461-.032.037-.065.073-.1.11q-.153.174-.316.339l-.119.121c-.141.139-.286.275-.436.4l.63-.544c.151-.13.295-.266.436-.4.04-.04.079-.08.119-.121q.162-.166.315-.339c.033-.037.066-.073.1-.11q.192-.225.369-.461c.024-.031.045-.064.068-.1q.143-.2.275-.4c.017-.025.035-.049.051-.075s.03-.053.046-.078c.07-.113.137-.229.2-.345.026-.047.054-.094.079-.142.087-.163.17-.329.248-.5l.005-.01c.026-.057.048-.115.073-.173.038-.089.078-.178.113-.269.026-.066.048-.133.073-.2.032-.088.065-.176.094-.265l.008-.023c0-.014.007-.029.011-.042q.12-.375.207-.764c0-.016.009-.031.012-.046s0-.013,0-.019c.052-.24.091-.485.123-.732,0-.027.01-.053.013-.08s0-.046,0-.068c.027-.24.045-.482.053-.727C193.244-48.539,193.246-48.552,193.247-48.566Z" transform="translate(-173.92 58.127)" fill="#ecc200"/>
            <g id="그룹_3049" data-name="그룹 3049" transform="translate(0 0.544)">
              <path id="패스_1138" data-name="패스 1138" d="M178.7-56.782a9.455,9.455,0,0,1,9.51,9.162,9.067,9.067,0,0,1-9.19,9.165,9.457,9.457,0,0,1-9.506-9.165A9.063,9.063,0,0,1,178.7-56.782Z" transform="translate(-169.516 56.782)" fill="#ffe000"/>
            </g>
          </g>
        </g>
        <g id="그룹_3054" data-name="그룹 3054" transform="translate(2.031 2.564)">
          <g id="그룹_3053" data-name="그룹 3053" style="isolation: isolate">
            <path id="패스_1139" data-name="패스 1139" d="M182.12-35.445a7.15,7.15,0,0,1-7.189-6.928,6.7,6.7,0,0,1,1.354-4.173,6.846,6.846,0,0,1,.992-1.059h0l-.5.435a6.724,6.724,0,0,0-2.346,5.232,7.15,7.15,0,0,0,7.189,6.928,7,7,0,0,0,4.594-1.69l.5-.435A7,7,0,0,1,182.12-35.445Z" transform="translate(-174.425 49.297)" fill="#efc404"/>
            <g id="그룹_3052" data-name="그룹 3052" transform="translate(0.505)">
              <path id="패스_1140" data-name="패스 1140" d="M182.593-51.788a7.143,7.143,0,0,1,7.184,6.924,6.851,6.851,0,0,1-6.942,6.928,7.15,7.15,0,0,1-7.189-6.928A6.852,6.852,0,0,1,182.593-51.788Z" transform="translate(-175.645 51.788)" fill="#ffea00"/>
            </g>
          </g>
        </g>
        <g id="그룹_3055" data-name="그룹 3055" transform="translate(7.618 6.016)">
          <path id="패스_1141" data-name="패스 1141" d="M192.671-41.772a2.442,2.442,0,0,1,.208.953,2.413,2.413,0,0,1-.175.953,2.372,2.372,0,0,1-.515.778,2.371,2.371,0,0,1-.788.519,2.584,2.584,0,0,1-1,.2h-1.082l.034,1.954h-1.3l-.12-6.836h2.389a2.633,2.633,0,0,1,1.008.191,2.5,2.5,0,0,1,.8.523A2.454,2.454,0,0,1,192.671-41.772Zm-1.191,1.444a1.213,1.213,0,0,0,.089-.49,1.275,1.275,0,0,0-.106-.495,1.166,1.166,0,0,0-.271-.395,1.328,1.328,0,0,0-.416-.267,1.351,1.351,0,0,0-.527-.1h-1l.044,2.521h1a1.329,1.329,0,0,0,.523-.1,1.221,1.221,0,0,0,.406-.271,1.2,1.2,0,0,0,.257-.4" transform="translate(-187.934 43.256)" fill="#efc404"/>
        </g>
      </g>
    </g>
  </g>
</svg>
