<svg id="Coupon" xmlns="http://www.w3.org/2000/svg" width="33" height="33" viewBox="0 0 33 33">
  <rect id="Container" width="33" height="33" fill="none"/>
  <path id="coupon-2" data-name="coupon" d="M32.922,14.5a.86.86,0,0,1,.858.8l0,.056v5.724a.86.86,0,0,1-.859.859A4.024,4.024,0,0,0,29.05,24.7a4.09,4.09,0,0,0,3.774,5.392h.094l.061,0a.859.859,0,0,1,.8.8l0,.057v5.723a.86.86,0,0,1-.8.858l-.056,0H3.359a.86.86,0,0,1-.858-.8l0-.056V15.359a.86.86,0,0,1,.8-.858l.056,0Zm-.859,1.718H12.812v2.235H11.093V16.219H4.218V35.813h6.875V33.922h1.719v1.891h19.25V31.746L32,31.738a5.81,5.81,0,0,1-4.661-7.326l.031-.11.034-.115a5.694,5.694,0,0,1,4.42-3.86l.119-.021.116-.018V16.219ZM12.813,27.734v3.094H11.094V27.734Zm0-6.187v3.094H11.094V21.547Z" transform="translate(-1.469 -9.344)"/>
</svg>
