<svg id="그룹_2698" data-name="그룹 2698" xmlns="http://www.w3.org/2000/svg" width="40" height="40" viewBox="0 0 40 40">
  <rect id="사각형_1769" data-name="사각형 1769" width="40" height="40" fill="#f2f2f2" opacity="0"/>
  <path id="패스_1336" data-name="패스 1336" d="M314.151,306.067a23.7,23.7,0,0,1-9.062-2.3l-2.959,2.961c-.209-.114-.418-.229-.623-.348a27.957,27.957,0,0,1-10.243-10.221c-.131-.224-.256-.45-.38-.677l2.962-2.961a23.69,23.69,0,0,1-2.3-9.06,1.26,1.26,0,0,0-1.248-1.217h-3.137s-5,4.117-4.916,4.916a31.821,31.821,0,0,0,28.209,28.208c.8.085,4.915-4.916,4.915-4.916v-3.137A1.259,1.259,0,0,0,314.151,306.067Z" transform="translate(-279.049 -279.05)" fill="none" stroke="#000" stroke-linecap="round" stroke-linejoin="round" stroke-width="2"/>
</svg>
