<svg id="goods" xmlns="http://www.w3.org/2000/svg" width="33" height="33" viewBox="0 0 33 33">
  <rect id="Container" width="33" height="33" fill="none"/>
  <path id="Path_498" data-name="Path 498" d="M53.42,46.18h-.052l-3.429-.26a.893.893,0,0,1-.831-.831L48.9,41.555a.988.988,0,0,1,.26-.675L59.188,30.748a.91.91,0,0,1,1.3,0l3.741,3.741a.878.878,0,0,1,0,1.247L54.1,45.92A1.094,1.094,0,0,1,53.42,46.18Zm-2.6-2.026,2.234.156,9.2-9.2-2.39-2.39-9.145,9.093Z" transform="translate(-32.381 -24.301)"/>
  <path id="Path_499" data-name="Path 499" d="M65.749,42.884a.959.959,0,0,1-.624-.26l-3.377-3.377a.919.919,0,0,1,1.3-1.3l3.325,3.325a.91.91,0,0,1,0,1.3A.812.812,0,0,1,65.749,42.884Z" transform="translate(-38.422 -27.76)"/>
  <path id="Path_500" data-name="Path 500" d="M41.625,51.2H23.335a.931.931,0,0,1-.935-.935V22.835a.931.931,0,0,1,.935-.935h18.29a.931.931,0,0,1,.935.935v5.975a.935.935,0,0,1-1.871,0V23.719H24.271V49.386H40.741V44.138a.935.935,0,1,1,1.871,0V50.27A1.013,1.013,0,0,1,41.625,51.2Z" transform="translate(-19.65 -20.181)"/>
  <path id="Path_501" data-name="Path 501" d="M32.786,35.306l.1.26a1.226,1.226,0,0,0,1.091.779h.26l-.208.156a1.35,1.35,0,0,0-.416,1.3l.052.26-.208-.1a1.693,1.693,0,0,0-.675-.208,1.044,1.044,0,0,0-.675.208l-.26.156.052-.26a1.35,1.35,0,0,0-.416-1.3l-.156-.156h.26a1.345,1.345,0,0,0,1.091-.779l.1-.312m0-2.806a.391.391,0,0,0-.364.26l-.935,2.286-2.494.208h0a.286.286,0,0,0-.26.156.394.394,0,0,0,.052.52l1.922,1.611-.624,2.39h0a.659.659,0,0,0,.052.312.37.37,0,0,0,.312.156.312.312,0,0,0,.208-.052l2.13-1.3,2.13,1.3h0c.052.052.1.052.208.052h.1a.372.372,0,0,0,.26-.468l-.624-2.39,1.922-1.611h0a.4.4,0,0,0,.1-.26.441.441,0,0,0-.364-.416l-2.494-.208L33.15,32.76h0a.406.406,0,0,0-.208-.208.191.191,0,0,0-.156-.052Z" transform="translate(-22.658 -25.274)"/>
  <path id="Path_502" data-name="Path 502" d="M32.786,53.606l.1.26a1.226,1.226,0,0,0,1.091.779h.26l-.208.156a1.35,1.35,0,0,0-.416,1.3l.052.26-.26-.156A1.693,1.693,0,0,0,32.734,56a1.044,1.044,0,0,0-.675.208l-.26.156.052-.26a1.35,1.35,0,0,0-.416-1.3l-.208-.156h.26a1.345,1.345,0,0,0,1.091-.779l.208-.26m0-2.806a.391.391,0,0,0-.364.26l-.935,2.286-2.494.208h0a.286.286,0,0,0-.26.156.394.394,0,0,0,.052.52l1.922,1.611-.624,2.39h0a.659.659,0,0,0,.052.312.37.37,0,0,0,.312.156.312.312,0,0,0,.208-.052l2.13-1.3,2.13,1.3h0c.052.052.1.052.208.052h.1a.372.372,0,0,0,.26-.468l-.624-2.39,1.922-1.611h0a.4.4,0,0,0,.1-.26.441.441,0,0,0-.364-.416l-2.494-.208L33.1,51.06h0a.406.406,0,0,0-.208-.208c0-.052-.052-.052-.1-.052Z" transform="translate(-22.658 -34.065)"/>
</svg>
