<svg xmlns="http://www.w3.org/2000/svg" width="42" height="38.409" viewBox="0 0 42 38.409">
  <g id="icn_ν¬μΈνΈ" transform="translate(-169.516 74.588)" opacity="0.5">
    <g id="Group_3048" data-name="Group 3048" transform="translate(184.229 -74.588)">
      <rect id="Rectangle_2101" data-name="Rectangle 2101" width="27.286" height="33.389" fill="#efc404"/>
      <rect id="Rectangle_2102" data-name="Rectangle 2102" width="27.286" height="0.204" transform="translate(0 8.449)" opacity="0.2"/>
      <rect id="Rectangle_2103" data-name="Rectangle 2103" width="27.286" height="0.204" transform="translate(0 12.572)" opacity="0.2"/>
      <rect id="Rectangle_2104" data-name="Rectangle 2104" width="27.286" height="0.204" transform="translate(0 16.694)" opacity="0.2"/>
      <rect id="Rectangle_2105" data-name="Rectangle 2105" width="27.286" height="0.204" opacity="0.2"/>
      <rect id="Rectangle_2106" data-name="Rectangle 2106" width="27.286" height="0.204" transform="translate(0 20.817)" opacity="0.2"/>
      <rect id="Rectangle_2107" data-name="Rectangle 2107" width="27.286" height="0.204" transform="translate(0 24.94)" opacity="0.2"/>
      <rect id="Rectangle_2108" data-name="Rectangle 2108" width="27.286" height="0.204" transform="translate(0 29.062)" opacity="0.2"/>
      <rect id="Rectangle_2109" data-name="Rectangle 2109" width="27.286" height="0.204" transform="translate(0 4.123)" opacity="0.2"/>
    </g>
    <path id="Path_1136" data-name="Path 1136" d="M211.2-40.041a14.5,14.5,0,0,1-1.226,8.081c-2.983,0-12.265.125-12.265.125s4.455-19.9,5.907-19.126A14.554,14.554,0,0,1,211.2-40.041Z" transform="translate(-11.036 -9.24)" opacity="0.2"/>
    <g id="Group_3056" data-name="Group 3056" transform="translate(169.516 -64.57)">
      <g id="Group_3051" data-name="Group 3051">
        <g id="Group_3050" data-name="Group 3050" style="isolation: isolate">
          <path id="Path_1137" data-name="Path 1137" d="M200.892-43.743q.007-.3,0-.6-.006-.351-.029-.7c-.009-.125-.031-.246-.043-.371-.02-.217-.044-.432-.074-.646-.015-.108-.02-.218-.038-.325-.041-.248-.089-.495-.142-.738v0q-.08-.361-.178-.716c-.041-.146-.091-.288-.136-.431-.029-.09-.055-.181-.085-.271-.116-.346-.242-.689-.384-1.023-.012-.029-.027-.057-.04-.085-.032-.073-.068-.144-.1-.217q-.2-.449-.439-.882c-.053-.1-.106-.195-.161-.292-.192-.335-.393-.663-.611-.98-.008-.011-.015-.023-.022-.033q-.272-.393-.569-.766c-.047-.06-.1-.114-.148-.173-.077-.094-.157-.184-.236-.276s-.173-.21-.265-.31c-.115-.125-.238-.243-.358-.365-.069-.07-.136-.141-.206-.21-.282-.274-.574-.537-.878-.787-.059-.049-.122-.093-.181-.141q-.383-.3-.788-.583c-.093-.064-.186-.127-.281-.189-.077-.05-.15-.1-.228-.153q-.377-.236-.771-.449l-.015-.009q-.405-.218-.825-.41c-.058-.027-.121-.044-.18-.071-.271-.119-.55-.223-.83-.326-.132-.049-.259-.11-.393-.155-.043-.014-.088-.023-.13-.036-.2-.065-.405-.114-.609-.17-.182-.049-.359-.11-.544-.152-.051-.012-.1-.017-.156-.028-.18-.039-.362-.066-.544-.1s-.365-.074-.551-.1c-.073-.009-.148-.01-.222-.019-.183-.021-.368-.033-.553-.047-.162-.012-.32-.035-.483-.041q-.28-.012-.564-.012-.369,0-.732.019c-.087,0-.171.02-.257.027-.242.017-.48.043-.718.073-.12.015-.244.019-.363.037s-.216.039-.324.058c-.072.013-.144.025-.216.039-.31.06-.617.127-.918.207l-.11.033c-.091.026-.18.055-.269.082q-.4.121-.794.264c-.105.039-.21.078-.314.119-.076.03-.155.056-.231.088-.142.06-.278.131-.417.2s-.3.133-.439.206c-.209.1-.41.22-.612.335-.131.075-.265.145-.393.225-.218.134-.428.281-.638.427-.1.072-.21.139-.311.214-.306.227-.6.466-.889.717l-.928.819c.285-.252.583-.491.889-.718.1-.075.208-.142.312-.214.209-.147.419-.293.638-.427.128-.079.262-.15.393-.225.2-.116.4-.231.612-.335.144-.073.293-.138.439-.206.214-.1.429-.2.649-.284.1-.041.209-.08.314-.119.261-.1.526-.183.794-.264.09-.027.178-.057.269-.082q.507-.141,1.029-.241c.071-.014.143-.026.215-.039.227-.04.458-.067.689-.1s.475-.056.716-.073c.328-.024.656-.046.991-.046.353,0,.7.027,1.047.053.184.014.369.026.552.047.261.03.519.074.775.118.181.032.363.059.542.1.237.051.47.117.7.18.2.055.408.105.607.169.178.057.35.127.525.191.279.1.557.206.828.325.341.15.679.3,1.005.481l.013.008c.343.186.675.389,1,.6q.141.092.281.189.405.278.79.584c.059.047.12.091.179.139.3.25.6.514.88.789.069.068.136.139.2.208q.323.327.624.675c.08.091.159.183.236.276.25.3.493.615.717.939.007.01.013.021.02.032.218.318.421.647.613.983.055.1.108.194.161.291q.235.433.439.882c.033.073.069.144.1.217q.236.543.424,1.109c.03.089.056.18.085.27.118.377.228.759.314,1.149v0c.077.348.13.705.18,1.063.03.214.054.43.075.646.033.354.066.707.072,1.068,0,.222,0,.442-.007.662-.012.369-.038.733-.078,1.094-.009.074-.018.148-.027.222-.047.372-.105.74-.181,1.1-.007.033-.016.065-.023.1q-.127.584-.3,1.149c-.01.033-.019.066-.029.1-.043.134-.092.266-.139.4-.036.1-.069.2-.106.3-.054.139-.113.275-.17.412-.038.089-.072.18-.111.268-.114.254-.237.5-.366.75-.037.071-.077.141-.116.211q-.144.264-.3.52-.07.116-.144.231-.194.307-.4.6c-.034.047-.066.1-.1.143-.173.237-.355.468-.543.693-.047.056-.1.11-.144.166q-.225.261-.464.511c-.058.061-.116.122-.175.181-.208.209-.421.414-.641.609l.927-.819c.222-.2.434-.4.642-.609.059-.06.117-.121.175-.182q.238-.249.464-.51c.048-.055.1-.11.144-.166q.282-.338.543-.693c.035-.047.066-.1.1-.143q.211-.3.4-.6c.024-.038.052-.074.075-.113s.044-.079.068-.118c.1-.17.2-.344.3-.519.038-.071.079-.141.117-.213.128-.246.251-.5.365-.75l.007-.015c.038-.085.071-.173.107-.26.057-.134.114-.268.167-.405.038-.1.071-.2.107-.3.047-.132.1-.264.139-.4,0-.012.009-.023.012-.034s.01-.043.016-.064q.177-.564.3-1.149c.005-.024.013-.046.018-.069s0-.019,0-.029c.076-.361.134-.729.181-1.1,0-.04.015-.079.019-.12s0-.069.007-.1c.04-.361.067-.725.078-1.094C200.888-43.7,200.892-43.722,200.892-43.743Z" transform="translate(-172.455 58.127)" fill="#ecc200"/>
          <g id="Group_3049" data-name="Group 3049" transform="translate(0 0.819)">
            <path id="Path_1138" data-name="Path 1138" d="M183.034-56.782A14.058,14.058,0,0,1,197.027-43a13.494,13.494,0,0,1-13.522,13.789A14.062,14.062,0,0,1,169.518-43,13.488,13.488,0,0,1,183.034-56.782Z" transform="translate(-169.516 56.782)" fill="#ffe000"/>
          </g>
        </g>
      </g>
      <g id="Group_3054" data-name="Group 3054" transform="translate(2.988 3.858)">
        <g id="Group_3053" data-name="Group 3053" style="isolation: isolate">
          <path id="Path_1139" data-name="Path 1139" d="M185.746-29.311a10.631,10.631,0,0,1-10.577-10.423,10.227,10.227,0,0,1,1.992-6.278,10.211,10.211,0,0,1,1.46-1.593h0l-.742.655a10.214,10.214,0,0,0-3.452,7.871A10.631,10.631,0,0,0,185-28.656a10.17,10.17,0,0,0,6.76-2.543l.742-.655A10.168,10.168,0,0,1,185.746-29.311Z" transform="translate(-174.425 50.151)" fill="#efc404"/>
          <g id="Group_3052" data-name="Group 3052" transform="translate(0.742)">
            <path id="Path_1140" data-name="Path 1140" d="M185.868-51.788a10.62,10.62,0,0,1,10.571,10.417,10.2,10.2,0,0,1-10.215,10.423,10.631,10.631,0,0,1-10.577-10.423A10.2,10.2,0,0,1,185.868-51.788Z" transform="translate(-175.645 51.788)" fill="#ffea00"/>
          </g>
        </g>
      </g>
      <g id="Group_3055" data-name="Group 3055" transform="translate(11.209 9.05)">
        <path id="Path_1141" data-name="Path 1141" d="M194.9-41.024a3.744,3.744,0,0,1,.306,1.434,3.7,3.7,0,0,1-.257,1.434,3.576,3.576,0,0,1-.758,1.17,3.484,3.484,0,0,1-1.16.78,3.729,3.729,0,0,1-1.474.294h-1.593l.05,2.94h-1.91l-.176-10.285h3.514a3.8,3.8,0,0,1,1.484.288,3.672,3.672,0,0,1,1.174.786A3.693,3.693,0,0,1,194.9-41.024Zm-1.753,2.172a1.861,1.861,0,0,0,.131-.738,1.955,1.955,0,0,0-.156-.744,1.756,1.756,0,0,0-.4-.594,1.949,1.949,0,0,0-.612-.4,1.95,1.95,0,0,0-.775-.15h-1.467l.065,3.792h1.467a1.917,1.917,0,0,0,.77-.15,1.8,1.8,0,0,0,.6-.408,1.8,1.8,0,0,0,.379-.606" transform="translate(-187.934 43.256)" fill="#efc404"/>
      </g>
    </g>
  </g>
</svg>
