<svg xmlns="http://www.w3.org/2000/svg" width="45" height="45" viewBox="0 0 45 45">
  <g id="그룹_1076" data-name="그룹 1076" transform="translate(-900 -144)">
    <rect id="사각형_174" data-name="사각형 174" width="45" height="45" transform="translate(900 144)" fill="none"/>
    <path id="패스_339" data-name="패스 339" d="M914.189,174.947c4.4,4.4,9.736,8.791,16.431,11.148a4.912,4.912,0,0,0,5.673-1.87,14.066,14.066,0,0,0,1.759-3.351,2.876,2.876,0,0,0-.965-3.182c-2.285-1.79-6.812-5.13-8.223-4.66a11.773,11.773,0,0,0-3.354,2.173,2.233,2.233,0,0,1-2.762.119,40.48,40.48,0,0,1-4.731-4.206" transform="translate(1.228 -2.126)" fill="none" stroke="#000" stroke-linecap="round" stroke-linejoin="round" stroke-width="1.5"/>
    <path id="패스_340" data-name="패스 340" d="M915.854,177.591c-4.394-4.394-8.79-9.735-11.148-16.431a4.913,4.913,0,0,1,1.871-5.673,14.042,14.042,0,0,1,3.351-1.759,2.874,2.874,0,0,1,3.18.965c1.791,2.286,5.131,6.814,4.66,8.223a11.788,11.788,0,0,1-2.172,3.355,2.233,2.233,0,0,0-.12,2.762,40.75,40.75,0,0,0,4.207,4.73" transform="translate(0 -4.334)" fill="none" stroke="#000" stroke-linecap="round" stroke-linejoin="round" stroke-width="1.5"/>
  </g>
</svg>
