<svg xmlns="http://www.w3.org/2000/svg" width="10.767" height="14.164" viewBox="0 0 10.767 14.164">
  <g id="그룹_1094" data-name="그룹 1094" transform="translate(-333 -277.167)">
    <path id="패스_443" data-name="패스 443" d="M342.379,290h-7.99A1.389,1.389,0,0,0,333,291.389v6.452a1.389,1.389,0,0,0,1.389,1.389h7.99a1.389,1.389,0,0,0,1.389-1.389v-6.452A1.389,1.389,0,0,0,342.379,290Zm-3.611,4.893v.491a.385.385,0,1,1-.769,0v-.491a.769.769,0,1,1,.769,0Z" transform="translate(0 -7.898)" fill="#fff"/>
    <path id="패스_444" data-name="패스 444" d="M339.654,280.436a2.115,2.115,0,1,1,4.23,0v1.025h1.154v-1.025a3.269,3.269,0,1,0-6.537,0v1.025h1.154Z" transform="translate(-3.385 0)" fill="#fff"/>
  </g>
</svg>
