<svg id="_04_로열블루" data-name="04 로열블루" xmlns="http://www.w3.org/2000/svg" width="128" height="134.573" viewBox="0 0 128 134.573">
  <path id="Path_914" data-name="Path 914" d="M811.42,157.768c0,25.214-23.033,27.96-51.443,27.96s-51.443-2.746-51.443-27.96,23.031-45.653,51.443-45.653S811.42,132.555,811.42,157.768Z" transform="translate(-695.977 -65.45)" fill="#a52121"/>
  <path id="Path_915" data-name="Path 915" d="M751.849,112.115a58.335,58.335,0,0,0-6.881.418c25.156,2.987,44.564,22.093,44.564,45.235s-19.407,27.355-44.564,27.892q3.379.073,6.881.069c28.411,0,51.443-2.747,51.443-27.96S780.26,112.115,751.849,112.115Z" transform="translate(-688.353 -65.45)" opacity="0.2"/>
  <path id="Path_916" data-name="Path 916" d="M756.8,168.419h-6.872l-9.817-65.126A13.253,13.253,0,0,1,753.368,90.04h0a13.253,13.253,0,0,1,13.252,13.193.651.651,0,0,1-.009.12Z" transform="translate(-689.368 -70.069)" fill="#ff8e1d"/>
  <path id="Path_917" data-name="Path 917" d="M797.823,110.079A18.615,18.615,0,0,1,815.209,135L798.954,179.66H725.346L709.09,135a18.6,18.6,0,0,1,11.1-23.808,18.327,18.327,0,0,1,6.283-1.111A18.679,18.679,0,0,1,744,122.293l8.913,24.489,9.236,25.376,9.236-25.376,8.912-24.489a18.676,18.676,0,0,1,17.525-12.213h0m0-9.83a28.515,28.515,0,0,0-26.761,18.682l-8.912,24.489-8.913-24.489a28.515,28.515,0,0,0-26.761-18.682,28.172,28.172,0,0,0-9.645,1.705h0a28.486,28.486,0,0,0-16.976,36.4l18.608,51.129h87.372l18.609-51.129a28.487,28.487,0,0,0-16.977-36.4h0a28.2,28.2,0,0,0-9.645-1.705Z" transform="translate(-698.15 -67.933)" fill="#ff8e1d"/>
  <g id="Group_2462" data-name="Group 2462" transform="translate(39.982 0)">
    <g id="Group_2460" data-name="Group 2460">
      <path id="Path_918" data-name="Path 918" d="M755.468,73.525,731.213,96.789l23.869.389Z" transform="translate(-731.213 -73.525)" fill="#287493"/>
      <path id="Path_919" data-name="Path 919" d="M774.821,97.568,751.338,73.525l-.386,23.654Z" transform="translate(-727.083 -73.525)" fill="#a6d5e8"/>
      <path id="Path_920" data-name="Path 920" d="M731.213,92.763,754.7,116.807l.386-23.654Z" transform="translate(-731.213 -69.499)" fill="#144d5e"/>
      <path id="Path_921" data-name="Path 921" d="M750.927,93.212l-.231,23.655,24.1-23.573Z" transform="translate(-727.136 -69.405)" fill="#409ac7"/>
    </g>
    <g id="Group_2461" data-name="Group 2461" transform="translate(9.243 8.394)">
      <path id="Path_922" data-name="Path 922" d="M751.028,107.915l15.2-14.581-14.96-.244Z" transform="translate(-736.31 -77.825)" fill="#287493"/>
      <path id="Path_923" data-name="Path 923" d="M738.857,92.888l14.719,15.069.242-14.825Z" transform="translate(-738.857 -77.867)" fill="#a6d5e8"/>
      <path id="Path_924" data-name="Path 924" d="M766.188,95.9,751.47,80.83l-.242,14.825Z" transform="translate(-736.268 -80.391)" fill="#144d5e"/>
      <path id="Path_925" data-name="Path 925" d="M754,95.286l-.2-14.819L739.04,95.927Z" transform="translate(-738.818 -80.467)" fill="#409ac7"/>
    </g>
  </g>
  <rect id="Rectangle_1611" data-name="Rectangle 1611" width="104" height="14" transform="translate(12.557 120.573)" fill="#d87319"/>
  <path id="Path_926" data-name="Path 926" d="M795.633,157.1l-15.182-18.724L761.337,157.1l-19.113-18.724L727.042,157.1l-25.011-18.724L709.894,181l103.044-.082,7.705-42.545Z" transform="translate(-697.337 -59.954)" fill="#f4b818"/>
  <g id="Group_2463" data-name="Group 2463" transform="translate(36.291 93.191)">
    <path id="Path_927" data-name="Path 927" d="M728.161,161.462l9.123,12.925V161.462Z" transform="translate(-728.161 -148.315)" fill="#287493"/>
    <path id="Path_928" data-name="Path 928" d="M737.283,150.773,728.161,163.7h9.123Z" transform="translate(-728.161 -150.551)" fill="#a6d5e8"/>
    <path id="Path_929" data-name="Path 929" d="M735.7,174.386l9.123-12.925H735.7Z" transform="translate(-726.582 -148.315)" fill="#144d5e"/>
    <path id="Path_930" data-name="Path 930" d="M735.44,163.5l9.111.461-8.458-13.369Z" transform="translate(-726.638 -150.59)" fill="#409ac7"/>
  </g>
  <g id="Group_2464" data-name="Group 2464" transform="translate(73.361 93.191)">
    <path id="Path_931" data-name="Path 931" d="M758.815,161.462l9.123,12.925V161.462Z" transform="translate(-758.815 -148.315)" fill="#287493"/>
    <path id="Path_932" data-name="Path 932" d="M767.938,150.773,758.815,163.7h9.123Z" transform="translate(-758.815 -150.551)" fill="#a6d5e8"/>
    <path id="Path_933" data-name="Path 933" d="M766.36,174.386l9.123-12.925H766.36Z" transform="translate(-757.237 -148.315)" fill="#144d5e"/>
    <path id="Path_934" data-name="Path 934" d="M766.094,163.5l9.111.461-8.458-13.369Z" transform="translate(-757.292 -150.59)" fill="#409ac7"/>
  </g>
  <g id="Group_2465" data-name="Group 2465" transform="translate(2.431 95.021)">
    <path id="Path_935" data-name="Path 935" d="M700.16,164.051l11.053,11.1-2.148-12.616Z" transform="translate(-700.16 -149.92)" fill="#287493"/>
    <path id="Path_936" data-name="Path 936" d="M706.917,152.1l-6.757,14.132,8.905-1.516Z" transform="translate(-700.16 -152.103)" fill="#a6d5e8"/>
    <path id="Path_937" data-name="Path 937" d="M709.672,175.414l4.875-14.132-7.023,1.516Z" transform="translate(-698.619 -150.182)" fill="#144d5e"/>
    <path id="Path_938" data-name="Path 938" d="M708.115,164.781l6.978-1.758-9.469-10.795Z" transform="translate(-699.016 -152.076)" fill="#409ac7"/>
  </g>
  <g id="Group_2466" data-name="Group 2466" transform="translate(109.59 95.021)">
    <path id="Path_939" data-name="Path 939" d="M803.983,164.051l-11.052,11.1,2.148-12.616Z" transform="translate(-787.906 -149.92)" fill="#287493"/>
    <path id="Path_940" data-name="Path 940" d="M796.854,152.1l6.757,14.132-8.905-1.516Z" transform="translate(-787.534 -152.103)" fill="#a6d5e8"/>
    <path id="Path_941" data-name="Path 941" d="M793.774,175.414,788.9,161.282l7.023,1.516Z" transform="translate(-788.75 -150.182)" fill="#144d5e"/>
    <path id="Path_942" data-name="Path 942" d="M795.753,164.781l-6.978-1.758,9.469-10.795Z" transform="translate(-788.775 -152.076)" fill="#409ac7"/>
  </g>
  <ellipse id="Ellipse_133" data-name="Ellipse 133" cx="3.168" cy="3.168" rx="3.168" ry="3.168" transform="translate(60.683 50.954)" fill="#fff"/>
  <ellipse id="Ellipse_134" data-name="Ellipse 134" cx="3.168" cy="3.168" rx="3.168" ry="3.168" transform="translate(60.683 65.639)" fill="#fff"/>
</svg>
