<svg id="Gift" xmlns="http://www.w3.org/2000/svg" width="33" height="33" viewBox="0 0 33 33">
  <rect id="Container" width="33" height="33" fill="none"/>
  <path id="gift-2" data-name="gift" d="M27.422,5a3.493,3.493,0,0,1,3.225,4.813h3.181a1.2,1.2,0,0,1,1.2,1.137l0,.066v6.875a1.2,1.2,0,0,1-1.137,1.2l-.066,0H32.281V33.359a1.2,1.2,0,0,1-1.137,1.2l-.066,0H10.453a1.2,1.2,0,0,1-1.2-1.137l0-.066V19.094H7.7a1.2,1.2,0,0,1-1.2-1.137l0-.066V11.016a1.2,1.2,0,0,1,1.137-1.2l.066,0h3.181a3.487,3.487,0,0,1,4.9-4.385l.066.037.1.051.11.057c.255.134.613.339,1.073.624l.108.067c1.007.63,2.18,1.449,3.52,2.482l-.128.1.437-.335c1.148-.874,2.17-1.586,3.063-2.153l.15-.094c.585-.366,1.016-.609,1.291-.748l.105-.052.065-.036A3.472,3.472,0,0,1,27.295,5ZM16.469,19.094h-5.5v13.75h5.5Zm6.875,0H18.188v13.75h5.156Zm7.219,0h-5.5v13.75h5.5ZM16.469,11.531H8.219v5.844h8.25Zm6.875,0H18.188v5.844h5.156Zm9.969,0h-8.25v5.844h8.25ZM27.422,6.719a1.755,1.755,0,0,0-.82.2l-.082.046-.037.022-.039.018c-.04.019-.136.067-.287.15-.235.128-.513.29-.835.489l-.123.076c-.861.539-1.86,1.23-3,2.09H28.6a1.773,1.773,0,0,0-1.175-3.094Zm-13.311,0a1.773,1.773,0,0,0-1.175,3.094h6.393c-1.073-.813-2.024-1.475-2.852-2l-.143-.09c-.333-.208-.622-.379-.868-.516l-.09-.05c-.095-.052-.168-.09-.219-.116l-.108-.052-.037-.022a1.75,1.75,0,0,0-.9-.247Z" transform="translate(-4.094 -3.281)"/>
</svg>
