<svg id="User" xmlns="http://www.w3.org/2000/svg" width="33" height="33" viewBox="0 0 33 33">
  <rect id="Container" width="33" height="33" fill="none"/>
  <path id="User-2" data-name="User" d="M27.984,20A10.534,10.534,0,0,1,38.469,30.16h0v2.731a1.2,1.2,0,0,1-1.2,1.2H18.7a1.2,1.2,0,0,1-1.2-1.2h0V30.16A10.534,10.534,0,0,1,27.984,20Zm0,1.719a8.817,8.817,0,0,0-8.766,8.441h0v2.215H36.75V30.16a8.817,8.817,0,0,0-8.624-8.44h-.142Zm0-18.219a7.047,7.047,0,1,1-7.047,7.047A7.047,7.047,0,0,1,27.984,3.5Zm0,1.719a5.328,5.328,0,1,0,5.328,5.328A5.328,5.328,0,0,0,27.984,5.219Z" transform="translate(-11.313 -2.125)"/>
</svg>
