<svg id="Shipping" xmlns="http://www.w3.org/2000/svg" width="33" height="33" viewBox="0 0 33 33">
  <rect id="Container" width="33" height="33" fill="none"/>
  <path id="shipping-2" data-name="shipping" d="M31.346,32.035a.575.575,0,0,1-.456.184H28.376a3.857,3.857,0,0,0-5.908-1.947V19.5h5.644a1.308,1.308,0,0,1,1.2.991l.107.556H26.07a1.029,1.029,0,0,0-1.023,1.031v3.781a1.028,1.028,0,0,0,1.023,1.031h4.474l.9,4.662A.574.574,0,0,1,31.346,32.035Zm-4.383,1.9a2.32,2.32,0,0,1-4.581-.516,2.32,2.32,0,0,1,4.641,0A2.324,2.324,0,0,1,26.964,33.938Zm3.315-8.422H26.422V22.422h3.261Zm-9.529,6.7H12.563a3.864,3.864,0,0,0-7.346,0h-2v-16.5H20.75v16.5Zm-9.6,1.719a2.28,2.28,0,1,1,.06-.516A2.323,2.323,0,0,1,11.151,33.938Zm21.977-2.71L31,20.166a3.021,3.021,0,0,0-2.887-2.385H22.469V15.2a1.2,1.2,0,0,0-1.2-1.2H2.7a1.2,1.2,0,0,0-1.2,1.2V32.734a1.2,1.2,0,0,0,1.2,1.2H5.062a3.863,3.863,0,0,0,7.657,0h8.155a3.863,3.863,0,0,0,7.657,0h2.359a2.227,2.227,0,0,0,2.238-2.71Z" transform="translate(-0.813 -9.188)"/>
</svg>
