<svg xmlns="http://www.w3.org/2000/svg" width="16" height="16" viewBox="0 0 16 16">
  <g id="Group_3073" data-name="Group 3073" transform="translate(-887 -405)">
    <rect id="Rectangle_2012" data-name="Rectangle 2012" width="16" height="16" transform="translate(887 405)" fill="none"/>
    <path id="Path_990" data-name="Path 990" d="M.8-13.87h4.75a5.027,5.027,0,0,1,2,.39A4.957,4.957,0,0,1,9.12-12.426a4.856,4.856,0,0,1,1.045,1.567,4.918,4.918,0,0,1,.38,1.929,4.988,4.988,0,0,1-.38,1.938A4.831,4.831,0,0,1,9.12-5.415,4.93,4.93,0,0,1,7.533-4.36a5.1,5.1,0,0,1-2,.389H3.382V0H.8Zm2.584,2.394v5.111H5.358a2.672,2.672,0,0,0,1.045-.2,2.448,2.448,0,0,0,.817-.551,2.53,2.53,0,0,0,.532-.817,2.614,2.614,0,0,0,.19-1,2.614,2.614,0,0,0-.19-1,2.423,2.423,0,0,0-.532-.807,2.522,2.522,0,0,0-.817-.542,2.672,2.672,0,0,0-1.045-.2Z" transform="translate(890.202 419.87)"/>
  </g>
</svg>
