<?xml version="1.0" encoding="utf-8"?>
<!-- Generator: Adobe Illustrator 26.3.1, SVG Export Plug-In . SVG Version: 6.00 Build 0)  -->
<svg version="1.1" id="레이어_1" xmlns="http://www.w3.org/2000/svg" xmlns:xlink="http://www.w3.org/1999/xlink" x="0px"
	 y="0px" viewBox="0 0 75.8 96" style="enable-background:new 0 0 75.8 96;" xml:space="preserve">
<style type="text/css">
	.st0{fill:none;stroke:#000000;stroke-width:5;stroke-linejoin:round;stroke-miterlimit:10;}
	.st1{fill:none;stroke:#000000;stroke-width:5;stroke-miterlimit:10;}
	.st2{fill:none;stroke:#000000;stroke-width:4;stroke-miterlimit:10;}
</style>
<g>
	<g>
		<g>
			<path class="st0" d="M65.1,91c3.3,0,6-2.7,6-6V11c0-3.3-2.7-6-6-6h-52c-3.3,0-6,2.7-6,6v39c0,3.3,0,6.1,0,6.2s0,2.9,0,6.2V85
				c0,3.3,2.7,6,6,6H65.1z"/>
		</g>
	</g>
	<path class="st1" d="M46.4,31.6c6.3,2.8,10.7,9.1,10.7,16.4c0,9.9-8.1,18-18,18s-18-8.1-18-18c0-8.4,5.8-15.5,13.6-17.5"/>
	<polyline class="st2" points="55,29.6 45,29.6 45,38.7 	"/>
</g>
</svg>
