<svg xmlns="http://www.w3.org/2000/svg" width="46" height="44.992" viewBox="0 0 46 44.992">
  <g id="icon_1_누적_구매_금액" data-name="icon_1_누적 구매 금액" transform="translate(-1667 1465.492)">
    <g id="Group_2912" data-name="Group 2912">
      <g id="Group_2909" data-name="Group 2909">
        <path id="Path_1041" data-name="Path 1041" d="M1713-1425.4l-2.591,1.727-31.52-2.591v-28.725l31.52-2.591,2.591,2.591Z" fill="#1d4c80"/>
      </g>
      <g id="Group_2910" data-name="Group 2910">
        <rect id="Rectangle_2013" data-name="Rectangle 2013" width="34.11" height="33.9" transform="translate(1676.3 -1457.58)" fill="#0077c8"/>
      </g>
      <g id="Group_2911" data-name="Group 2911">
        <path id="Path_1042" data-name="Path 1042" d="M1700.479-1454.208a1,1,0,0,1-1-1v-2.159a6.132,6.132,0,0,0-6.125-6.125,6.132,6.132,0,0,0-6.124,6.125v2.159a1,1,0,0,1-1,1,1,1,0,0,1-1-1v-2.159a8.134,8.134,0,0,1,8.124-8.125,8.134,8.134,0,0,1,8.125,8.125v2.159A1,1,0,0,1,1700.479-1454.208Z"/>
      </g>
    </g>
    <g id="Group_2929" data-name="Group 2929">
      <g id="Group_2914" data-name="Group 2914" opacity="0.2" style="mix-blend-mode: multiply;isolation: isolate">
        <g id="Group_2913" data-name="Group 2913">
          <path id="Path_1043" data-name="Path 1043" d="M1697.61-1433.67a13.566,13.566,0,0,1-4.07,9.99h-14.43v-23.15a13.619,13.619,0,0,1,4.4-.72A14.156,14.156,0,0,1,1697.61-1433.67Z"/>
        </g>
      </g>
      <g id="Group_2928" data-name="Group 2928">
        <g id="Group_2919" data-name="Group 2919">
          <g id="Group_2918" data-name="Group 2918" style="isolation: isolate">
            <g id="Group_2915" data-name="Group 2915">
              <path id="Path_1044" data-name="Path 1044" d="M1695.646-1434.61c.006-.2.006-.4,0-.606q-.006-.353-.029-.7c-.009-.126-.032-.248-.044-.374-.02-.218-.044-.435-.075-.65-.015-.109-.02-.22-.038-.328q-.062-.375-.143-.744v0q-.081-.365-.18-.722c-.041-.147-.091-.29-.137-.435-.028-.091-.055-.182-.085-.273-.118-.349-.244-.694-.387-1.031-.013-.028-.028-.056-.04-.085-.032-.074-.069-.145-.1-.218q-.207-.453-.443-.889c-.053-.1-.106-.2-.162-.293-.193-.337-.4-.669-.616-.988l-.022-.034q-.273-.4-.573-.772c-.047-.059-.1-.115-.149-.174-.077-.094-.158-.185-.238-.278s-.174-.211-.267-.311c-.116-.127-.24-.245-.36-.367-.07-.071-.137-.143-.208-.212q-.426-.414-.885-.793c-.06-.049-.122-.094-.183-.142q-.385-.307-.793-.587c-.094-.065-.188-.128-.283-.191-.078-.05-.151-.1-.229-.154q-.381-.237-.777-.451l-.016-.009q-.408-.22-.83-.413c-.059-.027-.122-.045-.181-.072-.274-.12-.554-.225-.836-.328-.134-.049-.261-.11-.4-.155-.043-.014-.088-.023-.131-.037-.2-.064-.408-.115-.613-.171-.184-.049-.362-.11-.548-.152-.052-.012-.106-.017-.158-.028-.18-.039-.365-.067-.548-.1s-.367-.074-.555-.1c-.074-.01-.15-.011-.224-.019-.184-.022-.371-.034-.557-.048-.163-.013-.323-.036-.487-.042q-.282-.012-.567-.012-.372,0-.738.02c-.088,0-.172.02-.259.026-.244.018-.484.044-.723.074-.121.015-.246.019-.366.037s-.217.04-.326.059c-.073.013-.146.025-.218.039-.312.061-.621.128-.925.209-.038.01-.074.024-.111.034-.092.025-.181.055-.271.082-.27.081-.537.169-.8.266-.106.039-.211.078-.316.12-.077.031-.156.057-.233.089-.143.06-.28.132-.42.2s-.3.134-.443.208c-.21.106-.413.221-.617.338-.132.075-.267.146-.4.226-.22.136-.431.283-.643.431-.1.073-.211.14-.313.215-.309.229-.608.469-.9.723l-.934.824c.287-.253.587-.493.9-.722.1-.076.21-.143.314-.215.211-.148.423-.295.642-.431.13-.08.264-.151.4-.227.2-.116.406-.232.616-.338.145-.073.3-.139.443-.207.216-.1.432-.2.653-.285.105-.042.211-.081.317-.12.262-.1.529-.185.8-.266.091-.027.18-.057.271-.082.34-.1.686-.175,1.037-.243.072-.014.144-.026.216-.039.229-.041.462-.067.694-.1s.479-.056.721-.073c.33-.024.661-.046,1-.046.356,0,.7.027,1.055.053.186.015.372.027.556.048.263.031.522.074.781.119.182.032.366.059.546.1.239.052.473.118.708.182.2.055.41.106.611.17.179.057.352.128.529.193.281.1.561.207.834.327.343.151.683.307,1.012.484l.013.008c.346.187.68.393,1.008.607.095.062.189.126.283.191q.408.281.8.588c.06.047.122.092.181.14.306.252.6.518.886.794.07.069.137.14.206.21q.326.33.629.68c.08.092.16.184.237.278.252.306.5.619.723.946l.02.032c.22.32.424.652.617.99.056.1.109.195.163.293q.235.435.442.889c.033.073.07.144.1.218.158.364.3.737.427,1.117.03.089.057.18.085.271.119.38.23.764.317,1.157v0c.078.351.13.711.181,1.071.031.216.055.433.076.651.033.356.066.713.072,1.076,0,.224,0,.446-.007.667-.011.372-.038.739-.078,1.1-.009.075-.018.149-.028.224-.047.374-.1.745-.182,1.109-.007.033-.016.066-.023.1-.086.392-.188.779-.307,1.158-.01.032-.018.066-.029.1-.043.136-.092.268-.14.4-.036.1-.069.2-.107.3-.054.14-.113.277-.171.415-.038.09-.073.181-.113.27-.114.256-.238.508-.367.756-.038.071-.078.141-.117.212-.1.177-.2.353-.3.525-.047.078-.095.155-.144.232-.131.206-.267.409-.408.607-.034.048-.066.1-.1.144q-.263.359-.547.7c-.048.057-.1.111-.145.167-.152.175-.308.347-.468.514-.058.061-.117.123-.177.183-.209.211-.423.417-.646.614l.935-.825c.223-.2.437-.4.646-.614.06-.06.118-.121.177-.183q.24-.25.468-.514c.048-.055.1-.11.144-.166.19-.227.373-.459.548-.7.034-.047.066-.1.1-.144q.211-.3.408-.607c.024-.038.052-.074.075-.113s.045-.08.069-.119c.1-.172.2-.346.3-.523.039-.072.08-.142.118-.215.129-.247.252-.5.367-.754l.007-.015c.038-.086.072-.175.108-.262.057-.136.116-.27.169-.408.038-.1.071-.2.107-.3.047-.133.1-.266.14-.4l.012-.035c.007-.021.01-.043.017-.064.118-.379.221-.765.306-1.158.006-.024.014-.046.019-.07l.005-.029c.076-.364.135-.734.182-1.109.005-.041.015-.08.02-.121s0-.069.007-.1c.04-.363.068-.73.079-1.1C1695.643-1434.569,1695.646-1434.589,1695.646-1434.61Z" fill="#ecc200"/>
            </g>
            <g id="Group_2917" data-name="Group 2917">
              <g id="Group_2916" data-name="Group 2916">
                <path id="Path_1045" data-name="Path 1045" d="M1680.618-1448.276a14.161,14.161,0,0,1,14.1,13.885,13.594,13.594,0,0,1-13.622,13.891,14.165,14.165,0,0,1-14.09-13.891A13.588,13.588,0,0,1,1680.618-1448.276Z" fill="#ffe000"/>
              </g>
            </g>
          </g>
        </g>
        <g id="Group_2927" data-name="Group 2927">
          <g id="Group_2926" data-name="Group 2926" style="isolation: isolate">
            <g id="Group_2920" data-name="Group 2920">
              <path id="Path_1046" data-name="Path 1046" d="M1681.414-1424.221a10.71,10.71,0,0,1-10.655-10.5,10.316,10.316,0,0,1,2.007-6.324,10.325,10.325,0,0,1,1.471-1.6h0l-.747.66a10.285,10.285,0,0,0-3.478,7.929,10.709,10.709,0,0,0,10.655,10.5,10.242,10.242,0,0,0,6.809-2.562l.748-.66A10.244,10.244,0,0,1,1681.414-1424.221Z" fill="#efc404"/>
            </g>
            <g id="Group_2925" data-name="Group 2925">
              <g id="Group_2921" data-name="Group 2921">
                <path id="Path_1047" data-name="Path 1047" d="M1681.056-1445.215a10.7,10.7,0,0,1,10.649,10.494,10.272,10.272,0,0,1-10.291,10.5,10.71,10.71,0,0,1-10.655-10.5A10.272,10.272,0,0,1,1681.056-1445.215Z" fill="#ffea00"/>
              </g>
              <g id="Group_2924" data-name="Group 2924">
                <g id="Group_2923" data-name="Group 2923">
                  <g id="Group_2922" data-name="Group 2922">
                    <path id="Path_1048" data-name="Path 1048" d="M1674.913-1435.825h1.119l-.96-3.385h1.748l.91,3.385h1.76l1.022-3.385h1.526l1.009,3.385h1.76l.911-3.385h1.7l-.96,3.385h1.1v.812h-1.33l-.123.406h1.453v.812h-1.675l-1.008,3.569h-1.65l-1.07-3.569h-1.76l-1.059,3.569h-1.711l-1.02-3.569h-1.686v-.812h1.464l-.123-.406h-1.341Zm3.15,1.218h1.071l.123-.406h-1.3Zm.221.812.284,1.059.319-1.059Zm2.351-.812h1.28l-.123-.406h-1.034Zm.64-2.141-.283.923h.554Zm2.142,2.141h1.058l.11-.406h-1.292Zm.246.812.319,1.059.284-1.059Z" fill="#efc404"/>
                  </g>
                </g>
              </g>
            </g>
          </g>
        </g>
      </g>
    </g>
  </g>
</svg>
