<svg id="sns_facebook" xmlns="http://www.w3.org/2000/svg" width="46" height="46" viewBox="0 0 46 46">
  <circle id="타원_3" data-name="타원 3" cx="23" cy="23" r="23" fill="#30af08"/>
  <g id="그룹_1565" data-name="그룹 1565" transform="translate(-137.413 -587.082)">
    <path id="패스_604" data-name="패스 604" d="M169.787,602H151.038A2.038,2.038,0,0,0,149,604.038v11.995a2.038,2.038,0,0,0,2.038,2.038h1.456v3.04a.877.877,0,0,0,1.49.627l3.751-3.667h12.053a2.038,2.038,0,0,0,2.038-2.038V604.038A2.038,2.038,0,0,0,169.787,602Zm-14.02,9.1a1.177,1.177,0,1,1,1.177-1.177A1.177,1.177,0,0,1,155.767,611.1Zm4.413,0a1.177,1.177,0,1,1,1.177-1.177A1.177,1.177,0,0,1,160.18,611.1Zm4.413,0a1.177,1.177,0,1,1,1.177-1.177A1.177,1.177,0,0,1,164.593,611.1Z" fill="#fff"/>
  </g>
</svg>
