<svg xmlns="http://www.w3.org/2000/svg" width="46.503" height="46.502" viewBox="0 0 46.503 46.502">
  <g id="icon" transform="translate(-755.499 -1137.935)">
    <path id="패스_455" data-name="패스 455" d="M490.513,359.058A39.495,39.495,0,0,0,498.8,365.4l2.979-3.267a4.031,4.031,0,0,1,3.056-1.322,24.14,24.14,0,0,1,8,1.322,5.055,5.055,0,0,1,3.127,4.782l-.107,7.014a3.237,3.237,0,0,1-3.19,3.175,39.264,39.264,0,0,1-28.668-11.529" transform="translate(284.542 805.822)" fill="none" stroke="#000" stroke-linecap="round" stroke-linejoin="round" stroke-width="3"/>
    <path id="패스_456" data-name="패스 456" d="M498.161,375.922a39.482,39.482,0,0,1-6.344-8.283l3.267-2.979a4.036,4.036,0,0,0,1.322-3.056,24.135,24.135,0,0,0-1.322-8,5.054,5.054,0,0,0-4.782-3.128l-7.013.107a3.241,3.241,0,0,0-3.178,3.19,39.281,39.281,0,0,0,11.531,28.669" transform="translate(276.897 788.961)" fill="none" stroke="#000" stroke-linecap="round" stroke-linejoin="round" stroke-width="3"/>
    <path id="패스_871" data-name="패스 871" d="M799.433,1165.132l9.3-9.168" transform="translate(-15.01 -10.804)" fill="none" stroke="#2189ff" stroke-linecap="round" stroke-width="3"/>
    <path id="패스_872" data-name="패스 872" d="M807.61,1154.6h6.466v7.16" transform="translate(-19.284 -10.726)" fill="none" stroke="#2189ff" stroke-linecap="round" stroke-width="3"/>
  </g>
</svg>
