<svg xmlns="http://www.w3.org/2000/svg" width="17.001" height="17" viewBox="0 0 17.001 17">
  <path id="빼기_1" data-name="빼기 1" d="M5720-3163a8.009,8.009,0,0,1-8-8,8.009,8.009,0,0,1,8-8,8.009,8.009,0,0,1,8,8A8.01,8.01,0,0,1,5720-3163Zm-1.613-12.023a.687.687,0,0,0-.331.085.71.71,0,0,0-.365.6v6.638a.711.711,0,0,0,.367.638.7.7,0,0,0,.331.083.742.742,0,0,0,.367-.1l.038-.023,5.08-3.287a.73.73,0,0,0,.342-.613.732.732,0,0,0-.311-.592l-.032-.021-5.08-3.286A.743.743,0,0,0,5718.386-3175.023Z" transform="translate(-5711.5 3179.5)" fill="#fff" stroke="rgba(0,0,0,0)" stroke-miterlimit="10" stroke-width="1"/>
</svg>
