<svg xmlns="http://www.w3.org/2000/svg" width="33.553" height="38" viewBox="0 0 33.553 38">
  <g id="icn_블루케어" transform="translate(-1518.823 90.02)">
    <g id="Group_2872" data-name="Group 2872" transform="translate(1518.823 -83.992)">
      <path id="Path_1002" data-name="Path 1002" d="M1531.677-64.614l-4.633-6.9,3.214-1.289Z" transform="translate(-1522.39 76.522)" fill="#d7d7d7"/>
      <path id="Path_1003" data-name="Path 1003" d="M1528.928-68.708l-1.884-2.805,3.214-1.289.315,1.817Z" transform="translate(-1522.39 76.522)" fill="#b2b2b2"/>
      <rect id="Rectangle_2004" data-name="Rectangle 2004" width="11.584" height="3.009" rx="1.504" transform="matrix(0.928, -0.372, 0.372, 0.928, 0, 4.313)" fill="#ffe000"/>
    </g>
    <g id="Group_2873" data-name="Group 2873" transform="translate(1540.534 -63.928)">
      <path id="Path_1004" data-name="Path 1004" d="M1557.174-34.179l6.638-2.9.6,2.956Z" transform="translate(-1557.174 40.956)" fill="#d7d7d7"/>
      <path id="Path_1005" data-name="Path 1005" d="M1564.132-35.9l2.7-1.177.6,2.956-1.607-.014Z" transform="translate(-1560.193 40.956)" fill="#b2b2b2"/>
      <rect id="Rectangle_2005" data-name="Rectangle 2005" width="10.095" height="2.622" rx="1.311" transform="matrix(0.2, 0.98, -0.98, 0.2, 7.961, 0)" fill="#17baaa"/>
    </g>
    <g id="Group_2885" data-name="Group 2885" transform="translate(1525.709 -90.02)">
      <g id="Group_2874" data-name="Group 2874" transform="translate(0 9.138)">
        <path id="Path_1006" data-name="Path 1006" d="M1545.461-73.878l-14.07,24.254a3,3,0,0,0,1.088,4.094l.187.109a3,3,0,0,0,4.094-1.088l14.07-24.255Zm-11.037,26.765a.78.78,0,0,1-1.065.284.78.78,0,0,1-.283-1.066.779.779,0,0,1,1.065-.283A.779.779,0,0,1,1534.424-47.113Z" transform="translate(-1530.986 73.878)" fill="#8dc6e2"/>
      </g>
      <g id="Group_2875" data-name="Group 2875" transform="translate(10.981)">
        <path id="Path_1007" data-name="Path 1007" d="M1563.821-85.653l-2.5,4.317a1.69,1.69,0,0,1-2.31.614l-2.446-1.419a1.69,1.69,0,0,1-.614-2.31l2.5-4.316a.83.83,0,0,0-.756-1.251,7.838,7.838,0,0,0-6.767,4.952,7.857,7.857,0,0,0,2.614,9.155,7.842,7.842,0,0,0,11.468-2.353,7.827,7.827,0,0,0,.271-7.354A.831.831,0,0,0,1563.821-85.653Z" transform="translate(-1550.384 90.02)" fill="#8dc6e2"/>
      </g>
      <rect id="Rectangle_2006" data-name="Rectangle 2006" width="3.667" height="18.333" rx="1.833" transform="matrix(0.865, 0.502, -0.502, 0.865, 12.387, 15.269)" fill="#5b9ab2"/>
      <g id="Group_2878" data-name="Group 2878" transform="translate(11.864 0.951)">
        <g id="Group_2877" data-name="Group 2877">
          <g id="Group_2876" data-name="Group 2876">
            <path id="Path_1008" data-name="Path 1008" d="M1552.88-84.891a6.93,6.93,0,0,0,2.517,9.471,6.929,6.929,0,0,0,9.471-2.517,6.924,6.924,0,0,0-.165-7.216.819.819,0,0,0-.205.229l-2.5,4.317a1.69,1.69,0,0,1-2.31.614l-2.446-1.419a1.69,1.69,0,0,1-.614-2.31l2.5-4.316a.814.814,0,0,0,.1-.293A6.925,6.925,0,0,0,1552.88-84.891Z" transform="translate(-1551.943 88.339)" fill="#5b9ab2"/>
          </g>
        </g>
      </g>
      <g id="Group_2879" data-name="Group 2879" transform="translate(3.739 15.818)">
        <path id="Path_1009" data-name="Path 1009" d="M1545.557-60.752a1.5,1.5,0,0,1,2.045-.543l.583.339a1.483,1.483,0,0,1,.667.834,1.491,1.491,0,0,0-.736-1.415l-.583-.339a1.5,1.5,0,0,0-2.045.543l-7.7,13.269a1.486,1.486,0,0,0-.123,1.212,1.471,1.471,0,0,1,.193-.63Z" transform="translate(-1537.592 62.079)" fill="#3b7e93"/>
      </g>
      <g id="Group_2882" data-name="Group 2882" transform="translate(11.864 4.034)">
        <g id="Group_2881" data-name="Group 2881">
          <g id="Group_2880" data-name="Group 2880">
            <path id="Path_1010" data-name="Path 1010" d="M1555.766-73.693a6.923,6.923,0,0,1-2.656-9.2c-.079.119-.157.24-.229.365a6.93,6.93,0,0,0,2.517,9.471,6.929,6.929,0,0,0,9.471-2.517c.073-.126.139-.253.2-.381A6.923,6.923,0,0,1,1555.766-73.693Z" transform="translate(-1551.943 82.894)" fill="#3b7e93"/>
          </g>
        </g>
      </g>
      <g id="Group_2884" data-name="Group 2884" transform="translate(1.99 34.732)">
        <g id="Group_2883" data-name="Group 2883">
          <path id="Path_1011" data-name="Path 1011" d="M1535.751-28.247a.755.755,0,0,1,.289.324.767.767,0,0,0-.374-.641.779.779,0,0,0-1.065.283.767.767,0,0,0-.006.742.758.758,0,0,1,.09-.425A.78.78,0,0,1,1535.751-28.247Z" transform="translate(-1534.502 28.669)" fill="#3b7e93"/>
        </g>
      </g>
    </g>
  </g>
</svg>
