<svg xmlns="http://www.w3.org/2000/svg" width="30.122" height="38.001" viewBox="0 0 30.122 38.001">
  <g id="Group_3062" data-name="Group 3062" transform="translate(-126.963 -216.944)" opacity="0.8">
    <g id="그룹_2892" data-name="그룹 2892">
      <path id="패스_1026" data-name="패스 1026" d="M136.886,234.545h1.945l3.183,4.422,3.314-4.422h1.859v10.516h-1.96v-7.376L142,242.035l-3.155-4.279v7.3h-1.959Z" fill="#74b2d1"/>
    </g>
    <path id="Path_1142" data-name="Path 1142" d="M140.543,227.908a12.08,12.08,0,1,0,2.962,0l-1.481,1.481Z" fill="none"/>
    <path id="패스_1027" data-name="패스 1027" d="M152.68,224.567" fill="#cecece"/>
    <path id="패스_1015" data-name="패스 1015" d="M135.768,220.059h4.171l-2.085-3.115Z" fill="#cfeaef"/>
    <path id="패스_1016" data-name="패스 1016" d="M139.939,220.059h2.085v-3.115Z" fill="#6a9fa5"/>
    <path id="패스_1017" data-name="패스 1017" d="M144.11,220.059h-2.086v-3.115Z" fill="#5a878a"/>
    <path id="패스_1018" data-name="패스 1018" d="M146.2,216.944h-4.171l2.086,3.115Z" fill="#539da7"/>
    <path id="패스_1019" data-name="패스 1019" d="M142.025,216.944h-4.171l2.085,3.115Z" fill="#539da7"/>
    <path id="Path_1143" data-name="Path 1143" d="M140.543,227.908a10.962,10.962,0,1,0,1.481-.1A12.071,12.071,0,0,0,140.543,227.908Z" fill="none"/>
    <path id="Path_1144" data-name="Path 1144" d="M146.034,225.38l-.663.663c.082.022.166.038.248.061a13.446,13.446,0,0,1,9.87,12.954c0,.15-.017.3-.023.445a13.441,13.441,0,0,0-9.847-12.41c-.346-.1-.7-.174-1.054-.244l-1.06,1.06a12.07,12.07,0,1,1-2.962,0l-1.056-1.055c-.348.069-.693.146-1.032.24a13.441,13.441,0,0,0-9.848,12.416c0-.151-.023-.3-.023-.45a13.447,13.447,0,0,1,9.871-12.955c.075-.021.152-.036.228-.056l-.669-.668a15.061,15.061,0,1,0,8.02,0Z" fill="#b7b7b7"/>
    <path id="Path_1145" data-name="Path 1145" d="M142.037,225.606a13.382,13.382,0,0,1,3.334.437l.663-.663a14.713,14.713,0,0,0-8.02,0l.669.668A13.345,13.345,0,0,1,142.037,225.606Z" fill="#9f9f9f"/>
    <path id="Path_1146" data-name="Path 1146" d="M139.487,226.853l1.056,1.055a10.962,10.962,0,0,1,2.962,0l1.06-1.06a12.719,12.719,0,0,0-5.078,0Z" fill="#9f9f9f"/>
    <path id="Path_1147" data-name="Path 1147" d="M145.619,227.093a13.441,13.441,0,0,1,9.847,12.41c.006-.149.023-.3.023-.445a13.446,13.446,0,0,0-9.87-12.954c-.082-.023-.166-.039-.248-.061l-.806.806C144.921,226.919,145.273,227,145.619,227.093Z" fill="#fff"/>
    <path id="Path_1148" data-name="Path 1148" d="M138.455,226.1a13.447,13.447,0,0,0-9.871,12.955c0,.152.018.3.023.45a13.441,13.441,0,0,1,9.848-12.416c.339-.094.684-.171,1.032-.24l-.8-.8C138.607,226.068,138.53,226.083,138.455,226.1Z" fill="#fff"/>
    <path id="Path_1149" data-name="Path 1149" d="M138.683,226.048l.8.8a12.719,12.719,0,0,1,5.078,0l.806-.806a12.942,12.942,0,0,0-6.688.005Z" fill="#aaa"/>
    <path id="패스_1020" data-name="패스 1020" d="M144.11,220.059h4.171l-2.085-3.115Z" fill="#c0d9d8"/>
    <path id="패스_1021" data-name="패스 1021" d="M135.768,220.059h4.171l2.086,6.253Z" fill="#77afb9"/>
    <path id="패스_1022" data-name="패스 1022" d="M148.282,220.059h-4.171l-2.086,6.253Z" fill="#77afb9"/>
    <g id="그룹_2889" data-name="그룹 2889">
      <path id="패스_1023" data-name="패스 1023" d="M139.939,220.059h2.085v6.253Z" fill="#456c6c"/>
      <path id="패스_1024" data-name="패스 1024" d="M144.11,220.059h-2.086v6.253Z" fill="#2d4848"/>
    </g>
    <g id="Group_3059" data-name="Group 3059">
      <path id="Path_1150" data-name="Path 1150" d="M138.9,220.063l1.563,1.99,1.564-1.99Z" fill="#fff"/>
      <path id="Path_1151" data-name="Path 1151" d="M140.461,218.069l-1.564,1.99h3.127Z" fill="#fff"/>
    </g>
    <path id="패스_1025" data-name="패스 1025" d="M142.024,226.966l-4.491-4.491h8.982Z" fill="#cecece"/>
  </g>
</svg>
