<svg xmlns="http://www.w3.org/2000/svg" width="96" height="96" viewBox="0 0 96 96">
  <g id="img_icon_05" transform="translate(-552 -1284)">
    <g id="그룹_3344" data-name="그룹 3344" transform="translate(-315.833 1756)">
      <rect id="사각형_1865" data-name="사각형 1865" width="96" height="96" transform="translate(867.833 -472)" fill="none"/>
    </g>
    <g id="그룹_3387" data-name="그룹 3387" transform="translate(-614.344 768.355)">
      <path id="패스_1735" data-name="패스 1735" d="M1226.007,563.142l-7.27-6.85h-8.42l-7.27,6.85c-4.362,4.11-7.332,6.625-7.332,11.417h0a8.955,8.955,0,0,0,9.209,8.677h19.206a8.955,8.955,0,0,0,9.209-8.677h0C1233.339,569.767,1230.369,567.252,1226.007,563.142Z" fill="#f4cc5d" stroke="#000" stroke-miterlimit="10" stroke-width="2"/>
      <path id="패스_1736" data-name="패스 1736" d="M1218.557,552.25l4.916-6.88s-1.808-1.877-9.036-1.877-9.036,1.877-9.036,1.877l4.916,6.88" fill="#f4cc5d" stroke="#000" stroke-miterlimit="10" stroke-width="2"/>
      <rect id="사각형_2052" data-name="사각형 2052" width="8.239" height="4.074" transform="translate(1210.317 552.217)" stroke-width="2" stroke="#000" stroke-linecap="round" stroke-linejoin="round" fill="#fff"/>
      <g id="그룹_3385" data-name="그룹 3385">
        <path id="패스_1737" data-name="패스 1737" d="M1218.69,600.33l-3.682-3.681,3.682-3.682v7.363Z" stroke="#000" stroke-linecap="round" stroke-linejoin="round" stroke-width="2"/>
        <path id="패스_1738" data-name="패스 1738" d="M1236.449,537.65a33.1,33.1,0,0,1,13.862,26.631,32.507,32.507,0,0,1-32.507,32.507" fill="none" stroke="#000" stroke-linecap="round" stroke-linejoin="round" stroke-width="2"/>
      </g>
      <g id="그룹_3386" data-name="그룹 3386">
        <path id="패스_1739" data-name="패스 1739" d="M1209.965,526.645l3.682,3.681-3.682,3.682v-7.363Z" stroke="#000" stroke-linecap="round" stroke-linejoin="round" stroke-width="2"/>
        <path id="패스_1740" data-name="패스 1740" d="M1192.206,589.325a33.1,33.1,0,0,1-13.862-26.631,32.506,32.506,0,0,1,32.507-32.506" fill="none" stroke="#000" stroke-linecap="round" stroke-linejoin="round" stroke-width="2"/>
      </g>
    </g>
  </g>
</svg>
