<svg xmlns="http://www.w3.org/2000/svg" width="83.006" height="83.003" viewBox="0 0 83.006 83.003">
  <g id="icon" transform="translate(-755.497 -1137.935)">
    <path id="패스_455" data-name="패스 455" d="M495.983,359.058a72.634,72.634,0,0,0,15.232,11.667l5.479-6.008a7.413,7.413,0,0,1,5.62-2.432c3.756.06,9.879.5,14.714,2.432a9.3,9.3,0,0,1,5.751,8.794l-.2,12.9a5.952,5.952,0,0,1-5.866,5.839,72.21,72.21,0,0,1-52.722-21.2" transform="translate(294.222 827.171)" fill="none" stroke="#000" stroke-linecap="round" stroke-linejoin="round" stroke-width="3"/>
    <path id="패스_456" data-name="패스 456" d="M513.314,397.274a72.608,72.608,0,0,1-11.667-15.232l6.008-5.479a7.422,7.422,0,0,0,2.431-5.621c-.06-3.756-.5-9.879-2.431-14.714a9.3,9.3,0,0,0-8.794-5.752l-12.9.2a5.961,5.961,0,0,0-5.844,5.867,72.241,72.241,0,0,0,21.207,52.724" transform="translate(276.897 788.961)" fill="none" stroke="#000" stroke-linecap="round" stroke-linejoin="round" stroke-width="3"/>
    <path id="패스_871" data-name="패스 871" d="M799.433,1172.824l17.1-16.86" transform="translate(8 -6)" fill="none" stroke="#2189ff" stroke-linecap="round" stroke-width="3"/>
    <path id="패스_872" data-name="패스 872" d="M807.61,1154.6H819.5v13.168" transform="translate(7 -7)" fill="none" stroke="#2189ff" stroke-linecap="round" stroke-width="3"/>
  </g>
</svg>
