<svg xmlns="http://www.w3.org/2000/svg" width="33" height="33" viewBox="0 0 33 33">
  <g id="icon2" transform="translate(-4253.388 -1170)">
    <rect id="Container" width="33" height="33" transform="translate(4253.388 1170)" fill="none"/>
    <g id="사각형_2277" data-name="사각형 2277" transform="translate(4259.388 1176)" fill="#f3f3f3" stroke="#000" stroke-width="1.8">
      <path d="M4,0H21a4,4,0,0,1,4,4V19a6,6,0,0,1-6,6H4a4,4,0,0,1-4-4V4A4,4,0,0,1,4,0Z" stroke="none"/>
      <path d="M4,.9H21A3.1,3.1,0,0,1,24.1,4V19A5.1,5.1,0,0,1,19,24.1H4A3.1,3.1,0,0,1,.9,21V4A3.1,3.1,0,0,1,4,.9Z" fill="none"/>
    </g>
    <rect id="사각형_2278" data-name="사각형 2278" width="26" height="26" rx="4" transform="translate(4255.388 1172)" fill="#f3f3f3"/>
    <g id="사각형_2270" data-name="사각형 2270" transform="translate(4255.388 1172)" fill="#f3f3f3" stroke="#000" stroke-width="1.8">
      <rect width="25" height="25" rx="4" stroke="none"/>
      <rect x="0.9" y="0.9" width="23.2" height="23.2" rx="3.1" fill="none"/>
    </g>
    <path id="패스_586" data-name="패스 586" d="M498.545,422.492v-2.567a1.65,1.65,0,0,0-1.648-1.647h-4.341a1.649,1.649,0,0,0-1.648,1.647v2.567a5.8,5.8,0,0,0,0,8.777v2.574a1.65,1.65,0,0,0,1.648,1.648H496.9a1.65,1.65,0,0,0,1.648-1.648v-2.574a5.8,5.8,0,0,0,0-8.777Zm-5.989-2.536,4.311-.031v1.543a5.759,5.759,0,0,0-4.308.01Zm4.311,13.857-4.281.03,0-1.552a5.76,5.76,0,0,0,4.284,0Zm1.678-5.316a4.174,4.174,0,0,1-1.678,1.929,4.108,4.108,0,0,1-4.288-.005,4.134,4.134,0,0,1-.016-7.072,4.107,4.107,0,0,1,4.3-.014,4.175,4.175,0,0,1,1.678,1.929,4.144,4.144,0,0,1,0,3.233Z" transform="translate(3772.487 757.722)" fill="#1a1311"/>
    <g id="_" data-name="+" transform="translate(-28.787 5.213)">
      <circle id="타원_132" data-name="타원 132" cx="8.5" cy="8.5" r="8.5" transform="translate(4298.174 1180.787)" fill="#f3f3f3"/>
      <circle id="타원_128" data-name="타원 128" cx="6.5" cy="6.5" r="6.5" transform="translate(4300.174 1182.787)" fill="#f3f3f3"/>
      <path id="패스_602" data-name="패스 602" d="M44.87,17.535a7.644,7.644,0,0,0-5.436,2.246,7.464,7.464,0,0,0-2.247,5.436A7.67,7.67,0,0,0,44.825,32.9a7.756,7.756,0,0,0,7.728-7.728,7.67,7.67,0,0,0-7.683-7.638m0,13.434a5.751,5.751,0,0,1-.045-11.5h0a5.712,5.712,0,0,1,4.088,1.707,5.537,5.537,0,0,1,1.708,4.043,5.762,5.762,0,0,1-5.751,5.751" transform="translate(4261.661 1163.925)" fill="#1a1311"/>
      <path id="패스_603" data-name="패스 603" d="M49.525,26.13h-1.9V24.263a.971.971,0,1,0-1.942,0V26.13h-1.9a.987.987,0,0,0,0,1.975h1.9v1.867a.971.971,0,1,0,1.942,0V28.105h1.9a.987.987,0,0,0,0-1.975" transform="translate(4259.876 1162.026)" fill="#1a1311"/>
    </g>
  </g>
</svg>
