<svg xmlns="http://www.w3.org/2000/svg" width="142" height="22.004" viewBox="0 0 142 22.004">
  <path id="합치기_1" data-name="합치기 1" d="M21.5,19.789V18.205h5.446v1.989a1.823,1.823,0,0,0,1.776,1.872,1.7,1.7,0,0,0,.268-.013,1.762,1.762,0,0,0,1.978-1.377,2.761,2.761,0,0,0-.041-1.522c-1.048-2.657-8.259-3.871-9.136-8.068a7.142,7.142,0,0,1-.05-2.772c.54-3.35,3.489-4.56,7.1-4.56,2.873,0,6.843.7,6.843,5.174v1.446H30.614V9.1a1.738,1.738,0,0,0-1.6-1.864,1.877,1.877,0,0,0-.283,0A1.681,1.681,0,0,0,26.876,8.62,2.626,2.626,0,0,0,26.9,9.7c.571,2.4,8.273,3.688,9.129,7.995a10.141,10.141,0,0,1,.021,3.365c-.484,3.428-3.5,4.7-7.175,4.7C25.066,25.754,21.5,24.372,21.5,19.789Zm66.073-.047V18.173H92.96v1.971a1.8,1.8,0,0,0,2.019,1.842,1.74,1.74,0,0,0,1.958-1.365,2.705,2.705,0,0,0-.041-1.507c-1.035-2.633-8.175-3.835-9.044-7.99A7.072,7.072,0,0,1,87.8,8.382c.534-3.32,3.453-4.514,7.023-4.514,2.847,0,6.778.69,6.778,5.119v1.433H96.6V9.166a1.72,1.72,0,0,0-1.585-1.849,1.742,1.742,0,0,0-.285,0A1.662,1.662,0,0,0,92.9,8.689a2.588,2.588,0,0,0,.018,1.065c.567,2.383,8.191,3.651,9.038,7.914A10.013,10.013,0,0,1,101.978,21c-.477,3.4-3.466,4.652-7.1,4.652-3.779,0-7.306-1.372-7.306-5.907Zm19.288.745c-.017-.2-.057-.974-.047-1.352V4.406h5.133v15.2a3.89,3.89,0,0,0,.05.781,2.017,2.017,0,0,0,3.892,0,4.228,4.228,0,0,0,.047-.781V4.406h5.135V19.137c.007.378-.033,1.147-.05,1.352-.355,3.831-3.348,5.077-7.08,5.077s-6.725-1.245-7.08-5.077Zm42.295-.213a12.994,12.994,0,0,1-.074-1.352V10.277c0-.365.045-1.007.088-1.352.453-3.841,3.522-5.071,7.123-5.071s6.749,1.224,7.124,5.075a13.419,13.419,0,0,1,.045,1.352v.684h-5.119V9.812a4.545,4.545,0,0,0-.064-.785,1.856,1.856,0,0,0-2.026-1.49,1.883,1.883,0,0,0-2.022,1.49,4.989,4.989,0,0,0-.082.974v9.39a4.61,4.61,0,0,0,.05.78,2.185,2.185,0,0,0,4.145,0,4.468,4.468,0,0,0,.051-.78V16.41h-2.083v-3H163.5v5.507a13.44,13.44,0,0,1-.072,1.352c-.337,3.74-3.537,5.074-7.135,5.074s-6.8-1.329-7.138-5.069Zm-71.618,4.68L77.41,6.486H77.3L73.909,24.955H68.758L65.369,6.486h-.114l-.128,18.469H60.049L60.5,4.409h8.277l2.5,15.709h.114l2.5-15.709h8.276l.45,20.546Zm-26.993,0L47.84,6.314h-.112l-2.772,18.64H39.467l3.76-20.546h9.031L56,24.955Zm86.014-.213-5.01-16.681h-.111l.28,16.681h-4.993V4.409h7.536l4.662,16.127h.115l-.278-16.127h5.027V24.742Z" transform="translate(-21.5 -3.754)"/>
</svg>
