<svg xmlns="http://www.w3.org/2000/svg" width="103.252" height="16" viewBox="0 0 103.252 16">
    <path d="M0 11.659v-1.151h3.96v1.447a1.325 1.325 0 0 0 1.292 1.361 1.235 1.235 0 0 0 .2-.009 1.281 1.281 0 0 0 1.438-1 2.008 2.008 0 0 0-.03-1.107C6.098 9.268.855 8.385.217 5.333a5.193 5.193 0 0 1-.036-2.015C.573.882 2.718.003 5.341.003c2.089 0 4.976.509 4.976 3.763v1.048h-3.69v-.923a1.264 1.264 0 0 0-1.164-1.356 1.365 1.365 0 0 0-.205 0 1.222 1.222 0 0 0-1.348 1 1.909 1.909 0 0 0 .018.784C4.343 6.064 9.943 7 10.566 10.132a7.374 7.374 0 0 1 .015 2.447c-.352 2.493-2.545 3.418-5.217 3.418C2.593 15.997 0 14.992 0 11.659zm48.043-.034v-1.141h3.917v1.433a1.308 1.308 0 0 0 1.468 1.339 1.265 1.265 0 0 0 1.424-.992 1.967 1.967 0 0 0-.03-1.1c-.753-1.914-5.944-2.789-6.576-5.81a5.142 5.142 0 0 1-.035-1.994C48.6.946 50.723.083 53.319.083c2.07 0 4.928.5 4.928 3.722v1.041h-3.64v-.911a1.251 1.251 0 0 0-1.152-1.344 1.266 1.266 0 0 0-.208 0 1.209 1.209 0 0 0-1.33 1 1.882 1.882 0 0 0 .013.774c.412 1.733 5.956 2.655 6.572 5.754a7.281 7.281 0 0 1 .015 2.422c-.347 2.472-2.52 3.383-5.163 3.383-2.748 0-5.312-1-5.312-4.3zm14.025.542c-.012-.146-.041-.708-.034-.983V.474h3.733v11.052a2.829 2.829 0 0 0 .036.568 1.466 1.466 0 0 0 2.83 0 3.073 3.073 0 0 0 .034-.568V.474H72.4v10.711c.005.275-.024.834-.036.983-.258 2.786-2.435 3.691-5.148 3.691s-4.89-.906-5.148-3.691zm30.754-.155a9.468 9.468 0 0 1-.054-.983V4.746c0-.265.033-.732.064-.983C93.161.97 95.393.076 98.011.076s4.908.89 5.18 3.69a9.772 9.772 0 0 1 .033.983v.497H99.5v-.841a3.311 3.311 0 0 0-.046-.571 1.349 1.349 0 0 0-1.472-1.088 1.369 1.369 0 0 0-1.47 1.083 3.626 3.626 0 0 0-.06.708v6.828a3.352 3.352 0 0 0 .036.567 1.589 1.589 0 0 0 3.014 0 3.249 3.249 0 0 0 .037-.567V9.203h-1.515V7.022h5.228v4a9.763 9.763 0 0 1-.053.983c-.245 2.72-2.572 3.689-5.188 3.689s-4.945-.966-5.19-3.686zm-52.075 3.4l-.093-13.425h-.08l-2.466 13.429h-3.746L31.9 1.987h-.083l-.094 13.429H28.03l.328-14.94h6.019l1.817 11.423h.083L38.094.476h6.018l.327 14.94zm-19.627 0l-1.968-13.55h-.082l-2.015 13.554h-3.99L15.8.476h6.567l2.721 14.94zm62.543-.155L80.02 3.132h-.081l.2 12.129h-3.63V.476h5.48l3.39 11.726h.084l-.2-11.726h3.655v14.785z" data-name="합치기 1"/>
</svg>
