<svg xmlns="http://www.w3.org/2000/svg" width="100" height="15.496" viewBox="0 0 100 15.496">
  <path id="합치기_1" data-name="합치기 1" d="M21.5,15.046V13.931h3.835v1.4a1.284,1.284,0,0,0,1.251,1.318,1.2,1.2,0,0,0,.189-.009,1.241,1.241,0,0,0,1.393-.97,1.944,1.944,0,0,0-.029-1.072c-.738-1.871-5.816-2.726-6.434-5.682a5.029,5.029,0,0,1-.035-1.952c.38-2.359,2.457-3.211,5-3.211,2.023,0,4.819.493,4.819,3.644V8.416H27.918V7.522a1.224,1.224,0,0,0-1.127-1.313,1.322,1.322,0,0,0-.2,0,1.184,1.184,0,0,0-1.306.971,1.849,1.849,0,0,0,.017.759c.4,1.69,5.826,2.6,6.429,5.63a7.142,7.142,0,0,1,.015,2.37c-.341,2.414-2.465,3.31-5.053,3.31C24.011,19.247,21.5,18.274,21.5,15.046Zm46.53-.033v-1.1h3.794V15.3a1.267,1.267,0,0,0,1.422,1.3,1.226,1.226,0,0,0,1.379-.961,1.905,1.905,0,0,0-.029-1.061c-.729-1.854-5.757-2.7-6.369-5.627a4.98,4.98,0,0,1-.034-1.931c.376-2.338,2.432-3.179,4.946-3.179,2,0,4.773.486,4.773,3.605V8.448H74.387V7.565a1.212,1.212,0,0,0-1.116-1.3,1.226,1.226,0,0,0-.2,0,1.171,1.171,0,0,0-1.288.965,1.823,1.823,0,0,0,.013.75c.4,1.678,5.768,2.571,6.365,5.573a7.052,7.052,0,0,1,.015,2.346c-.336,2.394-2.441,3.276-5,3.276-2.661,0-5.145-.966-5.145-4.16Zm13.583.525c-.012-.141-.04-.686-.033-.952V4.213h3.615v10.7a2.739,2.739,0,0,0,.035.55,1.42,1.42,0,0,0,2.741,0,2.977,2.977,0,0,0,.033-.55V4.213H91.62V14.587c0,.266-.023.808-.035.952-.25,2.7-2.358,3.575-4.986,3.575s-4.736-.877-4.986-3.575Zm29.785-.15a9.17,9.17,0,0,1-.052-.952V8.348c0-.257.032-.709.062-.952.319-2.7,2.48-3.571,5.016-3.571s4.753.862,5.017,3.574a9.463,9.463,0,0,1,.032.952v.482h-3.605V8.02a3.206,3.206,0,0,0-.045-.553A1.307,1.307,0,0,0,116.4,6.418a1.326,1.326,0,0,0-1.424,1.049,3.512,3.512,0,0,0-.058.686v6.613a3.247,3.247,0,0,0,.035.549,1.539,1.539,0,0,0,2.919,0,3.146,3.146,0,0,0,.036-.549v-2.1h-1.467V10.555H121.5v3.878a9.454,9.454,0,0,1-.051.952c-.237,2.634-2.491,3.573-5.025,3.573s-4.789-.936-5.027-3.57Zm-50.435,3.3-.09-13.006H60.8L58.408,18.684H54.78L52.394,5.678h-.08l-.09,13.006H48.647l.318-14.469h5.829l1.76,11.063h.08l1.76-11.063h5.828l.317,14.469Zm-19.009,0-1.9-13.127H39.97L38.018,18.684H34.153L36.8,4.215h6.36L45.8,18.684Zm60.573-.15L99,6.787h-.078l.2,11.747H95.6V4.215h5.307l3.283,11.357h.081l-.2-11.357h3.54V18.534Z" transform="translate(-21.5 -3.754)" fill="#fff"/>
</svg>
