<svg xmlns="http://www.w3.org/2000/svg" xmlns:xlink="http://www.w3.org/1999/xlink" width="240" height="90" viewBox="0 0 240 90">
  <defs>
    <clipPath id="clip-path">
      <rect id="사각형_1942" data-name="사각형 1942" width="240" height="90" rx="10" fill="#f3f5f7" stroke="#000" stroke-width="2"/>
    </clipPath>
    <clipPath id="clip-path-2">
      <path id="패스_1606" data-name="패스 1606" d="M14-639a9,9,0,0,1,9,9,9,9,0,0,1-9,9,9,9,0,0,1-9-9A9,9,0,0,1,14-639Zm4.532,4.615-6.3,6.231L9.252-631.1l-1.175,1.161,4.154,4.107,7.476-7.393Z" transform="translate(-5 639)" fill="#fff" clip-rule="evenodd"/>
    </clipPath>
    <clipPath id="clip-path-3">
      <path id="패스_1605" data-name="패스 1605" d="M3-619.4H24.6V-641H3Z" transform="translate(-3 641)" fill="#fff"/>
    </clipPath>
  </defs>
  <g id="samsung-pay" transform="translate(-500 -2354)">
    <g id="그룹_1353" data-name="그룹 1353" transform="translate(530 2362.456)">
      <path id="패스_624" data-name="패스 624" d="M-951.818,392.169a14.894,14.894,0,0,0-10.565-4.376h-69.979l42.46,42.46Z" transform="translate(1059.152 -380.766)" fill="#edeff1" style="isolation: isolate"/>
      <path id="패스_625" data-name="패스 625" d="M-828.793,484.942V414.963a14.894,14.894,0,0,0-4.376-10.565l-38.084,38.084Z" transform="translate(940.503 -404.398)" fill="#e7e9eb" style="isolation: isolate"/>
      <path id="패스_626" data-name="패스 626" d="M-1375.451,387.793h-36.995c-3.513,0-6.36,3.721-6.36,8.311v49.867c0,4.59,2.848,8.311,6.36,8.311h22.261l32.808-42.871Z" transform="translate(1426.627 -380.766)" fill="#f3f5f7" style="isolation: isolate"/>
      <path id="패스_627" data-name="패스 627" d="M-1086.617,548.9l-77.071,77.071h104.59a14.941,14.941,0,0,0,14.941-14.941v-19.67Z" transform="translate(1163.688 -547.165)" fill="#edeff1" style="isolation: isolate"/>
    </g>
    <g id="마스크_그룹_200" data-name="마스크 그룹 200" transform="translate(500 2354)" clip-path="url(#clip-path)">
      <rect id="사각형_1201" data-name="사각형 1201" width="240" height="90" rx="8" fill="#f3f5f7"/>
      <g id="그룹_3405" data-name="그룹 3405" transform="translate(151.162 0)" opacity="0.6">
        <path id="패스_624-2" data-name="패스 624" d="M-971.717,391.088a11.214,11.214,0,0,0-7.955-3.3h-52.69l31.97,31.97Z" transform="translate(1058.422 -387.793)" opacity="0.05" style="mix-blend-mode: darken;isolation: isolate"/>
        <path id="패스_625-2" data-name="패스 625" d="M-839.283,465.043v-52.69a11.214,11.214,0,0,0-3.3-7.955l-28.675,28.675Z" transform="translate(929.283 -401.103)" opacity="0.1" style="isolation: isolate"/>
        <path id="패스_627-2" data-name="패스 627" d="M-1105.658,548.9l-58.03,58.03h78.75a11.25,11.25,0,0,0,11.25-11.25v-14.81Z" transform="translate(1163.688 -516.931)" opacity="0.05" style="mix-blend-mode: darken;isolation: isolate"/>
      </g>
    </g>
    <g id="그룹_3173" data-name="그룹 3173" transform="translate(712 2364)" clip-path="url(#clip-path-2)">
      <g id="그룹_3172" data-name="그룹 3172" transform="translate(-1.8 -1.8)" clip-path="url(#clip-path-3)">
        <path id="패스_1604" data-name="패스 1604" d="M0-644H27v27H0Z" transform="translate(-2.7 641.3)" fill="#fff"/>
      </g>
    </g>
    <g id="그룹_3404" data-name="그룹 3404" transform="translate(540 2390.492)">
      <g id="그룹_3402" data-name="그룹 3402" transform="translate(105.401)">
        <path id="패스_1786" data-name="패스 1786" d="M270.8,297.62V275.878h3.618v1.6a4.386,4.386,0,0,1,2.232-1.584,7.778,7.778,0,0,1,2.368-.37,8.26,8.26,0,0,1,7.689,11.426,7.77,7.77,0,0,1-1.735,2.644,8.078,8.078,0,0,1-2.674,1.814,7.693,7.693,0,0,1-3.116.612,7.858,7.858,0,0,1-2.53-.4,4.55,4.55,0,0,1-2.294-1.532v7.535H270.8m8.1-19.011a4.627,4.627,0,0,0-3.412,1.332,5.256,5.256,0,0,0-1.34,3.754,5.54,5.54,0,0,0,1.3,3.893,4.548,4.548,0,0,0,3.475,1.318,4.671,4.671,0,0,0,3.349-1.377,5.051,5.051,0,0,0,1.439-3.673,5.44,5.44,0,0,0-1.413-3.876,4.658,4.658,0,0,0-3.4-1.372" transform="translate(-270.803 -275.522)"/>
        <path id="패스_1787" data-name="패스 1787" d="M300.9,297.509l3.053-6.852-7-14.878h3.812l4.977,11.17,4.59-11.17h3.834l-9.52,21.731H300.9" transform="translate(-259.561 -275.412)"/>
        <path id="패스_1788" data-name="패스 1788" d="M296.838,292.257v-1.7a4.54,4.54,0,0,1-2.289,1.582,7.683,7.683,0,0,1-2.531.415,7.514,7.514,0,0,1-3.12-.632,8.05,8.05,0,0,1-2.668-1.873,7.933,7.933,0,0,1-1.736-2.728,8.583,8.583,0,0,1-.638-3.229A8.489,8.489,0,0,1,286.307,278a8,8,0,0,1,5.877-2.478,7.482,7.482,0,0,1,2.364.385,4.376,4.376,0,0,1,2.238,1.633v-1.65H300.4v16.368h-3.561m-7.945-12.131a5.722,5.722,0,0,0-1.409,4,5.308,5.308,0,0,0,1.439,3.792,4.593,4.593,0,0,0,3.348,1.421,4.446,4.446,0,0,0,3.469-1.361,5.8,5.8,0,0,0,1.3-4.02,5.544,5.544,0,0,0-1.333-3.877,4.536,4.536,0,0,0-3.413-1.376,4.591,4.591,0,0,0-3.4,1.417" transform="translate(-265.191 -275.522)"/>
      </g>
      <g id="그룹_3403" data-name="그룹 3403" transform="translate(0 2.168)">
        <path id="패스_1789" data-name="패스 1789" d="M257.828,288.25l-.185-10.9h3.441V291.1h-4.947l-3.426-11.292h-.089l.2,11.292h-3.411V277.349h5.15l3.2,10.9h.075" transform="translate(-177.394 -276.904)"/>
        <path id="패스_1790" data-name="패스 1790" d="M213.292,278.629l-1.9,12.6h-3.75l2.571-13.881H216.4l2.567,13.881h-3.739l-1.854-12.6h-.083" transform="translate(-195.352 -276.904)"/>
        <path id="패스_1791" data-name="패스 1791" d="M225.252,287.968l1.718-10.619h5.659l.311,13.88h-3.477l-.1-12.482H229.3l-2.323,12.482H223.46l-2.331-12.482h-.078l-.086,12.482h-3.473l.316-13.88h5.664l1.709,10.619h.07" transform="translate(-191.117 -276.904)"/>
        <path id="패스_1792" data-name="패스 1792" d="M244.748,289.148a1.249,1.249,0,0,0,1.337-1,3.124,3.124,0,0,0,.029-.532v-10.27h3.526V287.3c0,.259-.029.778-.039.917-.239,2.594-2.3,3.428-4.853,3.428s-4.6-.834-4.836-3.428c-.017-.139-.043-.658-.034-.917v-9.953h3.513v10.27a2.632,2.632,0,0,0,.029.532,1.246,1.246,0,0,0,1.328,1" transform="translate(-181.492 -276.904)"/>
        <path id="패스_1793" data-name="패스 1793" d="M205.5,287.445a1.863,1.863,0,0,1,.027,1.028,1.2,1.2,0,0,1-1.36.938,1.236,1.236,0,0,1-1.386-1.261l-.011-1.347h-3.718v1.071c0,3.1,2.431,4.031,5.036,4.031,2.524,0,4.589-.854,4.913-3.167a6.86,6.86,0,0,0-.009-2.282c-.585-2.914-5.859-3.768-6.252-5.4a1.685,1.685,0,0,1-.017-.728,1.146,1.146,0,0,1,1.268-.938,1.188,1.188,0,0,1,1.3,1.251v.869h3.466v-.974c0-3.029-2.721-3.5-4.692-3.5-2.464,0-4.484.821-4.852,3.089a5.061,5.061,0,0,0,.027,1.863c.608,2.846,5.543,3.661,6.26,5.455" transform="translate(-199.048 -277.038)"/>
        <path id="패스_1794" data-name="패스 1794" d="M237.051,287.405a1.838,1.838,0,0,1,.027,1.014,1.184,1.184,0,0,1-1.337.918,1.227,1.227,0,0,1-1.383-1.247v-1.336h-3.691v1.068c0,3.073,2.414,3.985,5,3.985,2.477,0,4.524-.844,4.853-3.139a6.668,6.668,0,0,0-.019-2.264c-.579-2.873-5.8-3.724-6.18-5.344a1.86,1.86,0,0,1-.016-.712,1.129,1.129,0,0,1,1.256-.921,1.167,1.167,0,0,1,1.283,1.231v.857h3.425v-.964c0-2.992-2.69-3.461-4.629-3.461-2.448,0-4.452.8-4.806,3.053a4.379,4.379,0,0,0,.026,1.85c.6,2.817,5.481,3.624,6.189,5.41" transform="translate(-185.452 -277.015)"/>
        <path id="패스_1795" data-name="패스 1795" d="M265.019,289.121a1.3,1.3,0,0,0,1.419-1.005,3.926,3.926,0,0,0,.03-.531v-2.008h-1.419v-2.036h4.916v3.729c0,.26-.01.452-.05.918-.23,2.514-2.425,3.428-4.891,3.428s-4.64-.914-4.866-3.428a6.517,6.517,0,0,1-.054-.918v-5.84a7.449,7.449,0,0,1,.064-.912c.3-2.61,2.4-3.433,4.856-3.433s4.632.815,4.879,3.433a6.183,6.183,0,0,1,.026.912l.009.452h-3.5v-.775a2.881,2.881,0,0,0-.049-.532,1.269,1.269,0,0,0-1.391-1,1.294,1.294,0,0,0-1.379,1,3.193,3.193,0,0,0-.051.661v6.349a5.2,5.2,0,0,0,.026.531,1.3,1.3,0,0,0,1.426,1.005" transform="translate(-172.795 -277.018)"/>
      </g>
    </g>
  </g>
</svg>
