<?xml version="1.0" encoding="UTF-8"?>
<svg width="56px" height="56px" viewBox="0 0 56 56" version="1.1" xmlns="http://www.w3.org/2000/svg" xmlns:xlink="http://www.w3.org/1999/xlink">
    <!-- Generator: Sketch 58 (84663) - https://sketch.com -->
    <title>Map / Pin / Experience / Focused</title>
    <desc>Created with Sketch.</desc>
    <g id="Map-/-Pin-/-Experience-/-Focused" stroke="none" stroke-width="1" fill="none" fill-rule="evenodd">
        <g id="Store-Dot">
            <rect id="Bounds" x="0" y="0" width="56" height="56"></rect>
            <ellipse id="Shadow" fill="#9E9E9E" cx="28" cy="52" rx="6" ry="2"></ellipse>
            <path d="M28,48.650851 C28.9522328,46.3330676 30.0660654,44.0197734 31.3413953,41.7109862 C32.3868259,39.818396 33.5623712,38.0813796 35.0200385,36.2002642 C35.8021153,35.1909962 38.6247408,31.7668697 39.2104237,31.0122252 C42.2079605,27.1499395 43.5,24.1458712 43.5,19.9722222 C43.5,11.3621279 36.602567,4.5 28,4.5 C19.397433,4.5 12.5,11.3621279 12.5,19.9722222 C12.5,24.1458712 13.7920395,27.1499395 16.7895763,31.0122252 C17.3752592,31.7668697 20.1978847,35.1909962 20.9799615,36.2002642 C22.4376288,38.0813796 23.6131741,39.818396 24.6586047,41.7109862 C25.9339346,44.0197734 27.0477672,46.3330676 28,48.650851 Z" id="Fills" stroke="#FFFFFF" fill="#1428A0"></path>
            <g id="_Icons-/-Map-/-Experience-Store" transform="translate(16.000000, 8.327637)" fill="#FFFFFF" fill-rule="nonzero">
                <path d="M11.8694955,3.2698444 L12.9305045,4.3301556 L6.25,11.0150567 L6.25,20 L4.75,20 L4.75,10.3940254 L11.8694955,3.2698444 Z M14.7306099,5.86994987 L19.25,10.3941127 L19.25,18 C19.25,18.9181734 18.5428897,19.6711923 17.6435272,19.7441988 L17.5,19.75 L8.5,19.75 L8.5,18.25 L17.5,18.25 C17.6183467,18.25 17.7174868,18.1677666 17.7433973,18.0573227 L17.75,18 L17.75,11.0149694 L13.6693901,6.93005013 L14.7306099,5.86994987 Z M12,9.6 L12.8228994,11.9673762 L15.3286978,12.0184405 L13.3314791,13.5326238 L14.0572484,15.9315595 L12,14.5 L9.94275162,15.9315595 L10.6685209,13.5326238 L8.67130219,12.0184405 L11.1771006,11.9673762 L12,9.6 Z" id="Shape"></path>
            </g>
        </g>
    </g>
</svg>