<svg xmlns="http://www.w3.org/2000/svg" width="200" height="145" viewBox="0 0 200 145">
  <g id="icon" transform="translate(-338 -783)">
    <rect id="Rectangle_1616" data-name="Rectangle 1616" width="200" height="145" transform="translate(338 783)" fill="none"/>
    <path id="Path_1527" data-name="Path 1527" d="M486.4,874.519H387.7l-42.6,42.6H535.107L495.95,877.963l-3.444-3.444H486.98" transform="translate(-2.102 -3.935)" fill="#ececec"/>
    <ellipse id="Ellipse_206" data-name="Ellipse 206" cx="35.5" cy="6.5" rx="35.5" ry="6.5" transform="translate(403 879.065)" fill="#d1d1d1"/>
    <path id="Path_1525" data-name="Path 1525" d="M1038.987-1231.006c0,19.327-32.935,57.637-34.993,57.637S969-1211.679,969-1231.006A34.993,34.993,0,0,1,1003.994-1266,34.993,34.993,0,0,1,1038.987-1231.006Z" transform="translate(-566 2058.935)" fill="#ff8f08"/>
    <path id="Path_1526" data-name="Path 1526" d="M986-1266a34.993,34.993,0,0,1,34.994,34.994c0,19.327-32.935,57.637-34.994,57.637" transform="translate(-548 2058.935)" fill="#ffb612"/>
    <ellipse id="Ellipse_205" data-name="Ellipse 205" cx="14.007" cy="14.007" rx="14.007" ry="14.007" transform="translate(424 814.257)" fill="#fff"/>
    <rect id="Rectangle_3513" data-name="Rectangle 3513" width="190" height="5" transform="translate(343 913.065)" fill="#e5e5e5"/>
    <g id="Group_6226" data-name="Group 6226" transform="translate(2 30.065)">
      <ellipse id="Ellipse_208" data-name="Ellipse 208" cx="14.5" cy="2.5" rx="14.5" ry="2.5" transform="translate(476 862)" fill="#d1d1d1"/>
      <path id="Path_1528" data-name="Path 1528" d="M991.786-1254.607c0,6.292-10.723,18.765-11.393,18.765S969-1248.314,969-1254.607A11.393,11.393,0,0,1,980.393-1266,11.393,11.393,0,0,1,991.786-1254.607Z" transform="translate(-489.901 2100.605)" fill="#5f81df"/>
      <path id="Path_1529" data-name="Path 1529" d="M986-1266a11.393,11.393,0,0,1,11.393,11.393c0,6.292-10.723,18.765-11.393,18.765" transform="translate(-495.505 2100.605)" fill="#9bb6ea"/>
      <ellipse id="Ellipse_207" data-name="Ellipse 207" cx="4.56" cy="4.56" rx="4.56" ry="4.56" transform="translate(485.937 841.547)" fill="#fff"/>
    </g>
    <g id="Group_6227" data-name="Group 6227" transform="translate(-109 30.065)">
      <ellipse id="Ellipse_208-2" data-name="Ellipse 208" cx="14.5" cy="2.5" rx="14.5" ry="2.5" transform="translate(476 862)" fill="#d1d1d1"/>
      <path id="Path_1528-2" data-name="Path 1528" d="M991.786-1254.607c0,6.292-10.723,18.765-11.393,18.765S969-1248.314,969-1254.607A11.393,11.393,0,0,1,980.393-1266,11.393,11.393,0,0,1,991.786-1254.607Z" transform="translate(-489.901 2100.605)" fill="#5f81df"/>
      <path id="Path_1529-2" data-name="Path 1529" d="M986-1266a11.393,11.393,0,0,1,11.393,11.393c0,6.292-10.723,18.765-11.393,18.765" transform="translate(-495.505 2100.605)" fill="#9bb6ea"/>
      <ellipse id="Ellipse_207-2" data-name="Ellipse 207" cx="4.56" cy="4.56" rx="4.56" ry="4.56" transform="translate(485.937 841.547)" fill="#fff"/>
    </g>
    <g id="Group_6228" data-name="Group 6228" transform="translate(-78 39.065)">
      <ellipse id="Ellipse_208-3" data-name="Ellipse 208" cx="14.5" cy="2.5" rx="14.5" ry="2.5" transform="translate(476 862)" fill="#d1d1d1"/>
      <path id="Path_1528-3" data-name="Path 1528" d="M991.786-1254.607c0,6.292-10.723,18.765-11.393,18.765S969-1248.314,969-1254.607A11.393,11.393,0,0,1,980.393-1266,11.393,11.393,0,0,1,991.786-1254.607Z" transform="translate(-489.901 2100.605)" fill="#5f81df"/>
      <path id="Path_1529-3" data-name="Path 1529" d="M986-1266a11.393,11.393,0,0,1,11.393,11.393c0,6.292-10.723,18.765-11.393,18.765" transform="translate(-495.505 2100.605)" fill="#9bb6ea"/>
      <ellipse id="Ellipse_207-3" data-name="Ellipse 207" cx="4.56" cy="4.56" rx="4.56" ry="4.56" transform="translate(485.937 841.547)" fill="#fff"/>
    </g>
  </g>
</svg>
