<svg xmlns="http://www.w3.org/2000/svg" width="200" height="145" viewBox="0 0 200 145">
  <g id="Group_2064" data-name="Group 2064" transform="translate(-1382 -783)">
    <g id="Group_1891" data-name="Group 1891" transform="translate(136.867 2159)">
      <path id="Rectangle_1393" data-name="Rectangle 1393" d="M0,0H142.48a0,0,0,0,1,0,0V3.153a6.375,6.375,0,0,1-6.375,6.375H6.375A6.375,6.375,0,0,1,0,3.153V0A0,0,0,0,1,0,0Z" transform="translate(1274.234 -1258.528)" fill="#737373"/>
      <path id="Rectangle_1394" data-name="Rectangle 1394" d="M10.389,0H110.871A10.389,10.389,0,0,1,121.26,10.389V72.756a0,0,0,0,1,0,0H0a0,0,0,0,1,0,0V10.389A10.389,10.389,0,0,1,10.389,0Z" transform="translate(1284.412 -1359)" fill="#cacaca"/>
      <path id="Path_674" data-name="Path 674" d="M1412.521-1242.953H1278.276a4.138,4.138,0,0,1-3.871-5.6L1284.412-1275h121.26l10.685,26.355A4.138,4.138,0,0,1,1412.521-1242.953Z" transform="translate(0 -11.244)" fill="#cacaca"/>
      <rect id="Rectangle_1395" data-name="Rectangle 1395" width="0.866" height="5.197" transform="translate(1279.215 -1254.197)" fill="#cacaca" opacity="0.35"/>
      <rect id="Rectangle_1396" data-name="Rectangle 1396" width="0.866" height="5.197" transform="translate(1410.868 -1254.197)" fill="#cacaca" opacity="0.35"/>
      <rect id="Rectangle_1397" data-name="Rectangle 1397" width="109.134" height="66.693" transform="translate(1290.475 -1352.937)" fill="#fff"/>
      <path id="Path_675" data-name="Path 675" d="M1405.8-1258.74H1288l4.331-11.26h109.134Z" transform="translate(-1.856 -11.913)" fill="#e4e4e4"/>
      <path id="Path_676" data-name="Path 676" d="M1382.228-1244.472H1319l3.031-9.528h56.3Z" transform="translate(-6.006 -14.055)" fill="#e4e4e4"/>
      <g id="Group_1889" data-name="Group 1889" transform="translate(1319.002 -1331.814)">
        <path id="Path_677" data-name="Path 677" d="M1325.936-1313.765a13.766,13.766,0,0,1,13.773-13.847,13.8,13.8,0,0,1,13.811,13.847,13.774,13.774,0,0,1-13.811,13.848A13.743,13.743,0,0,1,1325.936-1313.765Zm22.6,0a8.841,8.841,0,0,0-8.825-8.9,8.81,8.81,0,0,0-8.789,8.9,8.81,8.81,0,0,0,8.789,8.9A8.841,8.841,0,0,0,1348.535-1313.765Z" transform="translate(-1325.936 1327.612)" fill="#becfff"/>
        <path id="Path_678" data-name="Path 678" d="M1371.984-1313.191l-2.917,3.619v9.343h-5.022v-26.957h5.022v11.042l8.9-11.042h6.093l-8.529,10.487,9.305,16.47h-5.724Z" transform="translate(-1331.037 1327.555)" fill="#becfff"/>
      </g>
      <g id="Group_1890" data-name="Group 1890" transform="translate(1315.537 -1330.081)">
        <path id="Path_679" data-name="Path 679" d="M1321.936-1311.765a13.766,13.766,0,0,1,13.773-13.847,13.8,13.8,0,0,1,13.811,13.847,13.774,13.774,0,0,1-13.811,13.848A13.743,13.743,0,0,1,1321.936-1311.765Zm22.6,0a8.841,8.841,0,0,0-8.825-8.9,8.81,8.81,0,0,0-8.789,8.9,8.81,8.81,0,0,0,8.789,8.9A8.841,8.841,0,0,0,1344.534-1311.765Z" transform="translate(-1321.936 1325.612)" fill="#5e80df"/>
        <path id="Path_680" data-name="Path 680" d="M1367.984-1311.191l-2.917,3.619v9.343h-5.022v-26.957h5.022v11.042l8.9-11.042h6.092l-8.529,10.487,9.305,16.47h-5.724Z" transform="translate(-1327.037 1325.555)" fill="#5e80df"/>
      </g>
    </g>
    <rect id="Rectangle_1619" data-name="Rectangle 1619" width="200" height="145" transform="translate(1382 783)" fill="none"/>
  </g>
</svg>
