<svg xmlns="http://www.w3.org/2000/svg" width="200" height="145" viewBox="0 0 200 145">
  <g id="그룹_2065" data-name="그룹 2065" transform="translate(-1034 -783)">
    <g id="그룹_1888" data-name="그룹 1888" transform="translate(225 2160.418)">
      <g id="그룹_1883" data-name="그룹 1883" transform="translate(861.617 -1350.26)">
        <rect id="사각형_1376" data-name="사각형 1376" width="90" height="83" rx="2.667" transform="translate(3.383 11.841)" fill="#e5e5e5"/>
        <rect id="사각형_1377" data-name="사각형 1377" width="97" height="25" rx="7.917" transform="translate(0.383 -0.159)" fill="#e5e5e5"/>
      </g>
      <g id="그룹_1884" data-name="그룹 1884" transform="translate(860 -1353.493)">
        <rect id="사각형_1378" data-name="사각형 1378" width="91" height="82" rx="2.667" transform="translate(3 12.074)" fill="#f7f6f5"/>
        <rect id="사각형_1379" data-name="사각형 1379" width="97" height="25" rx="7.917" transform="translate(0 0.074)" fill="#5f81df"/>
      </g>
      <g id="그룹_1885" data-name="그룹 1885" transform="translate(876.165 -1317.929)">
        <rect id="사각형_1380" data-name="사각형 1380" width="11" height="12" rx="1.958" transform="translate(-0.165 -0.489)" fill="#d5d5d5"/>
        <rect id="사각형_1381" data-name="사각형 1381" width="11" height="12" rx="1.958" transform="translate(17.835 -0.489)" fill="#d5d5d5"/>
        <rect id="사각형_1382" data-name="사각형 1382" width="11" height="12" rx="1.958" transform="translate(35.835 -0.489)" fill="#d5d5d5"/>
        <rect id="사각형_1383" data-name="사각형 1383" width="11" height="12" rx="1.958" transform="translate(53.835 -0.489)" fill="#d5d5d5"/>
        <rect id="사각형_1384" data-name="사각형 1384" width="11" height="12" rx="1.958" transform="translate(-0.165 17.511)" fill="#d5d5d5"/>
        <rect id="사각형_1385" data-name="사각형 1385" width="11" height="12" rx="1.958" transform="translate(17.835 17.511)" fill="#7e92ed"/>
        <rect id="사각형_1386" data-name="사각형 1386" width="11" height="12" rx="1.958" transform="translate(35.835 17.511)" fill="#d5d5d5"/>
        <rect id="사각형_1387" data-name="사각형 1387" width="11" height="12" rx="1.958" transform="translate(53.835 17.511)" fill="#d5d5d5"/>
        <rect id="사각형_1388" data-name="사각형 1388" width="11" height="11" rx="1.958" transform="translate(-0.165 35.511)" fill="#d5d5d5"/>
        <rect id="사각형_1389" data-name="사각형 1389" width="11" height="11" rx="1.958" transform="translate(17.835 35.511)" fill="#d5d5d5"/>
        <rect id="사각형_1390" data-name="사각형 1390" width="11" height="11" rx="1.958" transform="translate(35.835 35.511)" fill="#d5d5d5"/>
      </g>
      <g id="그룹_1886" data-name="그룹 1886" transform="translate(881.823 -1364)">
        <rect id="사각형_1391" data-name="사각형 1391" width="9" height="24" rx="2.458" transform="translate(0.177 -0.418)" fill="#5a5a5a"/>
        <rect id="사각형_1392" data-name="사각형 1392" width="9" height="24" rx="2.458" transform="translate(43.177 -0.418)" fill="#5a5a5a"/>
      </g>
      <g id="그룹_1887" data-name="그룹 1887" transform="translate(948.101 -1284.79)">
        <path id="패스_672" data-name="패스 672" d="M996.481-1252.26c0,7.589-12.932,22.631-13.74,22.631S969-1244.671,969-1252.26A13.74,13.74,0,0,1,982.74-1266,13.74,13.74,0,0,1,996.481-1252.26Z" transform="translate(-969 1266)" fill="#ff8f08"/>
        <path id="패스_673" data-name="패스 673" d="M986-1266a13.74,13.74,0,0,1,13.74,13.74c0,7.589-12.932,22.631-13.74,22.631" transform="translate(-972.26 1266)" fill="#ffb612"/>
        <circle id="타원_157" data-name="타원 157" cx="5.5" cy="5.5" r="5.5" transform="translate(7.899 8.372)" fill="#fff"/>
      </g>
    </g>
    <rect id="사각형_1618" data-name="사각형 1618" width="200" height="145" transform="translate(1034 783)" fill="none"/>
  </g>
</svg>
