<svg xmlns="http://www.w3.org/2000/svg" width="80" height="80" viewBox="0 0 80 80">
  <g id="Icon___Regular___Service___Smart_care" data-name="Icon _ Regular _ Service _ Smart_care" transform="translate(1.241 0.241)">
    <rect id="Container" width="80" height="80" transform="translate(-1.241 -0.241)" fill="rgba(255,255,255,0)"/>
    <path id="Icon_Regular_Service_Smart_care" data-name="Icon / Regular / Service / Smart_care" d="M38.064,59.372h-.048a3.278,3.278,0,0,1-2.188-.829l-.143-.134L3.03,25.721a10.364,10.364,0,0,1-.195-14.447l.195-.2,8.03-8.037a10.341,10.341,0,0,1,14.437-.2l.2.2L57.781,35.148,70.126,22.791a6.219,6.219,0,0,0,.154-8.629L70.127,14,62.1,5.966a6.2,6.2,0,0,0-8.622-.157l-.166.157L46.063,13.22l-2.928-2.928,7.253-7.258a10.341,10.341,0,0,1,14.429-.2l.2.2,8.03,8.037a10.364,10.364,0,0,1,.2,14.45l-.2.2L40.4,58.408A3.283,3.283,0,0,1,38.064,59.372ZM19.784,36.591h0L38.04,54.859,54.832,38.054,22.77,5.966a6.2,6.2,0,0,0-8.621-.155l-.16.155L5.96,14A6.219,6.219,0,0,0,5.8,22.631l.156.159L19.766,36.613l.022-.022Z" transform="translate(1.687 10.043)"/>
  </g>
</svg>
