<svg xmlns="http://www.w3.org/2000/svg" width="66.392" height="36.943" viewBox="0 0 66.392 36.943">
  <g id="icon2" transform="translate(-1322.279 -1779.273)">
    <g id="그룹_5516" data-name="그룹 5516" transform="translate(1363.279 1779.273)">
      <path id="패스_1131" data-name="패스 1131" d="M0,10l12.7,6.247V26.928L0,20.681Z" transform="translate(0 -3.751)" fill="#eba67b"/>
      <path id="합치기_28" data-name="합치기 28" d="M0,6.248,12.7,0,25.382,6.248,12.7,12.5Z" transform="translate(0 0)" fill="#fcc3a6"/>
      <path id="빼기_13" data-name="빼기 13" d="M2.376,0h0L0,1.157l12.759,6.2,2.354-1.148L2.377,0Z" transform="translate(20.197 9.976) rotate(180)" fill="#6c92ea"/>
      <path id="패스_1146" data-name="패스 1146" d="M12.7,10,0,16.247V26.928l12.7-6.247Z" transform="translate(12.696 -3.751)" fill="#d4946a"/>
      <path id="패스_1165" data-name="패스 1165" d="M3191.774,18080.715l-2.374,1.16v5.178l2.374-1.158Z" transform="translate(-3171.577 -18071.912)" fill="#6c92ea"/>
    </g>
    <g id="그룹_5531" data-name="그룹 5531" transform="translate(1322.279 1779.273)">
      <path id="패스_1131-2" data-name="패스 1131" d="M0,10l12.7,6.247V26.928L0,20.681Z" transform="translate(0 -3.751)" fill="#eba67b"/>
      <path id="합치기_28-2" data-name="합치기 28" d="M0,6.248,12.7,0,25.382,6.248,12.7,12.5Z" transform="translate(0 0)" fill="#fcc3a6"/>
      <path id="빼기_13-2" data-name="빼기 13" d="M2.376,0h0L0,1.157l12.759,6.2,2.354-1.148L2.377,0Z" transform="translate(20.197 9.976) rotate(180)" fill="#6c92ea"/>
      <path id="패스_1146-2" data-name="패스 1146" d="M12.7,10,0,16.247V26.928l12.7-6.247Z" transform="translate(12.696 -3.751)" fill="#d4946a"/>
      <path id="패스_1165-2" data-name="패스 1165" d="M3191.774,18080.715l-2.374,1.16v5.178l2.374-1.158Z" transform="translate(-3171.577 -18071.912)" fill="#6c92ea"/>
      <path id="패스_1166" data-name="패스 1166" d="M0,10l5.039,2.48v4.24L0,14.24Z" transform="translate(1.387 -1.305)" fill="#d4946a"/>
    </g>
    <g id="그룹_5514" data-name="그룹 5514" transform="translate(1338.204 1784.688)">
      <path id="패스_1091" data-name="패스 1091" d="M0,10l17.271,8.5v14.53L0,24.53Z" transform="translate(0 -1.501)" fill="#eba67b"/>
      <path id="합치기_17" data-name="합치기 17" d="M0,8.5,17.271,0,34.529,8.5,17.271,17Z" transform="translate(0)" fill="#fcc3a6"/>
      <path id="빼기_4" data-name="빼기 4" d="M3.233,0h0L0,1.575l17.357,8.431,3.2-1.561L3.233,0Z" transform="translate(27.519 13.526) rotate(180)" fill="#6c92ea"/>
      <path id="패스_1100" data-name="패스 1100" d="M17.271,10,0,18.5v14.53l17.271-8.5Z" transform="translate(17.271 -1.501)" fill="#d4946a"/>
      <path id="패스_1155" data-name="패스 1155" d="M3192.667,18080.715l-3.268,1.6v7.125l3.268-1.594Z" transform="translate(-3165.149 -18068.779)" fill="#6c92ea"/>
      <path id="패스_1164" data-name="패스 1164" d="M0,10l7.29,3.588v6.134L0,16.134Z" transform="translate(1.962 1.984)" fill="#d4946a"/>
    </g>
  </g>
</svg>
