<svg xmlns="http://www.w3.org/2000/svg" xmlns:xlink="http://www.w3.org/1999/xlink" width="18" height="18" viewBox="0 0 18 18">
  <defs>
    <clipPath id="clip-path">
      <path id="패스_639" data-name="패스 639" d="M982.52,347.567c-.467,0-.466.817,0,.817h.8s0,2.213,0,2.723c0,.371.828.39.827.02l0-2.664a4.089,4.089,0,0,1,.792-.058c.495,0,.5-.837,0-.837Z" transform="translate(-982.171 -347.567)" fill="#1d1d1b"/>
    </clipPath>
    <clipPath id="clip-path-2">
      <path id="패스_641" data-name="패스 641" d="M988.61,348.7l.443,1.386h-.923Zm-.5-.65c-.2.431-.9,2.467-1.138,3.007-.169.391.562.709.733.318l.158-.557h1.456s-.05.023.143.533c.157.413.912.127.756-.286-.223-.59-1-2.714-1.137-3.015a.6.6,0,0,0-.524-.239.46.46,0,0,0-.446.239" transform="translate(-986.952 -347.807)" fill="#1d1d1b"/>
    </clipPath>
    <clipPath id="clip-path-3">
      <path id="패스_643" data-name="패스 643" d="M993.544,348.167c0,.692,0,2.922,0,2.922s-.064.443.316.443l1.6,0c.374,0,.372-.8,0-.8s-1.056,0-1.056,0,0-2.062,0-2.563a.436.436,0,0,0-.861,0" transform="translate(-993.544 -347.802)" fill="#1d1d1b"/>
    </clipPath>
    <clipPath id="clip-path-4">
      <path id="패스_645" data-name="패스 645" d="M998,348.059c.008.3-.01,3.047-.01,3.25,0,.321.817.32.817,0,0-.372,0-1.079,0-1.079l.24-.193,1.049,1.431c.211.28.878-.225.666-.5l-1.113-1.466s.756-.818,1.054-1.114c.174-.173-.365-.715-.539-.542s-1.352,1.352-1.352,1.352.01-.744,0-1.156c0-.156-.2-.232-.392-.232s-.424.087-.42.254" transform="translate(-997.986 -347.805)" fill="#1d1d1b"/>
    </clipPath>
  </defs>
  <g id="그룹_2221" data-name="그룹 2221" transform="translate(-681 -1129)">
    <g id="그룹_1762" data-name="그룹 1762" transform="translate(-296.119 791)">
      <path id="패스_637" data-name="패스 637" d="M986.254,340c-4.216,0-7.634,2.7-7.634,6.034a5.9,5.9,0,0,0,3.621,5.134c-.16.6-.578,2.159-.662,2.494-.1.415.152.41.32.3.131-.087,2.092-1.42,2.938-2a9.6,9.6,0,0,0,1.417.1c4.215,0,7.633-2.7,7.633-6.035S990.469,340,986.254,340" fill="#fff" stroke="#000" stroke-miterlimit="10" stroke-width="1"/>
      <g id="그룹_1761" data-name="그룹 1761" transform="translate(980.549 344.112)">
        <g id="그룹_1751" data-name="그룹 1751" transform="translate(0 0)">
          <g id="그룹_1750" data-name="그룹 1750">
            <path id="패스_638" data-name="패스 638" d="M982.52,347.567c-.467,0-.466.817,0,.817h.8s0,2.213,0,2.723c0,.371.828.39.827.02l0-2.664a4.089,4.089,0,0,1,.792-.058c.495,0,.5-.837,0-.837Z" transform="translate(-982.171 -347.567)" fill="#1d1d1b"/>
            <g id="그룹_1749" data-name="그룹 1749" clip-path="url(#clip-path)">
              <rect id="사각형_1143" data-name="사각형 1143" width="3.381" height="3.93" transform="translate(-0.117 0)" fill="#1d1d1b"/>
            </g>
          </g>
        </g>
        <g id="그룹_1754" data-name="그룹 1754" transform="translate(2.598 0.13)">
          <g id="그룹_1753" data-name="그룹 1753">
            <path id="패스_640" data-name="패스 640" d="M988.61,348.7l.443,1.386h-.923Zm-.5-.65c-.2.431-.9,2.467-1.138,3.007-.169.391.562.709.733.318l.158-.557h1.456s-.05.023.143.533c.157.413.912.127.756-.286-.223-.59-1-2.714-1.137-3.015a.6.6,0,0,0-.524-.239.46.46,0,0,0-.446.239" transform="translate(-986.952 -347.807)" fill="#1d1d1b"/>
            <g id="그룹_1752" data-name="그룹 1752" clip-path="url(#clip-path-2)">
              <rect id="사각형_1144" data-name="사각형 1144" width="3.572" height="3.954" transform="translate(-0.144 0)" fill="#1d1d1b"/>
            </g>
          </g>
        </g>
        <g id="그룹_1757" data-name="그룹 1757" transform="translate(6.181 0.128)">
          <g id="그룹_1756" data-name="그룹 1756">
            <path id="패스_642" data-name="패스 642" d="M993.544,348.167c0,.692,0,2.922,0,2.922s-.064.443.316.443l1.6,0c.374,0,.372-.8,0-.8s-1.056,0-1.056,0,0-2.062,0-2.563a.436.436,0,0,0-.861,0" transform="translate(-993.544 -347.802)" fill="#1d1d1b"/>
            <g id="그룹_1755" data-name="그룹 1755" clip-path="url(#clip-path-3)">
              <rect id="사각형_1145" data-name="사각형 1145" width="2.35" height="3.73" transform="translate(-0.06 0)" fill="#1d1d1b"/>
            </g>
          </g>
        </g>
        <g id="그룹_1760" data-name="그룹 1760" transform="translate(8.595 0.129)">
          <g id="그룹_1759" data-name="그룹 1759">
            <path id="패스_644" data-name="패스 644" d="M998,348.059c.008.3-.01,3.047-.01,3.25,0,.321.817.32.817,0,0-.372,0-1.079,0-1.079l.24-.193,1.049,1.431c.211.28.878-.225.666-.5l-1.113-1.466s.756-.818,1.054-1.114c.174-.173-.365-.715-.539-.542s-1.352,1.352-1.352,1.352.01-.744,0-1.156c0-.156-.2-.232-.392-.232s-.424.087-.42.254" transform="translate(-997.986 -347.805)" fill="#1d1d1b"/>
            <g id="그룹_1758" data-name="그룹 1758" clip-path="url(#clip-path-4)">
              <rect id="사각형_1146" data-name="사각형 1146" width="2.984" height="4.08" transform="translate(0 -0.138)" fill="#1d1d1b"/>
            </g>
          </g>
        </g>
      </g>
    </g>
    <rect id="사각형_1712" data-name="사각형 1712" width="18" height="18" transform="translate(681 1129)" fill="none"/>
  </g>
</svg>
