<svg xmlns="http://www.w3.org/2000/svg" width="23" height="23" viewBox="0 0 23 23">
  <g id="그룹_1860" data-name="그룹 1860" transform="translate(-1371 -483)">
    <path id="패스_608" data-name="패스 608" d="M197.111,370.226a7.621,7.621,0,0,0-7.613,7.613c0,3.864,6.092,12.243,6.787,13.185a1.027,1.027,0,0,0,1.652,0c.7-.942,6.788-9.321,6.788-13.185A7.622,7.622,0,0,0,197.111,370.226Zm.128,12.509a4.639,4.639,0,1,1,4.64-4.639A4.639,4.639,0,0,1,197.239,382.735Z" transform="translate(1185.502 113.774)" fill="none" stroke="#000" stroke-miterlimit="10" stroke-width="1.5"/>
    <rect id="사각형_1229" data-name="사각형 1229" width="23" height="23" transform="translate(1371 483)" fill="none"/>
  </g>
</svg>
