<svg xmlns="http://www.w3.org/2000/svg" width="30" height="30" viewBox="0 0 30 30">
  <g id="그룹_1792" data-name="그룹 1792" transform="translate(-448 -1681)">
    <rect id="사각형_1098" data-name="사각형 1098" width="30" height="30" transform="translate(448 1681)" fill="none"/>
    <g id="그룹_1707" data-name="그룹 1707" transform="translate(-914.493 1600.101)">
      <g id="그룹_1706" data-name="그룹 1706" transform="translate(1367.417 87)">
        <path id="사각형_1114" data-name="사각형 1114" d="M1,0H19.012a1,1,0,0,1,1,1V13.625a0,0,0,0,1,0,0H0a0,0,0,0,1,0,0V1A1,1,0,0,1,1,0Z" transform="translate(0)" fill="none" stroke="#000" stroke-linecap="round" stroke-linejoin="round" stroke-width="1.2"/>
      </g>
      <path id="패스_623" data-name="패스 623" d="M1390.846,119.393H1364l3.417-4.393h20.012Z" transform="translate(0 -14.333)" fill="none" stroke="#000" stroke-linecap="round" stroke-linejoin="round" stroke-width="1.2"/>
      <line id="선_387" data-name="선 387" x2="2" transform="translate(1368.993 102.899)" fill="none" stroke="#000" stroke-linecap="round" stroke-linejoin="round" stroke-width="1.2"/>
      <line id="선_389" data-name="선 389" x2="2" transform="translate(1378.993 102.899)" fill="none" stroke="#000" stroke-linecap="round" stroke-linejoin="round" stroke-width="1.2"/>
      <line id="선_391" data-name="선 391" x2="2" transform="translate(1373.993 102.899)" fill="none" stroke="#000" stroke-linecap="round" stroke-linejoin="round" stroke-width="1.2"/>
      <line id="선_390" data-name="선 390" x2="2" transform="translate(1383.993 102.899)" fill="none" stroke="#000" stroke-linecap="round" stroke-linejoin="round" stroke-width="1.2"/>
    </g>
  </g>
</svg>
