<svg xmlns="http://www.w3.org/2000/svg" xmlns:xlink="http://www.w3.org/1999/xlink" width="41.191" height="57.934" viewBox="0 0 41.191 57.934">
  <defs>
    <clipPath id="clip-path">
      <path id="패스_444" data-name="패스 444" d="M-1066.06-231.215c-10.27,0-18.6,8.68-18.6,19.387,0,.222.007.445.016.671a19.985,19.985,0,0,0,1.494,6.99c3.809,11.039,13.646,23.81,15.7,26.41a1.242,1.242,0,0,0,.972.476h.825a1.242,1.242,0,0,0,.972-.476c2.056-2.6,11.893-15.37,15.7-26.41a19.993,19.993,0,0,0,1.494-6.99c.009-.226.017-.449.017-.671C-1047.464-222.535-1055.79-231.215-1066.06-231.215Z" transform="translate(1084.657 231.215)" fill="#3856ee" clip-rule="evenodd"/>
    </clipPath>
  </defs>
  <g id="그룹_1959" data-name="그룹 1959" transform="translate(20080 20921.934)">
    <path id="패스_710" data-name="패스 710" d="M-1066.061-231.215c-10.27,0-18.6,8.68-18.6,19.387,0,.222.007.445.017.671a19.98,19.98,0,0,0,1.494,6.99c3.809,11.039,13.646,23.81,15.7,26.41a1.242,1.242,0,0,0,.972.476h.825a1.242,1.242,0,0,0,.972-.476c2.056-2.6,11.893-15.371,15.7-26.41a19.986,19.986,0,0,0,1.495-6.99c.009-.226.016-.449.016-.671C-1047.464-222.535-1055.791-231.215-1066.061-231.215Z" transform="translate(-18993.344 -20688.719)" fill="none" stroke="#fff" stroke-width="4" fill-rule="evenodd"/>
    <g id="그룹_1958" data-name="그룹 1958" transform="translate(-20088 -20919.934)">
      <g id="마스크_그룹_2" data-name="마스크 그룹 2" transform="translate(10 0)" clip-path="url(#clip-path)">
        <path id="패스_443" data-name="패스 443" d="M-1066.06-231.215c-10.27,0-18.6,8.68-18.6,19.387,0,.222.007.445.016.671a19.985,19.985,0,0,0,1.494,6.99c3.809,11.039,13.646,23.81,15.7,26.41a1.242,1.242,0,0,0,.972.476h.825a1.242,1.242,0,0,0,.972-.476c2.056-2.6,11.893-15.37,15.7-26.41a19.993,19.993,0,0,0,1.494-6.99c.009-.226.017-.449.017-.671C-1047.464-222.535-1055.79-231.215-1066.06-231.215Z" transform="translate(1084.657 231.215)" fill="#3856ee" fill-rule="evenodd"/>
        <g id="그룹_1956" data-name="그룹 1956" transform="matrix(-0.848, -0.53, 0.53, -0.848, 21.035, 61.313)">
          <rect id="사각형_572" data-name="사각형 572" width="53.887" height="55.013" fill="#68b140"/>
          <rect id="사각형_573" data-name="사각형 573" width="2.231" height="55.011" transform="translate(2.323 0)" fill="#7dbd56"/>
          <rect id="사각형_584" data-name="사각형 584" width="2.231" height="55.011" transform="translate(7.432 0)" fill="#7dbd56"/>
          <rect id="사각형_585" data-name="사각형 585" width="2.231" height="55.011" transform="translate(13.504 0)" fill="#7dbd56"/>
          <rect id="사각형_586" data-name="사각형 586" width="2.231" height="55.011" transform="translate(19.291 0.001)" fill="#7dbd56"/>
          <rect id="사각형_587" data-name="사각형 587" width="2.231" height="55.011" transform="translate(25.079 0.001)" fill="#7dbd56"/>
          <rect id="사각형_588" data-name="사각형 588" width="2.231" height="55.011" transform="translate(30.866 0.001)" fill="#7dbd56"/>
          <rect id="사각형_589" data-name="사각형 589" width="2.231" height="55.011" transform="translate(36.654 0.001)" fill="#7dbd56"/>
          <rect id="사각형_590" data-name="사각형 590" width="2.231" height="55.011" transform="translate(42.441 0.001)" fill="#7dbd56"/>
          <rect id="사각형_591" data-name="사각형 591" width="2.231" height="55.011" transform="translate(48.357 0.002)" fill="#7dbd56"/>
        </g>
      </g>
      <ellipse id="타원_158" data-name="타원 158" cx="11.824" cy="12.089" rx="11.824" ry="12.089" transform="translate(16.694 7.44)" fill="#fff"/>
    </g>
  </g>
</svg>
