<svg xmlns="http://www.w3.org/2000/svg" width="18" height="18" viewBox="0 0 18 18">
  <g id="그룹_1547" data-name="그룹 1547" transform="translate(-3513 -5216)">
    <path id="Shape_2_copy" data-name="Shape 2 copy" d="M3010.924,1160.993h-1.233a1.026,1.026,0,0,1-.992-1.056v-.275h-6.46v.275a1.026,1.026,0,0,1-.991,1.056h-1.205a1.027,1.027,0,0,1-.993-1.056v-.964a2.151,2.151,0,0,1-1.067-1.675v-9.2a2.054,2.054,0,0,1,1.984-2.113H3011a2.054,2.054,0,0,1,1.984,2.113v9.2a2.229,2.229,0,0,1-1.068,1.675v.964A1.026,1.026,0,0,1,3010.924,1160.993Zm-2.234-4.622v1.149h1.04v-1.149Zm-7.51,0v1.149h1.08v-1.149Zm-1.07-4.653v2.343h10.751v-2.342Zm3.23-3.426.007.6-.007.545h4.3l-.011-.545.011-.6Z" transform="translate(516.517 4071.511)" fill="#8e8e8e"/>
    <rect id="사각형_691" data-name="사각형 691" width="18" height="18" transform="translate(3513 5216)" fill="none"/>
  </g>
</svg>
