<svg xmlns="http://www.w3.org/2000/svg" width="18" height="18" viewBox="0 0 18 18">
  <g id="그룹_1546" data-name="그룹 1546" transform="translate(-3550 -5216)">
    <path id="Shape_4" data-name="Shape 4" d="M3011.11,1190.984a.639.639,0,0,1-.591-.393l-.633-.61h-8.744l-.633.61a.639.639,0,0,1-.591.393.649.649,0,0,1-.246-.049.639.639,0,0,1-.344-.837l1.264-2.136h-1.317a1.28,1.28,0,0,1-1.278-1.279v-8.806a1.905,1.905,0,0,1,1.919-1.887h11.156a1.9,1.9,0,0,1,1.918,1.887v8.806a1.28,1.28,0,0,1-1.278,1.279h-1.276l.464,1.359,0,0,.8.773a.637.637,0,0,1-.343.837A.653.653,0,0,1,3011.11,1190.984Zm-9.132-3.022h0l-.3,1.033h7.676l-.3-1.033Zm8.031-3v1.031h.97v-1.031Zm-10,0v1.031h.97v-1.031Zm7-7.972V1181H3012l.009-3.378,0-.639Zm-7.949,0-.052.639V1181h4.976v-4.017Z" transform="translate(553.503 4041.511)" fill="#8e8e8e"/>
    <rect id="사각형_690" data-name="사각형 690" width="18" height="18" transform="translate(3550 5216)" fill="none"/>
  </g>
</svg>
