<svg xmlns="http://www.w3.org/2000/svg" width="41.858" height="39.328" viewBox="0 0 41.858 39.328">
  <g id="GettyImages" transform="translate(-148.51 -169.76)">
    <g id="그룹_4753" data-name="그룹 4753" transform="translate(148.51 170.077)">
      <g id="그룹_4748" data-name="그룹 4748" transform="translate(0.336 7.375)">
        <path id="패스_761" data-name="패스 761" d="M154.15,301.887l1.648-.84c1.378-.7,2.76-1.406,4.134-2.108a58.167,58.167,0,0,0,17.844,20.805c.007.007.014.007.021.014a58.739,58.739,0,0,0,7.457,4.559c.039.018.074.039.113.057-.857,1.679-1.718,3.369-2.575,5.055-.124.245-.248.482-.372.726A64.731,64.731,0,0,1,154.15,301.887Z" transform="translate(-154.15 -298.94)" fill="#5f81df"/>
      </g>
      <g id="그룹_4749" data-name="그룹 4749" transform="translate(1.983 7.375)">
        <path id="패스_762" data-name="패스 762" d="M181.82,301.048c1.378-.7,2.76-1.406,4.134-2.108a58.1,58.1,0,0,0,4.793,7.818,6.726,6.726,0,0,1-8.927-5.71Z" transform="translate(-181.82 -298.94)" fill="#3957a8"/>
      </g>
      <g id="그룹_4750" data-name="그룹 4750" transform="translate(23.625 28.181)">
        <path id="패스_763" data-name="패스 763" d="M545.606,648.36c.007.007.014.007.021.014a58.736,58.736,0,0,0,7.457,4.559q-1.106,2.168-2.214,4.347a6.652,6.652,0,0,1-1.8-.556A6.848,6.848,0,0,1,545.606,648.36Z" transform="translate(-545.269 -648.36)" fill="#3957a8"/>
      </g>
      <g id="그룹_4751" data-name="그룹 4751" transform="translate(0 0)">
        <path id="패스_764" data-name="패스 764" d="M161.659,186.742a8.1,8.1,0,0,1-1.187,1.233,8.279,8.279,0,0,1-1.152.827,7.024,7.024,0,0,1-.687.361,7.584,7.584,0,0,1-4.649.651,6.572,6.572,0,0,1-4.159-2.571,6.185,6.185,0,0,1-.672-1.112,5.664,5.664,0,0,1-.245-.606.562.562,0,0,1-.045-.13,8.023,8.023,0,0,1,2.946-8.723,8.291,8.291,0,0,1,2.144-1.172,7.8,7.8,0,0,1,1.533-.4,1.61,1.61,0,0,1,1.679.822l4.709,8.873A1.8,1.8,0,0,1,161.659,186.742Z" transform="translate(-148.51 -175.084)" fill="#5f81df"/>
      </g>
      <g id="그룹_4752" data-name="그룹 4752" transform="translate(24.164 25.451)">
        <path id="패스_765" data-name="패스 765" d="M569.143,609.1a7.712,7.712,0,0,1-.406,1.563,8.107,8.107,0,0,1-1.162,2.119,7.91,7.91,0,0,1-9.459,2.65,6.575,6.575,0,0,1-3.712-5.04,7.627,7.627,0,0,1,.7-4.454c.105-.226.22-.446.351-.666a7.905,7.905,0,0,1,.737-1.052,8.3,8.3,0,0,1,1.322-1.293,1.8,1.8,0,0,1,1.944-.21l8.868,4.709A1.6,1.6,0,0,1,569.143,609.1Z" transform="translate(-554.32 -602.52)" fill="#5f81df"/>
      </g>
    </g>
    <g id="그룹_4754" data-name="그룹 4754" transform="translate(168.635 169.76)">
      <path id="패스_766" data-name="패스 766" d="M506.487,169.76h-18.26a1.736,1.736,0,0,0-1.736,1.736v10.862a1.737,1.737,0,0,0,1.736,1.737H490.8V188.5l3.187-4.409h12.5a1.736,1.736,0,0,0,1.736-1.737V171.5A1.737,1.737,0,0,0,506.487,169.76Z" transform="translate(-486.49 -169.76)" fill="#ededed"/>
    </g>
    <g id="그룹_4758" data-name="그룹 4758" transform="translate(172.671 175.244)">
      <g id="그룹_4755" data-name="그룹 4755" transform="translate(0 0)">
        <path id="패스_767" data-name="패스 767" d="M555.953,261.86a1.683,1.683,0,1,0,1.683,1.683A1.684,1.684,0,0,0,555.953,261.86Z" transform="translate(-554.27 -261.86)" fill="#676c7a"/>
      </g>
      <g id="그룹_4756" data-name="그룹 4756" transform="translate(5.147 0)">
        <path id="패스_768" data-name="패스 768" d="M642.393,261.86a1.683,1.683,0,1,0,1.683,1.683A1.684,1.684,0,0,0,642.393,261.86Z" transform="translate(-640.71 -261.86)" fill="#676c7a"/>
      </g>
      <g id="그룹_4757" data-name="그룹 4757" transform="translate(10.295 0)">
        <path id="패스_769" data-name="패스 769" d="M728.843,261.86a1.683,1.683,0,1,0,1.683,1.683A1.684,1.684,0,0,0,728.843,261.86Z" transform="translate(-727.16 -261.86)" fill="#676c7a"/>
      </g>
    </g>
    <g id="그룹_4759" data-name="그룹 4759" transform="translate(153.954 170.078)">
      <path id="패스_770" data-name="패스 770" d="M247.851,184.808l-4.709-8.873a1.609,1.609,0,0,0-1.679-.822,7.771,7.771,0,0,0-1.533.4l6.518,12.475a8.1,8.1,0,0,0,1.187-1.233A1.8,1.8,0,0,0,247.851,184.808Z" transform="translate(-239.93 -175.094)" fill="#ededed"/>
    </g>
    <g id="그룹_4760" data-name="그룹 4760" transform="translate(174.54 195.529)">
      <path id="패스_771" data-name="패스 771" d="M597.795,607.437l-8.868-4.709a1.8,1.8,0,0,0-1.944.21,8.246,8.246,0,0,0-1.322,1.293l12.55,6.443a7.746,7.746,0,0,0,.406-1.563A1.6,1.6,0,0,0,597.795,607.437Z" transform="translate(-585.66 -602.533)" fill="#ededed"/>
    </g>
  </g>
</svg>
