<svg xmlns="http://www.w3.org/2000/svg" width="200" height="145" viewBox="0 0 200 145">
  <g id="Group_2064" data-name="Group 2064" transform="translate(-1382 -783)">
    <rect id="Rectangle_1619" data-name="Rectangle 1619" width="200" height="145" transform="translate(1382 783)" fill="none"/>
    <g id="Group_6234" data-name="Group 6234" transform="translate(1014 399.085)">
      <g id="Group_6233" data-name="Group 6233" transform="translate(-1820.441 -91.025)">
        <path id="Path_1894" data-name="Path 1894" d="M2211.358,757.933s-4.8-12.645,7.558-15.552c0,0,.291-13.808,16.57-12.645v28.052S2211.213,758.078,2211.358,757.933Z" transform="translate(0 -158.747)" fill="#a3c563"/>
        <path id="Path_1895" data-name="Path 1895" d="M2661.979,656.079l-11.446-22.891h7.2l-10.5-20.993h4.9l-10.854-21.707L2630.438,612.2h5.116l-10.5,20.993h7.2l-11.446,22.891Z" transform="translate(-300.535 -56.821)" fill="#a3c563"/>
        <rect id="Rectangle_3514" data-name="Rectangle 3514" width="106.92" height="52.271" transform="translate(2336.587 599.235) rotate(-180)" fill="#e1e1e1"/>
        <rect id="Rectangle_3515" data-name="Rectangle 3515" width="35.776" height="52.271" transform="translate(2265.444 599.235) rotate(-180)" fill="#f7f6f5"/>
        <path id="Path_1896" data-name="Path 1896" d="M2357.546,550.6h79.461l-19.7-37.7H2342.97Z" transform="translate(-97.056 0)" fill="#85a7e8"/>
        <path id="Path_1897" data-name="Path 1897" d="M2279.594,512.9l-23.163,38.151,42.693-.454Z" transform="translate(-33.68)" fill="#85a7e8"/>
        <path id="Path_1898" data-name="Path 1898" d="M2282.272,575.289l18.046-29.249,14.742,28.827C2305.4,578.747,2294.214,578.126,2282.272,575.289Z" transform="translate(-52.605 -24.27)" fill="#f7f6f5"/>
        <path id="Path_1899" data-name="Path 1899" d="M2299.124,550.6h-2.988l-16.542-32.346-20.017,32.767-3.146.033,23.163-38.151Z" transform="translate(-33.68)" fill="#c2d7ff"/>
        <rect id="Rectangle_3516" data-name="Rectangle 3516" width="11.992" height="19.105" transform="translate(2251.91 598.986) rotate(180)" fill="#7e92ed"/>
        <rect id="Rectangle_3517" data-name="Rectangle 3517" width="11.17" height="10.31" rx="1" transform="translate(2283.414 566.033) rotate(180)" fill="#a3afb1" opacity="0.9"/>
        <rect id="Rectangle_3518" data-name="Rectangle 3518" width="11.17" height="10.31" rx="1" transform="translate(2251.088 566.033) rotate(180)" fill="#a3afb1" opacity="0.9"/>
        <rect id="Rectangle_3519" data-name="Rectangle 3519" width="10.172" height="10.31" rx="1" transform="translate(2306.382 566.033) rotate(180)" fill="#a3afb1" opacity="0.9"/>
        <rect id="Rectangle_3520" data-name="Rectangle 3520" width="9.37" height="10.31" rx="1" transform="translate(2328.628 566.033) rotate(-180)" fill="#a3afb1" opacity="0.9"/>
        <rect id="Rectangle_3521" data-name="Rectangle 3521" width="11.17" height="10.31" rx="1" transform="translate(2283.414 589.994) rotate(180)" fill="#a3afb1" opacity="0.9"/>
        <rect id="Rectangle_3522" data-name="Rectangle 3522" width="10.172" height="10.31" rx="1" transform="translate(2306.382 589.994) rotate(180)" fill="#a3afb1" opacity="0.9"/>
        <rect id="Rectangle_3523" data-name="Rectangle 3523" width="9.37" height="10.31" rx="1" transform="translate(2328.628 589.994) rotate(180)" fill="#a3afb1" opacity="0.9"/>
        <path id="Path_1900" data-name="Path 1900" d="M2647.882,835.46" transform="translate(-320.356 -236.224)" fill="none" stroke="#1f1406" stroke-linecap="round" stroke-linejoin="round" stroke-width="2.059"/>
        <path id="Path_1901" data-name="Path 1901" d="M2681.737,835.46" transform="translate(-345.15 -236.224)" fill="none" stroke="#1f1406" stroke-linecap="round" stroke-linejoin="round" stroke-width="2.059"/>
        <path id="Path_1902" data-name="Path 1902" d="M2681.737,669.379" transform="translate(-345.15 -114.596)" fill="none" stroke="#1f1406" stroke-linecap="round" stroke-linejoin="round" stroke-width="2.059"/>
        <path id="Path_1903" data-name="Path 1903" d="M2471.5,835.459" transform="translate(-191.186 -236.224)" fill="none" stroke="#1f1406" stroke-linecap="round" stroke-linejoin="round" stroke-width="2.059"/>
        <path id="Path_1904" data-name="Path 1904" d="M2415.938,835.459" transform="translate(-150.494 -236.224)" fill="none" stroke="#1f1406" stroke-linecap="round" stroke-linejoin="round" stroke-width="2.059"/>
        <path id="Path_1905" data-name="Path 1905" d="M2415.937,808.278" transform="translate(-150.493 -216.318)" fill="none" stroke="#1f1406" stroke-linecap="round" stroke-linejoin="round" stroke-width="2.059"/>
        <path id="Path_1906" data-name="Path 1906" d="M2415.937,663.943" transform="translate(-150.493 -110.615)" fill="none" stroke="#1f1406" stroke-linecap="round" stroke-linejoin="round" stroke-width="2.059"/>
      </g>
      <g id="돋보기" transform="translate(482.684 404.915)" style="isolation: isolate">
        <line id="Line_485" data-name="Line 485" x2="21.188" y2="16.95" transform="translate(42.799 41.135)" fill="none" stroke="#7e8497" stroke-linecap="round" stroke-width="2.5"/>
        <g id="Path_1881" data-name="Path 1881" transform="translate(0 0)" fill="#dfecf6">
          <path d="M 25.00166130065918 48.50331497192383 C 21.82829093933105 48.50331497192383 18.75065040588379 47.88214492797852 15.85421085357666 46.65705490112305 C 13.05583095550537 45.47343444824219 10.542311668396 43.7786750793457 8.383481025695801 41.61983489990234 C 6.2246413230896 39.46100616455078 4.529881477355957 36.94748687744141 3.346261262893677 34.14909744262695 C 2.121171236038208 31.25266647338867 1.500001311302185 28.17501640319824 1.500001311302185 25.00165557861328 C 1.500001311302185 21.82829475402832 2.121171236038208 18.75064468383789 3.346261262893677 15.85421562194824 C 4.529881477355957 13.05583572387695 6.2246413230896 10.54231548309326 8.383481025695801 8.383475303649902 C 10.542311668396 6.224645614624023 13.05583095550537 4.529885768890381 15.85421085357666 3.346265554428101 C 18.75065040588379 2.121175527572632 21.82829093933105 1.500005602836609 25.00166130065918 1.500005602836609 C 28.1750316619873 1.500005602836609 31.25267219543457 2.121175527572632 34.14911270141602 3.346265554428101 C 36.94749069213867 4.529885768890381 39.46100997924805 6.224645614624023 41.61984252929688 8.383475303649902 C 43.77868270874023 10.54231548309326 45.47344207763672 13.05583572387695 46.65706253051758 15.85421562194824 C 47.88215255737305 18.75064468383789 48.50332260131836 21.82829475402832 48.50332260131836 25.00165557861328 C 48.50332260131836 28.17501640319824 47.88215255737305 31.25266647338867 46.65706253051758 34.14909744262695 C 45.47344207763672 36.94748687744141 43.77868270874023 39.46100616455078 41.61984252929688 41.61983489990234 C 39.46100997924805 43.7786750793457 36.94749069213867 45.47343444824219 34.14911270141602 46.65705490112305 C 31.25267219543457 47.88214492797852 28.1750316619873 48.50331497192383 25.00166130065918 48.50331497192383 Z" stroke="none"/>
          <path d="M 25.00166130065918 2.999996185302734 C 22.03013038635254 2.999996185302734 19.14908218383789 3.581306457519531 16.43854141235352 4.727764129638672 C 13.81896209716797 5.83575439453125 11.46570205688477 7.422576904296875 9.444141387939453 9.444133758544922 C 7.422573089599609 11.46569442749023 5.835762023925781 13.81895446777344 4.727771759033203 16.43853378295898 C 3.581302642822266 19.14908599853516 3 22.03012466430664 3 25.00165557861328 C 3 27.97318649291992 3.581302642822266 30.85422515869141 4.727771759033203 33.56476593017578 C 5.835762023925781 36.18435668945312 7.422573089599609 38.53760528564453 9.444141387939453 40.55917358398438 C 11.46570205688477 42.58073425292969 13.81895065307617 44.16754531860352 16.43854141235352 45.27553558349609 C 19.14908218383789 46.42200469970703 22.03013038635254 47.0033073425293 25.00166130065918 47.0033073425293 C 27.97319221496582 47.0033073425293 30.85424041748047 46.42200469970703 33.56478118896484 45.27553558349609 C 36.18437194824219 44.16754531860352 38.53762054443359 42.58073425292969 40.55918121337891 40.55917358398438 C 42.58074951171875 38.53760528564453 44.16756057739258 36.18435668945312 45.27555084228516 33.56476593017578 C 46.42201995849609 30.85422515869141 47.00332260131836 27.97318649291992 47.00332260131836 25.00165557861328 C 47.00332260131836 22.03012466430664 46.42201995849609 19.14908599853516 45.27555084228516 16.43853378295898 C 44.16756057739258 13.81895446777344 42.58074951171875 11.46569442749023 40.55918121337891 9.444133758544922 C 38.53762054443359 7.422576904296875 36.18436050415039 5.83575439453125 33.56478118896484 4.727764129638672 C 30.85424041748047 3.581306457519531 27.97319221496582 2.999996185302734 25.00166130065918 2.999996185302734 M 25.00166130065918 -3.814697265625e-06 C 38.80970001220703 -3.814697265625e-06 50.00332260131836 11.19362640380859 50.00332260131836 25.00165557861328 C 50.00332260131836 38.80968475341797 38.80970001220703 50.0033073425293 25.00166130065918 50.0033073425293 C 11.19362258911133 50.0033073425293 0 38.80968475341797 0 25.00165557861328 C 0 11.19362640380859 11.19362258911133 -3.814697265625e-06 25.00166130065918 -3.814697265625e-06 Z" stroke="none" fill="#7e8497"/>
        </g>
        <path id="Path_1907" data-name="Path 1907" d="M0,0,14.048,11.212" transform="translate(49.939 46.873)" fill="none" stroke="#7e8497" stroke-linecap="round" stroke-width="10"/>
      </g>
    </g>
  </g>
</svg>
