<svg xmlns="http://www.w3.org/2000/svg" width="30" height="30" viewBox="0 0 30 30">
  <g id="그룹_1793" data-name="그룹 1793" transform="translate(-448 -1745)">
    <rect id="사각형_1100" data-name="사각형 1100" width="30" height="30" transform="translate(448 1745)" fill="none"/>
    <g id="그룹_1708" data-name="그룹 1708" transform="translate(-823.667 1909.779)">
      <path id="패스_624" data-name="패스 624" d="M1309-158s5.312,2.237,6.71,6.71a18.557,18.557,0,0,1,3.634.28s-.28,3.355,0,3.355.839.559,0,1.4a6.642,6.642,0,0,1,2.516,2.516c.559,1.4-4.473,3.634-7.269,4.753" transform="translate(-25.455 -2.403)" fill="none" stroke="#000" stroke-miterlimit="10" stroke-width="1.2"/>
      <path id="패스_625" data-name="패스 625" d="M1284.942-135.8a14.264,14.264,0,0,1-10.064-8.107c-2.516-5.591-.839-9.505,2.516-13.14s6.989-5.312,6.15-3.634-1.957,9.226,0,13.978,7.269,4.753,8.667,8.387" transform="translate(0 0)" fill="none" stroke="#000" stroke-miterlimit="10" stroke-width="1.2"/>
      <path id="패스_626" data-name="패스 626" d="M1312-139.484c.559-.559,1.4-1.957,2.516-2.516" transform="translate(-27.617 -13.93)" fill="none" stroke="#000" stroke-miterlimit="10" stroke-width="1.2"/>
      <path id="패스_627" data-name="패스 627" d="M1319-131.763c1.677-1.118,2.237-1.677,1.957-2.237" transform="translate(-32.66 -19.693)" fill="none" stroke="#000" stroke-miterlimit="10" stroke-width="1.2"/>
      <path id="패스_628" data-name="패스 628" d="M1291.973-144.762c-1.064,2.17-3.021,3.009-4.419,4.686s-.839,4.753-.839,4.753" transform="translate(-9.321 -11.94)" fill="none" stroke="#000" stroke-miterlimit="10" stroke-width="1.2"/>
      <path id="패스_629" data-name="패스 629" d="M1297.737-136.116c-.5,3.108-1.062,7.581,1.733,11.215s5.032,2.8,5.871,3.914" transform="translate(-17.044 -18.169)" fill="none" stroke="#000" stroke-miterlimit="10" stroke-width="1.2"/>
      <path id="패스_630" data-name="패스 630" d="M1342.4-116c-.839.839-1.4.839-1.4.839" transform="translate(-48.509 -32.661)" fill="none" stroke="#000" stroke-miterlimit="10" stroke-width="1.2"/>
    </g>
    <path id="패스_631" data-name="패스 631" d="M1143.685-222a2.091,2.091,0,0,1-2.135,2.135v.011a2.091,2.091,0,0,1,2.135,2.135h-.011a2.091,2.091,0,0,1,2.135-2.135v-.011a2.091,2.091,0,0,1-2.135-2.135" transform="translate(-677.82 1967.76)" fill="none" stroke="#a6a6a6" stroke-linecap="round" stroke-linejoin="round" stroke-width="1"/>
    <path id="패스_632" data-name="패스 632" d="M1143.685-222a2.091,2.091,0,0,1-2.135,2.135v.011a2.091,2.091,0,0,1,2.135,2.135h-.011a2.091,2.091,0,0,1,2.135-2.135v-.011a2.091,2.091,0,0,1-2.135-2.135" transform="translate(-668.82 1971.76)" fill="none" stroke="#a6a6a6" stroke-linecap="round" stroke-linejoin="round" stroke-width="1"/>
  </g>
</svg>
