<svg xmlns="http://www.w3.org/2000/svg" width="18" height="18" viewBox="0 0 18 18">
  <g id="그룹_1545" data-name="그룹 1545" transform="translate(-3582 -5216)">
    <g id="자동차" transform="translate(585.504 3991)">
      <g id="자동차-2" data-name="자동차" transform="translate(2998 1227)">
        <path id="Shape_2_copy_2" data-name="Shape 2 copy 2" d="M13.3,14.008H12.026a.783.783,0,0,1-.756-.806V11.958H3.7V13.2a.783.783,0,0,1-.756.806H1.706A.783.783,0,0,1,.95,13.2L.915,11.953A1.012,1.012,0,0,1,0,10.829V6.138A1.1,1.1,0,0,1,1.056,5.009H1.41L2.749.9a1.362,1.362,0,0,1,1.23-.938h7.07a1.36,1.36,0,0,1,1.23.939l1.344,4.1h.316A1.1,1.1,0,0,1,15,6.138v4.691a1.011,1.011,0,0,1-.94,1.128V13.2A.783.783,0,0,1,13.3,14.008ZM1.875,8V9.05h.957V8ZM12.187,8V9.02h.957V8ZM4.67,8l.015.482-.015.484H10.3l.014-.484L10.3,8ZM3.774.976,2.742,5.009h9.526L11.261.978h0l0,0H3.774Z"/>
      </g>
      <path id="Color_Overlay" data-name="Color Overlay" d="M3010.026,1241.007a.783.783,0,0,1-.756-.806v-1.244H3001.7v1.244a.782.782,0,0,1-.756.806h-1.241a.783.783,0,0,1-.756-.806l-.036-1.249a1.012,1.012,0,0,1-.918-1.124v-4.691a1.1,1.1,0,0,1,1.059-1.13h.354l1.339-4.1a1.361,1.361,0,0,1,1.229-.938h7.071a1.36,1.36,0,0,1,1.229.939l1.345,4.1h.315a1.1,1.1,0,0,1,1.059,1.13v4.691a1.011,1.011,0,0,1-.94,1.128v1.246a.782.782,0,0,1-.756.806Zm-10.151-4.957h.957V1235h-.957Zm10.312-.031h.958V1235h-.958Zm-7.5-.541-.015.484h5.633l.014-.484-.014-.482h-5.633Zm-.919-7.5h.008l-1.032,4.033h9.526l-1.007-4.03,0,0h-7.5Z" fill="#8e8e8e"/>
    </g>
    <rect id="사각형_689" data-name="사각형 689" width="18" height="18" transform="translate(3582 5216)" fill="none"/>
  </g>
</svg>
