<svg xmlns="http://www.w3.org/2000/svg" xmlns:xlink="http://www.w3.org/1999/xlink" width="41.195" height="57.934" viewBox="0 0 41.195 57.934">
  <defs>
    <clipPath id="clip-path">
      <path id="패스_707" data-name="패스 707" d="M-1066.059-231.215c-10.271,0-18.6,8.68-18.6,19.387,0,.222.007.445.017.671a19.977,19.977,0,0,0,1.494,6.99c3.809,11.039,13.647,23.81,15.7,26.41a1.242,1.242,0,0,0,.972.476h.825a1.242,1.242,0,0,0,.972-.476c2.056-2.6,11.894-15.371,15.7-26.41a19.988,19.988,0,0,0,1.495-6.99c.009-.226.016-.449.016-.671C-1047.462-222.535-1055.789-231.215-1066.059-231.215Z" transform="translate(1084.657 231.215)" fill="#3856ee" clip-rule="evenodd"/>
    </clipPath>
  </defs>
  <g id="그룹_1948" data-name="그룹 1948" transform="translate(20134 20876.934)">
    <path id="패스_708" data-name="패스 708" d="M-1066.059-231.215c-10.271,0-18.6,8.68-18.6,19.387,0,.222.007.445.017.671a19.977,19.977,0,0,0,1.494,6.99c3.809,11.039,13.647,23.81,15.7,26.41a1.242,1.242,0,0,0,.972.476h.825a1.242,1.242,0,0,0,.972-.476c2.056-2.6,11.894-15.371,15.7-26.41a19.988,19.988,0,0,0,1.495-6.99c.009-.226.016-.449.016-.671C-1047.461-222.535-1055.789-231.215-1066.059-231.215Z" transform="translate(-19047.344 -20643.719)" fill="none" stroke="#fff" stroke-width="4" fill-rule="evenodd"/>
    <g id="마스크_그룹_111" data-name="마스크 그룹 111" transform="translate(-20132 -20874.934)" clip-path="url(#clip-path)">
      <path id="패스_698" data-name="패스 698" d="M-1066.059-231.215c-10.271,0-18.6,8.68-18.6,19.387,0,.222.007.445.017.671a19.977,19.977,0,0,0,1.494,6.99c3.809,11.039,13.647,23.81,15.7,26.41a1.242,1.242,0,0,0,.972.476h.825a1.242,1.242,0,0,0,.972-.476c2.056-2.6,11.894-15.371,15.7-26.41a19.988,19.988,0,0,0,1.495-6.99c.009-.226.016-.449.016-.671C-1047.462-222.535-1055.789-231.215-1066.059-231.215Z" transform="translate(1084.657 231.215)" fill="#fdaf00" fill-rule="evenodd"/>
      <g id="그룹_1947" data-name="그룹 1947" transform="translate(-12.457 1.145)">
        <g id="그룹_1946" data-name="그룹 1946" transform="translate(0 0)">
          <g id="그룹_1938" data-name="그룹 1938">
            <path id="패스_699" data-name="패스 699" d="M-3002.276-130.211c4.019,0,4.019,5.255,8.039,5.255s4.019-5.255,8.038-5.255c3.861,0,3.861,5.255,7.72,5.255s3.86-5.255,7.72-5.255c3.894,0,3.894,5.255,7.787,5.255s3.894-5.255,7.786-5.255c4.012,0,4.012,5.255,8.022,5.255s4.012-5.255,8.022-5.255" transform="translate(3002.276 130.211)" fill="none" stroke="#ff0400" stroke-miterlimit="10" stroke-width="2.5"/>
          </g>
          <g id="그룹_1939" data-name="그룹 1939" transform="translate(0.833 6.295)">
            <path id="패스_700" data-name="패스 700" d="M-2996.176-104.275c3.911,0,3.911,5.255,7.823,5.255s3.911-5.255,7.822-5.255c3.754,0,3.754,5.255,7.509,5.255s3.755-5.255,7.509-5.255c3.8,0,3.8,5.255,7.607,5.255s3.8-5.255,7.607-5.255c3.9,0,3.9,5.255,7.8,5.255s3.9-5.255,7.8-5.255" transform="translate(2996.176 104.275)" fill="none" stroke="#ff0400" stroke-miterlimit="10" stroke-width="2.5"/>
          </g>
          <g id="그룹_1940" data-name="그룹 1940" transform="translate(2.466 12.371)">
            <path id="패스_701" data-name="패스 701" d="M-2990.075-78.339c3.7,0,3.7,5.255,7.4,5.255s3.7-5.255,7.4-5.255c3.552,0,3.552,5.255,7.1,5.255s3.551-5.255,7.1-5.255c3.615,0,3.615,5.255,7.229,5.255s3.614-5.255,7.229-5.255c3.683,0,3.683,5.255,7.366,5.255s3.682-5.255,7.366-5.255" transform="translate(2990.075 78.339)" fill="none" stroke="#ff0400" stroke-miterlimit="10" stroke-width="2.5"/>
          </g>
          <g id="그룹_1941" data-name="그룹 1941" transform="translate(3.698 18.556)">
            <path id="패스_702" data-name="패스 702" d="M-2983.976-52.4c3.543,0,3.543,5.254,7.086,5.254s3.542-5.254,7.086-5.254c3.4,0,3.4,5.254,6.793,5.254s3.4-5.254,6.793-5.254c3.476,0,3.476,5.254,6.951,5.254s3.476-5.254,6.951-5.254c3.519,0,3.519,5.254,7.039,5.254s3.519-5.254,7.038-5.254" transform="translate(2983.976 52.404)" fill="none" stroke="#ff0400" stroke-miterlimit="10" stroke-width="2.5"/>
          </g>
          <g id="그룹_1942" data-name="그룹 1942" transform="translate(4.931 24.741)">
            <path id="패스_703" data-name="패스 703" d="M-2977.875-26.468c3.384,0,3.384,5.254,6.768,5.254s3.383-5.254,6.767-5.254c3.242,0,3.242,5.254,6.484,5.254s3.242-5.254,6.485-5.254c3.335,0,3.335,5.254,6.671,5.254s3.338-5.254,6.673-5.254c3.357,0,3.357,5.254,6.712,5.254s3.355-5.254,6.709-5.254" transform="translate(2977.875 26.468)" fill="none" stroke="#ff0400" stroke-miterlimit="10" stroke-width="2.5"/>
          </g>
          <g id="그룹_1943" data-name="그룹 1943" transform="translate(6.164 30.926)">
            <path id="패스_704" data-name="패스 704" d="M-2971.775-.532c3.224,0,3.224,5.254,6.449,5.254s3.225-5.254,6.449-5.254c3.088,0,3.088,5.254,6.176,5.254s3.088-5.254,6.176-5.254c3.2,0,3.2,5.254,6.394,5.254s3.2-5.254,6.4-5.254,3.193,5.254,6.383,5.254,3.191-5.254,6.383-5.254" transform="translate(2971.775 0.532)" fill="none" stroke="#ff0400" stroke-miterlimit="10" stroke-width="2.5"/>
          </g>
          <g id="그룹_1944" data-name="그룹 1944" transform="translate(7.397 37.112)">
            <path id="패스_705" data-name="패스 705" d="M-2965.675,25.4c3.066,0,3.066,5.254,6.132,5.254s3.065-5.254,6.13-5.254c2.933,0,2.933,5.254,5.867,5.254s2.934-5.254,5.867-5.254c3.058,0,3.058,5.254,6.116,5.254s3.06-5.254,6.117-5.254c3.028,0,3.028,5.254,6.055,5.254s3.027-5.254,6.054-5.254" transform="translate(2965.675 -25.404)" fill="none" stroke="#ff0400" stroke-miterlimit="10" stroke-width="2.5"/>
          </g>
          <g id="그룹_1945" data-name="그룹 1945" transform="translate(10.349 43.297)">
            <path id="패스_706" data-name="패스 706" d="M-2959.575,51.339c2.688,0,2.688,5.255,5.377,5.255s2.69-5.255,5.378-5.255c2.569,0,2.569,5.255,5.141,5.255s2.57-5.255,5.14-5.255c2.7,0,2.7,5.255,5.4,5.255s2.7-5.255,5.4-5.255c2.648,0,2.648,5.255,5.3,5.255s2.649-5.255,5.3-5.255" transform="translate(2959.575 -51.339)" fill="none" stroke="#ff0400" stroke-miterlimit="10" stroke-width="2.5"/>
          </g>
        </g>
      </g>
    </g>
    <circle id="타원_165" data-name="타원 165" cx="12" cy="12" r="12" transform="translate(-20125.305 -20867.494)" fill="#fff"/>
  </g>
</svg>
