<svg xmlns="http://www.w3.org/2000/svg" width="18" height="18" viewBox="0 0 18 18">
  <g id="icon_18_event" transform="translate(-75 -467)">
    <g id="그룹_1479" data-name="그룹 1479" transform="translate(635.647 31.981)">
      <path id="패스_484" data-name="패스 484" d="M-552.621,451.374H-558.5V448.5h13.849v2.874h-5.879" transform="translate(0 -8.759)" fill="none" stroke="#707070" stroke-linecap="round" stroke-linejoin="round" stroke-width="1"/>
      <path id="패스_485" data-name="패스 485" d="M-548.314,459.5h5.1v8.362H-555.5V459.5h5.1" transform="translate(-2.216 -16.884)" fill="none" stroke="#707070" stroke-linecap="round" stroke-linejoin="round" stroke-width="1"/>
      <rect id="사각형_614" data-name="사각형 614" width="0.784" height="1.307" transform="translate(-551.967 438.435)" stroke-width="1" stroke="#707070" stroke-linecap="round" stroke-linejoin="round" fill="none"/>
      <path id="패스_486" data-name="패스 486" d="M-546.8,438.435l-3.39-1.695a.908.908,0,0,0-1.314.812v2.19h4.7Z" transform="translate(-5.171)" fill="none" stroke="#707070" stroke-linecap="round" stroke-linejoin="round" stroke-width="1"/>
      <path id="패스_487" data-name="패스 487" d="M-530.5,438.435l3.39-1.695a.908.908,0,0,1,1.314.812v2.19h-4.7Z" transform="translate(-20.683)" fill="none" stroke="#707070" stroke-linecap="round" stroke-linejoin="round" stroke-width="1"/>
      <rect id="사각형_615" data-name="사각형 615" width="2.09" height="11.236" transform="translate(-552.621 439.741)" stroke-width="1" stroke="#707070" stroke-linecap="round" stroke-linejoin="round" fill="none"/>
    </g>
    <rect id="사각형_616" data-name="사각형 616" width="18" height="18" transform="translate(75 467)" fill="none"/>
  </g>
</svg>
