<svg xmlns="http://www.w3.org/2000/svg" width="55.012" height="48" viewBox="0 0 55.012 48">
  <g id="그룹_2224" data-name="그룹 2224" transform="translate(-808.988 -1161)">
    <g id="그룹_2192" data-name="그룹 2192" transform="translate(808.988 1170)">
      <path id="패스_718" data-name="패스 718" d="M1798.108-908H1810l-6.108-7H1792Z" transform="translate(-1755 915)" fill="#c28d6c"/>
      <rect id="사각형_1690" data-name="사각형 1690" width="32" height="30" transform="translate(5)" fill="#eba67b"/>
      <rect id="사각형_1691" data-name="사각형 1691" width="12" height="30" transform="translate(49 30) rotate(180)" fill="#d4946a"/>
      <rect id="사각형_1692" data-name="사각형 1692" width="3.8" height="8" transform="translate(11 27) rotate(180)" fill="#d4946a"/>
      <rect id="사각형_1693" data-name="사각형 1693" width="5.8" height="8" transform="translate(19 27) rotate(180)" fill="#d4946a"/>
      <rect id="사각형_1694" data-name="사각형 1694" width="5.8" height="30" transform="translate(24 30) rotate(180)" fill="#6c92ea"/>
      <path id="패스_719" data-name="패스 719" d="M1788-904h-28v-11h32v3Z" transform="translate(-1755 915)" opacity="0.1"/>
      <rect id="사각형_1695" data-name="사각형 1695" width="3.8" height="30" transform="translate(45 30) rotate(180)" fill="#6c92ea"/>
      <path id="패스_720" data-name="패스 720" d="M1794.5-904h9.5v-11h-12v3Z" transform="translate(-1755 915)" opacity="0.1"/>
      <path id="패스_721" data-name="패스 721" d="M1787-906h-32l5-9h32Z" transform="translate(-1755 915)" fill="#f7ba9b"/>
      <path id="패스_722" data-name="패스 722" d="M1795.108-906H1807l-3.108-9H1792Z" transform="translate(-1755 915)" fill="#eba67b"/>
    </g>
    <rect id="사각형_1713" data-name="사각형 1713" width="55" height="48" transform="translate(809 1161)" fill="none" opacity="0.13"/>
  </g>
</svg>
