<svg xmlns="http://www.w3.org/2000/svg" width="80" height="65" viewBox="0 0 80 65">
  <g id="그룹_2117" data-name="그룹 2117" transform="translate(-1451 -1354)">
    <g id="그룹_1845" data-name="그룹 1845" transform="translate(-397 2726)">
      <path id="사각형_1213" data-name="사각형 1213" d="M0,0H46a0,0,0,0,1,0,0V28.944A4.056,4.056,0,0,1,41.944,33H4.056A4.056,4.056,0,0,1,0,28.944V0A0,0,0,0,1,0,0Z" transform="translate(1856 -1352)" fill="none" stroke="#000" stroke-linecap="round" stroke-linejoin="round" stroke-width="1.5"/>
      <rect id="사각형_1214" data-name="사각형 1214" width="52" height="8" rx="1" transform="translate(1853 -1360)" stroke-width="1.5" stroke="#000" stroke-linecap="round" stroke-linejoin="round" fill="none"/>
      <rect id="사각형_1215" data-name="사각형 1215" width="8" height="41" transform="translate(1875 -1360)" stroke-width="1.5" stroke="#000" stroke-linecap="round" stroke-linejoin="round" fill="none"/>
      <path id="패스_661" data-name="패스 661" d="M1879-1360h-16v-9l16,6Z" fill="none" stroke="#000" stroke-linecap="round" stroke-linejoin="round" stroke-width="1.5"/>
      <path id="패스_662" data-name="패스 662" d="M1879-1360h16v-9l-16,6Z" fill="none" stroke="#000" stroke-linecap="round" stroke-linejoin="round" stroke-width="1.5"/>
      <g id="그룹_1844" data-name="그룹 1844">
        <g id="그룹_1843" data-name="그룹 1843">
          <path id="패스_663" data-name="패스 663" d="M1924-1329l-4-8h-23l-4,8h4v11.194a5.805,5.805,0,0,0,5.806,5.806h3.039l2.846,4.928,2.845-4.928h2.658a5.805,5.805,0,0,0,5.806-5.806V-1329Z" fill="#4da0fb"/>
          <path id="패스_664" data-name="패스 664" d="M1905.035-1325.035l2.576,2.576L1913-1328" fill="none" stroke="#fff" stroke-linecap="round" stroke-linejoin="round" stroke-width="1.5"/>
        </g>
      </g>
    </g>
    <rect id="사각형_1650" data-name="사각형 1650" width="80" height="65" transform="translate(1451 1354)" fill="none"/>
  </g>
</svg>
