<svg xmlns="http://www.w3.org/2000/svg" width="18" height="18" viewBox="0 0 18 18">
  <g id="icon_18_space_rental" transform="translate(-75 -497)">
    <rect id="사각형_609" data-name="사각형 609" width="18" height="18" transform="translate(75 497)" fill="none" opacity="0.12"/>
    <g id="그룹_2402" data-name="그룹 2402" transform="translate(43.867 465.621)">
      <path id="사각형_1894" data-name="사각형 1894" d="M0,0H.971a2.58,2.58,0,0,1,2.58,2.58v.838A2.58,2.58,0,0,1,.971,6H0A0,0,0,0,1,0,6V0A0,0,0,0,1,0,0Z" transform="translate(32.133 41.275)" fill="none" stroke="#707070" stroke-miterlimit="10" stroke-width="1"/>
      <path id="패스_737" data-name="패스 737" d="M44.723,70.733h2.328l2.162.847H51.4s.938-.11.938.77-.938.88-.938.88H48.078" transform="translate(-8.887 -28.256)" fill="none" stroke="#707070" stroke-miterlimit="10" stroke-width="1"/>
      <path id="패스_738" data-name="패스 738" d="M44.208,77.527l4.086,1.1a3.72,3.72,0,0,0,1.1.214,4.9,4.9,0,0,0,1.2-.214l6.112-2.6a.819.819,0,0,0,.171-1.165c-.361-.551-1.12-.29-1.12-.29l-4.316,1.375" transform="translate(-8.524 -31.054)" fill="none" stroke="#707070" stroke-miterlimit="10" stroke-width="1"/>
      <g id="그룹_2401" data-name="그룹 2401" transform="translate(35.684 32.578)">
        <path id="패스_739" data-name="패스 739" d="M57.189,49.276v4.313H48.9V49.3" transform="translate(-47.523 -44.944)" fill="none" stroke="#707070" stroke-miterlimit="10" stroke-width="1"/>
        <path id="패스_740" data-name="패스 740" d="M52.491,32.578H46.97l-2.763,3.457a1.392,1.392,0,0,0,2.763,0,1.393,1.393,0,0,0,2.763,0,1.39,1.39,0,0,0,2.758,0,1.392,1.392,0,0,0,2.763,0Z" transform="translate(-44.207 -32.578)" fill="none" stroke="#707070" stroke-miterlimit="10" stroke-width="1"/>
        <line id="선_474" data-name="선 474" y2="3.457" transform="translate(8.284 0)" fill="none" stroke="#707070" stroke-miterlimit="10" stroke-width="1"/>
        <line id="선_475" data-name="선 475" y2="3.457" transform="translate(5.524 0)" fill="none" stroke="#707070" stroke-miterlimit="10" stroke-width="1"/>
        <line id="선_476" data-name="선 476" y2="3.759" transform="translate(2.761 0)" fill="none" stroke="#707070" stroke-miterlimit="10" stroke-width="1"/>
      </g>
    </g>
  </g>
</svg>
