<svg xmlns="http://www.w3.org/2000/svg" xmlns:xlink="http://www.w3.org/1999/xlink" width="40.748" height="57.57" viewBox="0 0 40.748 57.57">
  <defs>
    <clipPath id="clip-path">
      <path id="패스_444" data-name="패스 444" d="M-1066.157-231.215c-10.217,0-18.5,8.68-18.5,19.387,0,.222.007.445.016.671a20.068,20.068,0,0,0,1.486,6.991c3.789,11.039,13.575,23.81,15.62,26.41a1.233,1.233,0,0,0,.967.476h.821a1.233,1.233,0,0,0,.967-.476c2.045-2.6,11.831-15.371,15.62-26.41a20.071,20.071,0,0,0,1.487-6.991c.009-.226.016-.449.016-.671C-1047.657-222.535-1055.94-231.215-1066.157-231.215Z" transform="translate(1084.657 231.215)" fill="#3856ee" clip-rule="evenodd"/>
    </clipPath>
  </defs>
  <g id="그룹_1920" data-name="그룹 1920" transform="translate(2 2)">
    <path id="패스_605" data-name="패스 605" d="M-1066.282-231.215c-10.148,0-18.375,8.622-18.375,19.256,0,.22.007.442.016.666a19.926,19.926,0,0,0,1.476,6.943c3.763,10.965,13.483,23.65,15.514,26.232a1.224,1.224,0,0,0,.96.473h.815a1.225,1.225,0,0,0,.96-.473c2.031-2.582,11.751-15.267,15.514-26.232a19.938,19.938,0,0,0,1.477-6.943c.009-.224.016-.446.016-.666C-1047.908-222.593-1056.135-231.215-1066.282-231.215Z" transform="translate(1084.657 231.215)" fill="none" stroke="#fff" stroke-width="4" fill-rule="evenodd"/>
    <g id="마스크_그룹_2" data-name="마스크 그룹 2" clip-path="url(#clip-path)">
      <path id="패스_443" data-name="패스 443" d="M-1066.157-231.215c-10.217,0-18.5,8.68-18.5,19.387,0,.222.007.445.016.671a20.068,20.068,0,0,0,1.486,6.991c3.789,11.039,13.575,23.81,15.62,26.41a1.233,1.233,0,0,0,.967.476h.821a1.233,1.233,0,0,0,.967-.476c2.045-2.6,11.831-15.371,15.62-26.41a20.071,20.071,0,0,0,1.487-6.991c.009-.226.016-.449.016-.671C-1047.657-222.535-1055.94-231.215-1066.157-231.215Z" transform="translate(1084.657 231.215)" fill="#3856ee" fill-rule="evenodd"/>
      <g id="그룹_1458" data-name="그룹 1458" transform="translate(47.427 -10.313) rotate(90)">
        <rect id="사각형_572" data-name="사각형 572" width="57.605" height="58.371" transform="translate(8.455)" fill="#008765"/>
        <g id="그룹_1468" data-name="그룹 1468" transform="translate(0 1.901)">
          <g id="그룹_1467" data-name="그룹 1467" transform="translate(0 54.129) rotate(-90)">
            <path id="패스_447" data-name="패스 447" d="M5.419,0,0,10.186H10.837Z" transform="translate(5.385)" fill="#00e6e3"/>
            <path id="패스_448" data-name="패스 448" d="M5.419,0,0,10.186H10.837Z" transform="translate(16.225)" fill="#00e6e3"/>
            <path id="패스_449" data-name="패스 449" d="M5.419,0,0,10.186H10.837Z" transform="translate(27.066)" fill="#00e6e3"/>
            <path id="패스_450" data-name="패스 450" d="M5.419,0,0,10.186H10.837Z" transform="translate(37.907)" fill="#00e6e3"/>
            <path id="패스_451" data-name="패스 451" d="M5.419,0,0,10.186H10.837Z" transform="translate(5.385 20.354)" fill="#00e6e3"/>
            <path id="패스_452" data-name="패스 452" d="M5.419,0,0,10.186H10.837Z" transform="translate(16.225 20.354)" fill="#00e6e3"/>
            <path id="패스_453" data-name="패스 453" d="M5.419,0,0,10.186H10.837Z" transform="translate(27.066 20.354)" fill="#00e6e3"/>
            <path id="패스_454" data-name="패스 454" d="M5.419,0,0,10.186H10.837Z" transform="translate(37.907 20.354)" fill="#00e6e3"/>
            <path id="패스_455" data-name="패스 455" d="M5.419,0,0,10.186H10.837Z" transform="translate(10.841 10.177)" fill="#00e6e3"/>
            <path id="패스_456" data-name="패스 456" d="M5.419,0,0,10.186H10.837Z" transform="translate(0 10.177)" fill="#00e6e3"/>
            <path id="패스_457" data-name="패스 457" d="M5.419,0,0,10.186H10.837Z" transform="translate(21.681 10.177)" fill="#00e6e3"/>
            <path id="패스_458" data-name="패스 458" d="M5.419,0,0,10.186H10.837Z" transform="translate(32.522 10.177)" fill="#00e6e3"/>
            <path id="패스_459" data-name="패스 459" d="M5.419,0,0,10.186H10.837Z" transform="translate(43.291 10.177)" fill="#00e6e3"/>
            <path id="패스_460" data-name="패스 460" d="M5.419,0,0,10.186H10.837Z" transform="translate(10.841 30.532)" fill="#00e6e3"/>
            <path id="패스_461" data-name="패스 461" d="M5.419,0,0,10.186H10.837Z" transform="translate(0 30.532)" fill="#00e6e3"/>
            <path id="패스_462" data-name="패스 462" d="M5.419,0,0,10.186H10.837Z" transform="translate(21.681 30.532)" fill="#00e6e3"/>
            <path id="패스_463" data-name="패스 463" d="M5.419,0,0,10.186H10.837Z" transform="translate(32.522 30.532)" fill="#00e6e3"/>
            <path id="패스_464" data-name="패스 464" d="M5.419,0,0,10.186H10.837Z" transform="translate(43.291 30.532)" fill="#00e6e3"/>
            <path id="패스_465" data-name="패스 465" d="M5.419,0,0,10.186H10.837Z" transform="translate(5.385 40.709)" fill="#00e6e3"/>
            <path id="패스_466" data-name="패스 466" d="M5.419,0,0,10.186H10.837Z" transform="translate(16.225 40.709)" fill="#00e6e3"/>
            <path id="패스_467" data-name="패스 467" d="M5.419,0,0,10.186H10.837Z" transform="translate(27.066 40.709)" fill="#00e6e3"/>
            <path id="패스_468" data-name="패스 468" d="M5.419,0,0,10.186H10.837Z" transform="translate(37.907 40.709)" fill="#00e6e3"/>
            <path id="패스_469" data-name="패스 469" d="M5.419,0,0,10.186H10.837Z" transform="translate(10.841 50.886)" fill="#00e6e3"/>
            <path id="패스_470" data-name="패스 470" d="M5.419,0,0,10.186H10.837Z" transform="translate(0 50.886)" fill="#00e6e3"/>
            <path id="패스_471" data-name="패스 471" d="M5.419,0,0,10.186H10.837Z" transform="translate(21.681 50.886)" fill="#00e6e3"/>
            <path id="패스_472" data-name="패스 472" d="M5.419,0,0,10.186H10.837Z" transform="translate(32.522 50.886)" fill="#00e6e3"/>
            <path id="패스_473" data-name="패스 473" d="M5.419,0,0,10.186H10.837Z" transform="translate(43.291 50.886)" fill="#00e6e3"/>
          </g>
        </g>
      </g>
    </g>
    <ellipse id="타원_110" data-name="타원 110" cx="11.902" cy="12" rx="11.902" ry="12" transform="translate(6.696 7.439)" fill="#fff"/>
  </g>
</svg>
