<svg xmlns="http://www.w3.org/2000/svg" width="23" height="23" viewBox="0 0 23 23">
  <g id="그룹_1861" data-name="그룹 1861" transform="translate(-1371 -385)">
    <g id="그룹_1604" data-name="그룹 1604" transform="translate(1230.974 16.725)">
      <path id="패스_609" data-name="패스 609" d="M150.488,382.21a16.055,16.055,0,0,0,3.374,2.585l1.212-1.331a1.65,1.65,0,0,1,1.246-.539,9.835,9.835,0,0,1,3.258.539,2.056,2.056,0,0,1,1.273,1.948l-.043,2.856a1.319,1.319,0,0,1-1.3,1.294,16,16,0,0,1-11.677-4.7" transform="translate(-0.384 -0.848)" fill="none" stroke="#000" stroke-linecap="round" stroke-linejoin="round" stroke-width="1.5"/>
      <path id="패스_610" data-name="패스 610" d="M150.1,381.364a16.05,16.05,0,0,1-2.584-3.374l1.33-1.213a1.647,1.647,0,0,0,.54-1.245,9.823,9.823,0,0,0-.54-3.259A2.057,2.057,0,0,0,146.9,371l-2.857.043a1.319,1.319,0,0,0-1.293,1.3,16,16,0,0,0,4.7,11.677" transform="translate(0 0)" fill="none" stroke="#000" stroke-linecap="round" stroke-linejoin="round" stroke-width="1.5"/>
    </g>
    <rect id="사각형_1228" data-name="사각형 1228" width="23" height="23" transform="translate(1371 385)" fill="none"/>
  </g>
</svg>
