<svg xmlns="http://www.w3.org/2000/svg" width="18" height="18" viewBox="0 0 18 18">
  <g id="icon_18_reservation" transform="translate(-1.619 -2)">
    <rect id="사각형_582" data-name="사각형 582" width="18" height="18" transform="translate(1.619 2)" fill="none"/>
    <g id="그룹_2400" data-name="그룹 2400" transform="translate(-16.571 -17.483)">
      <path id="패스_734" data-name="패스 734" d="M63.656,58.319a4.095,4.095,0,1,1-4.037,4.095" transform="translate(-32.504 -30.315)" fill="none" stroke="#707070" stroke-miterlimit="10" stroke-width="1"/>
      <path id="패스_735" data-name="패스 735" d="M80.214,64.337v2.9H82.9" transform="translate(-49.062 -35.137)" fill="none" stroke="#707070" stroke-miterlimit="10" stroke-width="1"/>
      <path id="패스_736" data-name="패스 736" d="M31.154,29.087v4.544a4.067,4.067,0,0,0-4.037,4.095H20.752a1.569,1.569,0,0,1-1.559-1.581V29.087a1.569,1.569,0,0,1,1.559-1.58H29.6A1.569,1.569,0,0,1,31.154,29.087Z" transform="translate(-0.002 -5.627)" fill="none" stroke="#707070" stroke-miterlimit="10" stroke-width="1"/>
      <line id="선_471" data-name="선 471" y2="2.614" transform="translate(23.189 20.483)" fill="none" stroke="#707070" stroke-miterlimit="10" stroke-width="1"/>
      <line id="선_472" data-name="선 472" y2="2.614" transform="translate(27.249 20.483)" fill="none" stroke="#707070" stroke-miterlimit="10" stroke-width="1"/>
      <line id="선_473" data-name="선 473" x2="11.962" transform="translate(19.19 25.137)" fill="none" stroke="#707070" stroke-miterlimit="10" stroke-width="1"/>
    </g>
  </g>
</svg>
