<svg xmlns="http://www.w3.org/2000/svg" width="18" height="18" viewBox="0 0 18 18">
  <g id="icon_18_location" transform="translate(-75 -617)">
    <path id="패스_491" data-name="패스 491" d="M-770.9-437.215a5.485,5.485,0,0,0-5.479,5.479c0,2.781,4.384,8.811,4.885,9.489a.738.738,0,0,0,.594.3.74.74,0,0,0,.595-.3c.5-.678,4.884-6.707,4.884-9.489A5.485,5.485,0,0,0-770.9-437.215Zm.092,9a3.339,3.339,0,0,1-3.339-3.338,3.339,3.339,0,0,1,3.339-3.338,3.339,3.339,0,0,1,3.338,3.338A3.339,3.339,0,0,1-770.81-428.213Z" transform="translate(854.671 1055.353)" fill="none" stroke="#707070" stroke-miterlimit="10" stroke-width="1"/>
    <rect id="사각형_620" data-name="사각형 620" width="18" height="18" transform="translate(75 617)" fill="none"/>
  </g>
</svg>
