<svg xmlns="http://www.w3.org/2000/svg" width="167" height="68" viewBox="0 0 167 68">
  <g id="그룹_1961" data-name="그룹 1961" transform="translate(21013 20564)">
    <g id="digitalplaza_header_1_map_active" transform="translate(-21045 -20632)">
      <g id="그룹_1" data-name="그룹 1" transform="translate(37 72)">
        <path id="패스_6" data-name="패스 6" d="M-1081.095-268.885l-5.116-2.325-8.061,2.325-4.728-2.325V-284l4.883,2.325,7.906-2.325,5.116,2.325Z" transform="translate(1099 284)" fill="none" stroke="#1327a0" stroke-miterlimit="10" stroke-width="1.2"/>
        <path id="패스_7" data-name="패스 7" d="M-1092.182-271.61l7.906-2.325,5.116,2.325" transform="translate(1097.065 281.144)" fill="none" stroke="#1327a0" stroke-miterlimit="10" stroke-width="1.2"/>
        <line id="선_1" data-name="선 1" x2="4.883" y2="2.325" transform="translate(0 5.813)" fill="none" stroke="#1327a0" stroke-miterlimit="10" stroke-width="1.2"/>
        <line id="선_2" data-name="선 2" y2="12.789" transform="translate(4.883 2.325)" fill="none" stroke="#1327a0" stroke-miterlimit="10" stroke-width="1.2"/>
        <line id="선_3" data-name="선 3" y1="12.789" transform="translate(12.79)" fill="none" stroke="#1327a0" stroke-miterlimit="10" stroke-width="1.2"/>
        <line id="선_4" data-name="선 4" y2="5.581" transform="translate(8.836 8.371)" fill="none" stroke="#1327a0" stroke-miterlimit="10" stroke-width="1.2"/>
      </g>
      <rect id="사각형_1483" data-name="사각형 1483" width="28" height="24" transform="translate(32 68)" fill="none"/>
    </g>
    <g id="digitalplaza_header_2_store_active" transform="translate(-21088 -20632)">
      <g id="그룹_2" data-name="그룹 2" transform="translate(125 72)">
        <rect id="사각형_3" data-name="사각형 3" width="17.505" height="14.75" transform="translate(1.621)" fill="none" stroke="#1327a0" stroke-miterlimit="10" stroke-width="1.2"/>
        <line id="선_5" data-name="선 5" x2="20.747" transform="translate(0 14.75)" fill="none" stroke="#1327a0" stroke-miterlimit="10" stroke-width="1.2"/>
        <rect id="사각형_4" data-name="사각형 4" width="3.566" height="5.349" transform="translate(8.59 9.401)" fill="none" stroke="#1327a0" stroke-miterlimit="10" stroke-width="1.2"/>
        <line id="선_6" data-name="선 6" x2="17.505" transform="translate(1.621 6.483)" fill="none" stroke="#1327a0" stroke-miterlimit="10" stroke-width="1.2"/>
        <line id="선_7" data-name="선 7" y2="6.483" transform="translate(10.373)" fill="none" stroke="#1327a0" stroke-miterlimit="10" stroke-width="1.2"/>
        <line id="선_8" data-name="선 8" y2="14.75" transform="translate(15.236)" fill="none" stroke="#1327a0" stroke-miterlimit="10" stroke-width="1.2"/>
        <line id="선_9" data-name="선 9" y2="14.75" transform="translate(5.673)" fill="none" stroke="#1327a0" stroke-miterlimit="10" stroke-width="1.2"/>
        <rect id="사각형_5" data-name="사각형 5" width="4.538" height="1.459" transform="translate(3.728 2.755)" fill="#1327a0" stroke="#1327a0" stroke-miterlimit="10" stroke-width="1.2"/>
      </g>
      <rect id="사각형_1484" data-name="사각형 1484" width="28" height="24" transform="translate(121 68)" fill="none"/>
    </g>
    <g id="digitalplaza_header_3_servicecenter_active" transform="translate(-21131 -20632)">
      <g id="그룹_3" data-name="그룹 3" transform="translate(215.284 70)">
        <path id="패스_8" data-name="패스 8" stroke="#1327a0" d="M-1014.069-272.687l7.488,7.488a2.392,2.392,0,0,0,3.382,0h0a2.392,2.392,0,0,0,0-3.382l-7.488-7.488,0,0a5.808,5.808,0,0,0-1.328-6.158,5.809,5.809,0,0,0-6.159-1.328h0l2.536,2.536a2.392,2.392,0,0,1,0,3.382h0a2.392,2.392,0,0,1-3.382,0l-2.536-2.536h0a5.809,5.809,0,0,0,1.328,6.159,5.807,5.807,0,0,0,6.167,1.324" fill="none" transform="translate(1021.93 283.93)" stroke-linecap="round" stroke-linejoin="round" stroke-width="1.2" fill-rule="evenodd"/>
        <circle id="타원_1" data-name="타원 1" cx="0.4" cy="0.4" r="0.4" transform="translate(16.667 16.667)" stroke-width="1.2" stroke="#1327a0" stroke-linecap="round" stroke-linejoin="round" fill="#fff"/>
      </g>
      <rect id="사각형_1485" data-name="사각형 1485" width="28" height="24" transform="translate(211 68)" fill="none"/>
    </g>
    <g id="digitalplaza_header_4_search_active" transform="translate(-21175 -20632)">
      <g id="그룹_4" data-name="그룹 4" transform="translate(305.889 71)">
        <circle id="타원_2" data-name="타원 2" cx="6.861" cy="6.861" r="6.861" stroke-width="1.2" stroke="#1327a0" stroke-linecap="round" stroke-linejoin="round" fill="none"/>
        <line id="선_10" data-name="선 10" x2="6.322" y2="6.322" transform="translate(11.713 11.713)" fill="none" stroke="#1327a0" stroke-linecap="round" stroke-linejoin="round" stroke-width="1.2"/>
      </g>
      <rect id="사각형_1486" data-name="사각형 1486" width="28" height="24" transform="translate(301 68)" fill="none"/>
    </g>
    <g id="digitalplaza_header_1_map" transform="translate(-21045 -20588)">
      <g id="그룹_1-2" data-name="그룹 1" transform="translate(37 72)">
        <path id="패스_6-2" data-name="패스 6" d="M-1081.095-268.885l-5.116-2.325-8.061,2.325-4.728-2.325V-284l4.883,2.325,7.906-2.325,5.116,2.325Z" transform="translate(1099 284)" fill="none" stroke="#fff" stroke-miterlimit="10" stroke-width="1"/>
        <path id="패스_7-2" data-name="패스 7" d="M-1092.182-271.61l7.906-2.325,5.116,2.325" transform="translate(1097.065 281.144)" fill="none" stroke="#fff" stroke-miterlimit="10" stroke-width="1"/>
        <line id="선_1-2" data-name="선 1" x2="4.883" y2="2.325" transform="translate(0 5.813)" fill="none" stroke="#fff" stroke-miterlimit="10" stroke-width="1"/>
        <line id="선_2-2" data-name="선 2" y2="12.789" transform="translate(4.883 2.325)" fill="none" stroke="#fff" stroke-miterlimit="10" stroke-width="1"/>
        <line id="선_3-2" data-name="선 3" y1="12.789" transform="translate(12.79)" fill="none" stroke="#fff" stroke-miterlimit="10" stroke-width="1"/>
        <line id="선_4-2" data-name="선 4" y2="5.581" transform="translate(8.836 8.371)" fill="none" stroke="#fff" stroke-miterlimit="10" stroke-width="1"/>
      </g>
      <rect id="사각형_1483-2" data-name="사각형 1483" width="28" height="24" transform="translate(32 68)" fill="none"/>
    </g>
    <g id="digitalplaza_header_2_store" transform="translate(-21088 -20588)">
      <g id="그룹_2-2" data-name="그룹 2" transform="translate(125 72)">
        <rect id="사각형_3-2" data-name="사각형 3" width="17.505" height="14.75" transform="translate(1.621)" fill="none" stroke="#fff" stroke-miterlimit="10" stroke-width="1"/>
        <line id="선_5-2" data-name="선 5" x2="20.747" transform="translate(0 14.75)" fill="none" stroke="#fff" stroke-miterlimit="10" stroke-width="1"/>
        <rect id="사각형_4-2" data-name="사각형 4" width="3.566" height="5.349" transform="translate(8.59 9.401)" fill="none" stroke="#fff" stroke-miterlimit="10" stroke-width="1"/>
        <line id="선_6-2" data-name="선 6" x2="17.505" transform="translate(1.621 6.483)" fill="none" stroke="#fff" stroke-miterlimit="10" stroke-width="1"/>
        <line id="선_7-2" data-name="선 7" y2="6.483" transform="translate(10.373)" fill="none" stroke="#fff" stroke-miterlimit="10" stroke-width="1"/>
        <line id="선_8-2" data-name="선 8" y2="14.75" transform="translate(15.236)" fill="none" stroke="#fff" stroke-miterlimit="10" stroke-width="1"/>
        <line id="선_9-2" data-name="선 9" y2="14.75" transform="translate(5.673)" fill="none" stroke="#fff" stroke-miterlimit="10" stroke-width="1"/>
        <rect id="사각형_5-2" data-name="사각형 5" width="4.538" height="1.459" transform="translate(3.728 2.755)" fill="#fff" stroke="#fff" stroke-miterlimit="10" stroke-width="1"/>
      </g>
      <rect id="사각형_1484-2" data-name="사각형 1484" width="28" height="24" transform="translate(121 68)" fill="none"/>
    </g>
    <g id="digitalplaza_header_3_servicecenter" transform="translate(-21131 -20588)">
      <g id="그룹_3-2" data-name="그룹 3" transform="translate(215.284 70)">
        <path id="패스_8-2" data-name="패스 8" stroke="#fff" d="M-1014.069-272.687l7.488,7.488a2.392,2.392,0,0,0,3.382,0h0a2.392,2.392,0,0,0,0-3.382l-7.488-7.488,0,0a5.808,5.808,0,0,0-1.328-6.158,5.809,5.809,0,0,0-6.159-1.328h0l2.536,2.536a2.392,2.392,0,0,1,0,3.382h0a2.392,2.392,0,0,1-3.382,0l-2.536-2.536h0a5.809,5.809,0,0,0,1.328,6.159,5.807,5.807,0,0,0,6.167,1.324" fill="none" transform="translate(1021.93 283.93)" stroke-linecap="round" stroke-linejoin="round" stroke-width="1" fill-rule="evenodd"/>
        <circle id="타원_1-2" data-name="타원 1" cx="0.4" cy="0.4" r="0.4" transform="translate(16.667 16.667)" stroke-width="1" stroke="#fff" stroke-linecap="round" stroke-linejoin="round" fill="#fff"/>
      </g>
      <rect id="사각형_1485-2" data-name="사각형 1485" width="28" height="24" transform="translate(211 68)" fill="none"/>
    </g>
    <g id="digitalplaza_header_4_search" transform="translate(-21175 -20588)">
      <g id="그룹_4-2" data-name="그룹 4" transform="translate(305.889 71)">
        <circle id="타원_2-2" data-name="타원 2" cx="6.861" cy="6.861" r="6.861" stroke-width="1" stroke="#fff" stroke-linecap="round" stroke-linejoin="round" fill="none"/>
        <line id="선_10-2" data-name="선 10" x2="6.322" y2="6.322" transform="translate(11.713 11.713)" fill="none" stroke="#fff" stroke-linecap="round" stroke-linejoin="round" stroke-width="1"/>
      </g>
      <rect id="사각형_1486-2" data-name="사각형 1486" width="28" height="24" transform="translate(301 68)" fill="none"/>
    </g>
  </g>
</svg>
