<svg xmlns="http://www.w3.org/2000/svg" width="55" height="48" viewBox="0 0 55 48">
  <g id="그룹_2225" data-name="그룹 2225" transform="translate(-531 -1161)">
    <g id="그룹_2191" data-name="그룹 2191" transform="translate(539.989 1163)">
      <g id="그룹_2190" data-name="그룹 2190" transform="translate(0 7)">
        <g id="그룹_2189" data-name="그룹 2189">
          <path id="패스_711" data-name="패스 711" d="M1707-918a18.5,18.5,0,0,0-18.5,18.5A18.5,18.5,0,0,0,1707-881a18.5,18.5,0,0,0,18.5-18.5A18.5,18.5,0,0,0,1707-918Zm0,33.5a15,15,0,0,1-15-15,15,15,0,0,1,15-15,15,15,0,0,1,15,15A15,15,0,0,1,1707-884.5Z" transform="translate(-1688.5 918)" fill="#dadada"/>
        </g>
      </g>
      <path id="패스_712" data-name="패스 712" d="M1712-925h-9l-2,3h13Z" transform="translate(-1688.5 925)" fill="#9bc1e3"/>
      <path id="패스_713" data-name="패스 713" d="M1704-925h-1l-2,3h5Z" transform="translate(-1688.5 925)" fill="#bad5f5"/>
      <path id="패스_714" data-name="패스 714" d="M1712-925h-1l-2,3h5Z" transform="translate(-1688.5 925)" fill="#bad5f5"/>
      <path id="패스_715" data-name="패스 715" d="M1714-922h-13l3,3h7Z" transform="translate(-1688.5 925)" fill="#6195ce"/>
      <path id="패스_716" data-name="패스 716" d="M1709-917h-3l-2-2h7Z" transform="translate(-1688.5 925)" fill="#dadada"/>
      <path id="패스_717" data-name="패스 717" d="M1707-919h1l1-3h-3Z" transform="translate(-1688.5 925)" fill="#546d81"/>
    </g>
    <rect id="사각형_1714" data-name="사각형 1714" width="55" height="48" transform="translate(531 1161)" fill="none" opacity="0.13"/>
  </g>
</svg>
