<?xml version="1.0" encoding="utf-8"?>
<!-- Generator: Adobe Illustrator 26.3.1, SVG Export Plug-In . SVG Version: 6.00 Build 0)  -->
<svg version="1.1" id="Layer_1" xmlns="http://www.w3.org/2000/svg" xmlns:xlink="http://www.w3.org/1999/xlink" x="0px" y="0px"
	 viewBox="0 0 40 40" style="enable-background:new 0 0 40 40;" xml:space="preserve">
<style type="text/css">
	.st0{fill:#1C99DB;}
	.st1{fill:#FFFFFF;}
</style>
<path class="st0" d="M20.2,37c-4.4,0-8.6-1.7-11.7-4.8s-4.8-7.3-4.8-11.7s1.7-8.6,4.8-11.7S15.8,4,20.2,4s8.6,1.7,11.7,4.8
	c3.1,3.1,4.8,7.3,4.8,11.7s-1.7,8.6-4.8,11.7C28.7,35.3,24.6,37,20.2,37z"/>
<g>
	<path id="패스_1039" class="st1" d="M27.3,13.5c-0.7,0-1.3,0.6-1.3,1.3v4.8c0,0,0,0.1,0,0.1v1.6c0,1.4-1.1,2.5-2.5,2.5
		c-0.7,0-1.4-0.3-1.9-0.9c-0.9,1-2.5,1.1-3.6,0.2c-0.5-0.5-0.9-1.2-0.9-1.9v-1.6c0,0,0-0.1,0-0.1v-7.3c0-0.7-0.6-1.3-1.3-1.3
		c-0.7,0-1.3,0.6-1.3,1.3v11l-2.4-2.4c-0.6-0.6-1.6-0.6-2.2,0c-0.6,0.6-0.6,1.6,0,2.2l4.5,4.5c1.5,1.5,3.5,2.3,5.6,2.3h1.5
		c3.8,0,6.9-3.1,6.9-6.9v-8.2C28.6,14.1,28,13.5,27.3,13.5"/>
	<path id="패스_1045" class="st1" d="M21,21.2v-3.2c0,0,0-0.1,0-0.1v-1.1c0,0,0-0.1,0-0.1c0,0,0-0.1,0-0.1c0,0,0-0.1,0-0.1
		c0-0.1,0-0.1-0.1-0.2c0,0,0-0.1-0.1-0.1l0-0.1c-0.1-0.1-0.2-0.2-0.3-0.3l-0.1,0c0,0-0.1,0-0.1-0.1c-0.1,0-0.1,0-0.2-0.1
		c0,0-0.1,0-0.1,0c0,0-0.1,0-0.1,0c-0.7-0.1-1.3,0.4-1.4,1.1c0,0,0,0.1,0,0.1v4.3c0,0.7,0.6,1.3,1.3,1.3c0.3,0,0.7-0.1,0.9-0.4
		l0-0.1c0,0,0-0.1,0.1-0.1l0,0c0.1-0.1,0.1-0.2,0.2-0.4c0,0,0-0.1,0-0.1C21,21.4,21,21.4,21,21.2C21,21.3,21,21.3,21,21.2"/>
	<path id="패스_1046" class="st1" d="M24.7,17.7c0-0.1-0.1-0.2-0.1-0.2c0,0,0-0.1-0.1-0.1c-0.4-0.6-1.2-0.7-1.7-0.3
		c-0.3,0.2-0.6,0.6-0.6,1v3.2c0,0.7,0.6,1.3,1.3,1.3c0,0,0,0,0,0c0,0,0.1,0,0.1,0c0,0,0.1,0,0.1,0c0,0,0.1,0,0.1,0
		c0.1,0,0.1,0,0.2-0.1c0,0,0.1,0,0.1-0.1l0.1,0c0.1-0.1,0.2-0.2,0.3-0.3l0-0.1c0,0,0-0.1,0.1-0.1c0-0.1,0-0.1,0.1-0.2
		c0,0,0-0.1,0-0.1c0,0,0-0.1,0-0.1c0,0,0-0.1,0-0.1v-3.2C24.8,18,24.8,17.8,24.7,17.7"/>
</g>
</svg>
