<svg xmlns="http://www.w3.org/2000/svg" xmlns:xlink="http://www.w3.org/1999/xlink" width="72" height="35" viewBox="0 0 72 35">
  <defs>
    <linearGradient id="linear-gradient" x1="0.5" x2="0.5" y2="1" gradientUnits="objectBoundingBox">
      <stop offset="0" stop-color="#42c5fd"/>
      <stop offset="1" stop-color="#21637f"/>
    </linearGradient>
    <clipPath id="clip-path">
      <path id="패스_2129" data-name="패스 2129" d="M633.494,628.816l-10.2-.014a2.118,2.118,0,0,1-2.208,2.014c-.041,0,.036,0,0-.006a2.1,2.1,0,0,1-2.088-2.008H573.719a1.177,1.177,0,0,0-1.227,1.119v29.762a1.177,1.177,0,0,0,1.227,1.119h45.275a2.1,2.1,0,0,1,2.088-2.009c.04,0-.037-.005,0-.005a2.118,2.118,0,0,1,2.208,2.014l10.2.014a1.177,1.177,0,0,0,1.227-1.119V629.935A1.177,1.177,0,0,0,633.494,628.816Z" transform="translate(-572.492 -628.802)" fill="url(#linear-gradient)"/>
    </clipPath>
    <linearGradient id="linear-gradient-2" x1="0.5" x2="0.5" y2="1" gradientUnits="objectBoundingBox">
      <stop offset="0" stop-color="#5b88ff"/>
      <stop offset="1" stop-color="#8b7bff"/>
    </linearGradient>
  </defs>
  <g id="coupon" transform="translate(-16 -694)">
    <g id="coupon-2" data-name="coupon" transform="translate(-196 710.755)">
      <g id="coupon-3" data-name="coupon" transform="translate(212 -16.755)">
        <g id="마스크_그룹_103" data-name="마스크 그룹 103" transform="translate(0 0)" clip-path="url(#clip-path)">
          <g id="coupon-cart-type-02" transform="translate(0 0)">
            <path id="패스_2129-2" data-name="패스 2129" d="M347.257,314.4l-10.313-.012c0,1.111-.665,1.32-1.959,1.321-.043,0-.192,0-.234,0a1.319,1.319,0,0,1-1.257-1.321l-45.948.012a1.219,1.219,0,0,0-1.3,1.119v29.762a1.219,1.219,0,0,0,1.3,1.119h45.808c0-1.068.02-1.19,1.261-1.249.043,0,.113,0,.156,0,1.293,0,2.158.071,2.157,1.182l10.329.067a1.22,1.22,0,0,0,1.3-1.119V315.519A1.219,1.219,0,0,0,347.257,314.4Z" transform="translate(-286.246 -314.4)" fill="url(#linear-gradient-2)"/>
            <path id="패스_2128" data-name="패스 2128" d="M387.626,344.386c1.26,0-.461.9-.461,2.014H399.8a1.2,1.2,0,0,0,1.267-1.119V315.519A1.2,1.2,0,0,0,399.8,314.4l-10.735-.312c0,1.112-.175,2.326-1.435,2.326-.042,0-.083,0-.125-.006v27.983C387.543,344.39,387.584,344.386,387.626,344.386Z" transform="translate(-338.754 -314.4)" fill="#1964c5" opacity="0.3" style="mix-blend-mode: multiply;isolation: isolate"/>
          </g>
        </g>
        <line id="선_510" data-name="선 510" y2="23.709" transform="translate(48.8 5.791)" fill="none" stroke="#fff" stroke-width="1" stroke-dasharray="3 3" opacity="0.3"/>
      </g>
      <text id="앱전용" transform="translate(222.468 3.752)" fill="#5968ed" font-size="12" font-family="SamsungOneKorean-700, 'SamsungOneKorean \37 00'" font-weight="700" opacity="0.42" style="mix-blend-mode: multiply;isolation: isolate"><tspan x="0" y="0">앱전용</tspan></text>
      <text id="앱전용-2" data-name="앱전용" transform="translate(221 2.752)" fill="#fff" font-size="12" font-family="SamsungOneKorean-700, 'SamsungOneKorean \37 00'" font-weight="700"><tspan x="0" y="0">앱전용</tspan></text>
    </g>
    <g id="_" data-name="%" transform="translate(71.065 714.065)">
      <g id="타원_163" data-name="타원 163" transform="translate(-3.065 -5.065)" fill="#fff" stroke="#5469ed" stroke-width="1">
        <circle cx="10" cy="10" r="10" stroke="none"/>
        <circle cx="10" cy="10" r="9.5" fill="none"/>
      </g>
      <text id="_2" data-name="%" transform="translate(1.435 9.435)" fill="#5469ed" stroke="#5469ed" stroke-width="0.5" font-size="12" font-family="SamsungOneKorean-700, 'SamsungOneKorean \37 00'" font-weight="700"><tspan x="0" y="0">%</tspan></text>
    </g>
  </g>
</svg>
